<?xml version="1.0" encoding="UTF-8" standalone="no"?>
<svg
   xmlns:dc="http://purl.org/dc/elements/1.1/"
   xmlns:cc="http://creativecommons.org/ns#"
   xmlns:rdf="http://www.w3.org/1999/02/22-rdf-syntax-ns#"
   xmlns:svg="http://www.w3.org/2000/svg"
   xmlns="http://www.w3.org/2000/svg"
   xmlns:sodipodi="http://sodipodi.sourceforge.net/DTD/sodipodi-0.dtd"
   xmlns:inkscape="http://www.inkscape.org/namespaces/inkscape"
   version="1.1"
   x="0px"
   y="0px"
   viewBox="0 0 18.835207 17.044693"
   xml:space="preserve"
   id="svg2"
   inkscape:version="0.91 r13725"
   sodipodi:docname="info.svg"
   width="18.835207"
   height="17.044693"><metadata
     id="metadata20"><rdf:RDF><cc:Work
         rdf:about=""><dc:format>image/svg+xml</dc:format><dc:type
           rdf:resource="http://purl.org/dc/dcmitype/StillImage" /><dc:title></dc:title></cc:Work></rdf:RDF></metadata><defs
     id="defs18" /><sodipodi:namedview
     pagecolor="#ffffff"
     bordercolor="#666666"
     borderopacity="1"
     objecttolerance="10"
     gridtolerance="10"
     guidetolerance="10"
     inkscape:pageopacity="0"
     inkscape:pageshadow="2"
     inkscape:window-width="1920"
     inkscape:window-height="1016"
     id="namedview16"
     showgrid="false"
     fit-margin-top="0"
     fit-margin-left="0"
     fit-margin-right="0"
     fit-margin-bottom="0"
     inkscape:zoom="5.3400704"
     inkscape:cx="32.187162"
     inkscape:cy="-31.807792"
     inkscape:window-x="0"
     inkscape:window-y="27"
     inkscape:window-maximized="1"
     inkscape:current-layer="svg2" /><g
     id="g4"
     style="fill:#d4aa00;fill-opacity:1"
     transform="matrix(0.24738306,0,0,0.24738306,-2.9314893,-3.8591757)"><path
       d="m 57,19.6 c -1.4,-2.5 -4,-4 -7,-4 -3,0 -5.5,1.5 -7,4 L 12.9,72.5 c -1.4,2.5 -1.4,5.5 0,8 1.4,2.5 4,4 6.9,4 l 60.2,0 c 2.9,0 5.5,-1.5 6.9,-4 1.4,-2.5 1.5,-5.5 0,-8 L 57,19.6 Z M 19.9,76.5 c 0,0 0,0 0,0 L 50,23.5 80.1,76.4 19.9,76.5 Z"
       id="path6"
       style="fill:#d4aa00;fill-opacity:1"
       inkscape:connector-curvature="0" /><path
       d="m 46.4,40.9 0,14 c 0,2.2 1.8,4 4,4 2.2,0 4,-1.8 4,-4 l 0,-14 c 0,-2.2 -1.8,-4 -4,-4 -2.2,0 -4,1.8 -4,4 z"
       id="path8"
       style="fill:#d4aa00;fill-opacity:1"
       inkscape:connector-curvature="0" /><path
       d="m 50.4,60.9 c -2.2,0 -4,1.8 -4,4 l 0,3 c 0,2.2 1.8,4 4,4 2.2,0 4,-1.8 4,-4 l 0,-3 c 0,-2.2 -1.8,-4 -4,-4 z"
       id="path10"
       style="fill:#d4aa00;fill-opacity:1"
       inkscape:connector-curvature="0" /></g></svg>