<?xml version="1.0" encoding="UTF-8" standalone="no"?>
<!-- Created with Inkscape (http://www.inkscape.org/) -->

<svg
   xmlns:dc="http://purl.org/dc/elements/1.1/"
   xmlns:cc="http://creativecommons.org/ns#"
   xmlns:rdf="http://www.w3.org/1999/02/22-rdf-syntax-ns#"
   xmlns:svg="http://www.w3.org/2000/svg"
   xmlns="http://www.w3.org/2000/svg"
   xmlns:sodipodi="http://sodipodi.sourceforge.net/DTD/sodipodi-0.dtd"
   xmlns:inkscape="http://www.inkscape.org/namespaces/inkscape"
   width="45.771507mm"
   height="17.181688mm"
   viewBox="0 0 162.18251 60.879998"
   id="svg2"
   version="1.1"
   inkscape:version="0.91 r13725"
   sodipodi:docname="logo.svg">
  <defs
     id="defs4" />
  <sodipodi:namedview
     id="base"
     pagecolor="#ffffff"
     bordercolor="#666666"
     borderopacity="1.0"
     inkscape:pageopacity="0.0"
     inkscape:pageshadow="2"
     inkscape:zoom="2.8"
     inkscape:cx="78.33179"
     inkscape:cy="-46.273529"
     inkscape:document-units="px"
     inkscape:current-layer="g4245"
     showgrid="false"
     fit-margin-top="0"
     fit-margin-left="0"
     fit-margin-right="0"
     fit-margin-bottom="0"
     inkscape:window-width="1920"
     inkscape:window-height="1016"
     inkscape:window-x="0"
     inkscape:window-y="27"
     inkscape:window-maximized="1" />
  <metadata
     id="metadata7">
    <rdf:RDF>
      <cc:Work
         rdf:about="">
        <dc:format>image/svg+xml</dc:format>
        <dc:type
           rdf:resource="http://purl.org/dc/dcmitype/StillImage" />
        <dc:title></dc:title>
      </cc:Work>
    </rdf:RDF>
  </metadata>
  <g
     inkscape:groupmode="layer"
     id="layer3"
     inkscape:label="background"
     style="display:none"
     transform="translate(2.357146,2.3571681)">
    <rect
       style="fill:#00d1b2;fill-opacity:1;stroke:none;stroke-width:20;stroke-linecap:butt;stroke-linejoin:miter;stroke-miterlimit:4;stroke-dasharray:none;stroke-opacity:1"
       id="rect4243"
       width="288.21429"
       height="98.928566"
       x="-63.571426"
       y="-21.977146" />
  </g>
  <g
     inkscape:label="Text"
     inkscape:groupmode="layer"
     id="layer1"
     transform="translate(-208.93455,-90.312629)"
     style="display:none">
    <flowRoot
       xml:space="preserve"
       id="flowRoot4136"
       style="font-style:normal;font-weight:normal;font-size:40px;line-height:125%;font-family:sans-serif;letter-spacing:2px;word-spacing:0px;fill:#d2165e;fill-opacity:1;stroke:none;stroke-width:1px;stroke-linecap:butt;stroke-linejoin:miter;stroke-opacity:1"
       transform="translate(175.76654,-19.192898)"><flowRegion
         id="flowRegion4138"><rect
           id="rect4140"
           width="662.85712"
           height="248.57143"
           x="34.285713"
           y="112.36221"
           style="fill:#d2165e;fill-opacity:1" /></flowRegion><flowPara
         id="flowPara4142"
         style="font-style:normal;font-variant:normal;font-weight:normal;font-stretch:normal;font-family:Pacifico;-inkscape-font-specification:Pacifico;fill:#d2165e;fill-opacity:1">Example</flowPara></flowRoot>  </g>
  <g
     style="display:inline"
     inkscape:label="Stroke"
     id="g4245"
     inkscape:groupmode="layer"
     transform="translate(2.357146,2.3571681)">
    <g
       id="g4247"
       style="font-style:normal;font-weight:normal;font-size:40px;line-height:125%;font-family:sans-serif;letter-spacing:2px;word-spacing:0px;display:inline;fill:#ffffff;fill-opacity:1;stroke:#ffffff;stroke-width:5;stroke-linecap:butt;stroke-linejoin:miter;stroke-miterlimit:4;stroke-dasharray:none;stroke-opacity:1"
       transform="translate(-35.382302,-111.71986)">
      <path
         inkscape:connector-curvature="0"
         id="path4249"
         style="font-style:normal;font-variant:normal;font-weight:normal;font-stretch:normal;font-family:Pacifico;-inkscape-font-specification:Pacifico;fill:#ffffff;fill-opacity:1;stroke:#ffffff;stroke-width:5;stroke-miterlimit:4;stroke-dasharray:none;stroke-opacity:1"
         d="m 64.485156,142.18269 q 0.6,-0.24 1,-0.24 0.64,0 0.96,0.48 0.32,0.48 0.32,1.24 0,1.2 -0.6,2.04 -0.56,0.84 -1.96,1.52 -2.36,1.12 -6.12,1.8 -3.76,0.64 -7.4,0.64 -5.04,0 -8.44,-1.12 -3.4,-1.16 -5.08,-3.16 -1.64,-2 -1.64,-4.52 0,-3.44 2.2,-5.84 2.24,-2.44 6.56,-3.52 -2.36,-0.68 -3.64,-2.4 -1.24,-1.72 -1.24,-3.84 0,-2.88 1.8,-5.08 1.84,-2.24 4.92,-3.44 3.08,-1.2 6.76,-1.2 4.96,0 7.44,2.16 2.48,2.12 2.48,5.52 0,2.36 -0.88,3.84 -0.84,1.44 -2.44,1.44 -1.12,0 -1.76,-0.48 -0.64,-0.52 -0.64,-1.52 0,-0.68 0.2,-1.48 0.2,-1.32 0.2,-1.8 0,-1.44 -1.08,-2.32 -1.08,-0.92 -3.6,-0.92 -3.4,0 -5.44,1.44 -2.04,1.44 -2.04,3.88 0,1.88 1.52,3.12 1.56,1.2 5.04,1.32 0.88,0.04 1.24,0.4 0.36,0.36 0.36,1.2 0,2.64 -2.4,2.68 -3.32,0.08 -5.52,0.92 -2.16,0.84 -3.16,2.16 -0.96,1.28 -0.96,2.76 0,2.48 2.32,3.76 2.32,1.24 7.36,1.24 3.32,0 7,-0.76 3.72,-0.8 6.36,-1.92 z" />
      <path
         inkscape:connector-curvature="0"
         id="path4251"
         style="font-style:normal;font-variant:normal;font-weight:normal;font-stretch:normal;font-family:Pacifico;-inkscape-font-specification:Pacifico;fill:#ffffff;fill-opacity:1;stroke:#ffffff;stroke-width:5;stroke-miterlimit:4;stroke-dasharray:none;stroke-opacity:1"
         d="m 88.907031,140.54269 q 0.52,0 0.8,0.48 0.32,0.48 0.32,1.32 0,1.6 -0.76,2.48 -1.76,2.08 -3.88,3.48 -2.08,1.36 -4.72,1.36 -2.04,0 -3.64,-0.76 -1.56,-0.76 -2.48,-2.16 -2.28,2.88 -5.4,2.88 -2.2,0 -3.48,-1.28 -1.28,-1.28 -1.28,-3.4 0,-2 0.92,-3.24 0.92,-1.24 2.6,-1.24 1.44,0 1.44,1.08 0,0.28 -0.08,1 -0.12,1.44 -0.12,1.64 0,1.2 1.04,1.2 0.76,0 1.44,-0.88 0.72,-0.92 1.16,-2.48 0.48,-1.56 0.48,-3.44 0,-1.44 -0.36,-2.4 -0.36,-1 -0.88,-1 -0.44,0 -0.64,0.24 -0.2,0.2 -0.4,0.72 -0.24,0.64 -0.64,1.04 -0.4,0.36 -1.4,0.36 -0.88,0 -1.4,-0.6 -0.52,-0.64 -0.52,-1.92 0,-2.04 1.24,-3.2 1.24,-1.16 3.2,-1.16 1.68,0 3.04,0.84 1.36,0.8 2.08,2.36 1.2,-1.6 2.68,-2.4 1.52,-0.8 2.96,-0.8 1.56,0 2.36,0.72 0.84,0.72 0.84,2.32 0,1.8 -0.68,2.84 -0.68,1 -1.64,1 -0.88,0 -1.2,-0.36 -0.32,-0.36 -0.48,-1.04 -0.08,-0.48 -0.24,-0.72 -0.16,-0.24 -0.56,-0.24 -0.48,0 -1.04,0.92 -0.52,0.88 -0.92,2.36 -0.36,1.48 -0.36,3.08 0,1.88 0.88,2.92 0.92,1 2.48,1 1.56,0 2.92,-1.04 1.4,-1.08 3.24,-3.32 0.48,-0.56 1.08,-0.56 z" />
      <path
         inkscape:connector-curvature="0"
         id="path4253"
         style="font-style:normal;font-variant:normal;font-weight:normal;font-stretch:normal;font-family:Pacifico;-inkscape-font-specification:Pacifico;fill:#ffffff;fill-opacity:1;stroke:#ffffff;stroke-width:5;stroke-miterlimit:4;stroke-dasharray:none;stroke-opacity:1"
         d="m 93.328281,149.66269 q -2.48,0 -3.96,-1.8 -1.48,-1.8 -1.48,-4.72 0,-3.2 1.48,-6.04 1.48,-2.88 3.92,-4.6 2.48,-1.76 5.24,-1.76 0.88,0 1.16,0.36 0.319999,0.32 0.519999,1.2 0.84,-0.16 1.76,-0.16 1.96,0 1.96,1.4 0,0.84 -0.6,4 -0.92,4.6 -0.92,6.4 0,0.6 0.28,0.96 0.32,0.36 0.8,0.36 0.76,0 1.84,-0.96 1.08,-1 2.92,-3.2 0.48,-0.56 1.08,-0.56 0.52,0 0.8,0.48 0.32,0.48 0.32,1.32 0,1.6 -0.76,2.48 -1.64,2.04 -3.48,3.44 -1.84,1.4 -3.56,1.4 -1.32,0 -2.44,-0.88 -1.079999,-0.92 -1.639999,-2.48 -2.08,3.36 -5.24,3.36 z m 1.44,-4.04 q 0.88,0 1.68,-1.04 0.8,-1.04 1.16,-2.76 l 1.48,-7.36 q -1.68,0.04 -3.12,1.28 -1.4,1.2 -2.24,3.2 -0.84,2 -0.84,4.24 0,1.24 0.48,1.84 0.52,0.6 1.4,0.6 z" />
      <path
         inkscape:connector-curvature="0"
         id="path4255"
         style="font-style:normal;font-variant:normal;font-weight:normal;font-stretch:normal;font-family:Pacifico;-inkscape-font-specification:Pacifico;fill:#ffffff;fill-opacity:1;stroke:#ffffff;stroke-width:5;stroke-miterlimit:4;stroke-dasharray:none;stroke-opacity:1"
         d="m 112.07641,149.66269 q -1.52,0 -2.16,-1.6 -0.6,-1.6 -0.6,-5.12 0,-5.2 1.48,-9.88 0.36,-1.16 1.16,-1.68 0.84,-0.56 2.32,-0.56 0.8,0 1.12,0.2 0.32,0.2 0.32,0.76 0,0.64 -0.6,2.88 -0.4,1.6 -0.64,2.8 -0.24,1.16 -0.4,2.92 1.08,-3.12 2.56,-5.28 1.52,-2.16 3.08,-3.2 1.6,-1.08 3,-1.08 1.4,0 1.96,0.64 0.6,0.64 0.6,1.96 0,1.28 -0.76,4.64 -0.32,1.44 -0.44,2.16 2,-4.92 4.44,-7.16 2.44,-2.24 4.56,-2.24 2.6,0 2.6,2.6 0,1.56 -0.88,5.64 -0.76,3.48 -0.76,4.6 0,1.6 1.16,1.6 0.8,0 1.88,-0.96 1.12,-1 2.96,-3.2 0.48,-0.56 1.08,-0.56 0.52,0 0.8,0.48 0.32,0.48 0.32,1.32 0,1.6 -0.76,2.48 -1.72,2.12 -3.72,3.48 -1.96,1.36 -4.48,1.36 -2.04,0 -3.08,-1.16 -1.04,-1.2 -1.04,-3.44 0,-1.12 0.56,-4 0.52,-2.52 0.52,-3.48 0,-0.64 -0.44,-0.64 -0.52,0 -1.48,1.36 -0.96,1.32 -1.92,3.52 -0.96,2.2 -1.56,4.64 -0.44,1.92 -1.04,2.56 -0.56,0.64 -1.84,0.64 -1.32,0 -2,-1.24 -0.64,-1.28 -0.64,-3.08 0,-1.52 0.4,-4.4 0.32,-2.56 0.32,-3.36 0,-0.64 -0.44,-0.64 -0.6,0 -1.52,1.44 -0.92,1.44 -1.8,3.68 -0.84,2.24 -1.36,4.4 -0.44,1.88 -1.04,2.56 -0.56,0.64 -1.8,0.64 z" />
      <path
         inkscape:connector-curvature="0"
         id="path4257"
         style="font-style:normal;font-variant:normal;font-weight:normal;font-stretch:normal;font-family:Pacifico;-inkscape-font-specification:Pacifico;fill:#ffffff;fill-opacity:1;stroke:#ffffff;stroke-width:5;stroke-miterlimit:4;stroke-dasharray:none;stroke-opacity:1"
         d="m 162.36203,140.54269 q 0.52,0 0.8,0.48 0.32,0.48 0.32,1.32 0,1.6 -0.76,2.48 -1.72,2.12 -3.72,3.48 -1.96,1.36 -4.48,1.36 -2.12,0 -3.44,-1.52 -2.28,1.48 -4.76,1.52 -0.52,7.72 -2.36,12.88 -1.84,5.2 -5.4,5.2 -2.16,0 -3.2,-1.56 -1.04,-1.56 -1.04,-4.32 0,-3.92 1.8,-9.16 1.8,-5.2 5.56,-11.48 0,-5.84 -0.08,-8.12 -0.04,-1.16 0.92,-1.84 0.96,-0.68 2.4,-0.68 0.84,0 1.2,0.36 0.4,0.32 0.44,1.32 0,1 0.04,1.48 1.28,-1.6 2.52,-2.28 1.24,-0.72 2.64,-0.72 2.24,0 3.64,1.8 1.44,1.8 1.44,4.72 0,2.12 -0.68,4.12 -0.68,2 -1.88,3.64 0.84,0.24 1.4,0.24 1.32,0 2.52,-0.96 1.2,-0.96 3.08,-3.2 0.48,-0.56 1.08,-0.56 z m -15.84,5.28 q 1.44,-0.32 2.64,-1.56 1.24,-1.28 1.96,-3.12 0.72,-1.88 0.72,-3.92 0,-1.2 -0.48,-1.8 -0.48,-0.64 -1.28,-0.64 -1.44,0 -3.48,3.04 -0.04,1.76 -0.04,5.16 0,1.84 -0.04,2.84 z m -7.64,18 q 1.08,0 1.8,-4.72 0.72,-4.68 0.92,-11.68 -1.72,4 -2.72,7.64 -1,3.64 -1,6.12 0,1.28 0.32,1.96 0.28,0.68 0.68,0.68 z" />
      <path
         inkscape:connector-curvature="0"
         id="path4259"
         style="font-style:normal;font-variant:normal;font-weight:normal;font-stretch:normal;font-family:Pacifico;-inkscape-font-specification:Pacifico;fill:#ffffff;fill-opacity:1;stroke:#ffffff;stroke-width:5;stroke-miterlimit:4;stroke-dasharray:none;stroke-opacity:1"
         d="m 177.38078,140.54269 q 0.52,0 0.8,0.48 0.32,0.48 0.32,1.32 0,1.6 -0.76,2.48 -1.72,2.12 -3.76,3.48 -2,1.36 -4.56,1.36 -3.52,0 -5.24,-3.2 -1.68,-3.2 -1.68,-8.28 0,-4.88 1.24,-11.12 1.28,-6.24 3.72,-10.72 2.48,-4.48 5.88,-4.48 1.92,0 3,1.8 1.12,1.76 1.12,5.08 0,4.76 -2.64,11.04 -2.64,6.28 -7.16,12.44 0.28,1.64 0.92,2.36 0.64,0.68 1.68,0.68 1.64,0 2.88,-0.92 1.24,-0.96 3.16,-3.24 0.48,-0.56 1.08,-0.56 z m -4.92,-24.72 q -0.92,0 -2.08,3.32 -1.16,3.32 -2.04,8.24 -0.88,4.92 -0.96,9.44 2.84,-4.68 4.52,-9.36 1.68,-4.72 1.68,-8.6 0,-3.04 -1.12,-3.04 z" />
      <path
         inkscape:connector-curvature="0"
         id="path4261"
         style="font-style:normal;font-variant:normal;font-weight:normal;font-stretch:normal;font-family:Pacifico;-inkscape-font-specification:Pacifico;fill:#ffffff;fill-opacity:1;stroke:#ffffff;stroke-width:5;stroke-miterlimit:4;stroke-dasharray:none;stroke-opacity:1"
         d="m 191.58766,141.74269 q 0.52,0 0.8,0.48 0.32,0.48 0.32,1.32 0,1.44 -0.68,2.48 -1.12,1.72 -2.96,2.68 -1.8,0.96 -4.32,0.96 -3.84,0 -5.96,-2.28 -2.12,-2.32 -2.12,-6.24 0,-2.76 1.16,-5.12 1.16,-2.4 3.2,-3.8 2.08,-1.4 4.68,-1.4 2.32,0 3.72,1.4 1.4,1.36 1.4,3.72 0,2.76 -2,4.76 -1.96,1.96 -6.72,3.12 0.96,1.84 3.24,1.84 1.64,0 2.68,-0.76 1.08,-0.76 2.48,-2.56 0.48,-0.6 1.08,-0.6 z m -6.56,-7 q -1.48,0 -2.52,1.72 -1,1.72 -1,4.16 l 0,0.08 q 2.36,-0.56 3.72,-1.68 1.36,-1.12 1.36,-2.6 0,-0.76 -0.44,-1.2 -0.4,-0.48 -1.12,-0.48 z" />
    </g>
  </g>
  <g
     inkscape:groupmode="layer"
     id="layer2"
     inkscape:label="Path"
     style="display:inline"
     transform="translate(2.357146,2.3571681)"
     sodipodi:insensitive="true">
    <g
       transform="translate(-35.52516,-111.8627)"
       style="font-style:normal;font-weight:normal;font-size:40px;line-height:125%;font-family:sans-serif;letter-spacing:2px;word-spacing:0px;display:inline;fill:#d2165e;fill-opacity:1;stroke:none;stroke-width:1px;stroke-linecap:butt;stroke-linejoin:miter;stroke-opacity:1"
       id="flowRoot4136-3">
      <path
         d="m 64.485156,142.18269 q 0.6,-0.24 1,-0.24 0.64,0 0.96,0.48 0.32,0.48 0.32,1.24 0,1.2 -0.6,2.04 -0.56,0.84 -1.96,1.52 -2.36,1.12 -6.12,1.8 -3.76,0.64 -7.4,0.64 -5.04,0 -8.44,-1.12 -3.4,-1.16 -5.08,-3.16 -1.64,-2 -1.64,-4.52 0,-3.44 2.2,-5.84 2.24,-2.44 6.56,-3.52 -2.36,-0.68 -3.64,-2.4 -1.24,-1.72 -1.24,-3.84 0,-2.88 1.8,-5.08 1.84,-2.24 4.92,-3.44 3.08,-1.2 6.76,-1.2 4.96,0 7.44,2.16 2.48,2.12 2.48,5.52 0,2.36 -0.88,3.84 -0.84,1.44 -2.44,1.44 -1.12,0 -1.76,-0.48 -0.64,-0.52 -0.64,-1.52 0,-0.68 0.2,-1.48 0.2,-1.32 0.2,-1.8 0,-1.44 -1.08,-2.32 -1.08,-0.92 -3.6,-0.92 -3.4,0 -5.44,1.44 -2.04,1.44 -2.04,3.88 0,1.88 1.52,3.12 1.56,1.2 5.04,1.32 0.88,0.04 1.24,0.4 0.36,0.36 0.36,1.2 0,2.64 -2.4,2.68 -3.32,0.08 -5.52,0.92 -2.16,0.84 -3.16,2.16 -0.96,1.28 -0.96,2.76 0,2.48 2.32,3.76 2.32,1.24 7.36,1.24 3.32,0 7,-0.76 3.72,-0.8 6.36,-1.92 z"
         style="font-style:normal;font-variant:normal;font-weight:normal;font-stretch:normal;font-family:Pacifico;-inkscape-font-specification:Pacifico;fill:#d2165e;fill-opacity:1"
         id="path4228"
         inkscape:connector-curvature="0" />
      <path
         d="m 88.907031,140.54269 q 0.52,0 0.8,0.48 0.32,0.48 0.32,1.32 0,1.6 -0.76,2.48 -1.76,2.08 -3.88,3.48 -2.08,1.36 -4.72,1.36 -2.04,0 -3.64,-0.76 -1.56,-0.76 -2.48,-2.16 -2.28,2.88 -5.4,2.88 -2.2,0 -3.48,-1.28 -1.28,-1.28 -1.28,-3.4 0,-2 0.92,-3.24 0.92,-1.24 2.6,-1.24 1.44,0 1.44,1.08 0,0.28 -0.08,1 -0.12,1.44 -0.12,1.64 0,1.2 1.04,1.2 0.76,0 1.44,-0.88 0.72,-0.92 1.16,-2.48 0.48,-1.56 0.48,-3.44 0,-1.44 -0.36,-2.4 -0.36,-1 -0.88,-1 -0.44,0 -0.64,0.24 -0.2,0.2 -0.4,0.72 -0.24,0.64 -0.64,1.04 -0.4,0.36 -1.4,0.36 -0.88,0 -1.4,-0.6 -0.52,-0.64 -0.52,-1.92 0,-2.04 1.24,-3.2 1.24,-1.16 3.2,-1.16 1.68,0 3.04,0.84 1.36,0.8 2.08,2.36 1.2,-1.6 2.68,-2.4 1.52,-0.8 2.96,-0.8 1.56,0 2.36,0.72 0.84,0.72 0.84,2.32 0,1.8 -0.68,2.84 -0.68,1 -1.64,1 -0.88,0 -1.2,-0.36 -0.32,-0.36 -0.48,-1.04 -0.08,-0.48 -0.24,-0.72 -0.16,-0.24 -0.56,-0.24 -0.48,0 -1.04,0.92 -0.52,0.88 -0.92,2.36 -0.36,1.48 -0.36,3.08 0,1.88 0.88,2.92 0.92,1 2.48,1 1.56,0 2.92,-1.04 1.4,-1.08 3.24,-3.32 0.48,-0.56 1.08,-0.56 z"
         style="font-style:normal;font-variant:normal;font-weight:normal;font-stretch:normal;font-family:Pacifico;-inkscape-font-specification:Pacifico;fill:#d2165e;fill-opacity:1"
         id="path4230"
         inkscape:connector-curvature="0" />
      <path
         d="m 93.328281,149.66269 q -2.48,0 -3.96,-1.8 -1.48,-1.8 -1.48,-4.72 0,-3.2 1.48,-6.04 1.48,-2.88 3.92,-4.6 2.48,-1.76 5.24,-1.76 0.88,0 1.16,0.36 0.319999,0.32 0.519999,1.2 0.84,-0.16 1.76,-0.16 1.96,0 1.96,1.4 0,0.84 -0.6,4 -0.92,4.6 -0.92,6.4 0,0.6 0.28,0.96 0.32,0.36 0.8,0.36 0.76,0 1.84,-0.96 1.08,-1 2.92,-3.2 0.48,-0.56 1.08,-0.56 0.52,0 0.8,0.48 0.32,0.48 0.32,1.32 0,1.6 -0.76,2.48 -1.64,2.04 -3.48,3.44 -1.84,1.4 -3.56,1.4 -1.32,0 -2.44,-0.88 -1.079999,-0.92 -1.639999,-2.48 -2.08,3.36 -5.24,3.36 z m 1.44,-4.04 q 0.88,0 1.68,-1.04 0.8,-1.04 1.16,-2.76 l 1.48,-7.36 q -1.68,0.04 -3.12,1.28 -1.4,1.2 -2.24,3.2 -0.84,2 -0.84,4.24 0,1.24 0.48,1.84 0.52,0.6 1.4,0.6 z"
         style="font-style:normal;font-variant:normal;font-weight:normal;font-stretch:normal;font-family:Pacifico;-inkscape-font-specification:Pacifico;fill:#d2165e;fill-opacity:1"
         id="path4232"
         inkscape:connector-curvature="0" />
      <path
         d="m 112.07641,149.66269 q -1.52,0 -2.16,-1.6 -0.6,-1.6 -0.6,-5.12 0,-5.2 1.48,-9.88 0.36,-1.16 1.16,-1.68 0.84,-0.56 2.32,-0.56 0.8,0 1.12,0.2 0.32,0.2 0.32,0.76 0,0.64 -0.6,2.88 -0.4,1.6 -0.64,2.8 -0.24,1.16 -0.4,2.92 1.08,-3.12 2.56,-5.28 1.52,-2.16 3.08,-3.2 1.6,-1.08 3,-1.08 1.4,0 1.96,0.64 0.6,0.64 0.6,1.96 0,1.28 -0.76,4.64 -0.32,1.44 -0.44,2.16 2,-4.92 4.44,-7.16 2.44,-2.24 4.56,-2.24 2.6,0 2.6,2.6 0,1.56 -0.88,5.64 -0.76,3.48 -0.76,4.6 0,1.6 1.16,1.6 0.8,0 1.88,-0.96 1.12,-1 2.96,-3.2 0.48,-0.56 1.08,-0.56 0.52,0 0.8,0.48 0.32,0.48 0.32,1.32 0,1.6 -0.76,2.48 -1.72,2.12 -3.72,3.48 -1.96,1.36 -4.48,1.36 -2.04,0 -3.08,-1.16 -1.04,-1.2 -1.04,-3.44 0,-1.12 0.56,-4 0.52,-2.52 0.52,-3.48 0,-0.64 -0.44,-0.64 -0.52,0 -1.48,1.36 -0.96,1.32 -1.92,3.52 -0.96,2.2 -1.56,4.64 -0.44,1.92 -1.04,2.56 -0.56,0.64 -1.84,0.64 -1.32,0 -2,-1.24 -0.64,-1.28 -0.64,-3.08 0,-1.52 0.4,-4.4 0.32,-2.56 0.32,-3.36 0,-0.64 -0.44,-0.64 -0.6,0 -1.52,1.44 -0.92,1.44 -1.8,3.68 -0.84,2.24 -1.36,4.4 -0.44,1.88 -1.04,2.56 -0.56,0.64 -1.8,0.64 z"
         style="font-style:normal;font-variant:normal;font-weight:normal;font-stretch:normal;font-family:Pacifico;-inkscape-font-specification:Pacifico;fill:#d2165e;fill-opacity:1"
         id="path4234"
         inkscape:connector-curvature="0" />
      <path
         d="m 162.36203,140.54269 q 0.52,0 0.8,0.48 0.32,0.48 0.32,1.32 0,1.6 -0.76,2.48 -1.72,2.12 -3.72,3.48 -1.96,1.36 -4.48,1.36 -2.12,0 -3.44,-1.52 -2.28,1.48 -4.76,1.52 -0.52,7.72 -2.36,12.88 -1.84,5.2 -5.4,5.2 -2.16,0 -3.2,-1.56 -1.04,-1.56 -1.04,-4.32 0,-3.92 1.8,-9.16 1.8,-5.2 5.56,-11.48 0,-5.84 -0.08,-8.12 -0.04,-1.16 0.92,-1.84 0.96,-0.68 2.4,-0.68 0.84,0 1.2,0.36 0.4,0.32 0.44,1.32 0,1 0.04,1.48 1.28,-1.6 2.52,-2.28 1.24,-0.72 2.64,-0.72 2.24,0 3.64,1.8 1.44,1.8 1.44,4.72 0,2.12 -0.68,4.12 -0.68,2 -1.88,3.64 0.84,0.24 1.4,0.24 1.32,0 2.52,-0.96 1.2,-0.96 3.08,-3.2 0.48,-0.56 1.08,-0.56 z m -15.84,5.28 q 1.44,-0.32 2.64,-1.56 1.24,-1.28 1.96,-3.12 0.72,-1.88 0.72,-3.92 0,-1.2 -0.48,-1.8 -0.48,-0.64 -1.28,-0.64 -1.44,0 -3.48,3.04 -0.04,1.76 -0.04,5.16 0,1.84 -0.04,2.84 z m -7.64,18 q 1.08,0 1.8,-4.72 0.72,-4.68 0.92,-11.68 -1.72,4 -2.72,7.64 -1,3.64 -1,6.12 0,1.28 0.32,1.96 0.28,0.68 0.68,0.68 z"
         style="font-style:normal;font-variant:normal;font-weight:normal;font-stretch:normal;font-family:Pacifico;-inkscape-font-specification:Pacifico;fill:#d2165e;fill-opacity:1"
         id="path4236"
         inkscape:connector-curvature="0" />
      <path
         d="m 177.38078,140.54269 q 0.52,0 0.8,0.48 0.32,0.48 0.32,1.32 0,1.6 -0.76,2.48 -1.72,2.12 -3.76,3.48 -2,1.36 -4.56,1.36 -3.52,0 -5.24,-3.2 -1.68,-3.2 -1.68,-8.28 0,-4.88 1.24,-11.12 1.28,-6.24 3.72,-10.72 2.48,-4.48 5.88,-4.48 1.92,0 3,1.8 1.12,1.76 1.12,5.08 0,4.76 -2.64,11.04 -2.64,6.28 -7.16,12.44 0.28,1.64 0.92,2.36 0.64,0.68 1.68,0.68 1.64,0 2.88,-0.92 1.24,-0.96 3.16,-3.24 0.48,-0.56 1.08,-0.56 z m -4.92,-24.72 q -0.92,0 -2.08,3.32 -1.16,3.32 -2.04,8.24 -0.88,4.92 -0.96,9.44 2.84,-4.68 4.52,-9.36 1.68,-4.72 1.68,-8.6 0,-3.04 -1.12,-3.04 z"
         style="font-style:normal;font-variant:normal;font-weight:normal;font-stretch:normal;font-family:Pacifico;-inkscape-font-specification:Pacifico;fill:#d2165e;fill-opacity:1"
         id="path4238"
         inkscape:connector-curvature="0" />
      <path
         d="m 191.58766,141.74269 q 0.52,0 0.8,0.48 0.32,0.48 0.32,1.32 0,1.44 -0.68,2.48 -1.12,1.72 -2.96,2.68 -1.8,0.96 -4.32,0.96 -3.84,0 -5.96,-2.28 -2.12,-2.32 -2.12,-6.24 0,-2.76 1.16,-5.12 1.16,-2.4 3.2,-3.8 2.08,-1.4 4.68,-1.4 2.32,0 3.72,1.4 1.4,1.36 1.4,3.72 0,2.76 -2,4.76 -1.96,1.96 -6.72,3.12 0.96,1.84 3.24,1.84 1.64,0 2.68,-0.76 1.08,-0.76 2.48,-2.56 0.48,-0.6 1.08,-0.6 z m -6.56,-7 q -1.48,0 -2.52,1.72 -1,1.72 -1,4.16 l 0,0.08 q 2.36,-0.56 3.72,-1.68 1.36,-1.12 1.36,-2.6 0,-0.76 -0.44,-1.2 -0.4,-0.48 -1.12,-0.48 z"
         style="font-style:normal;font-variant:normal;font-weight:normal;font-stretch:normal;font-family:Pacifico;-inkscape-font-specification:Pacifico;fill:#d2165e;fill-opacity:1"
         id="path4240"
         inkscape:connector-curvature="0" />
    </g>
  </g>
</svg>
