<?xml version="1.0" encoding="UTF-8" standalone="no"?>
<svg
   xmlns:dc="http://purl.org/dc/elements/1.1/"
   xmlns:cc="http://creativecommons.org/ns#"
   xmlns:rdf="http://www.w3.org/1999/02/22-rdf-syntax-ns#"
   xmlns:svg="http://www.w3.org/2000/svg"
   xmlns="http://www.w3.org/2000/svg"
   xmlns:sodipodi="http://sodipodi.sourceforge.net/DTD/sodipodi-0.dtd"
   xmlns:inkscape="http://www.inkscape.org/namespaces/inkscape"
   version="1.1"
   x="0px"
   y="0px"
   viewBox="0 0 790.64714 137.05682"
   id="svg4171"
   inkscape:version="0.91 r13725"
   sodipodi:docname="logo-readme.svg"
   width="790.64716"
   height="137.05682">
  <metadata
     id="metadata4185">
    <rdf:RDF>
      <cc:Work
         rdf:about="">
        <dc:format>image/svg+xml</dc:format>
        <dc:type
           rdf:resource="http://purl.org/dc/dcmitype/StillImage" />
        <dc:title></dc:title>
      </cc:Work>
    </rdf:RDF>
  </metadata>
  <defs
     id="defs4183" />
  <sodipodi:namedview
     pagecolor="#ffffff"
     bordercolor="#666666"
     borderopacity="1"
     objecttolerance="10"
     gridtolerance="10"
     guidetolerance="10"
     inkscape:pageopacity="0"
     inkscape:pageshadow="2"
     inkscape:window-width="1920"
     inkscape:window-height="1016"
     id="namedview4181"
     showgrid="false"
     fit-margin-top="0.5"
     fit-margin-left="0.5"
     fit-margin-right="0"
     fit-margin-bottom="0"
     inkscape:zoom="1.1695546"
     inkscape:cx="119.80888"
     inkscape:cy="94.482067"
     inkscape:window-x="0"
     inkscape:window-y="27"
     inkscape:window-maximized="1"
     inkscape:current-layer="layer3" />
  <g
     inkscape:groupmode="layer"
     id="layer3"
     inkscape:label="background"
     style="display:inline"
     transform="translate(161.6187,-12.008171)">
    <rect
       style="fill:#00bda1;fill-opacity:1;stroke:none;stroke-width:15;stroke-linecap:butt;stroke-linejoin:miter;stroke-miterlimit:4;stroke-dasharray:none;stroke-opacity:1"
       id="rect4144"
       width="790.14716"
       height="136.55682"
       x="-161.1187"
       y="12.508171" />
  </g>
  <g
     inkscape:groupmode="layer"
     id="layer1"
     inkscape:label="example"
     transform="translate(22.771352,6.0626369)"
     style="display:inline">
    <g
       transform="matrix(1.548731,0,0,1.548731,78.795501,-57.757165)"
       style="font-style:normal;font-weight:normal;font-size:50.36021042px;line-height:125%;font-family:sans-serif;letter-spacing:2.51801062px;word-spacing:0px;display:inline;fill:#653400;fill-opacity:1;stroke:none;stroke-width:1px;stroke-linecap:butt;stroke-linejoin:miter;stroke-opacity:1"
       id="flowRoot4222">
      <g
         transform="translate(-138.00675,-43.464137)"
         style="font-style:normal;font-weight:normal;font-size:40px;line-height:125%;font-family:sans-serif;letter-spacing:2px;word-spacing:0px;fill:#653400;fill-opacity:1;stroke:none;stroke-width:1px;stroke-linecap:butt;stroke-linejoin:miter;stroke-opacity:1"
         id="flowRoot4283">
        <path
           d="m 165.9727,104.24599 8.8762,0 -9.61923,29.35976 -9.3381,0 -9.57907,-29.35976 8.91637,0 3.9963,14.8807 q 1.24508,4.96023 1.36557,6.90818 0.14058,-1.40574 0.5623,-3.51434 0.42172,-2.1086 0.74303,-3.31351 l 4.07663,-14.96103 z"
           style="font-style:normal;font-variant:normal;font-weight:800;font-stretch:normal;font-size:41.12776566px;font-family:'Open Sans';-inkscape-font-specification:'Open Sans Ultra-Bold';letter-spacing:0.34319451px;fill:#653400;fill-opacity:1"
           id="path4294"
           inkscape:connector-curvature="0" />
        <path
           d="m 194.08918,133.60575 -0.98401,-2.83155 -0.46189,0 q -0.98401,1.56639 -2.75122,2.40983 -1.74713,0.82336 -4.11679,0.82336 -3.75532,0 -5.84384,-2.16885 -2.08852,-2.18893 -2.08852,-6.16515 l 0,-14.82045 7.85203,0 0,12.43071 q 0,2.22909 0.62254,3.37376 0.64262,1.14467 2.08852,1.14467 2.02827,0 2.8918,-1.58647 0.86352,-1.60656 0.86352,-5.40204 l 0,-9.96063 7.85203,0 0,22.75281 -5.92417,0 z"
           style="font-style:normal;font-variant:normal;font-weight:800;font-stretch:normal;font-size:41.12776566px;font-family:'Open Sans';-inkscape-font-specification:'Open Sans Ultra-Bold';letter-spacing:0.34319451px;fill:#653400;fill-opacity:1"
           id="path4296"
           inkscape:connector-curvature="0" />
        <path
           d="m 216.76347,134.00739 q -5.68318,0 -8.83605,-3.01229 -3.13277,-3.03237 -3.13277,-8.61514 0,-5.76351 2.91187,-8.83604 2.91188,-3.09262 8.31392,-3.09262 5.14097,0 7.93235,2.69098 2.81147,2.67089 2.81147,7.71145 l 0,3.49426 -14.03726,0 q 0.0803,1.90778 1.38565,2.9922 1.32541,1.08443 3.59467,1.08443 2.06844,0 3.79548,-0.38156 1.74713,-0.40164 3.7754,-1.34549 l 0,5.64302 q -1.84754,0.94385 -3.81556,1.30533 -1.96803,0.36147 -4.69917,0.36147 z m -0.46189,-18.2143 q -1.38565,0 -2.3295,0.88361 -0.92377,0.86352 -1.08442,2.73114 l 6.74752,0 q -0.0402,-1.64672 -0.94385,-2.63073 -0.8836,-0.98402 -2.38975,-0.98402 z"
           style="font-style:normal;font-variant:normal;font-weight:800;font-stretch:normal;font-size:41.12776566px;font-family:'Open Sans';-inkscape-font-specification:'Open Sans Ultra-Bold';letter-spacing:0.34319451px;fill:#653400;fill-opacity:1"
           id="path4298"
           inkscape:connector-curvature="0" />
      </g>
      <g
         transform="translate(-52.77567,-43.464137)"
         style="font-style:normal;font-weight:normal;font-size:40px;line-height:125%;font-family:sans-serif;letter-spacing:2px;word-spacing:0px;fill:#e57e93;fill-opacity:1;stroke:none;stroke-width:1px;stroke-linecap:butt;stroke-linejoin:miter;stroke-opacity:1"
         id="flowRoot4245">
        <path
           d="m 166.91655,133.60575 -17.43111,0 0,-29.35976 17.43111,0 0,6.36597 -9.49875,0 0,4.61884 8.79588,0 0,6.36597 -8.79588,0 0,5.5426 9.49875,0 0,6.46638 z"
           style="font-style:normal;font-variant:normal;font-weight:800;font-stretch:normal;font-size:41.12776566px;font-family:'Open Sans';-inkscape-font-specification:'Open Sans Ultra-Bold';letter-spacing:0.34319451px;fill:#ffffff;fill-opacity:1"
           id="path4304"
           inkscape:connector-curvature="0" />
        <path
           d="m 176.75849,121.9984 -6.94834,-11.14546 8.91637,0 3.45409,6.38605 3.53441,-6.38605 8.93646,0 -7.12908,11.14546 7.41022,11.60735 -8.91637,0 -3.83564,-6.90818 -3.81557,6.90818 -8.93645,0 7.3299,-11.60735 z"
           style="font-style:normal;font-variant:normal;font-weight:800;font-stretch:normal;font-size:41.12776566px;font-family:'Open Sans';-inkscape-font-specification:'Open Sans Ultra-Bold';letter-spacing:0.34319451px;fill:#ffffff;fill-opacity:1"
           id="path4306"
           inkscape:connector-curvature="0" />
        <path
           d="m 213.0684,133.60575 -1.50615,-3.01229 -0.16065,0 q -1.58648,1.96803 -3.23319,2.69098 -1.64672,0.72295 -4.25737,0.72295 -3.21311,0 -5.06064,-1.92786 -1.84754,-1.92787 -1.84754,-5.42212 0,-3.63483 2.53032,-5.40204 2.53032,-1.78729 7.3299,-2.00819 l 3.79549,-0.12049 0,-0.32131 q 0,-2.81147 -2.77131,-2.81147 -2.49016,0 -6.3258,1.68688 l -2.26926,-5.18113 q 3.97622,-2.04836 10.04096,-2.04836 4.37786,0 6.7676,2.16885 2.40983,2.16885 2.40983,6.06474 l 0,14.92086 -5.44219,0 z m -5.82376,-5.14097 q 1.42582,0 2.42991,-0.90369 1.02418,-0.90368 1.02418,-2.34958 l 0,-1.76721 -1.80737,0.0803 q -3.87581,0.14057 -3.87581,2.85163 0,2.08852 2.22909,2.08852 z"
           style="font-style:normal;font-variant:normal;font-weight:800;font-stretch:normal;font-size:41.12776566px;font-family:'Open Sans';-inkscape-font-specification:'Open Sans Ultra-Bold';letter-spacing:0.34319451px;fill:#ffffff;fill-opacity:1"
           id="path4308"
           inkscape:connector-curvature="0" />
        <path
           d="m 252.12953,133.60575 0,-12.37046 q 0,-2.30942 -0.64263,-3.45409 -0.62254,-1.16475 -1.98811,-1.16475 -1.80737,0 -2.65081,1.54631 -0.84344,1.5463 -0.84344,4.83974 l 0,10.60325 -7.87211,0 0,-12.37046 q 0,-2.30942 -0.60246,-3.45409 -0.60246,-1.16475 -1.94794,-1.16475 -1.84754,0 -2.69098,1.64672 -0.84344,1.64671 -0.84344,5.38195 l 0,9.96063 -7.85203,0 0,-22.75281 5.92416,0 0.98402,2.81147 0.46188,0 q 0.90369,-1.56639 2.61065,-2.38975 1.72705,-0.82336 3.91598,-0.82336 4.92006,0 6.90817,2.99221 l 0.62254,0 q 0.96394,-1.40574 2.6709,-2.18893 1.72704,-0.80328 3.79548,-0.80328 4.03647,0 5.96433,2.06844 1.92786,2.06844 1.92786,6.28564 l 0,14.80037 -7.85202,0 z"
           style="font-style:normal;font-variant:normal;font-weight:800;font-stretch:normal;font-size:41.12776566px;font-family:'Open Sans';-inkscape-font-specification:'Open Sans Ultra-Bold';letter-spacing:0.34319451px;fill:#ffffff;fill-opacity:1"
           id="path4310"
           inkscape:connector-curvature="0" />
        <path
           d="m 279.32224,134.00739 q -1.72704,0 -3.09261,-0.56229 -1.36557,-0.58238 -2.71106,-2.06844 l -0.36147,0 q 0.36147,2.38975 0.36147,2.97212 l 0,9.13727 -7.85203,0 0,-32.63311 6.38605,0 1.10451,2.8918 0.36147,0 q 2.18893,-3.29344 6.04466,-3.29344 3.7754,0 5.92416,3.13278 2.14877,3.13278 2.14877,8.59506 0,5.50245 -2.24918,8.67539 -2.22909,3.15286 -6.06474,3.15286 z m -2.63073,-17.39094 q -1.72704,0 -2.42991,1.24508 -0.68278,1.225 -0.74303,3.65491 l 0,0.62254 q 0,2.93196 0.7832,4.23728 0.78319,1.30533 2.47007,1.30533 1.50615,0 2.18893,-1.28525 0.68279,-1.30532 0.68279,-4.29753 0,-2.93196 -0.68279,-4.19712 -0.68278,-1.28524 -2.26926,-1.28524 z"
           style="font-style:normal;font-variant:normal;font-weight:800;font-stretch:normal;font-size:41.12776566px;font-family:'Open Sans';-inkscape-font-specification:'Open Sans Ultra-Bold';letter-spacing:0.34319451px;fill:#ffffff;fill-opacity:1"
           id="path4312"
           inkscape:connector-curvature="0" />
        <path
           d="m 300.28956,133.60575 -7.85203,0 0,-31.24746 7.85203,0 0,31.24746 z"
           style="font-style:normal;font-variant:normal;font-weight:800;font-stretch:normal;font-size:41.12776566px;font-family:'Open Sans';-inkscape-font-specification:'Open Sans Ultra-Bold';letter-spacing:0.34319451px;fill:#ffffff;fill-opacity:1"
           id="path4314"
           inkscape:connector-curvature="0" />
        <path
           d="m 317.09994,134.00739 q -5.68319,0 -8.83605,-3.01229 -3.13278,-3.03237 -3.13278,-8.61514 0,-5.76351 2.91188,-8.83604 2.91188,-3.09262 8.31391,-3.09262 5.14098,0 7.93236,2.69098 2.81147,2.67089 2.81147,7.71145 l 0,3.49426 -14.03726,0 q 0.0803,1.90778 1.38565,2.9922 1.32541,1.08443 3.59467,1.08443 2.06843,0 3.79548,-0.38156 1.74712,-0.40164 3.7754,-1.34549 l 0,5.64302 q -1.84754,0.94385 -3.81557,1.30533 -1.96802,0.36147 -4.69916,0.36147 z m -0.46189,-18.2143 q -1.38565,0 -2.3295,0.88361 -0.92377,0.86352 -1.08442,2.73114 l 6.74752,0 q -0.0402,-1.64672 -0.94385,-2.63073 -0.88361,-0.98402 -2.38975,-0.98402 z"
           style="font-style:normal;font-variant:normal;font-weight:800;font-stretch:normal;font-size:41.12776566px;font-family:'Open Sans';-inkscape-font-specification:'Open Sans Ultra-Bold';letter-spacing:0.34319451px;fill:#ffffff;fill-opacity:1"
           id="path4316"
           inkscape:connector-curvature="0" />
        <flowRoot
           xml:space="preserve"
           id="flowRoot4316"
           style="font-style:normal;font-weight:normal;font-size:25.82759666px;line-height:125%;font-family:sans-serif;letter-spacing:1.29137981px;word-spacing:0px;fill:#653400;fill-opacity:1;stroke:none;stroke-width:1px;stroke-linecap:butt;stroke-linejoin:miter;stroke-opacity:1"
           transform="matrix(1.5900381,0,0,1.5900381,-103.17217,-112.37292)"><flowRegion
             id="flowRegion4318"><rect
               id="rect4320"
               width="237.35156"
               height="71.049316"
               x="274.13837"
               y="129.57414"
               style="fill:#653400;fill-opacity:1" /></flowRegion><flowPara
             id="flowPara4322"
             style="font-style:normal;font-variant:normal;font-weight:800;font-stretch:normal;font-family:'Open Sans';-inkscape-font-specification:'Open Sans Ultra-Bold';letter-spacing:0.20304228px;fill:#653400;fill-opacity:1">Project</flowPara></flowRoot>      </g>
    </g>
    <rect
       style="fill:#ffffff;fill-opacity:0;stroke:none;stroke-width:13;stroke-linecap:butt;stroke-linejoin:miter;stroke-miterlimit:4;stroke-dasharray:none;stroke-opacity:1"
       id="rect4293"
       width="2.4183798"
       height="1.8137847"
       x="252.07013"
       y="33.400414" />
  </g>
  <g
     inkscape:groupmode="layer"
     id="layer2"
     inkscape:label="rocket"
     transform="translate(22.771359,0.62132892)"
     style="display:inline"
     sodipodi:insensitive="true">
    <path
       style="color:#000000;clip-rule:nonzero;display:inline;overflow:visible;visibility:visible;opacity:1;isolation:auto;mix-blend-mode:normal;color-interpolation:sRGB;color-interpolation-filters:linearRGB;solid-color:#000000;solid-opacity:1;fill:#e57e93;fill-opacity:1;fill-rule:nonzero;stroke:none;stroke-width:15;stroke-linecap:butt;stroke-linejoin:miter;stroke-miterlimit:4;stroke-dasharray:none;stroke-dashoffset:0;stroke-opacity:1;color-rendering:auto;image-rendering:auto;shape-rendering:auto;text-rendering:auto;enable-background:accumulate"
       d="m 30.75144,84.13214 -1.617639,-1.68845 3.644033,-3.60175 c 2.804497,-2.77196 3.603814,-3.94998 3.469459,-5.11325 -0.123412,-1.06851 -0.597184,-1.57124 -1.616571,-1.71538 -1.095713,-0.15494 -2.336404,0.68256 -5.16649,3.48748 l -3.724492,3.69139 -1.747069,-1.82354 -1.747068,-1.82355 2.658887,-5.24387 c 7.611773,-15.01197 19.195264,-26.30659 34.954726,-34.083 5.871095,-2.89705 16.12262,-6.62495 18.218274,-6.62495 1.066679,0 1.046302,0.262 -0.387912,4.9879 -5.803063,19.12176 -16.712397,34.36878 -31.660438,44.24901 -3.940088,2.60428 -12.193231,6.99041 -13.153487,6.99041 -0.278615,0 -1.234511,-0.7598 -2.124213,-1.68845 z M 61.111064,58.76627 c 4.898617,-3.58758 4.466069,-11.16076 -0.79278,-13.88022 -6.165623,-3.18836 -13.443972,1.92344 -12.197671,8.56679 1.098688,5.85651 8.25315,8.78287 12.990451,5.31343 z"
       id="path4832"
       inkscape:connector-curvature="0" />
    <g
       transform="translate(-10.469591,18.83902)"
       id="g4"
       style="stroke:none;stroke-opacity:1">
      <path
         style="fill:none;stroke:none;stroke-opacity:1"
         inkscape:connector-curvature="0"
         d="M 53.28,80.484 63.528,70.202 65.682,59.14 c -2.952,2.4 -6.136,4.625 -9.545,6.668 L 53.28,80.484 Z"
         id="path6" />
      <path
         style="fill:none;stroke:none;stroke-opacity:1"
         inkscape:connector-curvature="0"
         d="m 66.772,29.509 c -0.993,0 -1.926,0.387 -2.628,1.089 -0.703,0.702 -1.089,1.636 -1.089,2.629 0,0.993 0.386,1.927 1.089,2.629 0.702,0.702 1.635,1.089 2.628,1.089 0.994,0 1.926,-0.387 2.629,-1.089 1.449,-1.45 1.449,-3.808 0,-5.257 -0.702,-0.703 -1.636,-1.09 -2.629,-1.09 z"
         id="path8" />
      <path
         style="fill:none;stroke:none;stroke-opacity:1"
         inkscape:connector-curvature="0"
         d="M 40.86,34.318 29.798,36.472 19.516,46.72 34.192,43.862 c 2.043,-3.408 4.269,-6.593 6.668,-9.544 z"
         id="path10" />
      <path
         style="fill:none;stroke:none;stroke-opacity:1"
         inkscape:connector-curvature="0"
         d="m 49.311,32.068 c -4.312,4.312 -8.144,9.333 -11.462,15.003 -0.05,0.1 -0.106,0.197 -0.17,0.29 -1.76,3.035 -3.372,6.255 -4.833,9.651 l 3.382,3.382 6.827,-6.826 c 0.934,-0.933 2.447,-0.933 3.38,0 0.933,0.933 0.933,2.447 0,3.38 l -6.827,6.826 3.382,3.383 c 3.395,-1.461 6.615,-3.073 9.649,-4.833 0.092,-0.065 0.192,-0.122 0.292,-0.172 5.67,-3.318 10.69,-7.15 15.001,-11.461 9.365,-9.366 14.928,-20.713 17.946,-28.582 1.834,-4.782 2.977,-8.898 3.633,-11.62 -2.722,0.656 -6.837,1.799 -11.619,3.634 -7.87,3.017 -19.216,8.58 -28.581,17.945 z m 23.47,7.168 c -1.605,1.605 -3.739,2.489 -6.009,2.489 -2.27,0 -4.404,-0.884 -6.009,-2.489 -1.605,-1.605 -2.489,-3.739 -2.489,-6.009 0,-2.27 0.884,-4.404 2.489,-6.009 1.605,-1.605 3.739,-2.489 6.009,-2.489 2.27,0 4.404,0.884 6.009,2.489 1.605,1.605 2.489,3.739 2.489,6.009 0,2.27 -0.884,4.404 -2.489,6.009 z"
         id="path12" />
      <path
         inkscape:connector-curvature="0"
         d="m 66.772,24.73 c -2.269,0 -4.404,0.884 -6.009,2.489 -1.605,1.605 -2.489,3.739 -2.489,6.009 0,2.27 0.884,4.404 2.489,6.009 1.605,1.605 3.739,2.489 6.009,2.489 2.27,0 4.404,-0.884 6.009,-2.489 1.605,-1.605 2.489,-3.739 2.489,-6.009 0,-2.27 -0.884,-4.404 -2.489,-6.009 -1.605,-1.605 -3.739,-2.489 -6.009,-2.489 z m 2.63,11.126 c -0.703,0.702 -1.635,1.089 -2.629,1.089 -0.993,0 -1.926,-0.387 -2.628,-1.089 -0.703,-0.702 -1.089,-1.635 -1.089,-2.629 0,-0.993 0.386,-1.927 1.089,-2.629 0.702,-0.702 1.635,-1.089 2.628,-1.089 0.993,0 1.926,0.387 2.629,1.089 1.449,1.45 1.449,3.808 0,5.258 z"
         id="path14"
         style="fill:#653400;fill-opacity:1;stroke:none;stroke-opacity:1" />
      <path
         inkscape:connector-curvature="0"
         d="m 22.9,64.149 c 0.933,-0.933 0.933,-2.447 0,-3.38 -0.933,-0.933 -2.447,-0.933 -3.38,0 L 5.7,74.589 c -0.933,0.933 -0.933,2.447 0,3.38 0.467,0.467 1.078,0.7 1.69,0.7 0.612,0 1.223,-0.233 1.69,-0.7 L 22.9,64.149 Z"
         id="path16"
         style="fill:#653400;fill-opacity:1;stroke:none;stroke-opacity:1" />
      <path
         inkscape:connector-curvature="0"
         d="m 26.574,73.426 c -0.933,-0.933 -2.446,-0.933 -3.379,0 L 8.79,87.831 c -0.934,0.933 -0.934,2.446 0,3.379 0.467,0.467 1.078,0.7 1.69,0.7 0.612,0 1.224,-0.234 1.69,-0.7 L 26.574,76.806 c 0.933,-0.933 0.933,-2.446 0,-3.38 z"
         id="path18"
         style="fill:#653400;fill-opacity:1;stroke:none;stroke-opacity:1" />
      <path
         inkscape:connector-curvature="0"
         d="m 35.852,77.101 -13.82,13.82 c -0.934,0.933 -0.934,2.447 0,3.38 0.466,0.466 1.078,0.699 1.689,0.699 0.612,0 1.224,-0.233 1.69,-0.699 l 13.82,-13.82 c 0.933,-0.933 0.933,-2.447 0,-3.38 -0.933,-0.934 -2.446,-0.933 -3.379,0 z"
         id="path20"
         style="fill:#653400;fill-opacity:1;stroke:none;stroke-opacity:1" />
      <path
         inkscape:connector-curvature="0"
         d="M 94.3,5.701 C 93.758,5.158 92.987,4.909 92.23,5.031 91.953,5.076 85.328,6.164 76.301,9.613 c -5.296,2.023 -10.327,4.446 -14.954,7.201 -5.683,3.384 -10.77,7.283 -15.128,11.591 l -18.05,3.514 c -0.466,0.091 -0.894,0.318 -1.231,0.654 l -16.352,16.3 c -0.745,0.742 -0.917,1.885 -0.424,2.813 0.421,0.791 1.239,1.269 2.11,1.269 0.152,0 0.304,-0.014 0.458,-0.043 L 31.175,49.32 c -1.201,2.356 -2.325,4.802 -3.367,7.336 -0.367,0.892 -0.161,1.917 0.52,2.599 l 4.518,4.518 -4.198,4.198 c -0.933,0.933 -0.933,2.447 0,3.38 0.467,0.467 1.078,0.7 1.69,0.7 0.611,0 1.223,-0.233 1.69,-0.7 l 4.198,-4.198 4.518,4.518 c 0.458,0.457 1.069,0.7 1.69,0.7 0.306,0 0.615,-0.059 0.909,-0.18 2.535,-1.042 4.98,-2.166 7.335,-3.366 L 47.09,87.271 c -0.201,1.032 0.296,2.074 1.225,2.567 0.354,0.188 0.739,0.279 1.12,0.279 0.62,0 1.233,-0.242 1.693,-0.703 l 16.3,-16.352 c 0.335,-0.336 0.563,-0.765 0.654,-1.231 l 3.513,-18.049 c 4.309,-4.359 8.209,-9.445 11.593,-15.129 2.755,-4.628 5.177,-9.659 7.201,-14.955 C 93.837,14.67 94.925,8.047 94.971,7.769 95.091,7.012 94.842,6.242 94.3,5.701 Z M 19.516,46.72 29.798,36.472 40.86,34.318 c -2.399,2.951 -4.624,6.136 -6.668,9.545 L 19.516,46.72 Z M 63.528,70.203 53.28,80.484 56.137,65.808 c 3.41,-2.043 6.593,-4.268 9.545,-6.668 L 63.528,70.203 Z M 85.878,22.108 C 82.86,29.977 77.296,41.324 67.932,50.69 63.621,55.001 58.6,58.833 52.931,62.151 c -0.101,0.05 -0.2,0.108 -0.292,0.172 -3.035,1.759 -6.254,3.372 -9.649,4.833 l -3.382,-3.383 6.827,-6.826 c 0.933,-0.933 0.933,-2.447 0,-3.38 -0.933,-0.933 -2.447,-0.933 -3.38,0 l -6.827,6.826 -3.382,-3.382 c 1.461,-3.396 3.073,-6.615 4.833,-9.651 0.064,-0.092 0.12,-0.19 0.17,-0.29 3.318,-5.67 7.15,-10.691 11.462,-15.003 9.366,-9.365 20.712,-14.928 28.582,-17.946 4.782,-1.834 8.897,-2.978 11.619,-3.634 -0.657,2.723 -1.8,6.839 -3.634,11.621 z"
         id="path22"
         style="fill:#653400;fill-opacity:1;stroke:none;stroke-opacity:1" />
    </g>
    <path
       style="color:#000000;clip-rule:nonzero;display:inline;overflow:visible;visibility:visible;opacity:1;isolation:auto;mix-blend-mode:normal;color-interpolation:sRGB;color-interpolation-filters:linearRGB;solid-color:#000000;solid-opacity:1;fill:#ffffff;fill-opacity:1;fill-rule:nonzero;stroke:none;stroke-width:13;stroke-linecap:butt;stroke-linejoin:miter;stroke-miterlimit:4;stroke-dasharray:none;stroke-dashoffset:0;stroke-opacity:1;color-rendering:auto;image-rendering:auto;shape-rendering:auto;text-rendering:auto;enable-background:accumulate"
       d="m 42.884156,98.51277 c -2.59e-4,-0.66268 0.58486,-4.14381 1.300264,-7.73584 1.150605,-5.77716 1.482125,-6.62639 2.872298,-7.35771 0.864359,-0.45471 3.046882,-1.93526 4.850052,-3.2901 1.803169,-1.35485 3.340551,-2.39696 3.416404,-2.31581 0.07585,0.0811 -0.342745,2.69378 -0.930217,5.80584 l -1.068132,5.65829 -5.220099,5.2201 c -3.871706,3.87171 -5.22022,4.90887 -5.22057,4.01523 z"
       id="path4297"
       inkscape:connector-curvature="0" />
    <path
       style="color:#000000;clip-rule:nonzero;display:inline;overflow:visible;visibility:visible;opacity:1;isolation:auto;mix-blend-mode:normal;color-interpolation:sRGB;color-interpolation-filters:linearRGB;solid-color:#000000;solid-opacity:1;fill:#ffffff;fill-opacity:1;fill-rule:nonzero;stroke:none;stroke-width:13;stroke-linecap:butt;stroke-linejoin:miter;stroke-miterlimit:4;stroke-dasharray:none;stroke-dashoffset:0;stroke-opacity:1;color-rendering:auto;image-rendering:auto;shape-rendering:auto;text-rendering:auto;enable-background:accumulate"
       d="m 13.934971,60.36534 5.20132,-5.20131 5.37334,-1.09798 c 2.955337,-0.60389 5.476027,-0.99529 5.601533,-0.86979 0.125505,0.12551 -1.230649,2.37259 -3.013676,4.99351 l -3.241867,4.76531 -6.700148,1.30579 c -3.685081,0.71819 -7.087524,1.30579 -7.560984,1.30579 -0.47346,0 1.479757,-2.34059 4.340482,-5.20132 z"
       id="path4300"
       inkscape:connector-curvature="0" />
    <path
       style="color:#000000;clip-rule:nonzero;display:inline;overflow:visible;visibility:visible;opacity:1;isolation:auto;mix-blend-mode:normal;color-interpolation:sRGB;color-interpolation-filters:linearRGB;solid-color:#000000;solid-opacity:1;fill:#ffffff;fill-opacity:1;fill-rule:nonzero;stroke:none;stroke-width:13;stroke-linecap:butt;stroke-linejoin:miter;stroke-miterlimit:4;stroke-dasharray:none;stroke-dashoffset:0;stroke-opacity:1;color-rendering:auto;image-rendering:auto;shape-rendering:auto;text-rendering:auto;enable-background:accumulate"
       d="m 53.558744,54.7875 c -1.467266,-1.62131 -1.287254,-4.67096 0.343119,-5.81291 1.908912,-1.33706 3.318493,-1.17069 5.089918,0.60073 1.195685,1.19569 1.453601,1.90842 1.148618,3.17413 -0.7435,3.08558 -4.563226,4.26839 -6.581655,2.03805 z"
       id="path4302"
       inkscape:connector-curvature="0" />
  </g>
</svg>
