<?xml version="1.0" encoding="UTF-8" standalone="no"?>
<svg
   xmlns:dc="http://purl.org/dc/elements/1.1/"
   xmlns:cc="http://creativecommons.org/ns#"
   xmlns:rdf="http://www.w3.org/1999/02/22-rdf-syntax-ns#"
   xmlns:svg="http://www.w3.org/2000/svg"
   xmlns="http://www.w3.org/2000/svg"
   xmlns:sodipodi="http://sodipodi.sourceforge.net/DTD/sodipodi-0.dtd"
   xmlns:inkscape="http://www.inkscape.org/namespaces/inkscape"
   version="1.1"
   x="0px"
   y="0px"
   viewBox="0 0 363.47439 96.278234"
   id="svg4171"
   inkscape:version="0.91 r13725"
   sodipodi:docname="logo-readme.svg"
   width="363.4744"
   height="96.278236">
  <metadata
     id="metadata4185">
    <rdf:RDF>
      <cc:Work
         rdf:about="">
        <dc:format>image/svg+xml</dc:format>
        <dc:type
           rdf:resource="http://purl.org/dc/dcmitype/StillImage" />
        <dc:title></dc:title>
      </cc:Work>
    </rdf:RDF>
  </metadata>
  <defs
     id="defs4183" />
  <sodipodi:namedview
     pagecolor="#ffffff"
     bordercolor="#666666"
     borderopacity="1"
     objecttolerance="10"
     gridtolerance="10"
     guidetolerance="10"
     inkscape:pageopacity="0"
     inkscape:pageshadow="2"
     inkscape:window-width="1920"
     inkscape:window-height="1016"
     id="namedview4181"
     showgrid="false"
     fit-margin-top="0.5"
     fit-margin-left="0.5"
     fit-margin-right="0"
     fit-margin-bottom="0"
     inkscape:zoom="1.654"
     inkscape:cx="199.38348"
     inkscape:cy="-8.8797211"
     inkscape:window-x="0"
     inkscape:window-y="27"
     inkscape:window-maximized="1"
     inkscape:current-layer="layer1" />
  <g
     inkscape:groupmode="layer"
     id="layer3"
     inkscape:label="background"
     style="display:inline"
     transform="translate(138.84734,-12.6295)">
    <rect
       style="fill:#00bda1;fill-opacity:1;stroke:none;stroke-width:15;stroke-linecap:butt;stroke-linejoin:miter;stroke-miterlimit:4;stroke-dasharray:none;stroke-opacity:1"
       id="rect4144"
       width="570.33673"
       height="159.18463"
       x="-231.83545"
       y="-2.6318719" />
  </g>
  <g
     inkscape:groupmode="layer"
     id="layer4"
     inkscape:label="tagline"
     transform="translate(-77.371486,-35.531821)"
     style="display:inline">
    <g
       transform="translate(-94.457077,13.487307)"
       style="font-style:normal;font-weight:normal;font-size:40px;line-height:125%;font-family:sans-serif;letter-spacing:2px;word-spacing:0px;display:inline;fill:#653400;fill-opacity:1;stroke:none;stroke-width:1px;stroke-linecap:butt;stroke-linejoin:miter;stroke-opacity:1"
       id="flowRoot4444-3">
      <path
         d="m 196.63633,143.89254 -2.565,-13.9725 -5.715,0 -2.565,13.9725 3.5775,0 0.4275,-2.205 2.655,0 0.4275,2.205 3.7575,0 z m -4.6125,-4.8375 -1.7325,0 0.7875,-4.995 0.1575,0 0.7875,4.995 z"
         style="font-style:normal;font-variant:normal;font-weight:normal;font-stretch:normal;font-size:22.5px;font-family:'Passion One';-inkscape-font-specification:'Passion One';fill:#653400;fill-opacity:1"
         id="path4299"
         inkscape:connector-curvature="0" />
      <path
         d="m 216.65598,129.92004 -4.05,0 -0.9225,9.1575 -0.3825,0 -1.215,-9.1575 -4.2525,0 2.52,13.9725 5.94,0 2.3625,-13.9725 z"
         style="font-style:normal;font-variant:normal;font-weight:normal;font-stretch:normal;font-size:22.5px;font-family:'Passion One';-inkscape-font-specification:'Passion One';fill:#653400;fill-opacity:1"
         id="path4301"
         inkscape:connector-curvature="0" />
      <path
         d="m 222.29781,144.11754 c 1.3725,0 2.205,-0.54 2.8125,-1.0575 l 0.09,0 0,0.7875 3.5775,0 0,-10.7325 -3.78,0 0,7.3575 c -0.27,0.2025 -0.675,0.315 -1.0575,0.315 -0.3375,0 -0.495,-0.225 -0.495,-0.5625 l 0,-7.11 -3.825,0 0,8.0325 c 0,1.7325 0.7425,2.97 2.6775,2.97 z"
         style="font-style:normal;font-variant:normal;font-weight:normal;font-stretch:normal;font-size:22.5px;font-family:'Passion One';-inkscape-font-specification:'Passion One';fill:#653400;fill-opacity:1"
         id="path4303"
         inkscape:connector-curvature="0" />
      <path
         d="m 236.62324,136.06254 c 0.765,0 1.0125,0.3825 1.0125,1.0575 l 0,0.54 -1.9575,0 c 0,-0.9225 0.1125,-1.5975 0.945,-1.5975 z m 0.09,-3.2175 c -3.285,0 -4.77,1.98 -4.77,5.625 0,3.3975 1.6425,5.6475 4.7925,5.6475 1.4175,0 2.5425,-0.2025 3.78,-0.585 l -0.315,-2.79 c -1.125,0.27 -1.98,0.5175 -2.9025,0.5175 -1.0125,0 -1.5525,-0.5175 -1.5525,-1.6875 l 5.13,0 c 0.0675,-0.9225 0.1575,-1.8225 0.1575,-2.43 0,-2.5875 -1.0575,-4.2975 -4.32,-4.2975 z"
         style="font-style:normal;font-variant:normal;font-weight:normal;font-stretch:normal;font-size:22.5px;font-family:'Passion One';-inkscape-font-specification:'Passion One';fill:#653400;fill-opacity:1"
         id="path4305"
         inkscape:connector-curvature="0" />
      <path
         d="m 245.06738,142.36254 c 0,1.125 0.585,1.7775 2.0025,1.7775 1.3725,0 1.9575,-0.6525 1.9575,-1.7325 0,-1.2375 -0.585,-1.8225 -1.9575,-1.8225 -1.4175,0 -2.0025,0.585 -2.0025,1.7775 z"
         style="font-style:normal;font-variant:normal;font-weight:normal;font-stretch:normal;font-size:22.5px;font-family:'Passion One';-inkscape-font-specification:'Passion One';fill:#653400;fill-opacity:1"
         id="path4307"
         inkscape:connector-curvature="0" />
      <path
         d="m 256.76207,133.22754 -3.7575,0 0,10.3275 c 0,0.4275 -0.0675,0.54 -0.585,0.54 l -0.765,0 0.315,3.105 1.125,0 c 2.835,0 3.6675,-0.72 3.6675,-3.0375 l 0,-10.935 z m -3.96,-2.16 c 0,1.17 0.5625,1.71 2.0475,1.71 1.44,0 2.0025,-0.5625 2.0025,-1.71 0,-1.1925 -0.5625,-1.755 -2.0025,-1.755 -1.485,0 -2.0475,0.5625 -2.0475,1.755 z"
         style="font-style:normal;font-variant:normal;font-weight:normal;font-stretch:normal;font-size:22.5px;font-family:'Passion One';-inkscape-font-specification:'Passion One';fill:#653400;fill-opacity:1"
         id="path4309"
         inkscape:connector-curvature="0" />
      <path
         d="m 263.55563,132.84504 c -2.43,0 -3.82501,1.2375 -3.82501,3.51 0,2.25 1.4625,3.15 3.8475,4.0725 0.36001,0.135 0.495,0.225 0.495,0.4725 0,0.2475 -0.20249,0.3375 -0.51749,0.3375 -0.67501,0 -1.73251,-0.2475 -3.06,-0.6075 l -0.2475,3.0375 c 1.0575,0.27 2.13749,0.45 3.28499,0.45 2.745,0 3.71251,-1.2375 3.71251,-3.51 0,-2.2725 -1.59751,-3.1275 -3.6225,-3.87 -0.29251,-0.1125 -0.51751,-0.225 -0.51751,-0.45 0,-0.2475 0.1575,-0.3825 0.4725,-0.3825 0.60751,0 1.98001,0.27 3.0825,0.5175 l 0.3825,-3.1275 c -1.08,-0.27 -2.25,-0.45 -3.48749,-0.45 z"
         style="font-style:normal;font-variant:normal;font-weight:normal;font-stretch:normal;font-size:22.5px;font-family:'Passion One';-inkscape-font-specification:'Passion One';fill:#653400;fill-opacity:1"
         id="path4311"
         inkscape:connector-curvature="0" />
      <path
         d="m 281.88215,139.32504 c 2.97,0 4.5,-1.215 4.5,-4.68 0,-3.42 -1.5975,-4.725 -4.7475,-4.725 l -4.5675,0 0,13.9725 3.78,0 0,-4.5675 1.035,0 z m 0.63,-4.41 c 0,1.26 -0.18,1.755 -1.035,1.755 l -0.63,0 0,-3.555 0.54,0 c 0.9225,0 1.125,0.54 1.125,1.8 z"
         style="font-style:normal;font-variant:normal;font-weight:normal;font-stretch:normal;font-size:22.5px;font-family:'Passion One';-inkscape-font-specification:'Passion One';fill:#653400;fill-opacity:1"
         id="path4313"
         inkscape:connector-curvature="0" />
      <path
         d="m 303.40863,129.92004 -3.555,0 -0.405,7.4025 -0.225,0 -1.035,-7.4025 -3.7575,0 -0.945,7.4025 -0.225,0 -0.585,-7.4025 -3.69,0 1.4625,13.9725 4.6575,0 1.0125,-6.1875 0.18,0 1.215,6.1875 4.635,0 1.26,-13.9725 z"
         style="font-style:normal;font-variant:normal;font-weight:normal;font-stretch:normal;font-size:22.5px;font-family:'Passion One';-inkscape-font-specification:'Passion One';fill:#653400;fill-opacity:1"
         id="path4315"
         inkscape:connector-curvature="0" />
      <path
         d="m 316.89805,143.89254 -2.565,-13.9725 -5.715,0 -2.565,13.9725 3.5775,0 0.4275,-2.205 2.655,0 0.4275,2.205 3.7575,0 z m -4.6125,-4.8375 -1.7325,0 0.7875,-4.995 0.1575,0 0.7875,4.995 z"
         style="font-style:normal;font-variant:normal;font-weight:normal;font-stretch:normal;font-size:22.5px;font-family:'Passion One';-inkscape-font-specification:'Passion One';fill:#653400;fill-opacity:1"
         id="path4317"
         inkscape:connector-curvature="0" />
      <path
         d="m 331.6302,139.32504 c 2.97,0 4.5,-1.215 4.5,-4.68 0,-3.42 -1.5975,-4.725 -4.7475,-4.725 l -4.5675,0 0,13.9725 3.78,0 0,-4.5675 1.035,0 z m 0.63,-4.41 c 0,1.26 -0.18,1.755 -1.035,1.755 l -0.63,0 0,-3.555 0.54,0 c 0.9225,0 1.125,0.54 1.125,1.8 z"
         style="font-style:normal;font-variant:normal;font-weight:normal;font-stretch:normal;font-size:22.5px;font-family:'Passion One';-inkscape-font-specification:'Passion One';fill:#653400;fill-opacity:1"
         id="path4319"
         inkscape:connector-curvature="0" />
      <path
         d="m 342.69418,137.84004 c 0,-1.1475 0.27,-1.395 1.44,-1.395 l 1.035,0 0.1575,-3.6 c -1.5525,0 -2.07,0.135 -2.7675,0.9225 l -0.09,0 -0.225,-0.6525 -3.285,0 0,10.7775 3.735,0 0,-6.0525 z"
         style="font-style:normal;font-variant:normal;font-weight:normal;font-stretch:normal;font-size:22.5px;font-family:'Passion One';-inkscape-font-specification:'Passion One';fill:#653400;fill-opacity:1"
         id="path4321"
         inkscape:connector-curvature="0" />
      <path
         d="m 352.51293,132.84504 c -3.2175,0 -4.7025,1.6425 -4.7025,5.625 0,3.9375 1.4175,5.6475 4.7025,5.6475 3.2625,0 4.6125,-1.665 4.6125,-5.805 0,-3.825 -1.4175,-5.4675 -4.6125,-5.4675 z m -0.0225,3.0375 c 0.81,0 0.8775,0.5175 0.8775,2.3625 l 0,0.6525 c 0,1.9125 -0.1125,2.4075 -0.8325,2.4075 -0.8775,0 -0.945,-0.5175 -0.945,-2.5425 l 0,-0.54 c 0,-1.8225 0.09,-2.34 0.9,-2.34 z"
         style="font-style:normal;font-variant:normal;font-weight:normal;font-stretch:normal;font-size:22.5px;font-family:'Passion One';-inkscape-font-specification:'Passion One';fill:#653400;fill-opacity:1"
         id="path4323"
         inkscape:connector-curvature="0" />
      <path
         d="m 364.34508,133.22754 -3.7575,0 0,10.3275 c 0,0.4275 -0.0675,0.54 -0.585,0.54 l -0.765,0 0.315,3.105 1.125,0 c 2.835,0 3.6675,-0.72 3.6675,-3.0375 l 0,-10.935 z m -3.96,-2.16 c 0,1.17 0.5625,1.71 2.0475,1.71 1.44,0 2.0025,-0.5625 2.0025,-1.71 0,-1.1925 -0.5625,-1.755 -2.0025,-1.755 -1.485,0 -2.0475,0.5625 -2.0475,1.755 z"
         style="font-style:normal;font-variant:normal;font-weight:normal;font-stretch:normal;font-size:22.5px;font-family:'Passion One';-inkscape-font-specification:'Passion One';fill:#653400;fill-opacity:1"
         id="path4325"
         inkscape:connector-curvature="0" />
      <path
         d="m 372.39863,136.06254 c 0.765,0 1.0125,0.3825 1.0125,1.0575 l 0,0.54 -1.9575,0 c 0,-0.9225 0.1125,-1.5975 0.945,-1.5975 z m 0.09,-3.2175 c -3.285,0 -4.77,1.98 -4.77,5.625 0,3.3975 1.6425,5.6475 4.7925,5.6475 1.4175,0 2.5425,-0.2025 3.78,-0.585 l -0.315,-2.79 c -1.125,0.27 -1.98,0.5175 -2.9025,0.5175 -1.0125,0 -1.5525,-0.5175 -1.5525,-1.6875 l 5.13,0 c 0.0675,-0.9225 0.1575,-1.8225 0.1575,-2.43 0,-2.5875 -1.0575,-4.2975 -4.32,-4.2975 z"
         style="font-style:normal;font-variant:normal;font-weight:normal;font-stretch:normal;font-size:22.5px;font-family:'Passion One';-inkscape-font-specification:'Passion One';fill:#653400;fill-opacity:1"
         id="path4327"
         inkscape:connector-curvature="0" />
      <path
         d="m 383.43027,138.53754 c 0,-1.5075 0.2025,-2.4075 1.0575,-2.4075 0.585,0 1.395,0.2925 2.025,0.5625 l 0.405,-3.3075 c -0.855,-0.36 -1.62,-0.54 -2.88,-0.54 -2.97,0 -4.3875,2.4975 -4.3875,5.85 0,3.285 1.395,5.4225 4.32,5.4225 1.0575,0 1.8225,-0.2025 2.7675,-0.5175 l -0.405,-2.88 c -0.6975,0.1575 -1.2825,0.2475 -1.845,0.2475 -0.8775,0 -1.0575,-0.81 -1.0575,-2.43 z"
         style="font-style:normal;font-variant:normal;font-weight:normal;font-stretch:normal;font-size:22.5px;font-family:'Passion One';-inkscape-font-specification:'Passion One';fill:#653400;fill-opacity:1"
         id="path4329"
         inkscape:connector-curvature="0" />
      <path
         d="m 393.02859,144.11754 c 0.945,0 1.7325,-0.09 2.655,-0.2025 l 0.1125,-2.9925 c -0.45,0.0225 -1.08,0.0675 -1.395,0.0675 -0.315,0 -0.45,-0.135 -0.45,-0.4725 l 0,-4.4775 1.8675,0 0.1575,-2.79 -2.0025,0 0,-2.07 -3.3975,0 -0.2025,2.07 -1.26,0 0,2.79 1.08,0 0,5.22 c 0,2.16 0.945,2.8575 2.835,2.8575 z"
         style="font-style:normal;font-variant:normal;font-weight:normal;font-stretch:normal;font-size:22.5px;font-family:'Passion One';-inkscape-font-specification:'Passion One';fill:#653400;fill-opacity:1"
         id="path4331"
         inkscape:connector-curvature="0" />
      <path
         d="m 405.11383,140.92254 c 0,1.9575 0.945,3.195 2.745,3.195 1.395,0 2.0475,-0.4275 2.565,-1.1475 l 0.1125,0 c 0.3375,0.8775 1.125,1.1475 2.115,1.1475 0.5625,0 0.7875,-0.045 1.44,-0.09 l 0.3375,-2.7225 c -0.675,0 -0.945,-0.135 -0.945,-0.72 0,-1.5525 0.1125,-3.2625 0.1125,-4.6575 0,-2.0925 -0.9225,-3.0825 -3.285,-3.0825 -1.62,0 -3.375,0.3375 -4.95,0.7425 l 0.5625,3.285 c 1.26,-0.36 2.61,-0.6525 3.375,-0.6525 0.45,0 0.63,0.27 0.63,0.63 l 0,0.54 c -2.9925,0.27 -4.815,0.8775 -4.815,3.5325 z m 4.14,0.5625 c -0.4725,0 -0.6975,-0.2925 -0.6975,-0.8325 0,-0.7875 0.495,-1.0125 1.53,-1.1475 l 0,1.1025 c 0,0.6075 -0.27,0.8775 -0.8325,0.8775 z"
         style="font-style:normal;font-variant:normal;font-weight:normal;font-stretch:normal;font-size:22.5px;font-family:'Passion One';-inkscape-font-specification:'Passion One';fill:#653400;fill-opacity:1"
         id="path4333"
         inkscape:connector-curvature="0" />
      <path
         d="m 423.84363,132.84504 c -1.3725,0 -2.205,0.54 -2.8125,1.0575 l -0.09,0 -0.225,-0.7875 -3.4425,0 0,10.7775 3.78,0 0,-7.2675 c 0.27,-0.2025 0.675,-0.315 1.0575,-0.315 0.3375,0 0.495,0.225 0.495,0.5625 l 0,7.02 3.825,0 0,-8.3025 c 0,-1.7325 -0.6525,-2.745 -2.5875,-2.745 z"
         style="font-style:normal;font-variant:normal;font-weight:normal;font-stretch:normal;font-size:22.5px;font-family:'Passion One';-inkscape-font-specification:'Passion One';fill:#653400;fill-opacity:1"
         id="path4335"
         inkscape:connector-curvature="0" />
      <path
         d="m 437.80906,144.11754 c 0.5625,0 1.1025,-0.0675 1.5075,-0.09 l 0.3375,-2.7225 c -0.63,0 -0.8325,-0.1575 -0.8325,-0.72 l 0,-11.115 -3.7575,0 0,3.9375 c -0.4725,-0.405 -1.035,-0.5625 -1.845,-0.5625 -2.3175,0 -3.5775,1.935 -3.5775,5.5575 0,3.6225 0.855,5.715 3.6675,5.715 1.08,0 1.8225,-0.45 2.2725,-1.1475 l 0.1125,0 c 0.315,0.9225 1.2375,1.1475 2.115,1.1475 z m -4.3875,-5.6025 c 0,-1.5525 0.0675,-2.4975 0.8775,-2.4975 0.3375,0 0.6075,0.1125 0.8775,0.27 l 0,4.6575 c -0.3375,0.1575 -0.6075,0.2025 -0.9,0.2025 -0.8325,0 -0.855,-0.9 -0.855,-2.6325 z"
         style="font-style:normal;font-variant:normal;font-weight:normal;font-stretch:normal;font-size:22.5px;font-family:'Passion One';-inkscape-font-specification:'Passion One';fill:#653400;fill-opacity:1"
         id="path4337"
         inkscape:connector-curvature="0" />
      <path
         d="m 457.68281,133.31754 0.225,-3.3975 -9.225,0 -0.225,3.3975 2.7675,0 0,10.575 3.8475,0 0,-10.575 2.61,0 z"
         style="font-style:normal;font-variant:normal;font-weight:normal;font-stretch:normal;font-size:22.5px;font-family:'Passion One';-inkscape-font-specification:'Passion One';fill:#653400;fill-opacity:1"
         id="path4339"
         inkscape:connector-curvature="0" />
      <path
         d="m 463.15133,144.11754 c 1.3725,0 2.205,-0.54 2.8125,-1.0575 l 0.09,0 0,0.7875 3.5775,0 0,-10.7325 -3.78,0 0,7.3575 c -0.27,0.2025 -0.675,0.315 -1.0575,0.315 -0.3375,0 -0.495,-0.225 -0.495,-0.5625 l 0,-7.11 -3.825,0 0,8.0325 c 0,1.7325 0.7425,2.97 2.6775,2.97 z"
         style="font-style:normal;font-variant:normal;font-weight:normal;font-stretch:normal;font-size:22.5px;font-family:'Passion One';-inkscape-font-specification:'Passion One';fill:#653400;fill-opacity:1"
         id="path4341"
         inkscape:connector-curvature="0" />
      <path
         d="m 476.39676,144.11754 c 0.945,0 1.7325,-0.09 2.655,-0.2025 l 0.1125,-2.9925 c -0.45,0.0225 -1.08,0.0675 -1.395,0.0675 -0.315,0 -0.45,-0.135 -0.45,-0.4725 l 0,-4.4775 1.8675,0 0.1575,-2.79 -2.0025,0 0,-2.07 -3.3975,0 -0.2025,2.07 -1.26,0 0,2.79 1.08,0 0,5.22 c 0,2.16 0.945,2.8575 2.835,2.8575 z"
         style="font-style:normal;font-variant:normal;font-weight:normal;font-stretch:normal;font-size:22.5px;font-family:'Passion One';-inkscape-font-specification:'Passion One';fill:#653400;fill-opacity:1"
         id="path4343"
         inkscape:connector-curvature="0" />
      <path
         d="m 486.6184,132.84504 c -3.2175,0 -4.7025,1.6425 -4.7025,5.625 0,3.9375 1.4175,5.6475 4.7025,5.6475 3.2625,0 4.6125,-1.665 4.6125,-5.805 0,-3.825 -1.4175,-5.4675 -4.6125,-5.4675 z m -0.0225,3.0375 c 0.81,0 0.8775,0.5175 0.8775,2.3625 l 0,0.6525 c 0,1.9125 -0.1125,2.4075 -0.8325,2.4075 -0.8775,0 -0.945,-0.5175 -0.945,-2.5425 l 0,-0.54 c 0,-1.8225 0.09,-2.34 0.9,-2.34 z"
         style="font-style:normal;font-variant:normal;font-weight:normal;font-stretch:normal;font-size:22.5px;font-family:'Passion One';-inkscape-font-specification:'Passion One';fill:#653400;fill-opacity:1"
         id="path4345"
         inkscape:connector-curvature="0" />
      <path
         d="m 498.15805,137.84004 c 0,-1.1475 0.27,-1.395 1.44,-1.395 l 1.035,0 0.1575,-3.6 c -1.5525,0 -2.07,0.135 -2.7675,0.9225 l -0.09,0 -0.225,-0.6525 -3.285,0 0,10.7775 3.735,0 0,-6.0525 z"
         style="font-style:normal;font-variant:normal;font-weight:normal;font-stretch:normal;font-size:22.5px;font-family:'Passion One';-inkscape-font-specification:'Passion One';fill:#653400;fill-opacity:1"
         id="path4347"
         inkscape:connector-curvature="0" />
      <path
         d="m 507.2568,143.89254 0,-10.665 -3.7125,0 0,10.665 3.7125,0 z m -3.8925,-12.825 c 0,1.17 0.5625,1.71 2.0475,1.71 1.44,0 2.0025,-0.5625 2.0025,-1.71 0,-1.1925 -0.5625,-1.755 -2.0025,-1.755 -1.485,0 -2.0475,0.5625 -2.0475,1.755 z"
         style="font-style:normal;font-variant:normal;font-weight:normal;font-stretch:normal;font-size:22.5px;font-family:'Passion One';-inkscape-font-specification:'Passion One';fill:#653400;fill-opacity:1"
         id="path4349"
         inkscape:connector-curvature="0" />
      <path
         d="m 510.32379,140.92254 c 0,1.9575 0.945,3.195 2.745,3.195 1.395,0 2.0475,-0.4275 2.565,-1.1475 l 0.1125,0 c 0.3375,0.8775 1.125,1.1475 2.115,1.1475 0.5625,0 0.7875,-0.045 1.44,-0.09 l 0.3375,-2.7225 c -0.675,0 -0.945,-0.135 -0.945,-0.72 0,-1.5525 0.1125,-3.2625 0.1125,-4.6575 0,-2.0925 -0.9225,-3.0825 -3.285,-3.0825 -1.62,0 -3.375,0.3375 -4.95,0.7425 l 0.5625,3.285 c 1.26,-0.36 2.61,-0.6525 3.375,-0.6525 0.45,0 0.63,0.27 0.63,0.63 l 0,0.54 c -2.9925,0.27 -4.815,0.8775 -4.815,3.5325 z m 4.14,0.5625 c -0.4725,0 -0.6975,-0.2925 -0.6975,-0.8325 0,-0.7875 0.495,-1.0125 1.53,-1.1475 l 0,1.1025 c 0,0.6075 -0.27,0.8775 -0.8325,0.8775 z"
         style="font-style:normal;font-variant:normal;font-weight:normal;font-stretch:normal;font-size:22.5px;font-family:'Passion One';-inkscape-font-specification:'Passion One';fill:#653400;fill-opacity:1"
         id="path4351"
         inkscape:connector-curvature="0" />
      <path
         d="m 522.48359,141.41754 c 0,2.0025 1.035,2.7 2.9475,2.7 l 1.2375,0 0.2925,-3.195 c -0.5625,0 -0.765,-0.2025 -0.765,-0.6975 l 0,-10.755 -3.7125,0 0,11.9475 z"
         style="font-style:normal;font-variant:normal;font-weight:normal;font-stretch:normal;font-size:22.5px;font-family:'Passion One';-inkscape-font-specification:'Passion One';fill:#653400;fill-opacity:1"
         id="path4353"
         inkscape:connector-curvature="0" />
    </g>
  </g>
  <g
     inkscape:label="tagline text"
     id="g4442"
     inkscape:groupmode="layer"
     style="display:none"
     transform="translate(-77.371486,-35.531821)">
    <flowRoot
       transform="translate(-94.457077,13.487307)"
       style="font-style:normal;font-weight:normal;font-size:40px;line-height:125%;font-family:sans-serif;letter-spacing:2px;word-spacing:0px;fill:#653400;fill-opacity:1;stroke:none;stroke-width:1px;stroke-linecap:butt;stroke-linejoin:miter;stroke-opacity:1"
       id="flowRoot4444"
       xml:space="preserve"><flowRegion
         id="flowRegion4446"><rect
           style="fill:#653400;fill-opacity:1"
           y="122.56216"
           x="185.61064"
           height="61.668671"
           width="394.80048"
           id="rect4448" /></flowRegion><flowPara
         style="font-style:normal;font-variant:normal;font-weight:normal;font-stretch:normal;font-size:22.5px;font-family:'Passion One';-inkscape-font-specification:'Passion One';fill:#653400;fill-opacity:1"
         id="flowPara4450">A Vue.js PWA Project and Tutorial</flowPara></flowRoot>  </g>
  <g
     inkscape:groupmode="layer"
     id="layer6"
     inkscape:label="donut stroke"
     style="display:none"
     transform="translate(-17.157314,-13.829493)">
    <ellipse
       style="display:inline;fill:none;fill-opacity:1;stroke:#ffffff;stroke-width:19.93525887;stroke-linecap:butt;stroke-linejoin:miter;stroke-miterlimit:4;stroke-dasharray:none;stroke-opacity:1"
       id="path4176"
       cx="54.795998"
       cy="58.600849"
       rx="35.06205"
       ry="36.310555" />
  </g>
  <g
     transform="translate(-17.157314,-13.829493)"
     style="display:inline"
     inkscape:label="donut"
     id="g5025"
     inkscape:groupmode="layer">
    <g
       style="display:inline;fill:#653400;fill-opacity:1;stroke:none;stroke-width:3;stroke-miterlimit:4;stroke-dasharray:none;stroke-opacity:1"
       id="g5029"
       transform="matrix(0.90984891,0,0,0.9531404,13.10807,-898.17105)">
      <path
         inkscape:connector-curvature="0"
         id="path5031"
         overflow="visible"
         display="inline"
         visibility="visible"
         d="m 50,957.36215 c 24.829,0 45,20.17101 45,45.00005 0,24.829 -20.171,45 -45,45 -24.829,0 -45.0000001,-20.171 -45.0000001,-45 C 4.9999999,977.53316 25.171,957.36215 50,957.36215 Z m 0,4 c -22.6672,0 -41.0000001,18.33279 -41.0000001,41.00005 0,7.4577 1.9983001,14.4479 5.4688001,20.4687 3.4443,-2.1447 7.6865,-3.4372 11.1562,-2.375 4.1494,1.3664 5.8833,4.5725 7.125,6.6875 0.6208,1.0575 1.1631,1.8403 1.75,2.3125 0.5813,0.4678 1.2114,0.7807 2.5938,0.7813 1.3357,0.1035 2.3415,-0.5287 3.0312,-1.25 0.7017,-0.7471 1.2901,-1.9467 1.9062,-3.3125 0.6164,-1.3658 1.2578,-2.8871 2.5,-4.2188 1.2423,-1.3316 3.2329,-2.2478 5.5938,-2.0937 2.9166,0.4511 5.0498,1.9477 6.25,3.75 1.1353,1.7702 1.4952,3.672 1.8125,5.2812 0.3173,1.6093 0.6117,2.9245 1.0937,3.6563 0.4703,0.7137 0.9979,1.1408 2.75,1.2812 1.4498,-0.065 1.9498,-0.4343 2.5,-1.2187 0.5669,-0.8079 1.0096,-2.2025 1.5,-3.8125 0.4905,-1.61 1.0142,-3.4643 2.3126,-5.0625 2.0061,-2.202 4.1793,-2.718 6.3124,-2.7813 3.9098,0.051 7.3635,2.1882 9,5.3125 C 88.2771,1019.1321 91,1011.0734 91,1002.3622 91,979.69494 72.6672,961.36215 50,961.36215 Z m 13.7188,7 c 0.5118,0 1.0156,0.172 1.4062,0.5625 0.781,0.7811 0.781,2.06275 0,2.84375 l -4.25,4.25 c -0.781,0.781 -2.0314,0.781 -2.8125,0 -0.7811,-0.7811 -0.7811,-2.06265 0,-2.84375 l 4.2187,-4.25 c 0.3907,-0.3905 0.9256,-0.5625 1.4376,-0.5625 z m -31.5938,4.25 c 0.6404,0.045 1.2485,0.4021 1.5938,1 l 3,5.1875 c 0.5522,0.9566 0.2378,2.1977 -0.7188,2.75 -0.9567,0.5523 -2.1663,0.2066 -2.7188,-0.75 l -3,-5.1875 c -0.5522,-0.9567 -0.2379,-2.1977 0.7188,-2.75 0.3587,-0.2071 0.7407,-0.2771 1.125,-0.25 z m 23.5312,7.03125 c 0.258,0.032 0.511,0.14325 0.75,0.28125 l 5.1876,3 c 0.9564,0.5523 1.3022,1.76215 0.75,2.71875 -0.5523,0.9566 -1.7936,1.27105 -2.75,0.71875 l -5.1876,-3 c -0.9564,-0.5523 -1.3022,-1.76215 -0.75,-2.71875 0.4143,-0.7175 1.2266,-1.096 2,-1 z m 21.2188,4.84375 c 0.5118,0 1.0158,0.20325 1.4062,0.59375 l 4.25,4.25 c 0.7812,0.7811 0.7812,2.0315 0,2.8125 -0.7811,0.7811 -2.0315,0.7811 -2.8124,0 l -4.25,-4.25 c -0.781,-0.7811 -0.781,-2.0315 0,-2.8125 0.3904,-0.3905 0.8944,-0.59375 1.4062,-0.59375 z m -40.0213,1.625 c 0.2578,0.032 0.5109,0.14325 0.75,0.28125 0.9566,0.5523 1.271,1.76205 0.7188,2.71875 l -3,5.1875 c -0.5523,0.9566 -1.7622,1.3023 -2.7188,0.75 -0.9566,-0.5523 -1.3023,-1.7934 -0.75,-2.75 l 3,-5.1875 c 0.4142,-0.7175 1.2265,-1.096 2,-1 z M 19,987.1434 c 0.6404,0.045 1.2485,0.4021 1.5938,1 l 3,5.1875 c 0.5522,0.9566 0.2378,2.1977 -0.7188,2.75 -0.9566,0.5523 -2.1977,0.2066 -2.75,-0.75 l -3,-5.1875 c -0.5523,-0.9567 -0.2066,-2.16645 0.75,-2.71875 0.3587,-0.2071 0.7407,-0.30845 1.125,-0.28125 z m 31,1.21875 c 7.7083,0 14,6.29171 14,14.00005 0,7.7083 -6.2917,14 -14,14 -7.7082,0 -14,-6.2917 -14,-14 0,-7.70836 6.2918,-14.00005 14,-14.00005 z m 0,4 c -5.5464,0 -10,4.45351 -10,10.00005 0,5.5465 4.4536,10 10,10 5.5465,0 10,-4.4535 10,-10 0,-5.54656 -4.4535,-10.00005 -10,-10.00005 z m 22.75,2.59375 c 0.5118,0 1.0158,0.172 1.4062,0.5625 0.7812,0.7811 0.7812,2.06275 0,2.84375 l -4.25,4.25005 c -0.7811,0.7811 -2.0315,0.7811 -2.8124,0 -0.7812,-0.7812 -0.7812,-2.0628 0,-2.8438 l 4.2187,-4.25 c 0.3906,-0.3905 0.9256,-0.5625 1.4375,-0.5625 z m -50.1562,9.625 c 2.0477,0.4301 4.1379,1.0711 6.1874,1.625 1.0672,0.2859 1.7233,1.3705 1.4376,2.4375 -0.2861,1.067 -1.4018,1.6922 -2.4688,1.4063 l -5.7812,-1.5313 c -1.0672,-0.2859 -1.6922,-1.4017 -1.4063,-2.4687 0.2502,-0.9335 1.1026,-1.5246 2.0313,-1.4688 z M 76,1006.9559 c 0.6404,0.045 1.2485,0.4021 1.5938,1 l 3,5.1875 c 0.5522,0.9566 0.2378,2.1665 -0.7188,2.7188 -0.9566,0.5523 -2.1977,0.2378 -2.75,-0.7188 l -3,-5.1875 c -0.5523,-0.9566 -0.2066,-2.1977 0.75,-2.75 0.3587,-0.2071 0.7407,-0.2772 1.125,-0.25 z m -26.2812,16.4063 c -1.2353,-0.049 -1.7296,0.2211 -2.2813,0.8125 -0.5817,0.6235 -1.1251,1.7716 -1.75,3.1562 -0.6249,1.3847 -1.3476,3.0131 -2.6563,4.4063 -2.0009,1.9935 -3.9146,2.415 -5.875,2.5 -2.1271,0.01 -3.8874,-0.6354 -5.1562,-1.6563 -1.2688,-1.0208 -2.024,-2.276 -2.6875,-3.4062 -1.3199,-2.2483 -2.1482,-3.9824 -4.9063,-4.9063 -1.385,-0.4405 -3.4208,-0.6169 -7.7812,1.9375 7.433,10.3894 19.6077,17.1563 33.375,17.1563 12.209,0 23.1496,-5.3315 30.6562,-13.7813 -0.1208,-2.8604 -2.552,-5.0529 -6,-5.125 -1.2627,0.09 -2.5073,0.4917 -3.1874,1.3125 -0.6441,0.793 -1.1488,2.1243 -1.625,3.6875 -0.4763,1.5633 -0.9329,3.3588 -2.0626,4.9688 -1.1293,1.61 -3.1439,2.8597 -5.7187,2.9375 -2.5573,-0.047 -4.9504,-1.388 -6.125,-3.0938 -1.1051,-1.6771 -1.3735,-3.5011 -1.6875,-5.0937 -0.314,-1.5926 -0.657,-2.9817 -1.25,-3.9063 -0.5842,-0.9108 -1.3274,-1.5353 -3.2812,-1.9062 z"
         style="color:#000000;text-indent:0;text-transform:none;direction:ltr;block-progression:tb;baseline-shift:baseline;display:inline;overflow:visible;visibility:visible;fill:#653400;fill-opacity:1;stroke:none;stroke-width:3;stroke-miterlimit:4;stroke-dasharray:none;stroke-opacity:1;marker:none;enable-background:accumulate" />
    </g>
    <path
       inkscape:connector-curvature="0"
       id="path5059"
       d="M 68.53496,86.503223 C 67.22319,86.133641 66.81574,85.407803 66.15545,82.26424 65.60833,79.659477 65.3803,78.872485 64.8549,77.775741 63.82165,75.618756 61.85238,74.08618 59.37093,73.507839 c -2.05009,-0.477799 -4.17086,0.22079 -5.73119,1.887851 -0.75414,0.805755 -1.03991,1.285852 -2.11036,3.545462 -1.56891,3.311871 -1.96963,3.887539 -3.10312,4.458077 -0.64314,0.323725 -2.13704,0.379396 -2.99075,0.111445 -0.79332,-0.248998 -1.59098,-1.168583 -2.73996,-3.158797 -1.25635,-2.176191 -2.25451,-3.439422 -3.48769,-4.413839 -3.12258,-2.467389 -7.01466,-2.493749 -11.50569,-0.07794 -0.70374,0.378552 -1.31614,0.707096 -1.3609,0.730099 -0.13943,0.07163 -1.71518,-3.268 -2.3865,-5.057918 -1.21221,-3.232072 -2.08318,-7.018663 -2.4223,-10.531152 -0.21012,-2.176132 -0.0924,-7.534291 0.20877,-9.501978 1.81724,-11.873531 8.16483,-21.777667 17.82852,-27.81782 8.48527,-5.303599 18.89421,-6.830196 28.52979,-4.184238 12.11559,3.326971 21.9269,12.981124 25.82756,25.413909 1.4472,4.612634 1.94936,8.250288 1.83209,13.271742 -0.0434,1.865453 -0.16902,3.853052 -0.2956,4.682143 -0.87028,5.700185 -2.72832,10.90223 -5.46894,15.311394 l -0.74149,1.192929 -0.53042,-0.806806 c -1.62196,-2.46707 -4.66558,-4.103408 -7.6225,-4.098077 -2.27859,0.0041 -3.98661,0.705689 -5.45729,2.241628 -1.0505,1.097112 -1.63378,2.294638 -2.47388,5.078979 -1.07096,3.549458 -1.57965,4.434294 -2.73922,4.764578 -0.68949,0.196389 -1.06613,0.187184 -1.8949,-0.04631 z M 61.97223,70.145681 c 4.19026,-1.275817 7.45211,-4.542451 8.78056,-8.793461 0.44637,-1.428349 0.57915,-2.371198 0.5804,-4.121145 0.002,-2.602713 -0.55015,-4.717028 -1.82524,-6.991191 -0.81348,-1.450845 -2.87597,-3.589994 -4.34019,-4.501496 -5.02014,-3.125158 -11.30179,-2.341454 -15.44994,1.927562 -2.89357,2.977875 -4.21584,6.764658 -3.81523,10.926324 0.55727,5.789268 4.59049,10.46143 10.15617,11.765025 1.34418,0.314831 4.56271,0.199652 5.91347,-0.211618 z m 23.55517,0.08517 c 0.68591,-0.306171 1.08392,-0.850639 1.16367,-1.591855 0.0669,-0.622123 -0.003,-0.789727 -1.4024,-3.358505 -1.56745,-2.877326 -2.1,-3.565563 -2.87727,-3.718315 -1.0033,-0.197173 -2.14868,0.83823 -2.14868,1.942375 0,0.366938 0.21145,0.913511 0.70234,1.815536 1.84221,3.385145 2.59181,4.622776 2.89358,4.777399 0.739,0.378675 1.06144,0.404446 1.66876,0.133365 z M 39.62625,64.45831 c 1.23766,-0.541744 1.37042,-2.740744 0.20492,-3.394189 -0.64084,-0.359285 -5.68182,-1.729814 -6.35102,-1.726702 -0.62161,0.0028 -1.07595,0.269244 -1.4493,0.84966 -0.52567,0.817131 -0.32443,2.060496 0.42592,2.631593 0.34485,0.262476 5.68771,1.815595 6.31296,1.835118 0.21044,0.0066 0.59586,-0.0814 0.85651,-0.19548 z m 36.6208,-6.62433 c 0.20424,-0.112584 1.37697,-1.267772 2.60606,-2.567044 2.31467,-2.446795 2.33841,-2.484519 2.24718,-3.567136 -0.10293,-1.221172 -1.62293,-1.964142 -2.72631,-1.332609 -0.73341,0.419782 -4.66665,4.820641 -4.77644,5.344307 -0.1687,0.804594 0.42789,1.945119 1.1643,2.225823 0.39442,0.150356 1.11608,0.100133 1.4852,-0.103348 z M 33.88452,51.268382 c 0.66274,-0.423307 1.02256,-1.104008 0.95481,-1.806345 -0.0683,-0.708321 -2.82463,-5.807437 -3.4255,-6.337082 -0.84498,-0.744841 -2.03829,-0.526056 -2.68585,0.492442 -0.56443,0.887732 -0.45828,1.284645 1.10539,4.133135 1.80381,3.285942 1.81329,3.300414 2.33755,3.571219 0.59642,0.308086 1.17594,0.290036 1.7136,-0.05336 z m 10.7666,-1.045812 c 0.33272,-0.234916 0.88908,-1.101385 2.01193,-3.133435 1.37426,-2.487037 1.55229,-2.886533 1.55447,-3.488032 0.004,-1.245828 -1.15132,-2.175869 -2.30105,-1.851549 -0.29349,0.08277 -0.66124,0.297117 -0.81725,0.476293 -0.15598,0.179169 -0.95646,1.553459 -1.77882,3.053976 -1.28833,2.35072 -1.4934,2.812945 -1.48222,3.340614 0.0324,1.524238 1.63238,2.435565 2.81294,1.602133 z m 43.14224,-2.411773 c 0.84462,-0.539492 1.1806,-1.489699 0.84933,-2.402358 -0.16002,-0.440957 -3.58379,-4.151228 -4.4468,-4.818952 -1.75742,-1.359681 -3.87418,0.859512 -2.57243,2.696854 0.59336,0.837469 4.00868,4.331949 4.48399,4.587876 0.56042,0.30178 1.14879,0.279651 1.68591,-0.0634 z M 69.27667,41.939186 c 0.82539,-0.502723 1.06277,-1.760388 0.49799,-2.638359 -0.22595,-0.351193 -1.04716,-0.930579 -2.99114,-2.110245 -2.41402,-1.464925 -2.74604,-1.626139 -3.34909,-1.626155 -0.59427,-1.6e-5 -0.72938,0.06277 -1.20331,0.559301 -0.47423,0.496765 -0.53386,0.637734 -0.53343,1.260577 8.7e-4,1.167022 0.22918,1.394884 3.17838,3.172047 1.4662,0.883514 2.78959,1.638354 2.94088,1.677422 0.38003,0.09815 1.03042,-0.03309 1.45972,-0.294588 z M 46.01641,37.322739 c 0.51399,-0.394161 0.85334,-1.16273 0.78266,-1.772634 -0.0567,-0.48896 -2.30593,-4.773912 -3.0742,-5.856534 -0.83222,-1.172688 -2.39463,-1.160204 -3.08435,0.02464 -0.52199,0.896781 -0.38923,1.368682 1.20055,4.266058 0.80291,1.463351 1.59195,2.814774 1.75342,3.003157 0.64646,0.754318 1.68754,0.898457 2.42191,0.335319 z m 22.36435,-5.052762 c 0.29498,-0.227211 1.3778,-1.313109 2.40619,-2.413106 2.06342,-2.207053 2.34072,-2.695561 2.06911,-3.645189 -0.2948,-1.030845 -1.32243,-1.646181 -2.31559,-1.386573 -0.42668,0.111541 -4.60596,4.350697 -4.93482,5.005525 -0.10744,0.213963 -0.19536,0.679007 -0.19536,1.033422 0,1.562369 1.71408,2.373643 2.97047,1.405921 z"
       style="color:#000000;clip-rule:nonzero;display:inline;overflow:visible;visibility:visible;opacity:1;isolation:auto;mix-blend-mode:normal;color-interpolation:sRGB;color-interpolation-filters:linearRGB;solid-color:#000000;solid-opacity:1;fill:#e57e93;fill-opacity:1;fill-rule:nonzero;stroke:none;stroke-width:15;stroke-linecap:butt;stroke-linejoin:miter;stroke-miterlimit:4;stroke-dasharray:none;stroke-dashoffset:0;stroke-opacity:1;color-rendering:auto;image-rendering:auto;shape-rendering:auto;text-rendering:auto;enable-background:accumulate" />
    <path
       style="color:#000000;clip-rule:nonzero;display:inline;overflow:visible;visibility:visible;opacity:1;isolation:auto;mix-blend-mode:normal;color-interpolation:sRGB;color-interpolation-filters:linearRGB;solid-color:#000000;solid-opacity:1;fill:#ffeeaa;fill-opacity:1;fill-rule:nonzero;stroke:none;stroke-width:15;stroke-linecap:butt;stroke-linejoin:miter;stroke-miterlimit:4;stroke-dasharray:none;stroke-dashoffset:0;stroke-opacity:1;color-rendering:auto;image-rendering:auto;shape-rendering:auto;text-rendering:auto;enable-background:accumulate"
       d="M 52.94413,95.71195 C 47.07322,94.707425 41.341,92.238082 36.81381,88.763315 c -2.90079,-2.226466 -8.22377,-7.88162 -8.22377,-8.736966 0,-0.384657 3.35401,-1.819372 4.59611,-1.966035 1.47123,-0.173718 3.28761,0.510596 4.30335,1.621243 0.40793,0.446041 1.51197,2.028045 2.45342,3.515561 1.52058,2.402517 1.89396,2.802114 3.34313,3.577911 1.38341,0.740587 1.9269,0.869766 3.57559,0.84986 3.60785,-0.04354 5.50532,-1.53748 7.6363,-6.012254 0.75864,-1.592998 1.63544,-3.188093 1.94846,-3.544655 1.16151,-1.323033 3.9467,-0.535488 4.87938,1.379704 0.29043,0.596371 0.77216,2.255999 1.07052,3.688072 0.80896,3.88299 1.78987,5.545456 3.96247,6.715898 2.67816,1.442788 5.60697,0.943431 7.75932,-1.32294 1.22791,-1.292986 1.5038,-1.828832 2.45598,-4.770129 1.1892,-3.673464 2.21455,-5.151469 3.62816,-5.229824 2.60571,-0.144437 4.47155,0.700299 5.46353,2.473526 0.37602,0.672211 0.68375,1.429072 0.68375,1.681911 0,0.918061 -4.27884,4.990009 -7.56375,7.198035 -3.90687,2.626096 -7.39995,4.171478 -11.96446,5.293257 -3.73226,0.917245 -10.19217,1.166985 -13.87717,0.53646 z"
       id="path5061"
       inkscape:connector-curvature="0" />
  </g>
  <g
     inkscape:groupmode="layer"
     id="layer8"
     inkscape:label="white box"
     transform="translate(-43.75796,-14.481087)"
     style="display:inline">
    <path
       style="fill:#ffffff;fill-opacity:1;stroke:none;stroke-width:13;stroke-linecap:butt;stroke-linejoin:miter;stroke-miterlimit:4;stroke-dasharray:none;stroke-opacity:1"
       d="m 160.82225,48.277058 143.89359,0 0,30.229747 -143.89359,0 z"
       id="rect4363"
       inkscape:connector-curvature="0" />
  </g>
  <g
     inkscape:label="example copy"
     id="g4255"
     inkscape:groupmode="layer"
     style="display:inline"
     transform="translate(-6.9180302e-6,5.4413076)">
    <g
       transform="translate(98.35007,6.5838938)"
       style="font-style:normal;font-weight:normal;font-size:50.36021042px;line-height:125%;font-family:sans-serif;letter-spacing:2.51801062px;word-spacing:0px;display:inline;fill:none;fill-opacity:1;stroke:#ffffff;stroke-width:13;stroke-linecap:butt;stroke-linejoin:miter;stroke-miterlimit:4;stroke-dasharray:none;stroke-opacity:1"
       id="flowRoot4257">
      <path
         d="m 32.460732,45.072993 q 0,1.401627 -0.737698,2.729485 -0.737699,1.254087 -3.467183,2.950793 -2.729484,1.696707 -6.049127,3.245874 -3.319643,1.475396 -6.417977,2.581944 -3.098333,1.032778 -4.57373,1.032778 -1.032778,0 -2.4344051,-0.516389 Q 7.3789849,56.654859 5.9773578,55.917161 4.5757307,55.179462 3.3954132,54.220454 2.2888655,53.261446 1.7724766,52.376208 1.4773972,51.859819 1.1823179,50.310652 0.96100833,48.761486 0.7396988,46.69593 0.59215911,44.630374 0.44461942,42.343509 0.29707973,39.982874 0.14954004,37.917318 0.07577019,35.777993 0.00200035,34.155056 q 0,-1.622936 0,-2.360635 0,-2.729484 0.14753969,-6.270437 Q 0.37084957,21.983032 0.88723849,18.442079 1.4036274,14.827357 2.3626354,11.581484 3.3954132,8.2618406 5.0921197,5.9749754 5.6085086,5.3110468 7.1576753,4.5733484 8.7068421,3.8356499 10.772398,3.1717213 q 2.139325,-0.6639286 4.57373,-1.2540873 2.434405,-0.5901588 4.6475,-0.95900804 2.286866,-0.44261907 4.131112,-0.6639286 1.844246,-0.2950793814 2.803254,-0.2950793814 1.106547,0 2.065555,0.5163889114 1.032778,0.44261907 1.696707,1.25408741 0.737698,0.8114683 1.106548,1.8442461 0.442619,0.959008 0.442619,2.0655556 0,0.959008 -0.29508,1.6229366 -0.221309,0.6639286 -0.737698,1.4753969 -0.737699,0.959008 -3.098334,2.2868655 -2.360635,1.327857 -5.163889,2.655714 -2.729484,1.254088 -5.311429,2.286865 -2.508174,1.032778 -3.540952,1.475397 -0.29508,1.696707 -0.663929,3.467183 -0.295079,1.696706 -0.442619,3.467183 2.286865,-1.180318 5.163889,-2.213096 2.877024,-1.032777 5.458969,-1.032777 5.237659,0 5.237659,5.163889 0,1.254087 -0.516389,2.213095 -0.442619,0.959008 -1.254088,1.696706 -0.737698,0.737699 -1.770476,1.327858 -0.959008,0.516389 -1.918016,1.032777 -2.360635,1.254088 -4.942579,2.213096 -2.581945,0.885238 -5.16389,1.770476 -0.147539,0.590159 -0.295079,1.327857 -0.14754,0.663929 -0.14754,1.327858 0,1.032777 0.14754,2.065555 0.14754,1.032778 0.295079,2.065556 0.885239,-0.29508 2.803255,-0.959008 1.991785,-0.663929 4.131111,-1.327857 2.139325,-0.663929 4.131111,-1.106548 1.991786,-0.516389 2.950794,-0.516389 1.106548,0 2.065556,0.516389 0.959008,0.442619 1.622936,1.254087 0.663929,0.737699 1.032778,1.770477 0.442619,1.032777 0.442619,2.065555 z"
         style="font-style:normal;font-variant:normal;font-weight:normal;font-stretch:normal;font-size:75.54032135px;font-family:Chewy;-inkscape-font-specification:Chewy;fill:none;fill-opacity:1;stroke:#ffffff;stroke-width:13;stroke-miterlimit:4;stroke-dasharray:none;stroke-opacity:1"
         id="path4581"
         inkscape:connector-curvature="0" />
      <path
         d="m 69.503028,18.589619 q 0,1.180317 -0.442619,2.508175 -0.44262,1.254087 -1.106548,2.581944 -0.663929,1.327857 -1.401627,2.581945 -0.737699,1.180317 -1.327857,2.213095 -1.475397,2.360635 -2.950794,4.79504 -1.401627,2.434405 -2.877024,4.79504 0.663928,1.032778 1.844246,2.877024 1.180317,1.844246 2.286865,3.909802 1.180318,1.991786 1.991786,3.983571 0.811468,1.991786 0.811468,3.393413 0,1.327857 -1.032778,2.581945 -1.032777,1.254087 -2.508174,1.254087 -1.549167,0 -3.172104,-1.106547 -1.549166,-1.106548 -3.098333,-2.581945 -1.475397,-1.549167 -2.729484,-3.172103 -1.254088,-1.696707 -2.139326,-2.803254 -0.959008,1.032777 -2.508175,2.803254 -1.475397,1.770476 -3.245873,3.467182 -1.696706,1.696707 -3.393413,2.950794 -1.696706,1.180318 -3.024563,1.180318 -1.549167,0 -2.434405,-1.106548 -0.885238,-1.106548 -0.885238,-2.581945 0,-1.475396 0.959008,-3.762262 1.032777,-2.286865 2.360635,-4.72127 1.401627,-2.434405 2.729484,-4.6475 1.401627,-2.213095 2.139325,-3.467183 -0.737698,-1.327857 -1.844246,-3.467182 -1.106547,-2.213096 -2.139325,-4.573731 -0.959008,-2.434405 -1.696707,-4.72127 -0.663928,-2.360635 -0.663928,-3.909802 0,-1.696706 1.032778,-2.729484 1.032777,-1.032778 2.729484,-1.032778 1.844246,0 3.467183,1.475397 1.622936,1.401627 3.024563,3.467183 1.401627,1.991786 2.434405,4.204881 1.106548,2.139325 1.770476,3.540953 0.885239,-1.327858 2.434405,-3.614723 1.622937,-2.286865 3.614723,-4.49996 1.991785,-2.213096 4.131111,-3.836032 2.139326,-1.622937 4.057341,-1.622937 1.254088,0 1.991786,1.106548 0.811469,1.032778 0.811469,2.286865 z"
         style="font-style:normal;font-variant:normal;font-weight:normal;font-stretch:normal;font-size:75.54032135px;font-family:Chewy;-inkscape-font-specification:Chewy;fill:none;fill-opacity:1;stroke:#ffffff;stroke-width:13;stroke-miterlimit:4;stroke-dasharray:none;stroke-opacity:1"
         id="path4583"
         inkscape:connector-curvature="0" />
      <path
         d="m 105.58632,46.253311 q 0,1.327857 -0.14754,3.467183 -0.0738,2.139325 -0.59016,4.204881 -0.51639,1.991786 -1.62293,3.467182 -1.10655,1.475397 -3.09834,1.475397 -2.729481,0 -4.204878,-1.770476 -1.475397,-1.770476 -1.401627,-4.426191 -2.360635,2.065556 -5.385199,3.245874 -2.950794,1.180317 -6.049127,1.180317 -2.139326,0 -4.057342,-1.032778 -1.918016,-1.032778 -3.393413,-2.655714 -1.475397,-1.622937 -2.360635,-3.614723 -0.885238,-2.065555 -0.885238,-4.057341 0,-3.540953 2.139326,-6.196667 2.213095,-2.655714 5.385198,-4.499961 3.172104,-1.918016 6.713056,-3.024563 3.614723,-1.106548 6.417977,-1.475397 0,-0.368849 0,-0.663929 0.07377,-0.295079 0.07377,-0.663928 0,-2.286866 -1.254088,-3.688493 -1.254087,-1.401627 -3.540952,-1.401627 -1.844246,0 -3.172104,0.663929 -1.327857,0.590159 -2.508174,1.401627 -1.180318,0.737698 -2.360635,1.401627 -1.180318,0.590159 -2.655715,0.590159 -1.622936,0 -2.803254,-1.032778 -1.106548,-1.032778 -1.106548,-2.655714 0,-2.434405 1.401627,-4.426191 1.475397,-1.991786 3.614723,-3.319643 2.213095,-1.401627 4.72127,-2.139326 2.581944,-0.811468 4.72127,-0.811468 1.991786,0 3.983572,0.516389 1.991785,0.442619 3.762262,1.475397 1.770476,0.959008 3.172103,2.434405 1.475395,1.401627 2.360635,3.319643 1.32786,2.729484 2.13933,5.827817 0.81146,3.024564 1.25408,6.270437 0.44262,3.172104 0.59016,6.417977 0.14754,3.172103 0.14754,6.196667 z m -11.803174,-2.360635 -0.221309,-5.01635 q -0.14754,0 -0.29508,0 -0.147539,-0.07377 -0.295079,-0.07377 -0.959008,0 -2.434405,0.516389 -1.401627,0.442619 -2.729484,1.327858 -1.327857,0.811468 -2.286865,1.844246 -0.885239,1.032778 -0.885239,2.139325 0,1.032778 0.737699,1.401627 0.737698,0.36885 1.696706,0.36885 1.622937,0 3.467183,-0.811469 1.844246,-0.885238 3.245873,-1.696706 z"
         style="font-style:normal;font-variant:normal;font-weight:normal;font-stretch:normal;font-size:75.54032135px;font-family:Chewy;-inkscape-font-specification:Chewy;fill:none;fill-opacity:1;stroke:#ffffff;stroke-width:13;stroke-miterlimit:4;stroke-dasharray:none;stroke-opacity:1"
         id="path4585"
         inkscape:connector-curvature="0" />
      <path
         d="m 157.38259,32.31081 q 0,1.401627 0,3.836032 0,2.360635 -0.14754,5.163889 -0.0738,2.803254 -0.44262,5.680278 -0.36885,2.803254 -1.18032,5.09012 -0.7377,2.286865 -1.91801,3.762262 -1.18032,1.475397 -3.02457,1.475397 -1.62293,0 -2.50817,-1.327858 -0.81147,-1.401627 -1.18032,-3.245873 -0.36885,-1.844246 -0.44262,-3.762262 0,-1.918016 0,-3.024564 0,-3.319643 0.22131,-6.491746 0.22131,-3.172103 0.22131,-6.491746 0,-0.36885 0,-1.327857 0,-0.959008 -0.14754,-1.918016 -0.14754,-0.959008 -0.51639,-1.696707 -0.29508,-0.737698 -0.95901,-0.737698 -1.32785,0 -2.13932,1.401627 -0.81147,1.327857 -1.32786,3.172103 -0.51639,1.844246 -0.7377,3.688492 -0.22131,1.770477 -0.29508,2.655715 -0.14754,0.959008 -0.29508,2.877024 -0.0738,1.918016 -0.29508,4.204881 -0.14754,2.286865 -0.59015,4.72127 -0.36885,2.360635 -1.03278,4.352421 -0.59016,1.918016 -1.54917,3.172103 -0.95901,1.254087 -2.36063,1.254087 -1.77048,0 -2.72949,-1.549166 -0.95901,-1.549167 -1.40163,-3.614723 -0.44261,-2.065555 -0.59015,-4.204881 -0.0738,-2.139325 -0.0738,-3.319643 0,-1.254087 0,-2.434405 0.0738,-1.180317 0.0738,-2.434405 0,-0.516389 0,-1.696706 0,-1.180318 -0.0738,-2.581945 0,-1.475397 -0.14754,-3.024563 -0.0738,-1.549167 -0.29508,-2.803254 -0.22131,-1.327858 -0.66393,-2.139326 -0.44262,-0.811468 -1.03278,-0.811468 -0.95901,0 -1.77048,1.254087 -0.81146,1.180318 -1.40162,2.877024 -0.59016,1.622937 -0.95901,3.245873 -0.29508,1.622937 -0.29508,2.360635 l 0,0.442619 q 0,3.540953 0.44262,6.934366 0.44262,3.393413 0.44262,6.934365 0,2.065556 -1.32786,3.836032 -1.32786,1.696707 -3.68849,1.696707 -1.69671,0 -2.80326,-1.254088 -1.10654,-1.327857 -1.84424,-3.393413 -0.7377,-2.065555 -1.18032,-4.49996 -0.36885,-2.508175 -0.51639,-4.86881 -0.14754,-2.434405 -0.22131,-4.352421 0,-1.991786 0,-2.950794 0,-1.106547 -0.0738,-3.245873 0,-2.139325 0.0738,-4.6475 0.14754,-2.508175 0.44262,-5.090119 0.29508,-2.655715 0.95901,-4.79504 0.66393,-2.139326 1.69671,-3.467183 1.10654,-1.401627 2.80325,-1.401627 1.91802,0 3.09833,1.032778 1.25409,1.032778 1.25409,3.098333 0,0.442619 -0.0738,0.885238 0,0.44262 -0.0738,0.811469 0.81147,-1.180318 1.99179,-2.360635 1.18031,-1.254088 2.50817,-2.213096 1.40163,-1.032777 2.9508,-1.622936 1.54916,-0.663929 3.09833,-0.663929 1.4754,0 2.65571,0.811468 1.18032,0.811469 2.06556,2.065556 0.88524,1.180318 1.4754,2.581945 0.59015,1.401627 0.81146,2.655714 0.7377,-1.327857 1.77048,-2.655714 1.10655,-1.401627 2.36064,-2.434405 1.25408,-1.032778 2.72948,-1.696707 1.54917,-0.663928 3.1721,-0.663928 1.54917,0 2.65572,1.106547 1.10655,1.106548 1.91801,2.877024 0.81147,1.696707 1.25409,3.909802 0.44262,2.139326 0.7377,4.278651 0.29508,2.065556 0.36885,3.909802 0.0738,1.770476 0.0738,2.803254 z"
         style="font-style:normal;font-variant:normal;font-weight:normal;font-stretch:normal;font-size:75.54032135px;font-family:Chewy;-inkscape-font-specification:Chewy;fill:none;fill-opacity:1;stroke:#ffffff;stroke-width:13;stroke-miterlimit:4;stroke-dasharray:none;stroke-opacity:1"
         id="path4587"
         inkscape:connector-curvature="0" />
      <path
         d="m 198.62977,34.671445 q 0,3.245873 -0.7377,7.155675 -0.66393,3.836032 -2.36064,7.155675 -1.62293,3.319643 -4.35242,5.532738 -2.65571,2.213096 -6.71305,2.213096 -1.03278,0 -2.13933,-0.14754 -1.10655,-0.14754 -2.13933,-0.516389 -0.959,-0.368849 -1.77047,-0.959008 -0.81147,-0.663928 -1.25409,-1.696706 l -0.66393,10.622857 q -0.0738,1.696707 -0.14754,4.057342 0,2.360635 -0.59016,4.499961 -0.51639,2.139325 -1.84424,3.614722 -1.25409,1.549167 -3.68849,1.549167 -1.40163,0 -2.36064,-1.475397 -0.95901,-1.401627 -1.54917,-3.614723 -0.51639,-2.213095 -0.81146,-4.942579 -0.29508,-2.729485 -0.36885,-5.237659 -0.0738,-2.508175 -0.0738,-4.573731 0,-2.065555 0,-3.024563 0,-4.94258 -0.0738,-9.81139 -0.0738,-4.942579 -0.0738,-9.885159 0,-0.885238 0,-2.729484 0,-1.918016 0.14754,-4.131112 0.14754,-2.213095 0.44262,-4.57373 0.36884,-2.360635 1.03277,-4.278651 0.66393,-1.991786 1.69671,-3.172103 1.03278,-1.254088 2.50817,-1.254088 0.95901,0 1.69671,0.590159 0.81147,0.516389 1.32786,1.401627 0.59016,0.811468 0.95901,1.770476 0.36884,0.959008 0.59015,1.770477 2.28687,-2.581945 5.23766,-3.909802 3.02457,-1.327857 6.41798,-1.327857 3.54095,0 5.75405,1.991786 2.28686,1.991785 3.54095,4.942579 1.32786,2.950794 1.84425,6.344207 0.51639,3.319643 0.51639,6.049127 z m -10.54909,-0.590159 q 0,-1.106547 -0.22131,-2.213095 -0.14754,-1.180317 -0.66393,-2.139325 -0.44262,-1.032778 -1.32786,-1.622937 -0.88524,-0.663929 -2.21309,-0.663929 -1.77048,0 -3.76227,1.180318 -1.91801,1.106548 -2.87702,2.581944 -0.36885,0.590159 -0.44262,1.918016 -0.0738,1.327858 -0.0738,1.991786 0,0.516389 0,1.401627 0.0738,0.811469 0.14754,1.696707 0.0738,0.885238 0.14754,1.696706 0.14754,0.811468 0.36885,1.254088 0.22131,0.663928 0.95901,1.254087 0.7377,0.516389 1.62294,0.959008 0.88523,0.442619 1.77047,0.663928 0.95901,0.22131 1.62294,0.22131 1.54916,0 2.50817,-1.180318 0.95901,-1.180317 1.4754,-2.803254 0.59016,-1.622936 0.7377,-3.319643 0.22131,-1.770476 0.22131,-2.877024 z"
         style="font-style:normal;font-variant:normal;font-weight:normal;font-stretch:normal;font-size:75.54032135px;font-family:Chewy;-inkscape-font-specification:Chewy;fill:none;fill-opacity:1;stroke:#ffffff;stroke-width:13;stroke-miterlimit:4;stroke-dasharray:none;stroke-opacity:1"
         id="path4589"
         inkscape:connector-curvature="0" />
      <path
         d="m 219.51646,11.950333 q 0,3.983572 -0.36885,8.040913 -0.29507,3.983572 -0.29507,8.040913 0,5.237659 0.29507,10.475318 0.36885,5.237659 0.36885,10.549088 0,1.327857 -0.14754,3.024564 -0.14754,1.622936 -0.73769,3.024563 -0.51639,1.401627 -1.62294,2.360635 -1.10655,0.959008 -2.95079,0.959008 -1.77048,0 -3.09834,-1.770476 -1.25409,-1.696706 -2.13932,-4.352421 -0.81147,-2.729484 -1.40163,-6.049127 -0.51639,-3.319643 -0.81147,-6.417977 -0.22131,-3.172103 -0.36885,-5.754048 -0.0738,-2.655714 -0.0738,-3.909801 0,-1.401627 0.0738,-4.057342 0.14754,-2.655714 0.51639,-5.754048 0.36885,-3.098333 0.95901,-6.270437 0.66393,-3.245873 1.69671,-5.8278174 1.03277,-2.6557144 2.4344,-4.278651 1.4754,-1.6967064 3.46718,-1.6967064 1.62294,0 2.43441,1.1065477 0.88524,1.0327778 1.25409,2.5819445 0.36884,1.4753969 0.44261,3.1721034 0.0738,1.6229362 0.0738,2.8032542 z"
         style="font-style:normal;font-variant:normal;font-weight:normal;font-stretch:normal;font-size:75.54032135px;font-family:Chewy;-inkscape-font-specification:Chewy;fill:none;fill-opacity:1;stroke:#ffffff;stroke-width:13;stroke-miterlimit:4;stroke-dasharray:none;stroke-opacity:1"
         id="path4591"
         inkscape:connector-curvature="0" />
      <path
         d="m 258.62432,43.523827 q 0,2.508174 -1.62293,4.942579 -1.54917,2.360635 -3.98357,4.278651 -2.36064,1.844246 -5.09012,3.024564 -2.72949,1.106548 -5.01635,1.106548 -3.90981,0 -7.00814,-1.918016 -3.02456,-1.991786 -5.09012,-5.01635 -2.06555,-3.024564 -3.1721,-6.639286 -1.03278,-3.688492 -1.03278,-7.155675 0,-3.688492 1.03278,-7.893373 1.03278,-4.204882 3.09833,-7.745834 2.13933,-3.540953 5.31143,-5.901588 3.24587,-2.360635 7.67206,-2.360635 2.50818,0 4.79504,0.885238 2.28687,0.811469 3.98358,2.360635 1.6967,1.549167 2.72948,3.688493 1.03278,2.139325 1.03278,4.79504 0,3.467182 -1.4754,6.491746 -1.4754,3.024564 -3.9098,5.237659 -2.4344,2.213095 -5.60651,3.614722 -3.1721,1.327858 -6.49174,1.475397 0.29507,2.139326 1.6967,3.098334 1.4754,0.959008 3.46718,0.959008 1.4754,0 2.87703,-0.737699 1.40163,-0.737698 2.72948,-1.622936 1.32786,-0.959008 2.58195,-1.696707 1.32785,-0.737698 2.65571,-0.737698 1.4754,0 2.65572,0.959008 1.18031,0.959008 1.18031,2.508175 z M 246.67361,25.450215 q 0,-0.959008 -0.51639,-1.991786 -0.51639,-1.032778 -1.62294,-1.032778 -1.62293,0 -2.72948,0.885238 -1.10655,0.811468 -1.84425,2.139326 -0.7377,1.254087 -1.18031,2.729484 -0.36885,1.475397 -0.44262,2.729484 1.03277,-0.221309 2.4344,-0.590159 1.4754,-0.368849 2.72949,-0.959008 1.32785,-0.663928 2.21309,-1.622936 0.95901,-0.959008 0.95901,-2.286865 z"
         style="font-style:normal;font-variant:normal;font-weight:normal;font-stretch:normal;font-size:75.54032135px;font-family:Chewy;-inkscape-font-specification:Chewy;fill:none;fill-opacity:1;stroke:#ffffff;stroke-width:13;stroke-miterlimit:4;stroke-dasharray:none;stroke-opacity:1"
         id="path4593"
         inkscape:connector-curvature="0" />
    </g>
  </g>
  <g
     inkscape:groupmode="layer"
     id="layer1"
     inkscape:label="example"
     transform="translate(-6.9180302e-6,5.4413076)">
    <g
       transform="translate(98.35007,6.5838938)"
       style="font-style:normal;font-weight:normal;font-size:50.36021042px;line-height:125%;font-family:sans-serif;letter-spacing:2.51801062px;word-spacing:0px;display:inline;fill:#653400;fill-opacity:1;stroke:none;stroke-width:1px;stroke-linecap:butt;stroke-linejoin:miter;stroke-opacity:1"
       id="flowRoot4222">
      <path
         d="m 32.460732,45.072993 q 0,1.401627 -0.737698,2.729485 -0.737699,1.254087 -3.467183,2.950793 -2.729484,1.696707 -6.049127,3.245874 -3.319643,1.475396 -6.417977,2.581944 -3.098333,1.032778 -4.57373,1.032778 -1.032778,0 -2.4344051,-0.516389 Q 7.3789849,56.654859 5.9773578,55.917161 4.5757307,55.179462 3.3954132,54.220454 2.2888655,53.261446 1.7724766,52.376208 1.4773972,51.859819 1.1823179,50.310652 0.96100833,48.761486 0.7396988,46.69593 0.59215911,44.630374 0.44461942,42.343509 0.29707973,39.982874 0.14954004,37.917318 0.07577019,35.777993 0.00200035,34.155056 q 0,-1.622936 0,-2.360635 0,-2.729484 0.14753969,-6.270437 Q 0.37084957,21.983032 0.88723849,18.442079 1.4036274,14.827357 2.3626354,11.581484 3.3954132,8.2618406 5.0921197,5.9749754 5.6085086,5.3110468 7.1576753,4.5733484 8.7068421,3.8356499 10.772398,3.1717213 q 2.139325,-0.6639286 4.57373,-1.2540873 2.434405,-0.5901588 4.6475,-0.95900804 2.286866,-0.44261907 4.131112,-0.6639286 1.844246,-0.2950793814 2.803254,-0.2950793814 1.106547,0 2.065555,0.5163889114 1.032778,0.44261907 1.696707,1.25408741 0.737698,0.8114683 1.106548,1.8442461 0.442619,0.959008 0.442619,2.0655556 0,0.959008 -0.29508,1.6229366 -0.221309,0.6639286 -0.737698,1.4753969 -0.737699,0.959008 -3.098334,2.2868655 -2.360635,1.327857 -5.163889,2.655714 -2.729484,1.254088 -5.311429,2.286865 -2.508174,1.032778 -3.540952,1.475397 -0.29508,1.696707 -0.663929,3.467183 -0.295079,1.696706 -0.442619,3.467183 2.286865,-1.180318 5.163889,-2.213096 2.877024,-1.032777 5.458969,-1.032777 5.237659,0 5.237659,5.163889 0,1.254087 -0.516389,2.213095 -0.442619,0.959008 -1.254088,1.696706 -0.737698,0.737699 -1.770476,1.327858 -0.959008,0.516389 -1.918016,1.032777 -2.360635,1.254088 -4.942579,2.213096 -2.581945,0.885238 -5.16389,1.770476 -0.147539,0.590159 -0.295079,1.327857 -0.14754,0.663929 -0.14754,1.327858 0,1.032777 0.14754,2.065555 0.14754,1.032778 0.295079,2.065556 0.885239,-0.29508 2.803255,-0.959008 1.991785,-0.663929 4.131111,-1.327857 2.139325,-0.663929 4.131111,-1.106548 1.991786,-0.516389 2.950794,-0.516389 1.106548,0 2.065556,0.516389 0.959008,0.442619 1.622936,1.254087 0.663929,0.737699 1.032778,1.770477 0.442619,1.032777 0.442619,2.065555 z"
         style="font-style:normal;font-variant:normal;font-weight:normal;font-stretch:normal;font-size:75.54032135px;font-family:Chewy;-inkscape-font-specification:Chewy;fill:#653400;fill-opacity:1"
         id="path4566"
         inkscape:connector-curvature="0" />
      <path
         d="m 69.503028,18.589619 q 0,1.180317 -0.442619,2.508175 -0.44262,1.254087 -1.106548,2.581944 -0.663929,1.327857 -1.401627,2.581945 -0.737699,1.180317 -1.327857,2.213095 -1.475397,2.360635 -2.950794,4.79504 -1.401627,2.434405 -2.877024,4.79504 0.663928,1.032778 1.844246,2.877024 1.180317,1.844246 2.286865,3.909802 1.180318,1.991786 1.991786,3.983571 0.811468,1.991786 0.811468,3.393413 0,1.327857 -1.032778,2.581945 -1.032777,1.254087 -2.508174,1.254087 -1.549167,0 -3.172104,-1.106547 -1.549166,-1.106548 -3.098333,-2.581945 -1.475397,-1.549167 -2.729484,-3.172103 -1.254088,-1.696707 -2.139326,-2.803254 -0.959008,1.032777 -2.508175,2.803254 -1.475397,1.770476 -3.245873,3.467182 -1.696706,1.696707 -3.393413,2.950794 -1.696706,1.180318 -3.024563,1.180318 -1.549167,0 -2.434405,-1.106548 -0.885238,-1.106548 -0.885238,-2.581945 0,-1.475396 0.959008,-3.762262 1.032777,-2.286865 2.360635,-4.72127 1.401627,-2.434405 2.729484,-4.6475 1.401627,-2.213095 2.139325,-3.467183 -0.737698,-1.327857 -1.844246,-3.467182 -1.106547,-2.213096 -2.139325,-4.573731 -0.959008,-2.434405 -1.696707,-4.72127 -0.663928,-2.360635 -0.663928,-3.909802 0,-1.696706 1.032778,-2.729484 1.032777,-1.032778 2.729484,-1.032778 1.844246,0 3.467183,1.475397 1.622936,1.401627 3.024563,3.467183 1.401627,1.991786 2.434405,4.204881 1.106548,2.139325 1.770476,3.540953 0.885239,-1.327858 2.434405,-3.614723 1.622937,-2.286865 3.614723,-4.49996 1.991785,-2.213096 4.131111,-3.836032 2.139326,-1.622937 4.057341,-1.622937 1.254088,0 1.991786,1.106548 0.811469,1.032778 0.811469,2.286865 z"
         style="font-style:normal;font-variant:normal;font-weight:normal;font-stretch:normal;font-size:75.54032135px;font-family:Chewy;-inkscape-font-specification:Chewy;fill:#653400;fill-opacity:1"
         id="path4568"
         inkscape:connector-curvature="0" />
      <path
         d="m 105.58632,46.253311 q 0,1.327857 -0.14754,3.467183 -0.0738,2.139325 -0.59016,4.204881 -0.51639,1.991786 -1.62293,3.467182 -1.10655,1.475397 -3.09834,1.475397 -2.729481,0 -4.204878,-1.770476 -1.475397,-1.770476 -1.401627,-4.426191 -2.360635,2.065556 -5.385199,3.245874 -2.950794,1.180317 -6.049127,1.180317 -2.139326,0 -4.057342,-1.032778 -1.918016,-1.032778 -3.393413,-2.655714 -1.475397,-1.622937 -2.360635,-3.614723 -0.885238,-2.065555 -0.885238,-4.057341 0,-3.540953 2.139326,-6.196667 2.213095,-2.655714 5.385198,-4.499961 3.172104,-1.918016 6.713056,-3.024563 3.614723,-1.106548 6.417977,-1.475397 0,-0.368849 0,-0.663929 0.07377,-0.295079 0.07377,-0.663928 0,-2.286866 -1.254088,-3.688493 -1.254087,-1.401627 -3.540952,-1.401627 -1.844246,0 -3.172104,0.663929 -1.327857,0.590159 -2.508174,1.401627 -1.180318,0.737698 -2.360635,1.401627 -1.180318,0.590159 -2.655715,0.590159 -1.622936,0 -2.803254,-1.032778 -1.106548,-1.032778 -1.106548,-2.655714 0,-2.434405 1.401627,-4.426191 1.475397,-1.991786 3.614723,-3.319643 2.213095,-1.401627 4.72127,-2.139326 2.581944,-0.811468 4.72127,-0.811468 1.991786,0 3.983572,0.516389 1.991785,0.442619 3.762262,1.475397 1.770476,0.959008 3.172103,2.434405 1.475395,1.401627 2.360635,3.319643 1.32786,2.729484 2.13933,5.827817 0.81146,3.024564 1.25408,6.270437 0.44262,3.172104 0.59016,6.417977 0.14754,3.172103 0.14754,6.196667 z m -11.803174,-2.360635 -0.221309,-5.01635 q -0.14754,0 -0.29508,0 -0.147539,-0.07377 -0.295079,-0.07377 -0.959008,0 -2.434405,0.516389 -1.401627,0.442619 -2.729484,1.327858 -1.327857,0.811468 -2.286865,1.844246 -0.885239,1.032778 -0.885239,2.139325 0,1.032778 0.737699,1.401627 0.737698,0.36885 1.696706,0.36885 1.622937,0 3.467183,-0.811469 1.844246,-0.885238 3.245873,-1.696706 z"
         style="font-style:normal;font-variant:normal;font-weight:normal;font-stretch:normal;font-size:75.54032135px;font-family:Chewy;-inkscape-font-specification:Chewy;fill:#653400;fill-opacity:1"
         id="path4570"
         inkscape:connector-curvature="0" />
      <path
         d="m 157.38259,32.31081 q 0,1.401627 0,3.836032 0,2.360635 -0.14754,5.163889 -0.0738,2.803254 -0.44262,5.680278 -0.36885,2.803254 -1.18032,5.09012 -0.7377,2.286865 -1.91801,3.762262 -1.18032,1.475397 -3.02457,1.475397 -1.62293,0 -2.50817,-1.327858 -0.81147,-1.401627 -1.18032,-3.245873 -0.36885,-1.844246 -0.44262,-3.762262 0,-1.918016 0,-3.024564 0,-3.319643 0.22131,-6.491746 0.22131,-3.172103 0.22131,-6.491746 0,-0.36885 0,-1.327857 0,-0.959008 -0.14754,-1.918016 -0.14754,-0.959008 -0.51639,-1.696707 -0.29508,-0.737698 -0.95901,-0.737698 -1.32785,0 -2.13932,1.401627 -0.81147,1.327857 -1.32786,3.172103 -0.51639,1.844246 -0.7377,3.688492 -0.22131,1.770477 -0.29508,2.655715 -0.14754,0.959008 -0.29508,2.877024 -0.0738,1.918016 -0.29508,4.204881 -0.14754,2.286865 -0.59015,4.72127 -0.36885,2.360635 -1.03278,4.352421 -0.59016,1.918016 -1.54917,3.172103 -0.95901,1.254087 -2.36063,1.254087 -1.77048,0 -2.72949,-1.549166 -0.95901,-1.549167 -1.40163,-3.614723 -0.44261,-2.065555 -0.59015,-4.204881 -0.0738,-2.139325 -0.0738,-3.319643 0,-1.254087 0,-2.434405 0.0738,-1.180317 0.0738,-2.434405 0,-0.516389 0,-1.696706 0,-1.180318 -0.0738,-2.581945 0,-1.475397 -0.14754,-3.024563 -0.0738,-1.549167 -0.29508,-2.803254 -0.22131,-1.327858 -0.66393,-2.139326 -0.44262,-0.811468 -1.03278,-0.811468 -0.95901,0 -1.77048,1.254087 -0.81146,1.180318 -1.40162,2.877024 -0.59016,1.622937 -0.95901,3.245873 -0.29508,1.622937 -0.29508,2.360635 l 0,0.442619 q 0,3.540953 0.44262,6.934366 0.44262,3.393413 0.44262,6.934365 0,2.065556 -1.32786,3.836032 -1.32786,1.696707 -3.68849,1.696707 -1.69671,0 -2.80326,-1.254088 -1.10654,-1.327857 -1.84424,-3.393413 -0.7377,-2.065555 -1.18032,-4.49996 -0.36885,-2.508175 -0.51639,-4.86881 -0.14754,-2.434405 -0.22131,-4.352421 0,-1.991786 0,-2.950794 0,-1.106547 -0.0738,-3.245873 0,-2.139325 0.0738,-4.6475 0.14754,-2.508175 0.44262,-5.090119 0.29508,-2.655715 0.95901,-4.79504 0.66393,-2.139326 1.69671,-3.467183 1.10654,-1.401627 2.80325,-1.401627 1.91802,0 3.09833,1.032778 1.25409,1.032778 1.25409,3.098333 0,0.442619 -0.0738,0.885238 0,0.44262 -0.0738,0.811469 0.81147,-1.180318 1.99179,-2.360635 1.18031,-1.254088 2.50817,-2.213096 1.40163,-1.032777 2.9508,-1.622936 1.54916,-0.663929 3.09833,-0.663929 1.4754,0 2.65571,0.811468 1.18032,0.811469 2.06556,2.065556 0.88524,1.180318 1.4754,2.581945 0.59015,1.401627 0.81146,2.655714 0.7377,-1.327857 1.77048,-2.655714 1.10655,-1.401627 2.36064,-2.434405 1.25408,-1.032778 2.72948,-1.696707 1.54917,-0.663928 3.1721,-0.663928 1.54917,0 2.65572,1.106547 1.10655,1.106548 1.91801,2.877024 0.81147,1.696707 1.25409,3.909802 0.44262,2.139326 0.7377,4.278651 0.29508,2.065556 0.36885,3.909802 0.0738,1.770476 0.0738,2.803254 z"
         style="font-style:normal;font-variant:normal;font-weight:normal;font-stretch:normal;font-size:75.54032135px;font-family:Chewy;-inkscape-font-specification:Chewy;fill:#653400;fill-opacity:1"
         id="path4572"
         inkscape:connector-curvature="0" />
      <path
         d="m 198.62977,34.671445 q 0,3.245873 -0.7377,7.155675 -0.66393,3.836032 -2.36064,7.155675 -1.62293,3.319643 -4.35242,5.532738 -2.65571,2.213096 -6.71305,2.213096 -1.03278,0 -2.13933,-0.14754 -1.10655,-0.14754 -2.13933,-0.516389 -0.959,-0.368849 -1.77047,-0.959008 -0.81147,-0.663928 -1.25409,-1.696706 l -0.66393,10.622857 q -0.0738,1.696707 -0.14754,4.057342 0,2.360635 -0.59016,4.499961 -0.51639,2.139325 -1.84424,3.614722 -1.25409,1.549167 -3.68849,1.549167 -1.40163,0 -2.36064,-1.475397 -0.95901,-1.401627 -1.54917,-3.614723 -0.51639,-2.213095 -0.81146,-4.942579 -0.29508,-2.729485 -0.36885,-5.237659 -0.0738,-2.508175 -0.0738,-4.573731 0,-2.065555 0,-3.024563 0,-4.94258 -0.0738,-9.81139 -0.0738,-4.942579 -0.0738,-9.885159 0,-0.885238 0,-2.729484 0,-1.918016 0.14754,-4.131112 0.14754,-2.213095 0.44262,-4.57373 0.36884,-2.360635 1.03277,-4.278651 0.66393,-1.991786 1.69671,-3.172103 1.03278,-1.254088 2.50817,-1.254088 0.95901,0 1.69671,0.590159 0.81147,0.516389 1.32786,1.401627 0.59016,0.811468 0.95901,1.770476 0.36884,0.959008 0.59015,1.770477 2.28687,-2.581945 5.23766,-3.909802 3.02457,-1.327857 6.41798,-1.327857 3.54095,0 5.75405,1.991786 2.28686,1.991785 3.54095,4.942579 1.32786,2.950794 1.84425,6.344207 0.51639,3.319643 0.51639,6.049127 z m -10.54909,-0.590159 q 0,-1.106547 -0.22131,-2.213095 -0.14754,-1.180317 -0.66393,-2.139325 -0.44262,-1.032778 -1.32786,-1.622937 -0.88524,-0.663929 -2.21309,-0.663929 -1.77048,0 -3.76227,1.180318 -1.91801,1.106548 -2.87702,2.581944 -0.36885,0.590159 -0.44262,1.918016 -0.0738,1.327858 -0.0738,1.991786 0,0.516389 0,1.401627 0.0738,0.811469 0.14754,1.696707 0.0738,0.885238 0.14754,1.696706 0.14754,0.811468 0.36885,1.254088 0.22131,0.663928 0.95901,1.254087 0.7377,0.516389 1.62294,0.959008 0.88523,0.442619 1.77047,0.663928 0.95901,0.22131 1.62294,0.22131 1.54916,0 2.50817,-1.180318 0.95901,-1.180317 1.4754,-2.803254 0.59016,-1.622936 0.7377,-3.319643 0.22131,-1.770476 0.22131,-2.877024 z"
         style="font-style:normal;font-variant:normal;font-weight:normal;font-stretch:normal;font-size:75.54032135px;font-family:Chewy;-inkscape-font-specification:Chewy;fill:#653400;fill-opacity:1"
         id="path4574"
         inkscape:connector-curvature="0" />
      <path
         d="m 219.51646,11.950333 q 0,3.983572 -0.36885,8.040913 -0.29507,3.983572 -0.29507,8.040913 0,5.237659 0.29507,10.475318 0.36885,5.237659 0.36885,10.549088 0,1.327857 -0.14754,3.024564 -0.14754,1.622936 -0.73769,3.024563 -0.51639,1.401627 -1.62294,2.360635 -1.10655,0.959008 -2.95079,0.959008 -1.77048,0 -3.09834,-1.770476 -1.25409,-1.696706 -2.13932,-4.352421 -0.81147,-2.729484 -1.40163,-6.049127 -0.51639,-3.319643 -0.81147,-6.417977 -0.22131,-3.172103 -0.36885,-5.754048 -0.0738,-2.655714 -0.0738,-3.909801 0,-1.401627 0.0738,-4.057342 0.14754,-2.655714 0.51639,-5.754048 0.36885,-3.098333 0.95901,-6.270437 0.66393,-3.245873 1.69671,-5.8278174 1.03277,-2.6557144 2.4344,-4.278651 1.4754,-1.6967064 3.46718,-1.6967064 1.62294,0 2.43441,1.1065477 0.88524,1.0327778 1.25409,2.5819445 0.36884,1.4753969 0.44261,3.1721034 0.0738,1.6229362 0.0738,2.8032542 z"
         style="font-style:normal;font-variant:normal;font-weight:normal;font-stretch:normal;font-size:75.54032135px;font-family:Chewy;-inkscape-font-specification:Chewy;fill:#653400;fill-opacity:1"
         id="path4576"
         inkscape:connector-curvature="0" />
      <path
         d="m 258.62432,43.523827 q 0,2.508174 -1.62293,4.942579 -1.54917,2.360635 -3.98357,4.278651 -2.36064,1.844246 -5.09012,3.024564 -2.72949,1.106548 -5.01635,1.106548 -3.90981,0 -7.00814,-1.918016 -3.02456,-1.991786 -5.09012,-5.01635 -2.06555,-3.024564 -3.1721,-6.639286 -1.03278,-3.688492 -1.03278,-7.155675 0,-3.688492 1.03278,-7.893373 1.03278,-4.204882 3.09833,-7.745834 2.13933,-3.540953 5.31143,-5.901588 3.24587,-2.360635 7.67206,-2.360635 2.50818,0 4.79504,0.885238 2.28687,0.811469 3.98358,2.360635 1.6967,1.549167 2.72948,3.688493 1.03278,2.139325 1.03278,4.79504 0,3.467182 -1.4754,6.491746 -1.4754,3.024564 -3.9098,5.237659 -2.4344,2.213095 -5.60651,3.614722 -3.1721,1.327858 -6.49174,1.475397 0.29507,2.139326 1.6967,3.098334 1.4754,0.959008 3.46718,0.959008 1.4754,0 2.87703,-0.737699 1.40163,-0.737698 2.72948,-1.622936 1.32786,-0.959008 2.58195,-1.696707 1.32785,-0.737698 2.65571,-0.737698 1.4754,0 2.65572,0.959008 1.18031,0.959008 1.18031,2.508175 z M 246.67361,25.450215 q 0,-0.959008 -0.51639,-1.991786 -0.51639,-1.032778 -1.62294,-1.032778 -1.62293,0 -2.72948,0.885238 -1.10655,0.811468 -1.84425,2.139326 -0.7377,1.254087 -1.18031,2.729484 -0.36885,1.475397 -0.44262,2.729484 1.03277,-0.221309 2.4344,-0.590159 1.4754,-0.368849 2.72949,-0.959008 1.32785,-0.663928 2.21309,-1.622936 0.95901,-0.959008 0.95901,-2.286865 z"
         style="font-style:normal;font-variant:normal;font-weight:normal;font-stretch:normal;font-size:75.54032135px;font-family:Chewy;-inkscape-font-specification:Chewy;fill:#653400;fill-opacity:1"
         id="path4578"
         inkscape:connector-curvature="0" />
    </g>
  </g>
  <g
     inkscape:groupmode="layer"
     id="layer7"
     inkscape:label="layer stroke"
     style="display:none"
     transform="translate(-43.75796,-14.481087)">
    <g
       transform="translate(3.0229764,-91.293833)"
       style="font-style:normal;font-weight:normal;font-size:40px;line-height:125%;font-family:sans-serif;letter-spacing:2px;word-spacing:0px;fill:none;fill-opacity:1;stroke:#ffffff;stroke-width:13;stroke-linecap:butt;stroke-linejoin:miter;stroke-miterlimit:4;stroke-dasharray:none;stroke-opacity:1"
       id="flowRoot4213-3">
      <path
         d="m 165.0293,129.8011 q 0,2.54882 -0.63721,5.73486 -0.63721,3.11523 -1.62842,6.37207 -0.92041,3.25683 -2.05322,6.37207 -1.06201,3.04443 -1.91162,5.52246 -0.56641,1.55762 -1.27442,3.89404 -0.6372,2.26563 -1.55761,4.81446 -0.84961,2.54882 -1.91162,5.09765 -1.06202,2.54883 -2.33643,4.60205 -1.27441,1.98242 -2.83203,3.25684 -1.48682,1.27441 -3.25684,1.27441 -1.48681,0 -2.90283,-1.34521 -1.34521,-1.34522 -2.61963,-3.39844 -1.20361,-2.12402 -2.33642,-4.67285 -1.06202,-2.61963 -1.98243,-5.09766 -0.84961,-2.47802 -1.48681,-4.60205 -0.56641,-2.12402 -0.84961,-3.25683 -1.41602,-5.52246 -2.69043,-11.11573 -1.27442,-5.66406 -1.27442,-11.32812 0,-1.41602 0.14161,-2.90283 0.1416,-1.55762 0.708,-2.83203 0.56641,-1.27442 1.55762,-2.05323 1.06201,-0.84961 2.90283,-0.84961 1.55762,0 2.83203,1.77002 1.34522,1.69922 2.40723,4.46045 1.06201,2.76123 1.91162,6.15967 0.92041,3.39844 1.69922,6.72607 0.77881,3.25684 1.48682,6.15967 0.70801,2.83203 1.41601,4.53125 0.42481,-1.41601 1.20362,-4.10644 0.84961,-2.76123 1.91162,-6.01807 1.13281,-3.25684 2.40722,-6.65527 1.34522,-3.46924 2.76123,-6.23047 1.48682,-2.83203 3.04444,-4.60205 1.55762,-1.77002 3.18603,-1.77002 1.20362,0 1.98242,0.5664 0.77881,0.56641 1.20362,1.48682 0.4248,0.92041 0.5664,1.98242 0.21241,1.06201 0.21241,2.05323 z"
         style="font-style:normal;font-variant:normal;font-weight:normal;font-stretch:normal;font-size:72.5px;font-family:Chewy;-inkscape-font-specification:Chewy;fill:none;fill-opacity:1;stroke:#ffffff;stroke-width:13;stroke-miterlimit:4;stroke-dasharray:none;stroke-opacity:1"
         id="path4703"
         inkscape:connector-curvature="0" />
      <path
         d="m 199.17285,156.42219 q 0,3.89404 -0.77881,7.71728 -0.77881,3.82325 -2.61963,6.86768 -1.84082,2.97363 -4.95605,4.81445 -3.04443,1.84082 -7.64649,1.84082 -4.53125,0 -7.57568,-1.77002 -3.04443,-1.84082 -4.88525,-4.81445 -1.77002,-2.97363 -2.54883,-6.72607 -0.70801,-3.75245 -0.70801,-7.64649 0,-4.24804 0.99121,-8.42529 0.2124,-1.13281 0.77881,-3.11524 0.63721,-2.05322 1.55762,-3.96484 0.99121,-1.98242 2.19482,-3.39844 1.27442,-1.41601 2.76123,-1.41601 1.41602,0 2.26563,0.77881 0.84961,0.7788 1.34521,1.98242 0.49561,1.13281 0.63721,2.47803 0.1416,1.27441 0.1416,2.33642 0,1.62842 -0.2832,3.18604 -0.2124,1.55761 -0.49561,3.11523 -0.2832,2.12402 -0.5664,4.24805 -0.21241,2.12402 -0.21241,4.24804 0,1.06202 0.0708,2.40723 0.14161,1.27442 0.56641,2.47803 0.42481,1.20361 1.20361,2.05322 0.77881,0.77881 2.19483,0.77881 1.84082,0 2.90283,-0.99121 1.13281,-0.99121 1.62842,-2.47803 0.5664,-1.48681 0.70801,-3.18603 0.1416,-1.69922 0.1416,-3.11524 0,-3.11523 -0.42481,-6.08887 -0.4248,-3.04443 -0.77881,-6.15966 -0.0708,-0.35401 -0.0708,-0.99121 0,-1.06202 0.35401,-2.12403 0.354,-1.06201 0.99121,-1.91162 0.63721,-0.84961 1.55762,-1.34521 0.92041,-0.56641 2.05322,-0.56641 1.55762,0 2.76123,1.13281 1.20361,1.06201 1.98242,2.83203 0.84961,1.69922 1.34522,3.89405 0.5664,2.12402 0.84961,4.24804 0.354,2.05323 0.4248,3.89405 0.1416,1.84082 0.1416,2.90283 z"
         style="font-style:normal;font-variant:normal;font-weight:normal;font-stretch:normal;font-size:72.5px;font-family:Chewy;-inkscape-font-specification:Chewy;fill:none;fill-opacity:1;stroke:#ffffff;stroke-width:13;stroke-miterlimit:4;stroke-dasharray:none;stroke-opacity:1"
         id="path4705"
         inkscape:connector-curvature="0" />
      <path
         d="m 235.22803,164.06867 q 0,2.40723 -1.55762,4.74366 -1.48682,2.26562 -3.82324,4.10644 -2.26563,1.77002 -4.88526,2.90283 -2.61962,1.06201 -4.81445,1.06201 -3.75244,0 -6.72607,-1.84082 -2.90284,-1.91162 -4.88526,-4.81445 -1.98242,-2.90283 -3.04443,-6.37207 -0.99121,-3.54004 -0.99121,-6.86767 0,-3.54004 0.99121,-7.57569 0.99121,-4.03564 2.97363,-7.43408 2.05322,-3.39844 5.09766,-5.66406 3.11523,-2.26563 7.36328,-2.26563 2.40723,0 4.60205,0.84961 2.19482,0.77881 3.82324,2.26563 1.62842,1.48681 2.61963,3.54004 0.99121,2.05322 0.99121,4.60205 0,3.32763 -1.41601,6.23046 -1.41602,2.90284 -3.75244,5.02686 -2.33643,2.12402 -5.38086,3.46924 -3.04444,1.27441 -6.23047,1.41601 0.2832,2.05323 1.62842,2.97364 1.41601,0.92041 3.32763,0.92041 1.41602,0 2.76123,-0.70801 1.34522,-0.70801 2.61963,-1.55762 1.27442,-0.92041 2.47803,-1.62842 1.27441,-0.708 2.54883,-0.708 1.41601,0 2.54882,0.92041 1.13282,0.92041 1.13282,2.40722 z M 223.7583,146.72248 q 0,-0.92041 -0.4956,-1.91162 -0.49561,-0.99121 -1.55762,-0.99121 -1.55762,0 -2.61963,0.84961 -1.06201,0.77881 -1.77002,2.05322 -0.70801,1.20362 -1.13281,2.61963 -0.35401,1.41602 -0.42481,2.61963 0.99121,-0.2124 2.33643,-0.56641 1.41601,-0.354 2.61963,-0.92041 1.27441,-0.6372 2.12402,-1.55761 0.92041,-0.92041 0.92041,-2.19483 z"
         style="font-style:normal;font-variant:normal;font-weight:normal;font-stretch:normal;font-size:72.5px;font-family:Chewy;-inkscape-font-specification:Chewy;fill:none;fill-opacity:1;stroke:#ffffff;stroke-width:13;stroke-miterlimit:4;stroke-dasharray:none;stroke-opacity:1"
         id="path4707"
         inkscape:connector-curvature="0" />
      <path
         d="m 276.59326,144.81086 q 0,6.23047 -2.54883,12.03613 -2.54882,5.73487 -6.86767,10.19532 -4.24805,4.46045 -9.98291,7.15087 -5.66406,2.61963 -11.96533,2.61963 l -0.14161,0 q -1.27441,0 -2.12402,-1.13281 -0.77881,-1.20361 -1.34521,-2.97363 -0.56641,-1.77002 -0.84961,-3.96485 -0.28321,-2.19482 -0.42481,-4.24804 -0.1416,-2.12403 -0.1416,-3.75244 0,-1.69922 0,-2.54883 0,-2.40723 0.0708,-4.74365 0.0708,-2.40723 0.2124,-4.81446 0,-0.77881 0.0708,-2.26562 0.14161,-1.55762 0.28321,-3.46924 0.1416,-1.91162 0.354,-3.96484 0.2124,-2.12403 0.42481,-3.89405 0.2832,-1.84082 0.4956,-3.18603 0.2832,-1.41602 0.63721,-1.91162 0.92041,-1.55762 2.83203,-2.76123 1.91162,-1.20362 4.10644,-1.98243 2.26563,-0.7788 4.53125,-1.13281 2.33643,-0.4248 4.03565,-0.4248 4.67285,0 8.07129,1.77002 3.46924,1.69922 5.73486,4.67285 2.33643,2.90283 3.39844,6.72607 1.13281,3.82324 1.13281,8.00049 z m -11.89453,2.05322 q 0,-1.55761 -0.56641,-3.18603 -0.5664,-1.62842 -1.62841,-2.97363 -0.99121,-1.34522 -2.47803,-2.12403 -1.41602,-0.84961 -3.18604,-0.84961 -1.48681,0 -3.04443,0.70801 -0.354,0.2124 -0.63721,1.34522 -0.2832,1.06201 -0.4956,2.61962 -0.1416,1.55762 -0.28321,3.39844 -0.1416,1.84082 -0.2124,3.54004 0,1.62842 -0.0708,2.90283 0,1.27442 0,1.69922 0,0.70801 0,2.12402 0,1.34522 0.0708,2.69043 0.1416,1.34522 0.28321,2.33643 0.1416,0.99121 0.4956,0.99121 2.12402,0 4.17725,-1.62842 2.12402,-1.69922 3.82324,-4.10644 1.69922,-2.40723 2.69043,-5.02686 1.06201,-2.61963 1.06201,-4.46045 z"
         style="font-style:normal;font-variant:normal;font-weight:normal;font-stretch:normal;font-size:72.5px;font-family:Chewy;-inkscape-font-specification:Chewy;fill:none;fill-opacity:1;stroke:#ffffff;stroke-width:13;stroke-miterlimit:4;stroke-dasharray:none;stroke-opacity:1"
         id="path4709"
         inkscape:connector-curvature="0" />
      <path
         d="m 295.23145,178.72443 q -3.61084,0 -6.30127,-1.91162 -2.69043,-1.91162 -4.53125,-4.88525 -1.84082,-2.97363 -2.76123,-6.58447 -0.92041,-3.68164 -0.92041,-7.22168 0,-3.75244 0.92041,-7.71729 0.92041,-4.03564 2.83203,-7.29248 1.91162,-3.32763 4.88525,-5.38086 2.97363,-2.12402 7.08008,-2.12402 3.96484,0 6.72607,2.19482 2.83203,2.12403 4.53125,5.38086 1.69922,3.18604 2.40723,7.00928 0.70801,3.82324 0.4956,7.22168 -0.2124,3.75244 -1.20361,7.57568 -0.92041,3.82325 -2.76123,6.86768 -1.84082,3.04443 -4.67285,4.95605 -2.83203,1.91162 -6.72607,1.91162 z m 0.708,-32.00195 q -1.06201,0 -1.91162,1.13281 -0.77881,1.13282 -1.34521,2.76123 -0.49561,1.62842 -0.77881,3.46924 -0.2832,1.77002 -0.2832,3.11524 0,1.69922 0.2832,3.68164 0.354,1.98242 0.92041,3.68164 0.5664,1.62842 1.34521,2.76123 0.84961,1.06201 1.91162,1.06201 1.13282,0 1.91163,-1.06201 0.84961,-1.06201 1.34521,-2.69043 0.49561,-1.62842 0.70801,-3.54004 0.2124,-1.98242 0.2124,-3.68164 0,-1.55762 -0.2832,-3.39844 -0.28321,-1.91162 -0.84961,-3.54004 -0.49561,-1.62841 -1.34522,-2.69043 -0.77881,-1.06201 -1.84082,-1.06201 z"
         style="font-style:normal;font-variant:normal;font-weight:normal;font-stretch:normal;font-size:72.5px;font-family:Chewy;-inkscape-font-specification:Chewy;fill:none;fill-opacity:1;stroke:#ffffff;stroke-width:13;stroke-miterlimit:4;stroke-dasharray:none;stroke-opacity:1"
         id="path4711"
         inkscape:connector-curvature="0" />
      <path
         d="m 336.31348,178.65363 q -1.20362,0 -1.91162,-1.13281 -0.70801,-1.06201 -1.06202,-2.47803 -0.354,-1.41601 -0.4956,-2.83203 -0.0708,-1.48681 -0.0708,-2.26562 0,-2.12403 0.2124,-4.24805 0.2832,-2.12402 0.56641,-4.24805 0.354,-2.12402 0.5664,-4.24804 0.28321,-2.12403 0.28321,-4.24805 0,-0.84961 -0.0708,-1.84082 -0.0708,-0.99121 -0.354,-1.84082 -0.2124,-0.92041 -0.77881,-1.48682 -0.5664,-0.5664 -1.48681,-0.5664 -0.63721,0 -1.41602,1.06201 -0.77881,0.99121 -1.48682,2.33642 -0.6372,1.27442 -1.13281,2.61963 -0.4248,1.27442 -0.4248,1.91162 0,1.55762 0,3.18604 0.0708,1.55762 0.0708,3.18604 l 0,4.10644 q -0.0708,1.27441 -0.21241,2.61963 -0.1416,1.34521 -0.4248,2.61963 -0.2124,1.27441 -0.63721,2.47803 -0.4248,1.13281 -1.13281,2.05322 -0.63721,0.84961 -1.55762,1.41601 -0.92041,0.56641 -2.19482,0.56641 -1.41602,0 -2.33643,-0.92041 -0.92041,-0.92041 -1.48681,-2.33643 -0.56641,-1.48681 -0.84961,-3.25683 -0.2124,-1.84082 -0.35401,-3.54004 -0.0708,-1.77002 -0.0708,-3.18604 0.0708,-1.48681 0.0708,-2.33642 l 0,-3.32764 q 0,-2.69043 -0.1416,-5.31006 -0.0708,-2.61963 -0.0708,-5.23925 0,-1.41602 0,-3.61084 0.0708,-2.19483 0.56641,-4.24805 0.4956,-2.12403 1.62842,-3.61084 1.13281,-1.48682 3.32763,-1.48682 0.99121,0 1.77002,0.63721 0.77881,0.63721 1.34522,1.55762 0.6372,0.92041 0.99121,1.98242 0.4248,1.06201 0.6372,1.84082 0.70801,-0.99121 1.62842,-1.91162 0.99121,-0.92041 2.19483,-1.62842 1.20361,-0.70801 2.69043,-1.13281 1.48681,-0.42481 3.39843,-0.42481 3.61084,0 5.59327,1.77002 2.05322,1.69922 2.97363,4.31885 0.99121,2.54883 1.20361,5.52246 0.2124,2.97363 0.2124,5.38086 0,1.20361 -0.2124,3.61084 -0.2124,2.33643 -0.70801,5.23926 -0.4248,2.83203 -1.20361,5.87646 -0.77881,2.97364 -1.84082,5.45166 -1.06201,2.47803 -2.54883,4.03565 -1.41601,1.55761 -3.25683,1.55761 z"
         style="font-style:normal;font-variant:normal;font-weight:normal;font-stretch:normal;font-size:72.5px;font-family:Chewy;-inkscape-font-specification:Chewy;fill:none;fill-opacity:1;stroke:#ffffff;stroke-width:13;stroke-miterlimit:4;stroke-dasharray:none;stroke-opacity:1"
         id="path4713"
         inkscape:connector-curvature="0" />
      <path
         d="m 383.05957,156.42219 q 0,3.89404 -0.77881,7.71728 -0.77881,3.82325 -2.61963,6.86768 -1.84082,2.97363 -4.95605,4.81445 -3.04444,1.84082 -7.64649,1.84082 -4.53125,0 -7.57568,-1.77002 -3.04443,-1.84082 -4.88525,-4.81445 -1.77002,-2.97363 -2.54883,-6.72607 -0.70801,-3.75245 -0.70801,-7.64649 0,-4.24804 0.99121,-8.42529 0.2124,-1.13281 0.77881,-3.11524 0.63721,-2.05322 1.55762,-3.96484 0.99121,-1.98242 2.19482,-3.39844 1.27442,-1.41601 2.76123,-1.41601 1.41602,0 2.26563,0.77881 0.84961,0.7788 1.34521,1.98242 0.49561,1.13281 0.63721,2.47803 0.1416,1.27441 0.1416,2.33642 0,1.62842 -0.2832,3.18604 -0.21241,1.55761 -0.49561,3.11523 -0.2832,2.12402 -0.5664,4.24805 -0.21241,2.12402 -0.21241,4.24804 0,1.06202 0.0708,2.40723 0.14161,1.27442 0.56641,2.47803 0.4248,1.20361 1.20361,2.05322 0.77881,0.77881 2.19483,0.77881 1.84082,0 2.90283,-0.99121 1.13281,-0.99121 1.62842,-2.47803 0.5664,-1.48681 0.70801,-3.18603 0.1416,-1.69922 0.1416,-3.11524 0,-3.11523 -0.42481,-6.08887 -0.4248,-3.04443 -0.77881,-6.15966 -0.0708,-0.35401 -0.0708,-0.99121 0,-1.06202 0.35401,-2.12403 0.354,-1.06201 0.99121,-1.91162 0.6372,-0.84961 1.55761,-1.34521 0.92041,-0.56641 2.05323,-0.56641 1.55761,0 2.76123,1.13281 1.20361,1.06201 1.98242,2.83203 0.84961,1.69922 1.34521,3.89405 0.56641,2.12402 0.84961,4.24804 0.35401,2.05323 0.42481,3.89405 0.1416,1.84082 0.1416,2.90283 z"
         style="font-style:normal;font-variant:normal;font-weight:normal;font-stretch:normal;font-size:72.5px;font-family:Chewy;-inkscape-font-specification:Chewy;fill:none;fill-opacity:1;stroke:#ffffff;stroke-width:13;stroke-miterlimit:4;stroke-dasharray:none;stroke-opacity:1"
         id="path4715"
         inkscape:connector-curvature="0" />
      <path
         d="m 405.9458,179.22004 q -5.02685,0 -7.85889,-1.34521 -2.76123,-1.27442 -4.17724,-3.68165 -1.34522,-2.40722 -1.62842,-5.80566 -0.2832,-3.39844 -0.2832,-7.57568 0,-3.32764 0.2124,-6.65528 0.2124,-3.39843 0.63721,-7.22168 -0.99121,0 -1.55762,0.0708 -0.56641,0 -0.92041,0 -2.26563,0 -3.89404,-0.99121 -1.69922,-0.99121 -1.69922,-3.04443 0,-1.27441 0.99121,-2.26562 0.92041,-0.99122 2.40722,-1.69922 1.48682,-0.70801 3.18604,-1.13282 1.77002,-0.4248 3.32764,-0.5664 0,-1.98242 0.2832,-4.38965 0.2832,-2.40723 0.99121,-4.46045 0.77881,-2.12402 2.05322,-3.54004 1.27442,-1.41601 3.25684,-1.41601 1.13281,0 1.98242,0.708 0.92041,0.63721 1.48682,1.69922 0.5664,0.99121 0.84961,2.26563 0.2832,1.27441 0.2832,2.47802 0,1.41602 -0.2124,2.90284 -0.2124,1.48681 -0.77881,3.68164 1.20361,-0.1416 1.62842,-0.1416 0.4248,-0.0708 0.77881,-0.0708 1.20361,0 2.47802,0.21241 1.34522,0.2124 2.40723,0.708 1.13281,0.49561 1.84082,1.34522 0.70801,0.77881 0.70801,1.91162 0,1.27441 -1.06201,2.26563 -0.99122,0.99121 -2.54883,1.69921 -1.55762,0.70801 -3.32764,1.13282 -1.77002,0.354 -3.32764,0.4956 -0.4248,2.90283 -0.6372,5.38086 -0.1416,2.40723 -0.35401,4.88526 -0.1416,1.20361 -0.2832,2.47802 -0.0708,1.20362 -0.0708,2.47803 0,0.92041 0.0708,2.19482 0.0708,1.20362 0.49561,2.33643 0.4248,1.13281 1.34521,1.98242 0.92041,0.77881 2.54883,0.77881 0.99121,0 2.05322,-0.1416 1.06201,-0.2124 2.12402,-0.2124 1.84083,0 2.61963,1.27441 0.84961,1.27442 0.84961,3.25684 0,1.48681 -0.92041,2.61963 -0.84961,1.06201 -2.19482,1.69921 -1.34522,0.70801 -3.04443,1.06202 -1.62842,0.354 -3.11524,0.354 z"
         style="font-style:normal;font-variant:normal;font-weight:normal;font-stretch:normal;font-size:72.5px;font-family:Chewy;-inkscape-font-specification:Chewy;fill:none;fill-opacity:1;stroke:#ffffff;stroke-width:13;stroke-miterlimit:4;stroke-dasharray:none;stroke-opacity:1"
         id="path4717"
         inkscape:connector-curvature="0" />
      <path
         d="m 439.38135,137.73078 q 0,2.05323 -1.41602,3.04444 -1.34521,0.99121 -3.04443,1.91162 -1.69922,0.84961 -3.11524,2.05322 -1.34521,1.20361 -1.34521,3.61084 0,1.27441 0.56641,2.19482 0.6372,0.92041 1.48681,1.69922 0.92041,0.70801 1.98242,1.48682 1.06202,0.77881 1.91162,1.77002 0.92041,0.99121 1.48682,2.40723 0.63721,1.41601 0.63721,3.46923 0,2.97364 -1.55762,5.87647 -1.48682,2.83203 -3.89404,5.09765 -2.33643,2.19483 -5.31006,3.54004 -2.97363,1.34522 -5.87647,1.34522 -1.20361,0 -2.40722,-0.2124 -1.20362,-0.14161 -2.19483,-0.63721 -0.92041,-0.49561 -1.55761,-1.34522 -0.63721,-0.92041 -0.63721,-2.33642 0,-1.98242 0.77881,-3.04444 0.77881,-1.13281 1.98242,-1.77001 1.20361,-0.63721 2.54883,-0.99122 1.41601,-0.354 2.61963,-0.8496 1.20361,-0.56641 1.98242,-1.41602 0.77881,-0.84961 0.77881,-2.40723 0,-1.48681 -1.20362,-3.04443 -1.13281,-1.62842 -2.54882,-3.39844 -1.41602,-1.84082 -2.61963,-3.89404 -1.13282,-2.05322 -1.13282,-4.53125 0,-3.04443 1.20362,-5.59326 1.27441,-2.61963 3.32763,-4.53125 2.12403,-1.91162 4.81446,-2.97364 2.69043,-1.13281 5.66406,-1.13281 1.13281,0 2.19482,0.2124 1.13282,0.21241 1.98243,0.77881 0.84961,0.49561 1.34521,1.41602 0.56641,0.84961 0.56641,2.19482 z"
         style="font-style:normal;font-variant:normal;font-weight:normal;font-stretch:normal;font-size:72.5px;font-family:Chewy;-inkscape-font-specification:Chewy;fill:none;fill-opacity:1;stroke:#ffffff;stroke-width:13;stroke-miterlimit:4;stroke-dasharray:none;stroke-opacity:1"
         id="path4719"
         inkscape:connector-curvature="0" />
    </g>
  </g>
  <g
     inkscape:groupmode="layer"
     id="layer5"
     inkscape:label="layer new"
     style="display:none"
     transform="translate(-43.75796,-14.481087)">
    <g
       transform="translate(3.0229745,-91.293833)"
       style="font-style:normal;font-weight:normal;font-size:40px;line-height:125%;font-family:sans-serif;letter-spacing:2px;word-spacing:0px;fill:#db4c69;fill-opacity:1;stroke:none;stroke-width:1px;stroke-linecap:butt;stroke-linejoin:miter;stroke-opacity:1"
       id="flowRoot4213">
      <path
         d="m 165.0293,129.8011 q 0,2.54882 -0.63721,5.73486 -0.63721,3.11523 -1.62842,6.37207 -0.92041,3.25683 -2.05322,6.37207 -1.06201,3.04443 -1.91162,5.52246 -0.56641,1.55762 -1.27442,3.89404 -0.6372,2.26563 -1.55761,4.81446 -0.84961,2.54882 -1.91162,5.09765 -1.06202,2.54883 -2.33643,4.60205 -1.27441,1.98242 -2.83203,3.25684 -1.48682,1.27441 -3.25684,1.27441 -1.48681,0 -2.90283,-1.34521 -1.34521,-1.34522 -2.61963,-3.39844 -1.20361,-2.12402 -2.33642,-4.67285 -1.06202,-2.61963 -1.98243,-5.09766 -0.84961,-2.47802 -1.48681,-4.60205 -0.56641,-2.12402 -0.84961,-3.25683 -1.41602,-5.52246 -2.69043,-11.11573 -1.27442,-5.66406 -1.27442,-11.32812 0,-1.41602 0.14161,-2.90283 0.1416,-1.55762 0.708,-2.83203 0.56641,-1.27442 1.55762,-2.05323 1.06201,-0.84961 2.90283,-0.84961 1.55762,0 2.83203,1.77002 1.34522,1.69922 2.40723,4.46045 1.06201,2.76123 1.91162,6.15967 0.92041,3.39844 1.69922,6.72607 0.77881,3.25684 1.48682,6.15967 0.70801,2.83203 1.41601,4.53125 0.42481,-1.41601 1.20362,-4.10644 0.84961,-2.76123 1.91162,-6.01807 1.13281,-3.25684 2.40722,-6.65527 1.34522,-3.46924 2.76123,-6.23047 1.48682,-2.83203 3.04444,-4.60205 1.55762,-1.77002 3.18603,-1.77002 1.20362,0 1.98242,0.5664 0.77881,0.56641 1.20362,1.48682 0.4248,0.92041 0.5664,1.98242 0.21241,1.06201 0.21241,2.05323 z"
         style="font-style:normal;font-variant:normal;font-weight:normal;font-stretch:normal;font-size:72.5px;font-family:Chewy;-inkscape-font-specification:Chewy;fill:#db4c69;fill-opacity:1"
         id="path4684"
         inkscape:connector-curvature="0" />
      <path
         d="m 199.17285,156.42219 q 0,3.89404 -0.77881,7.71728 -0.77881,3.82325 -2.61963,6.86768 -1.84082,2.97363 -4.95605,4.81445 -3.04443,1.84082 -7.64649,1.84082 -4.53125,0 -7.57568,-1.77002 -3.04443,-1.84082 -4.88525,-4.81445 -1.77002,-2.97363 -2.54883,-6.72607 -0.70801,-3.75245 -0.70801,-7.64649 0,-4.24804 0.99121,-8.42529 0.2124,-1.13281 0.77881,-3.11524 0.63721,-2.05322 1.55762,-3.96484 0.99121,-1.98242 2.19482,-3.39844 1.27442,-1.41601 2.76123,-1.41601 1.41602,0 2.26563,0.77881 0.84961,0.7788 1.34521,1.98242 0.49561,1.13281 0.63721,2.47803 0.1416,1.27441 0.1416,2.33642 0,1.62842 -0.2832,3.18604 -0.2124,1.55761 -0.49561,3.11523 -0.2832,2.12402 -0.5664,4.24805 -0.21241,2.12402 -0.21241,4.24804 0,1.06202 0.0708,2.40723 0.14161,1.27442 0.56641,2.47803 0.42481,1.20361 1.20361,2.05322 0.77881,0.77881 2.19483,0.77881 1.84082,0 2.90283,-0.99121 1.13281,-0.99121 1.62842,-2.47803 0.5664,-1.48681 0.70801,-3.18603 0.1416,-1.69922 0.1416,-3.11524 0,-3.11523 -0.42481,-6.08887 -0.4248,-3.04443 -0.77881,-6.15966 -0.0708,-0.35401 -0.0708,-0.99121 0,-1.06202 0.35401,-2.12403 0.354,-1.06201 0.99121,-1.91162 0.63721,-0.84961 1.55762,-1.34521 0.92041,-0.56641 2.05322,-0.56641 1.55762,0 2.76123,1.13281 1.20361,1.06201 1.98242,2.83203 0.84961,1.69922 1.34522,3.89405 0.5664,2.12402 0.84961,4.24804 0.354,2.05323 0.4248,3.89405 0.1416,1.84082 0.1416,2.90283 z"
         style="font-style:normal;font-variant:normal;font-weight:normal;font-stretch:normal;font-size:72.5px;font-family:Chewy;-inkscape-font-specification:Chewy;fill:#db4c69;fill-opacity:1"
         id="path4686"
         inkscape:connector-curvature="0" />
      <path
         d="m 235.22803,164.06867 q 0,2.40723 -1.55762,4.74366 -1.48682,2.26562 -3.82324,4.10644 -2.26563,1.77002 -4.88526,2.90283 -2.61962,1.06201 -4.81445,1.06201 -3.75244,0 -6.72607,-1.84082 -2.90284,-1.91162 -4.88526,-4.81445 -1.98242,-2.90283 -3.04443,-6.37207 -0.99121,-3.54004 -0.99121,-6.86767 0,-3.54004 0.99121,-7.57569 0.99121,-4.03564 2.97363,-7.43408 2.05322,-3.39844 5.09766,-5.66406 3.11523,-2.26563 7.36328,-2.26563 2.40723,0 4.60205,0.84961 2.19482,0.77881 3.82324,2.26563 1.62842,1.48681 2.61963,3.54004 0.99121,2.05322 0.99121,4.60205 0,3.32763 -1.41601,6.23046 -1.41602,2.90284 -3.75244,5.02686 -2.33643,2.12402 -5.38086,3.46924 -3.04444,1.27441 -6.23047,1.41601 0.2832,2.05323 1.62842,2.97364 1.41601,0.92041 3.32763,0.92041 1.41602,0 2.76123,-0.70801 1.34522,-0.70801 2.61963,-1.55762 1.27442,-0.92041 2.47803,-1.62842 1.27441,-0.708 2.54883,-0.708 1.41601,0 2.54882,0.92041 1.13282,0.92041 1.13282,2.40722 z M 223.7583,146.72248 q 0,-0.92041 -0.4956,-1.91162 -0.49561,-0.99121 -1.55762,-0.99121 -1.55762,0 -2.61963,0.84961 -1.06201,0.77881 -1.77002,2.05322 -0.70801,1.20362 -1.13281,2.61963 -0.35401,1.41602 -0.42481,2.61963 0.99121,-0.2124 2.33643,-0.56641 1.41601,-0.354 2.61963,-0.92041 1.27441,-0.6372 2.12402,-1.55761 0.92041,-0.92041 0.92041,-2.19483 z"
         style="font-style:normal;font-variant:normal;font-weight:normal;font-stretch:normal;font-size:72.5px;font-family:Chewy;-inkscape-font-specification:Chewy;fill:#db4c69;fill-opacity:1"
         id="path4688"
         inkscape:connector-curvature="0" />
      <path
         d="m 276.59326,144.81086 q 0,6.23047 -2.54883,12.03613 -2.54882,5.73487 -6.86767,10.19532 -4.24805,4.46045 -9.98291,7.15087 -5.66406,2.61963 -11.96533,2.61963 l -0.14161,0 q -1.27441,0 -2.12402,-1.13281 -0.77881,-1.20361 -1.34521,-2.97363 -0.56641,-1.77002 -0.84961,-3.96485 -0.28321,-2.19482 -0.42481,-4.24804 -0.1416,-2.12403 -0.1416,-3.75244 0,-1.69922 0,-2.54883 0,-2.40723 0.0708,-4.74365 0.0708,-2.40723 0.2124,-4.81446 0,-0.77881 0.0708,-2.26562 0.14161,-1.55762 0.28321,-3.46924 0.1416,-1.91162 0.354,-3.96484 0.2124,-2.12403 0.42481,-3.89405 0.2832,-1.84082 0.4956,-3.18603 0.2832,-1.41602 0.63721,-1.91162 0.92041,-1.55762 2.83203,-2.76123 1.91162,-1.20362 4.10644,-1.98243 2.26563,-0.7788 4.53125,-1.13281 2.33643,-0.4248 4.03565,-0.4248 4.67285,0 8.07129,1.77002 3.46924,1.69922 5.73486,4.67285 2.33643,2.90283 3.39844,6.72607 1.13281,3.82324 1.13281,8.00049 z m -11.89453,2.05322 q 0,-1.55761 -0.56641,-3.18603 -0.5664,-1.62842 -1.62841,-2.97363 -0.99121,-1.34522 -2.47803,-2.12403 -1.41602,-0.84961 -3.18604,-0.84961 -1.48681,0 -3.04443,0.70801 -0.354,0.2124 -0.63721,1.34522 -0.2832,1.06201 -0.4956,2.61962 -0.1416,1.55762 -0.28321,3.39844 -0.1416,1.84082 -0.2124,3.54004 0,1.62842 -0.0708,2.90283 0,1.27442 0,1.69922 0,0.70801 0,2.12402 0,1.34522 0.0708,2.69043 0.1416,1.34522 0.28321,2.33643 0.1416,0.99121 0.4956,0.99121 2.12402,0 4.17725,-1.62842 2.12402,-1.69922 3.82324,-4.10644 1.69922,-2.40723 2.69043,-5.02686 1.06201,-2.61963 1.06201,-4.46045 z"
         style="font-style:normal;font-variant:normal;font-weight:normal;font-stretch:normal;font-size:72.5px;font-family:Chewy;-inkscape-font-specification:Chewy;fill:#653400;fill-opacity:1"
         id="path4690"
         inkscape:connector-curvature="0" />
      <path
         d="m 295.23145,178.72443 q -3.61084,0 -6.30127,-1.91162 -2.69043,-1.91162 -4.53125,-4.88525 -1.84082,-2.97363 -2.76123,-6.58447 -0.92041,-3.68164 -0.92041,-7.22168 0,-3.75244 0.92041,-7.71729 0.92041,-4.03564 2.83203,-7.29248 1.91162,-3.32763 4.88525,-5.38086 2.97363,-2.12402 7.08008,-2.12402 3.96484,0 6.72607,2.19482 2.83203,2.12403 4.53125,5.38086 1.69922,3.18604 2.40723,7.00928 0.70801,3.82324 0.4956,7.22168 -0.2124,3.75244 -1.20361,7.57568 -0.92041,3.82325 -2.76123,6.86768 -1.84082,3.04443 -4.67285,4.95605 -2.83203,1.91162 -6.72607,1.91162 z m 0.708,-32.00195 q -1.06201,0 -1.91162,1.13281 -0.77881,1.13282 -1.34521,2.76123 -0.49561,1.62842 -0.77881,3.46924 -0.2832,1.77002 -0.2832,3.11524 0,1.69922 0.2832,3.68164 0.354,1.98242 0.92041,3.68164 0.5664,1.62842 1.34521,2.76123 0.84961,1.06201 1.91162,1.06201 1.13282,0 1.91163,-1.06201 0.84961,-1.06201 1.34521,-2.69043 0.49561,-1.62842 0.70801,-3.54004 0.2124,-1.98242 0.2124,-3.68164 0,-1.55762 -0.2832,-3.39844 -0.28321,-1.91162 -0.84961,-3.54004 -0.49561,-1.62841 -1.34522,-2.69043 -0.77881,-1.06201 -1.84082,-1.06201 z"
         style="font-style:normal;font-variant:normal;font-weight:normal;font-stretch:normal;font-size:72.5px;font-family:Chewy;-inkscape-font-specification:Chewy;fill:#653400;fill-opacity:1"
         id="path4692"
         inkscape:connector-curvature="0" />
      <path
         d="m 336.31348,178.65363 q -1.20362,0 -1.91162,-1.13281 -0.70801,-1.06201 -1.06202,-2.47803 -0.354,-1.41601 -0.4956,-2.83203 -0.0708,-1.48681 -0.0708,-2.26562 0,-2.12403 0.2124,-4.24805 0.2832,-2.12402 0.56641,-4.24805 0.354,-2.12402 0.5664,-4.24804 0.28321,-2.12403 0.28321,-4.24805 0,-0.84961 -0.0708,-1.84082 -0.0708,-0.99121 -0.354,-1.84082 -0.2124,-0.92041 -0.77881,-1.48682 -0.5664,-0.5664 -1.48681,-0.5664 -0.63721,0 -1.41602,1.06201 -0.77881,0.99121 -1.48682,2.33642 -0.6372,1.27442 -1.13281,2.61963 -0.4248,1.27442 -0.4248,1.91162 0,1.55762 0,3.18604 0.0708,1.55762 0.0708,3.18604 l 0,4.10644 q -0.0708,1.27441 -0.21241,2.61963 -0.1416,1.34521 -0.4248,2.61963 -0.2124,1.27441 -0.63721,2.47803 -0.4248,1.13281 -1.13281,2.05322 -0.63721,0.84961 -1.55762,1.41601 -0.92041,0.56641 -2.19482,0.56641 -1.41602,0 -2.33643,-0.92041 -0.92041,-0.92041 -1.48681,-2.33643 -0.56641,-1.48681 -0.84961,-3.25683 -0.2124,-1.84082 -0.35401,-3.54004 -0.0708,-1.77002 -0.0708,-3.18604 0.0708,-1.48681 0.0708,-2.33642 l 0,-3.32764 q 0,-2.69043 -0.1416,-5.31006 -0.0708,-2.61963 -0.0708,-5.23925 0,-1.41602 0,-3.61084 0.0708,-2.19483 0.56641,-4.24805 0.4956,-2.12403 1.62842,-3.61084 1.13281,-1.48682 3.32763,-1.48682 0.99121,0 1.77002,0.63721 0.77881,0.63721 1.34522,1.55762 0.6372,0.92041 0.99121,1.98242 0.4248,1.06201 0.6372,1.84082 0.70801,-0.99121 1.62842,-1.91162 0.99121,-0.92041 2.19483,-1.62842 1.20361,-0.70801 2.69043,-1.13281 1.48681,-0.42481 3.39843,-0.42481 3.61084,0 5.59327,1.77002 2.05322,1.69922 2.97363,4.31885 0.99121,2.54883 1.20361,5.52246 0.2124,2.97363 0.2124,5.38086 0,1.20361 -0.2124,3.61084 -0.2124,2.33643 -0.70801,5.23926 -0.4248,2.83203 -1.20361,5.87646 -0.77881,2.97364 -1.84082,5.45166 -1.06201,2.47803 -2.54883,4.03565 -1.41601,1.55761 -3.25683,1.55761 z"
         style="font-style:normal;font-variant:normal;font-weight:normal;font-stretch:normal;font-size:72.5px;font-family:Chewy;-inkscape-font-specification:Chewy;fill:#653400;fill-opacity:1"
         id="path4694"
         inkscape:connector-curvature="0" />
      <path
         d="m 383.05957,156.42219 q 0,3.89404 -0.77881,7.71728 -0.77881,3.82325 -2.61963,6.86768 -1.84082,2.97363 -4.95605,4.81445 -3.04444,1.84082 -7.64649,1.84082 -4.53125,0 -7.57568,-1.77002 -3.04443,-1.84082 -4.88525,-4.81445 -1.77002,-2.97363 -2.54883,-6.72607 -0.70801,-3.75245 -0.70801,-7.64649 0,-4.24804 0.99121,-8.42529 0.2124,-1.13281 0.77881,-3.11524 0.63721,-2.05322 1.55762,-3.96484 0.99121,-1.98242 2.19482,-3.39844 1.27442,-1.41601 2.76123,-1.41601 1.41602,0 2.26563,0.77881 0.84961,0.7788 1.34521,1.98242 0.49561,1.13281 0.63721,2.47803 0.1416,1.27441 0.1416,2.33642 0,1.62842 -0.2832,3.18604 -0.21241,1.55761 -0.49561,3.11523 -0.2832,2.12402 -0.5664,4.24805 -0.21241,2.12402 -0.21241,4.24804 0,1.06202 0.0708,2.40723 0.14161,1.27442 0.56641,2.47803 0.4248,1.20361 1.20361,2.05322 0.77881,0.77881 2.19483,0.77881 1.84082,0 2.90283,-0.99121 1.13281,-0.99121 1.62842,-2.47803 0.5664,-1.48681 0.70801,-3.18603 0.1416,-1.69922 0.1416,-3.11524 0,-3.11523 -0.42481,-6.08887 -0.4248,-3.04443 -0.77881,-6.15966 -0.0708,-0.35401 -0.0708,-0.99121 0,-1.06202 0.35401,-2.12403 0.354,-1.06201 0.99121,-1.91162 0.6372,-0.84961 1.55761,-1.34521 0.92041,-0.56641 2.05323,-0.56641 1.55761,0 2.76123,1.13281 1.20361,1.06201 1.98242,2.83203 0.84961,1.69922 1.34521,3.89405 0.56641,2.12402 0.84961,4.24804 0.35401,2.05323 0.42481,3.89405 0.1416,1.84082 0.1416,2.90283 z"
         style="font-style:normal;font-variant:normal;font-weight:normal;font-stretch:normal;font-size:72.5px;font-family:Chewy;-inkscape-font-specification:Chewy;fill:#653400;fill-opacity:1"
         id="path4696"
         inkscape:connector-curvature="0" />
      <path
         d="m 405.9458,179.22004 q -5.02685,0 -7.85889,-1.34521 -2.76123,-1.27442 -4.17724,-3.68165 -1.34522,-2.40722 -1.62842,-5.80566 -0.2832,-3.39844 -0.2832,-7.57568 0,-3.32764 0.2124,-6.65528 0.2124,-3.39843 0.63721,-7.22168 -0.99121,0 -1.55762,0.0708 -0.56641,0 -0.92041,0 -2.26563,0 -3.89404,-0.99121 -1.69922,-0.99121 -1.69922,-3.04443 0,-1.27441 0.99121,-2.26562 0.92041,-0.99122 2.40722,-1.69922 1.48682,-0.70801 3.18604,-1.13282 1.77002,-0.4248 3.32764,-0.5664 0,-1.98242 0.2832,-4.38965 0.2832,-2.40723 0.99121,-4.46045 0.77881,-2.12402 2.05322,-3.54004 1.27442,-1.41601 3.25684,-1.41601 1.13281,0 1.98242,0.708 0.92041,0.63721 1.48682,1.69922 0.5664,0.99121 0.84961,2.26563 0.2832,1.27441 0.2832,2.47802 0,1.41602 -0.2124,2.90284 -0.2124,1.48681 -0.77881,3.68164 1.20361,-0.1416 1.62842,-0.1416 0.4248,-0.0708 0.77881,-0.0708 1.20361,0 2.47802,0.21241 1.34522,0.2124 2.40723,0.708 1.13281,0.49561 1.84082,1.34522 0.70801,0.77881 0.70801,1.91162 0,1.27441 -1.06201,2.26563 -0.99122,0.99121 -2.54883,1.69921 -1.55762,0.70801 -3.32764,1.13282 -1.77002,0.354 -3.32764,0.4956 -0.4248,2.90283 -0.6372,5.38086 -0.1416,2.40723 -0.35401,4.88526 -0.1416,1.20361 -0.2832,2.47802 -0.0708,1.20362 -0.0708,2.47803 0,0.92041 0.0708,2.19482 0.0708,1.20362 0.49561,2.33643 0.4248,1.13281 1.34521,1.98242 0.92041,0.77881 2.54883,0.77881 0.99121,0 2.05322,-0.1416 1.06201,-0.2124 2.12402,-0.2124 1.84083,0 2.61963,1.27441 0.84961,1.27442 0.84961,3.25684 0,1.48681 -0.92041,2.61963 -0.84961,1.06201 -2.19482,1.69921 -1.34522,0.70801 -3.04443,1.06202 -1.62842,0.354 -3.11524,0.354 z"
         style="font-style:normal;font-variant:normal;font-weight:normal;font-stretch:normal;font-size:72.5px;font-family:Chewy;-inkscape-font-specification:Chewy;fill:#653400;fill-opacity:1"
         id="path4698"
         inkscape:connector-curvature="0" />
      <path
         d="m 439.38135,137.73078 q 0,2.05323 -1.41602,3.04444 -1.34521,0.99121 -3.04443,1.91162 -1.69922,0.84961 -3.11524,2.05322 -1.34521,1.20361 -1.34521,3.61084 0,1.27441 0.56641,2.19482 0.6372,0.92041 1.48681,1.69922 0.92041,0.70801 1.98242,1.48682 1.06202,0.77881 1.91162,1.77002 0.92041,0.99121 1.48682,2.40723 0.63721,1.41601 0.63721,3.46923 0,2.97364 -1.55762,5.87647 -1.48682,2.83203 -3.89404,5.09765 -2.33643,2.19483 -5.31006,3.54004 -2.97363,1.34522 -5.87647,1.34522 -1.20361,0 -2.40722,-0.2124 -1.20362,-0.14161 -2.19483,-0.63721 -0.92041,-0.49561 -1.55761,-1.34522 -0.63721,-0.92041 -0.63721,-2.33642 0,-1.98242 0.77881,-3.04444 0.77881,-1.13281 1.98242,-1.77001 1.20361,-0.63721 2.54883,-0.99122 1.41601,-0.354 2.61963,-0.8496 1.20361,-0.56641 1.98242,-1.41602 0.77881,-0.84961 0.77881,-2.40723 0,-1.48681 -1.20362,-3.04443 -1.13281,-1.62842 -2.54882,-3.39844 -1.41602,-1.84082 -2.61963,-3.89404 -1.13282,-2.05322 -1.13282,-4.53125 0,-3.04443 1.20362,-5.59326 1.27441,-2.61963 3.32763,-4.53125 2.12403,-1.91162 4.81446,-2.97364 2.69043,-1.13281 5.66406,-1.13281 1.13281,0 2.19482,0.2124 1.13282,0.21241 1.98243,0.77881 0.84961,0.49561 1.34521,1.41602 0.56641,0.84961 0.56641,2.19482 z"
         style="font-style:normal;font-variant:normal;font-weight:normal;font-stretch:normal;font-size:72.5px;font-family:Chewy;-inkscape-font-specification:Chewy;fill:#653400;fill-opacity:1"
         id="path4700"
         inkscape:connector-curvature="0" />
    </g>
  </g>
</svg>
