<?xml version="1.0" encoding="UTF-8" standalone="no"?>
<svg
   xmlns:dc="http://purl.org/dc/elements/1.1/"
   xmlns:cc="http://creativecommons.org/ns#"
   xmlns:rdf="http://www.w3.org/1999/02/22-rdf-syntax-ns#"
   xmlns:svg="http://www.w3.org/2000/svg"
   xmlns="http://www.w3.org/2000/svg"
   xmlns:sodipodi="http://sodipodi.sourceforge.net/DTD/sodipodi-0.dtd"
   xmlns:inkscape="http://www.inkscape.org/namespaces/inkscape"
   version="1.1"
   x="0px"
   y="0px"
   viewBox="0 0 368.65468 135.31864"
   id="svg4171"
   inkscape:version="0.91 r13725"
   sodipodi:docname="logo.svg"
   width="368.65469"
   height="135.31865">
  <metadata
     id="metadata4185">
    <rdf:RDF>
      <cc:Work
         rdf:about="">
        <dc:format>image/svg+xml</dc:format>
        <dc:type
           rdf:resource="http://purl.org/dc/dcmitype/StillImage" />
        <dc:title></dc:title>
      </cc:Work>
    </rdf:RDF>
  </metadata>
  <defs
     id="defs4183" />
  <sodipodi:namedview
     pagecolor="#ffffff"
     bordercolor="#666666"
     borderopacity="1"
     objecttolerance="10"
     gridtolerance="10"
     guidetolerance="10"
     inkscape:pageopacity="0"
     inkscape:pageshadow="2"
     inkscape:window-width="1920"
     inkscape:window-height="1016"
     id="namedview4181"
     showgrid="false"
     fit-margin-top="0.5"
     fit-margin-left="0.5"
     fit-margin-right="0"
     fit-margin-bottom="0"
     inkscape:zoom="1.1695546"
     inkscape:cx="-19.726582"
     inkscape:cy="-93.9417"
     inkscape:window-x="0"
     inkscape:window-y="27"
     inkscape:window-maximized="1"
     inkscape:current-layer="layer1" />
  <g
     inkscape:groupmode="layer"
     id="layer3"
     inkscape:label="background"
     style="display:none"
     transform="translate(64.738748,15.784425)"
     sodipodi:insensitive="true">
    <rect
       style="fill:#62e8bc;fill-opacity:1;stroke:none;stroke-width:15;stroke-linecap:butt;stroke-linejoin:miter;stroke-miterlimit:4;stroke-dasharray:none;stroke-opacity:1"
       id="rect4144"
       width="529.35254"
       height="158.26607"
       x="-190.76164"
       y="-25.935474" />
  </g>
  <g
     inkscape:groupmode="layer"
     id="layer1"
     inkscape:label="circle"
     transform="translate(-151.48008,-7.1178958)"
     style="display:inline">
    <ellipse
       style="display:inline;fill:#ffffff;fill-opacity:1;stroke:none;stroke-width:13.10000038;stroke-linecap:butt;stroke-linejoin:miter;stroke-miterlimit:4;stroke-dasharray:none;stroke-opacity:1"
       id="path4249"
       cx="234.8423"
       cy="43.953747"
       rx="24.795763"
       ry="26.505816" />
  </g>
  <g
     style="display:none"
     transform="translate(64.738748,15.784425)"
     inkscape:label="the stroke"
     id="g4209"
     inkscape:groupmode="layer"
     sodipodi:insensitive="true">
    <flowRoot
       transform="translate(-73.126454,-96.60723)"
       style="font-style:normal;font-weight:normal;font-size:98.80249023px;line-height:125%;font-family:sans-serif;letter-spacing:4.94012451px;word-spacing:0px;fill:none;fill-opacity:1;stroke:#ffffff;stroke-width:13.10000038;stroke-linecap:butt;stroke-linejoin:miter;stroke-miterlimit:4;stroke-dasharray:none;stroke-opacity:1"
       id="flowRoot4211"
       xml:space="preserve"><flowRegion
         style="stroke-width:4"
         id="flowRegion4213"><rect
           style="fill:none;fill-opacity:1;stroke:#ffffff;stroke-width:13.10000038;stroke-miterlimit:4;stroke-dasharray:none;stroke-opacity:1"
           y="88.496887"
           x="57.633083"
           height="216.54114"
           width="615.27551"
           id="rect4215" /></flowRegion><flowPara
         style="font-style:normal;font-variant:normal;font-weight:normal;font-stretch:normal;font-size:50px;font-family:Pacifico;-inkscape-font-specification:Pacifico;letter-spacing:1px;fill:none;fill-opacity:1;stroke:#ffffff;stroke-width:13.10000038;stroke-miterlimit:4;stroke-dasharray:none;stroke-opacity:1"
         id="flowPara4217">The</flowPara></flowRoot>  </g>
  <g
     inkscape:groupmode="layer"
     id="layer2"
     inkscape:label="vue project stroke"
     transform="translate(64.738748,15.784425)"
     style="display:none"
     sodipodi:insensitive="true">
    <flowRoot
       xml:space="preserve"
       id="flowRoot4150"
       style="font-style:normal;font-weight:normal;font-size:98.80249023px;line-height:125%;font-family:sans-serif;letter-spacing:4.94012451px;word-spacing:0px;fill:#000000;fill-opacity:1;stroke:#ffffff;stroke-width:13.10000038;stroke-linecap:butt;stroke-linejoin:miter;stroke-miterlimit:4;stroke-dasharray:none;stroke-opacity:1"
       transform="translate(-124.54656,-79.201935)"><flowRegion
         id="flowRegion4152"
         style="stroke-width:4"><rect
           id="rect4154"
           width="615.27551"
           height="216.54114"
           x="57.633083"
           y="88.496887"
           style="fill:#000000;fill-opacity:1;stroke:#ffffff;stroke-width:13.10000038;stroke-miterlimit:4;stroke-dasharray:none;stroke-opacity:1" /></flowRegion><flowPara
         id="flowPara4156"
         style="font-style:normal;font-variant:normal;font-weight:normal;font-stretch:normal;font-size:75px;font-family:Pacifico;-inkscape-font-specification:Pacifico;letter-spacing:1px;fill:#000000;fill-opacity:1;stroke:#ffffff;stroke-width:13.10000038;stroke-miterlimit:4;stroke-dasharray:none;stroke-opacity:1">VueProject</flowPara></flowRoot>  </g>
  <g
     style="display:none"
     transform="translate(64.738748,15.784425)"
     inkscape:label="vue project"
     id="g4166"
     inkscape:groupmode="layer"
     sodipodi:insensitive="true">
    <flowRoot
       transform="translate(-124.54656,-79.201935)"
       style="font-style:normal;font-weight:normal;font-size:98.80249023px;line-height:125%;font-family:sans-serif;letter-spacing:4.94012451px;word-spacing:0px;fill:#865e04;fill-opacity:1;stroke:none;stroke-width:4;stroke-linecap:butt;stroke-linejoin:miter;stroke-miterlimit:4;stroke-dasharray:none;stroke-opacity:1"
       id="flowRoot4168"
       xml:space="preserve"><flowRegion
         style="stroke-width:4"
         id="flowRegion4170"><rect
           style="fill:#865e04;fill-opacity:1;stroke:none;stroke-width:9.88024902;stroke-miterlimit:4;stroke-dasharray:none;stroke-opacity:1"
           y="88.496887"
           x="57.633083"
           height="216.54114"
           width="615.27551"
           id="rect4172" /></flowRegion><flowPara
         style="font-style:normal;font-variant:normal;font-weight:normal;font-stretch:normal;font-size:75px;font-family:Pacifico;-inkscape-font-specification:Pacifico;letter-spacing:1px;fill:#865e04;fill-opacity:1;stroke:none;stroke-width:4;stroke-miterlimit:4;stroke-dasharray:none;stroke-opacity:1"
         id="flowPara4174"><flowSpan
   style="fill:#de1763;fill-opacity:1"
   id="flowSpan4191">Vue</flowSpan>Project</flowPara></flowRoot>  </g>
  <g
     inkscape:groupmode="layer"
     id="g4199"
     inkscape:label="the"
     transform="translate(64.738748,15.784425)"
     style="display:none"
     sodipodi:insensitive="true">
    <flowRoot
       xml:space="preserve"
       id="flowRoot4201"
       style="font-style:normal;font-weight:normal;font-size:98.80249023px;line-height:125%;font-family:sans-serif;letter-spacing:4.94012451px;word-spacing:0px;fill:#865e04;fill-opacity:1;stroke:none;stroke-width:4;stroke-linecap:butt;stroke-linejoin:miter;stroke-miterlimit:4;stroke-dasharray:none;stroke-opacity:1"
       transform="translate(-73.126454,-96.60723)"><flowRegion
         id="flowRegion4203"
         style="stroke-width:4"><rect
           id="rect4205"
           width="615.27551"
           height="216.54114"
           x="57.633083"
           y="88.496887"
           style="fill:#865e04;fill-opacity:1;stroke:none;stroke-width:9.88024902;stroke-miterlimit:4;stroke-dasharray:none;stroke-opacity:1" /></flowRegion><flowPara
         id="flowPara4207"
         style="font-style:normal;font-variant:normal;font-weight:normal;font-stretch:normal;font-size:50px;font-family:Pacifico;-inkscape-font-specification:Pacifico;letter-spacing:1px;fill:#865e04;fill-opacity:1;stroke:none;stroke-width:4;stroke-miterlimit:4;stroke-dasharray:none;stroke-opacity:1">The</flowPara></flowRoot>  </g>
  <g
     inkscape:groupmode="layer"
     id="layer4"
     inkscape:label="group"
     transform="translate(-6.8999998,3.8000052)"
     sodipodi:insensitive="true">
    <g
       transform="translate(-1.4877063,-84.622807)"
       style="font-style:normal;font-weight:normal;font-size:98.80249023px;line-height:125%;font-family:sans-serif;letter-spacing:4.94012451px;word-spacing:0px;display:inline;fill:none;fill-opacity:1;stroke:#ffffff;stroke-width:13.10000038;stroke-linecap:butt;stroke-linejoin:miter;stroke-miterlimit:4;stroke-dasharray:none;stroke-opacity:1"
       id="flowRoot4211-3">
      <path
         d="m 99.682812,93.372802 q 1.549998,0.3 2.299998,1.05 0.8,0.75 0.8,1.75 0,1.65 -0.95,2.4 -0.9,0.75 -2.899997,0.6 -4.500001,-0.35 -7.050001,-0.45 -2.5,-0.15 -6.599999,-0.2 -1.850001,9.199998 -3.400001,18.499998 -0.549999,3.4 -1.15,7.9 -0.6,4.45 -0.8,7.2 -0.1,1.45 -1.2,2.25 -1.1,0.75 -2.649999,0.75 -1.650001,0 -2.55,-0.8 -0.900001,-0.8 -0.900001,-2.1 0,-1.2 0.35,-3.95 0.4,-2.8 0.9,-5.85 0.55,-3.05 0.85,-5.3 0.550001,-3.8 1.25,-7.55 0.7,-3.75 1.4,-7.1 0.150001,-0.75 0.35,-1.7 0.2,-0.999998 0.45,-2.199998 -4.899999,0.15 -7.7,0.8 -2.8,0.649998 -4,1.849998 -1.149999,1.15 -1.149999,3 0,1.7 1,3.25 0.2,0.35 0.2,0.75 0,0.95 -1.150001,1.8 -1.099999,0.8 -2.299999,0.8 -0.85,0 -1.400001,-0.5 -1,-0.85 -1.65,-2.4 -0.65,-1.6 -0.65,-3.6 0,-4.25 2.75,-6.799998 2.8,-2.6 8.450001,-3.8 5.7,-1.2 14.599999,-1.2 5.500001,0 8.75,0.2 3.3,0.2 5.75,0.65 z"
         style="font-style:normal;font-variant:normal;font-weight:normal;font-stretch:normal;font-size:50px;font-family:Pacifico;-inkscape-font-specification:Pacifico;letter-spacing:1px;fill:none;fill-opacity:1;stroke:#ffffff;stroke-width:13.10000038;stroke-miterlimit:4;stroke-dasharray:none;stroke-opacity:1"
         id="path4307"
         inkscape:connector-curvature="0" />
      <path
         d="m 123.64609,123.7228 q 0.65,0 1,0.6 0.4,0.6 0.4,1.65 0,2 -0.95,3.1 -2.3,2.65 -4.75,4.35 -2.4,1.7 -5.5,1.7 -2.55,0 -3.85,-1.45 -1.3,-1.5 -1.3,-4.3 0,-1.4 0.7,-5 0.65,-3.15 0.65,-4.35 0,-0.8 -0.55,-0.8 -0.65,0 -1.85,1.7 -1.2,1.65 -2.4,4.4 -1.2,2.75 -1.95,5.8 -0.95,4 -4.699996,4 -1.5,0 -2,-1.05 -0.45,-1.1 -0.45,-3.9 0,-1.6 0.05,-2.55 l 0.05,-4 q 0,-7.7 1.55,-16.05 1.6,-8.349998 4.649996,-13.999998 3.1,-5.7 7.4,-5.7 2.3,0 3.7,2 1.45,1.95 1.45,5.1 0,5.049998 -2.95,10.499998 -2.95,5.4 -9.6,12.65 -0.15,2.6 -0.15,5.35 1.65,-4.25 3.65,-6.9 2.05,-2.7 4,-3.85 2,-1.15 3.65,-1.15 3.25,0 3.25,3.25 0,1.95 -1.1,7.05 -0.95,4.35 -0.95,5.75 0,2 1.45,2 1,0 2.35,-1.2 1.4,-1.25 3.7,-4 0.6,-0.7 1.35,-0.7 z m -14.85,-30.899998 q -0.9,0 -2,2.6 -1.1,2.55 -2.15,6.949998 -1,4.35 -1.65,9.5 3.1,-3.65 5.1,-7.95 2.05,-4.299998 2.05,-7.799998 0,-1.6 -0.35,-2.45 -0.35,-0.85 -1,-0.85 z"
         style="font-style:normal;font-variant:normal;font-weight:normal;font-stretch:normal;font-size:50px;font-family:Pacifico;-inkscape-font-specification:Pacifico;letter-spacing:1px;fill:none;fill-opacity:1;stroke:#ffffff;stroke-width:13.10000038;stroke-miterlimit:4;stroke-dasharray:none;stroke-opacity:1"
         id="path4309"
         inkscape:connector-curvature="0" />
      <path
         d="m 139.89375,125.2228 q 0.65,0 1,0.6 0.4,0.6 0.4,1.65 0,1.8 -0.85,3.1 -1.4,2.15 -3.7,3.35 -2.25,1.2 -5.4,1.2 -4.8,0 -7.45,-2.85 -2.65,-2.9 -2.65,-7.8 0,-3.45 1.45,-6.4 1.45,-3 4,-4.75 2.6,-1.75 5.85,-1.75 2.9,0 4.65,1.75 1.75,1.7 1.75,4.65 0,3.45 -2.5,5.95 -2.45,2.45 -8.4,3.9 1.2,2.3 4.05,2.3 2.05,0 3.35,-0.95 1.35,-0.95 3.1,-3.2 0.6,-0.75 1.35,-0.75 z m -8.2,-8.75 q -1.85,0 -3.15,2.15 -1.25,2.15 -1.25,5.2 l 0,0.1 q 2.95,-0.7 4.65,-2.1 1.7,-1.4 1.7,-3.25 0,-0.95 -0.55,-1.5 -0.5,-0.6 -1.4,-0.6 z"
         style="font-style:normal;font-variant:normal;font-weight:normal;font-stretch:normal;font-size:50px;font-family:Pacifico;-inkscape-font-specification:Pacifico;letter-spacing:1px;fill:none;fill-opacity:1;stroke:#ffffff;stroke-width:13.10000038;stroke-miterlimit:4;stroke-dasharray:none;stroke-opacity:1"
         id="path4311"
         inkscape:connector-curvature="0" />
    </g>
    <g
       transform="translate(-52.907812,-67.217512)"
       style="font-style:normal;font-weight:normal;font-size:98.80249023px;line-height:125%;font-family:sans-serif;letter-spacing:4.94012451px;word-spacing:0px;display:inline;fill:#000000;fill-opacity:1;stroke:#ffffff;stroke-width:13.10000038;stroke-linecap:butt;stroke-linejoin:miter;stroke-miterlimit:4;stroke-dasharray:none;stroke-opacity:1"
       id="flowRoot4150-3">
      <path
         d="m 122.43281,125.66116 q 1.725,0 2.475,0.75 0.825,0.75 0.825,1.95 0,1.95 -1.2,3.45 -1.125,1.5 -3.6,1.575 -6,0.15 -10.65,-0.9 -5.325,11.175 -12.899998,18.6 -7.5,7.35 -15.075,7.35 -7.8,0 -11.625,-9.075 -3.825,-9.075 -3.825,-24.525 0,-13.2 1.875,-23.7 0.675001,-3.900004 1.875,-5.250004 1.275,-1.425 4.275,-1.425 4.950001,0 4.950001,4.275 0,0.45 -0.150001,1.650004 -2.25,13.5 -2.25,24.45 0,11.475 1.875,17.475 1.95,5.925 5.775001,5.925 3.899999,0 8.475,-5.4 4.574999,-5.4 8.399997,-13.575 -4.574998,-2.85 -6.899998,-7.35 -2.325,-4.575 -2.325,-10.5 0,-5.925 1.800001,-9.975 1.875,-4.125004 5.025,-6.150004 3.224997,-2.025 7.124997,-2.025 4.8,0 7.575,3.45 2.85,3.450004 2.85,9.450004 0,8.625 -3.75,18.825 3.975,0.675 9.075,0.675 z m -22.125,-14.775 q 0,7.35 4.725,10.875 2.925,-8.4 2.925,-13.875 0,-3.15 -0.825,-4.575 -0.825,-1.5 -2.25,-1.5 -2.025,0 -3.3,2.4 -1.275,2.325 -1.275,6.675 z"
         style="font-style:normal;font-variant:normal;font-weight:normal;font-stretch:normal;font-size:75px;font-family:Pacifico;-inkscape-font-specification:Pacifico;letter-spacing:1px;fill:#000000;fill-opacity:1;stroke:#ffffff;stroke-width:13.10000038;stroke-miterlimit:4;stroke-dasharray:none;stroke-opacity:1"
         id="path4286"
         inkscape:connector-curvature="0" />
      <path
         d="m 127.1582,158.43616 q -3.375,0 -5.55,-3.075 -2.1,-3.15 -2.1,-7.8 0,-5.625 0.75,-10.275 0.75,-4.725 2.475,-9.975 0.75,-2.25 2.1,-3.225 1.35,-0.975 4.275,-0.975 1.65,0 2.25,0.525 0.675,0.525 0.675,1.575 0,0.6 -0.825,4.05 -0.75,2.775 -1.2,5.025 -1.5,7.875 -1.5,10.5 0,1.575 0.375,2.25 0.375,0.6 1.2,0.6 1.125,0 2.775,-2.25 1.725,-2.25 3.6,-6.825 1.95,-4.575 3.75,-11.25 0.6,-2.25 1.8,-3.225 1.275,-0.975 3.75,-0.975 1.725,0 2.4,0.45 0.675,0.375 0.675,1.5 0,1.875 -1.875,10.275 -2.1,9.6 -2.1,11.85 0,1.425 0.6,2.25 0.6,0.75 1.575,0.75 1.5,0 3.525,-1.8 2.1,-1.875 5.55,-6 0.9,-1.05 2.025,-1.05 0.975,0 1.5,0.9 0.6,0.9 0.6,2.475 0,3 -1.425,4.65 -3.225,3.975 -6.975,6.525 -3.675,2.55 -8.4,2.55 -3.6,0 -5.325,-2.775 -1.65,-2.775 -1.65,-7.8 -1.275,5.1 -3.825,7.875 -2.55,2.7 -5.475,2.7 z"
         style="font-style:normal;font-variant:normal;font-weight:normal;font-stretch:normal;font-size:75px;font-family:Pacifico;-inkscape-font-specification:Pacifico;letter-spacing:1px;fill:#000000;fill-opacity:1;stroke:#ffffff;stroke-width:13.10000038;stroke-miterlimit:4;stroke-dasharray:none;stroke-opacity:1"
         id="path4288"
         inkscape:connector-curvature="0" />
      <path
         d="m 188.675,141.33616 q 0.975,0 1.5,0.9 0.6,0.9 0.6,2.475 0,3 -1.425,4.65 -2.775,3.375 -7.875,6.225 -5.025,2.85 -10.8,2.85 -7.875,0 -12.225,-4.275 -4.35,-4.275 -4.35,-11.7 0,-5.175 2.175,-9.6 2.175,-4.5 6,-7.125 3.9,-2.625 8.775,-2.625 4.35,0 6.975,2.625 2.625,2.55 2.625,6.975 0,5.175 -3.75,8.925 -3.675,3.675 -12.525,5.85 1.875,3.45 7.125,3.45 3.375,0 7.65,-2.325 4.35,-2.4 7.5,-6.225 0.9,-1.05 2.025,-1.05 z m -18.9,-10.875 q -2.775,0 -4.725,3.225 -1.875,3.225 -1.875,7.8 l 0,0.15 q 4.425,-1.05 6.975,-3.15 2.55,-2.1 2.55,-4.875 0,-1.425 -0.825,-2.25 -0.75,-0.9 -2.1,-0.9 z"
         style="font-style:normal;font-variant:normal;font-weight:normal;font-stretch:normal;font-size:75px;font-family:Pacifico;-inkscape-font-specification:Pacifico;letter-spacing:1px;fill:#000000;fill-opacity:1;stroke:#ffffff;stroke-width:13.10000038;stroke-miterlimit:4;stroke-dasharray:none;stroke-opacity:1"
         id="path4290"
         inkscape:connector-curvature="0" />
      <path
         d="m 243.79336,113.36116 q 0,6.375 -3.3,11.7 -3.3,5.325 -9.6,8.7 -6.3,3.375 -15,3.975 l -3.225,18.075 q -1.875,10.425 -10.2,10.425 -4.575,0 -8.475,-2.7 -3.825,-2.7 -6.15,-8.25 -2.325,-5.55 -2.325,-13.65 0,-15.225 4.875,-25.8 4.95,-10.65 13.2,-15.900004 8.325,-5.325 18.3,-5.325 7.05,0 11.925,2.475 4.95,2.475 7.425,6.750004 2.55,4.2 2.55,9.525 z m -26.55,16.65 q 15.375,-1.95 15.375,-15.975 0,-4.95 -3.3,-8.025 -3.225,-3.15 -10.05,-3.15 -7.725,0 -13.5,4.875 -5.7,4.875 -8.85,13.575 -3.075,8.625 -3.075,19.725 0,4.65 0.9,8.25 0.975,3.6 2.4,5.625 1.5,1.95 2.85,1.95 1.875,0 2.85,-5.175 l 2.475,-14.175 q -2.925,-0.45 -2.55,-0.375 -2.25,-0.375 -2.925,-1.35 -0.675,-1.05 -0.675,-2.625 0,-1.65 0.9,-2.625 0.975,-0.975 2.625,-0.975 0.75,0 1.125,0.075 1.8,0.3 2.775,0.375 0.975,-5.85 2.775,-15.675 0.45,-2.55 2.025,-3.6 1.65,-1.125 3.825,-1.125 2.475,0 3.525,0.975 1.125,0.9 1.125,2.925 0,1.2 -0.15,1.95 l -2.475,14.55 z"
         style="font-style:normal;font-variant:normal;font-weight:normal;font-stretch:normal;font-size:75px;font-family:Pacifico;-inkscape-font-specification:Pacifico;letter-spacing:1px;fill:#000000;fill-opacity:1;stroke:#ffffff;stroke-width:13.10000038;stroke-miterlimit:4;stroke-dasharray:none;stroke-opacity:1"
         id="path4292"
         inkscape:connector-curvature="0" />
      <path
         d="m 247.80391,158.43616 q -2.85,0 -4.05,-3 -1.125,-3 -1.125,-9.6 0,-9.75 2.775,-18.525 0.675,-2.175 2.175,-3.15 1.575,-1.05 4.35,-1.05 1.5,0 2.1,0.375 0.6,0.375 0.6,1.425 0,1.2 -1.125,5.4 -0.75,3 -1.2,5.25 -0.45,2.25 -0.75,5.55 2.475,-6.45 5.55,-10.5 3.075,-4.05 6,-5.775 3,-1.725 5.475,-1.725 4.875,0 4.875,4.875 0,0.975 -0.675,4.725 -0.6,3 -0.6,3.75 0,2.625 1.875,2.625 2.1,0 5.4,-3.3 0.975,-0.975 2.025,-0.975 0.975,0 1.5,0.9 0.6,0.825 0.6,2.25 0,2.775 -1.5,4.35 -2.1,2.175 -4.95,3.75 -2.775,1.5 -5.925,1.5 -3.975,0 -6.075,-2.025 -2.025,-2.025 -2.025,-5.475 0,-1.125 0.225,-2.25 0.15,-1.5 0.15,-2.025 0,-1.2 -0.825,-1.2 -1.125,0 -3,2.55 -1.8,2.475 -3.6,6.6 -1.8,4.125 -2.925,8.7 -0.825,3.525 -1.95,4.8 -1.05,1.2 -3.375,1.2 z"
         style="font-style:normal;font-variant:normal;font-weight:normal;font-stretch:normal;font-size:75px;font-family:Pacifico;-inkscape-font-specification:Pacifico;letter-spacing:1px;fill:#000000;fill-opacity:1;stroke:#ffffff;stroke-width:13.10000038;stroke-miterlimit:4;stroke-dasharray:none;stroke-opacity:1"
         id="path4294"
         inkscape:connector-curvature="0" />
      <path
         d="m 315.85977,135.03616 q 0.975,0 1.5,0.975 0.525,0.975 0.525,2.475 0,3.6 -2.175,4.275 -4.5,1.575 -9.9,1.8 -1.425,6.3 -5.625,10.125 -4.2,3.75 -9.525,3.75 -4.5,0 -7.725,-2.175 -3.15,-2.175 -4.8,-5.775 -1.65,-3.6 -1.65,-7.8 0,-5.7 2.175,-10.125 2.175,-4.5 6,-6.975 3.825,-2.55 8.475,-2.55 5.7,0 9.15,3.975 3.525,3.9 4.125,9.675 3.525,-0.225 8.4,-1.5 0.6,-0.15 1.05,-0.15 z m -24.6,15.45 q 2.4,0 4.125,-1.95 1.8,-1.95 2.4,-5.625 -2.325,-1.575 -3.6,-4.125 -1.2,-2.55 -1.2,-5.4 0,-1.2 0.225,-2.4 l -0.375,0 q -3,0 -5.025,2.925 -1.95,2.85 -1.95,8.1 0,4.125 1.575,6.3 1.65,2.175 3.825,2.175 z"
         style="font-style:normal;font-variant:normal;font-weight:normal;font-stretch:normal;font-size:75px;font-family:Pacifico;-inkscape-font-specification:Pacifico;letter-spacing:1px;fill:#000000;fill-opacity:1;stroke:#ffffff;stroke-width:13.10000038;stroke-miterlimit:4;stroke-dasharray:none;stroke-opacity:1"
         id="path4296"
         inkscape:connector-curvature="0" />
      <path
         d="m 320.47266,118.16116 q -3.15,0 -4.725,-1.425 -1.575,-1.5 -1.575,-4.125 0,-2.625 2.025,-4.35 2.1,-1.8 5.175,-1.8 2.775,0 4.5,1.35 1.725,1.35 1.725,3.825 0,3 -1.95,4.8 -1.95,1.725 -5.175,1.725 z m 13.5,23.325 q 0.975,0 1.5,0.975 0.6,0.9 0.6,2.325 0,1.725 -0.525,2.7 -0.525,0.975 -1.65,1.725 -5.25,3.45 -14.025,9.525 -2.925,15.6 -7.575,24.525 -4.65,8.925 -11.85,8.925 -3.9,0 -6.225,-2.4 -2.4,-2.325 -2.4,-6.15 0,-5.325 4.125,-11.4 4.125,-6 15.525,-14.85 l 0.525,-3.825 q 1.05,-7.2 1.65,-14.175 0.45,-4.05 1.425,-12.075 0.3,-2.175 1.65,-3.15 1.35,-1.05 4.125,-1.05 2.25,0 2.925,0.675 0.75,0.675 0.75,1.875 0,3.45 -2.475,19.05 l -0.75,5.175 q 6,-4.5 10.95,-7.8 0.975,-0.6 1.725,-0.6 z m -32.7,43.425 q 1.95,0 4.275,-4.425 2.325,-4.425 4.35,-14.25 -5.7,4.875 -8.175,8.775 -2.55,3.975 -2.55,6.975 0,2.925 2.1,2.925 z"
         style="font-style:normal;font-variant:normal;font-weight:normal;font-stretch:normal;font-size:75px;font-family:Pacifico;-inkscape-font-specification:Pacifico;letter-spacing:1px;fill:#000000;fill-opacity:1;stroke:#ffffff;stroke-width:13.10000038;stroke-miterlimit:4;stroke-dasharray:none;stroke-opacity:1"
         id="path4298"
         inkscape:connector-curvature="0" />
      <path
         d="m 365.94062,141.33616 q 0.975,0 1.5,0.9 0.6,0.9 0.6,2.475 0,3 -1.42499,4.65 -2.77501,3.375 -7.875,6.225 -5.02501,2.85 -10.80001,2.85 -7.875,0 -12.225,-4.275 -4.34999,-4.275 -4.34999,-11.7 0,-5.175 2.17499,-9.6 2.175,-4.5 6,-7.125 3.9,-2.625 8.775,-2.625 4.35,0 6.975,2.625 2.625,2.55 2.625,6.975 0,5.175 -3.75,8.925 -3.67499,3.675 -12.525,5.85 1.875,3.45 7.125,3.45 3.375,0 7.65,-2.325 4.35,-2.4 7.5,-6.225 0.9,-1.05 2.025,-1.05 z m -18.9,-10.875 q -2.775,0 -4.725,3.225 -1.875,3.225 -1.875,7.8 l 0,0.15 q 4.42501,-1.05 6.975,-3.15 2.55,-2.1 2.55,-4.875 0,-1.425 -0.825,-2.25 -0.75,-0.9 -2.1,-0.9 z"
         style="font-style:normal;font-variant:normal;font-weight:normal;font-stretch:normal;font-size:75px;font-family:Pacifico;-inkscape-font-specification:Pacifico;letter-spacing:1px;fill:#000000;fill-opacity:1;stroke:#ffffff;stroke-width:13.10000038;stroke-miterlimit:4;stroke-dasharray:none;stroke-opacity:1"
         id="path4300"
         inkscape:connector-curvature="0" />
      <path
         d="m 377.25898,158.43616 q -7.35,0 -11.475,-4.125 -4.05,-4.2 -4.05,-11.025 0,-6.075 2.4,-10.65 2.4,-4.575 6.225,-7.05 3.825,-2.475 8.025,-2.475 4.125,0 6.375,2.475 2.325,2.4 2.325,6.225 0,3.15 -1.425,5.325 -1.35,2.175 -3.6,2.175 -1.425,0 -2.325,-0.675 -0.825,-0.675 -0.825,-1.875 0,-0.525 0.15,-1.2 0.15,-0.675 0.225,-0.975 0.375,-1.125 0.375,-2.1 0,-0.975 -0.525,-1.5 -0.45,-0.525 -1.35,-0.525 -1.725,0 -3.225,1.575 -1.5,1.5 -2.4,4.125 -0.9,2.625 -0.9,5.775 0,8.7 7.575,8.7 3.075,0 6.6,-2.025 3.6,-2.1 7.05,-6.225 0.9,-1.05 2.025,-1.05 0.975,0 1.5,0.9 0.6,0.9 0.6,2.475 0,2.85 -1.425,4.65 -3.525,4.35 -8.475,6.75 -4.875,2.325 -9.45,2.325 z"
         style="font-style:normal;font-variant:normal;font-weight:normal;font-stretch:normal;font-size:75px;font-family:Pacifico;-inkscape-font-specification:Pacifico;letter-spacing:1px;fill:#000000;fill-opacity:1;stroke:#ffffff;stroke-width:13.10000038;stroke-miterlimit:4;stroke-dasharray:none;stroke-opacity:1"
         id="path4302"
         inkscape:connector-curvature="0" />
      <path
         d="m 404.2875,130.23616 q -0.15,3.75 -0.15,5.85 0,5.4 0.525,8.475 0.6,3 1.875,4.35 1.35,1.275 3.675,1.275 1.2,0 2.85,-0.75 1.65,-0.75 3,-1.95 0.825,-0.75 1.65,-0.75 0.9,0 1.425,1.05 0.6,0.975 0.6,2.4 0,1.425 -0.6,2.775 -0.525,1.35 -1.65,2.25 -3.9,3.225 -8.85,3.225 -7.125,0 -10.425,-5.925 -3.3,-6 -3.3,-15.6 0,-3.3 0.225,-6.675 l -2.925,0 q -2.25,0 -3.075,-0.825 -0.75,-0.825 -0.75,-2.625 0,-4.2 3.375,-4.2 l 4.275,0 q 1.275,-8.25 3.9,-15.075 2.625,-6.825 6.3,-10.875004 3.75,-4.05 8.025,-4.05 3.15,0 4.95,2.775 1.8,2.775 1.8,6.975004 0,11.625 -9.75,20.25 l 8.4,0 q 1.2,0 1.725,0.525 0.525,0.525 0.525,1.95 0,5.175 -8.475,5.175 l -9.15,0 z m 7.95,-30.450004 q -1.125,0 -2.55,2.850004 -1.35,2.775 -2.625,7.8 -1.2,4.95 -2.025,11.025 4.425,-3.825 6.6,-8.55 2.25,-4.8 2.25,-8.7 0,-4.425004 -1.65,-4.425004 z"
         style="font-style:normal;font-variant:normal;font-weight:normal;font-stretch:normal;font-size:75px;font-family:Pacifico;-inkscape-font-specification:Pacifico;letter-spacing:1px;fill:#000000;fill-opacity:1;stroke:#ffffff;stroke-width:13.10000038;stroke-miterlimit:4;stroke-dasharray:none;stroke-opacity:1"
         id="path4304"
         inkscape:connector-curvature="0" />
    </g>
    <g
       transform="translate(-52.907812,-67.217512)"
       style="font-style:normal;font-weight:normal;font-size:98.80249023px;line-height:125%;font-family:sans-serif;letter-spacing:4.94012451px;word-spacing:0px;display:inline;fill:#865e04;fill-opacity:1;stroke:none;stroke-width:4;stroke-linecap:butt;stroke-linejoin:miter;stroke-miterlimit:4;stroke-dasharray:none;stroke-opacity:1"
       id="flowRoot4168-9">
      <path
         d="m 122.43281,125.66116 q 1.725,0 2.475,0.75 0.825,0.75 0.825,1.95 0,1.95 -1.2,3.45 -1.125,1.5 -3.6,1.575 -6,0.15 -10.65,-0.9 -5.325,11.175 -12.899998,18.6 -7.5,7.35 -15.075,7.35 -7.8,0 -11.625,-9.075 -3.825,-9.075 -3.825,-24.525 0,-13.2 1.875,-23.7 0.675001,-3.900004 1.875,-5.250004 1.275,-1.425 4.275,-1.425 4.950001,0 4.950001,4.275 0,0.45 -0.150001,1.650004 -2.25,13.5 -2.25,24.45 0,11.475 1.875,17.475 1.95,5.925 5.775001,5.925 3.899999,0 8.475,-5.4 4.574999,-5.4 8.399997,-13.575 -4.574998,-2.85 -6.899998,-7.35 -2.325,-4.575 -2.325,-10.5 0,-5.925 1.800001,-9.975 1.875,-4.125004 5.025,-6.150004 3.224997,-2.025 7.124997,-2.025 4.8,0 7.575,3.45 2.85,3.450004 2.85,9.450004 0,8.625 -3.75,18.825 3.975,0.675 9.075,0.675 z m -22.125,-14.775 q 0,7.35 4.725,10.875 2.925,-8.4 2.925,-13.875 0,-3.15 -0.825,-4.575 -0.825,-1.5 -2.25,-1.5 -2.025,0 -3.3,2.4 -1.275,2.325 -1.275,6.675 z"
         style="fill:#de1763;fill-opacity:1"
         id="path4265"
         inkscape:connector-curvature="0" />
      <path
         d="m 127.1582,158.43616 q -3.375,0 -5.55,-3.075 -2.1,-3.15 -2.1,-7.8 0,-5.625 0.75,-10.275 0.75,-4.725 2.475,-9.975 0.75,-2.25 2.1,-3.225 1.35,-0.975 4.275,-0.975 1.65,0 2.25,0.525 0.675,0.525 0.675,1.575 0,0.6 -0.825,4.05 -0.75,2.775 -1.2,5.025 -1.5,7.875 -1.5,10.5 0,1.575 0.375,2.25 0.375,0.6 1.2,0.6 1.125,0 2.775,-2.25 1.725,-2.25 3.6,-6.825 1.95,-4.575 3.75,-11.25 0.6,-2.25 1.8,-3.225 1.275,-0.975 3.75,-0.975 1.725,0 2.4,0.45 0.675,0.375 0.675,1.5 0,1.875 -1.875,10.275 -2.1,9.6 -2.1,11.85 0,1.425 0.6,2.25 0.6,0.75 1.575,0.75 1.5,0 3.525,-1.8 2.1,-1.875 5.55,-6 0.9,-1.05 2.025,-1.05 0.975,0 1.5,0.9 0.6,0.9 0.6,2.475 0,3 -1.425,4.65 -3.225,3.975 -6.975,6.525 -3.675,2.55 -8.4,2.55 -3.6,0 -5.325,-2.775 -1.65,-2.775 -1.65,-7.8 -1.275,5.1 -3.825,7.875 -2.55,2.7 -5.475,2.7 z"
         style="fill:#de1763;fill-opacity:1"
         id="path4267"
         inkscape:connector-curvature="0" />
      <path
         d="m 182.075,143.58616 q 0.975,0 1.5,0.9 0.6,0.9 0.6,2.475 0,2.7 -1.275,4.65 -2.1,3.225 -5.55,5.025 -3.375,1.8 -8.1,1.8 -7.2,0 -11.175,-4.275 -3.975,-4.35 -3.975,-11.7 0,-5.175 2.175,-9.6 2.175,-4.5 6,-7.125 3.9,-2.625 8.775,-2.625 4.35,0 6.975,2.625 2.625,2.55 2.625,6.975 0,5.175 -3.75,8.925 -3.675,3.675 -12.6,5.85 1.8,3.45 6.075,3.45 3.075,0 5.025,-1.425 2.025,-1.425 4.65,-4.8 0.9,-1.125 2.025,-1.125 z m -12.3,-13.125 q -2.775,0 -4.725,3.225 -1.875,3.225 -1.875,7.8 l 0,0.15 q 4.425,-1.05 6.975,-3.15 2.55,-2.1 2.55,-4.875 0,-1.425 -0.825,-2.25 -0.75,-0.9 -2.1,-0.9 z"
         style="fill:#de1763;fill-opacity:1"
         id="path4269"
         inkscape:connector-curvature="0" />
      <path
         d="m 245.11172,113.36116 q 0,6.375 -3.3,11.7 -3.3,5.325 -9.6,8.7 -6.3,3.375 -15,3.975 l -3.225,18.075 q -1.875,10.425 -10.2,10.425 -4.575,0 -8.475,-2.7 -3.825,-2.7 -6.15,-8.25 -2.325,-5.55 -2.325,-13.65 0,-15.225 4.875,-25.8 4.95,-10.65 13.2,-15.900004 8.325,-5.325 18.3,-5.325 7.05,0 11.925,2.475 4.95,2.475 7.425,6.750004 2.55,4.2 2.55,9.525 z m -26.55,16.65 q 15.375,-1.95 15.375,-15.975 0,-4.95 -3.3,-8.025 -3.225,-3.15 -10.05,-3.15 -7.725,0 -13.5,4.875 -5.7,4.875 -8.85,13.575 -3.075,8.625 -3.075,19.725 0,4.65 0.9,8.25 0.975,3.6 2.4,5.625 1.5,1.95 2.85,1.95 1.875,0 2.85,-5.175 l 2.475,-14.175 q -2.925,-0.45 -2.55,-0.375 -2.25,-0.375 -2.925,-1.35 -0.675,-1.05 -0.675,-2.625 0,-1.65 0.9,-2.625 0.975,-0.975 2.625,-0.975 0.75,0 1.125,0.075 1.8,0.3 2.775,0.375 0.975,-5.85 2.775,-15.675 0.45,-2.55 2.025,-3.6 1.65,-1.125 3.825,-1.125 2.475,0 3.525,0.975 1.125,0.9 1.125,2.925 0,1.2 -0.15,1.95 l -2.475,14.55 z"
         style="font-style:normal;font-variant:normal;font-weight:normal;font-stretch:normal;font-size:75px;font-family:Pacifico;-inkscape-font-specification:Pacifico;letter-spacing:1px;fill:#865e04;fill-opacity:1;stroke:none;stroke-width:4;stroke-miterlimit:4;stroke-dasharray:none;stroke-opacity:1"
         id="path4271"
         inkscape:connector-curvature="0" />
      <path
         d="m 249.12227,158.43616 q -2.85,0 -4.05,-3 -1.125,-3 -1.125,-9.6 0,-9.75 2.775,-18.525 0.675,-2.175 2.175,-3.15 1.575,-1.05 4.35,-1.05 1.5,0 2.1,0.375 0.6,0.375 0.6,1.425 0,1.2 -1.125,5.4 -0.75,3 -1.2,5.25 -0.45,2.25 -0.75,5.55 2.475,-6.45 5.55,-10.5 3.075,-4.05 6,-5.775 3,-1.725 5.475,-1.725 4.875,0 4.875,4.875 0,0.975 -0.675,4.725 -0.6,3 -0.6,3.75 0,2.625 1.875,2.625 2.1,0 5.4,-3.3 0.975,-0.975 2.025,-0.975 0.975,0 1.5,0.9 0.6,0.825 0.6,2.25 0,2.775 -1.5,4.35 -2.1,2.175 -4.95,3.75 -2.775,1.5 -5.925,1.5 -3.975,0 -6.075,-2.025 -2.025,-2.025 -2.025,-5.475 0,-1.125 0.225,-2.25 0.15,-1.5 0.15,-2.025 0,-1.2 -0.825,-1.2 -1.125,0 -3,2.55 -1.8,2.475 -3.6,6.6 -1.8,4.125 -2.925,8.7 -0.825,3.525 -1.95,4.8 -1.05,1.2 -3.375,1.2 z"
         style="font-style:normal;font-variant:normal;font-weight:normal;font-stretch:normal;font-size:75px;font-family:Pacifico;-inkscape-font-specification:Pacifico;letter-spacing:1px;fill:#865e04;fill-opacity:1;stroke:none;stroke-width:4;stroke-miterlimit:4;stroke-dasharray:none;stroke-opacity:1"
         id="path4273"
         inkscape:connector-curvature="0" />
      <path
         d="m 317.17813,135.03616 q 0.97499,0 1.5,0.975 0.52499,0.975 0.52499,2.475 0,3.6 -2.175,4.275 -4.5,1.575 -9.9,1.8 -1.425,6.3 -5.625,10.125 -4.19999,3.75 -9.525,3.75 -4.5,0 -7.725,-2.175 -3.15,-2.175 -4.8,-5.775 -1.64999,-3.6 -1.64999,-7.8 0,-5.7 2.17499,-10.125 2.175,-4.5 6,-6.975 3.82501,-2.55 8.475,-2.55 5.7,0 9.15,3.975 3.525,3.9 4.125,9.675 3.525,-0.225 8.4,-1.5 0.6,-0.15 1.05001,-0.15 z m -24.60001,15.45 q 2.4,0 4.125,-1.95 1.8,-1.95 2.4,-5.625 -2.325,-1.575 -3.6,-4.125 -1.19999,-2.55 -1.19999,-5.4 0,-1.2 0.22499,-2.4 l -0.375,0 q -3,0 -5.025,2.925 -1.94999,2.85 -1.94999,8.1 0,4.125 1.57499,6.3 1.65,2.175 3.825,2.175 z"
         style="font-style:normal;font-variant:normal;font-weight:normal;font-stretch:normal;font-size:75px;font-family:Pacifico;-inkscape-font-specification:Pacifico;letter-spacing:1px;fill:#865e04;fill-opacity:1;stroke:none;stroke-width:4;stroke-miterlimit:4;stroke-dasharray:none;stroke-opacity:1"
         id="path4275"
         inkscape:connector-curvature="0" />
      <path
         d="m 321.79102,118.16116 q -3.15,0 -4.725,-1.425 -1.575,-1.5 -1.575,-4.125 0,-2.625 2.025,-4.35 2.1,-1.8 5.175,-1.8 2.775,0 4.5,1.35 1.725,1.35 1.725,3.825 0,3 -1.95,4.8 -1.95,1.725 -5.175,1.725 z m 13.5,23.325 q 0.975,0 1.5,0.975 0.6,0.9 0.6,2.325 0,1.725 -0.525,2.7 -0.525,0.975 -1.65,1.725 -5.25,3.45 -14.025,9.525 -2.925,15.6 -7.575,24.525 -4.65,8.925 -11.85,8.925 -3.9,0 -6.225,-2.4 -2.4,-2.325 -2.4,-6.15 0,-5.325 4.125,-11.4 4.125,-6 15.525,-14.85 l 0.525,-3.825 q 1.05,-7.2 1.65,-14.175 0.45,-4.05 1.425,-12.075 0.3,-2.175 1.65,-3.15 1.35,-1.05 4.125,-1.05 2.25,0 2.925,0.675 0.75,0.675 0.75,1.875 0,3.45 -2.475,19.05 l -0.75,5.175 q 6,-4.5 10.95,-7.8 0.975,-0.6 1.725,-0.6 z m -32.7,43.425 q 1.95,0 4.275,-4.425 2.325,-4.425 4.35,-14.25 -5.7,4.875 -8.175,8.775 -2.55,3.975 -2.55,6.975 0,2.925 2.1,2.925 z"
         style="font-style:normal;font-variant:normal;font-weight:normal;font-stretch:normal;font-size:75px;font-family:Pacifico;-inkscape-font-specification:Pacifico;letter-spacing:1px;fill:#865e04;fill-opacity:1;stroke:none;stroke-width:4;stroke-miterlimit:4;stroke-dasharray:none;stroke-opacity:1"
         id="path4277"
         inkscape:connector-curvature="0" />
      <path
         d="m 367.25898,141.33616 q 0.975,0 1.5,0.9 0.6,0.9 0.6,2.475 0,3 -1.425,4.65 -2.775,3.375 -7.875,6.225 -5.025,2.85 -10.8,2.85 -7.875,0 -12.225,-4.275 -4.35,-4.275 -4.35,-11.7 0,-5.175 2.175,-9.6 2.175,-4.5 6,-7.125 3.9,-2.625 8.775,-2.625 4.35,0 6.975,2.625 2.625,2.55 2.625,6.975 0,5.175 -3.75,8.925 -3.675,3.675 -12.525,5.85 1.875,3.45 7.125,3.45 3.375,0 7.65,-2.325 4.35,-2.4 7.5,-6.225 0.9,-1.05 2.025,-1.05 z m -18.9,-10.875 q -2.775,0 -4.725,3.225 -1.875,3.225 -1.875,7.8 l 0,0.15 q 4.425,-1.05 6.975,-3.15 2.55,-2.1 2.55,-4.875 0,-1.425 -0.825,-2.25 -0.75,-0.9 -2.1,-0.9 z"
         style="font-style:normal;font-variant:normal;font-weight:normal;font-stretch:normal;font-size:75px;font-family:Pacifico;-inkscape-font-specification:Pacifico;letter-spacing:1px;fill:#865e04;fill-opacity:1;stroke:none;stroke-width:4;stroke-miterlimit:4;stroke-dasharray:none;stroke-opacity:1"
         id="path4279"
         inkscape:connector-curvature="0" />
      <path
         d="m 378.57734,158.43616 q -7.35,0 -11.475,-4.125 -4.05,-4.2 -4.05,-11.025 0,-6.075 2.4,-10.65 2.4,-4.575 6.225,-7.05 3.825,-2.475 8.025,-2.475 4.125,0 6.375,2.475 2.325,2.4 2.325,6.225 0,3.15 -1.425,5.325 -1.35,2.175 -3.6,2.175 -1.425,0 -2.325,-0.675 -0.825,-0.675 -0.825,-1.875 0,-0.525 0.15,-1.2 0.15,-0.675 0.225,-0.975 0.375,-1.125 0.375,-2.1 0,-0.975 -0.525,-1.5 -0.45,-0.525 -1.35,-0.525 -1.725,0 -3.225,1.575 -1.5,1.5 -2.4,4.125 -0.9,2.625 -0.9,5.775 0,8.7 7.575,8.7 3.075,0 6.6,-2.025 3.6,-2.1 7.05,-6.225 0.9,-1.05 2.025,-1.05 0.975,0 1.5,0.9 0.6,0.9 0.6,2.475 0,2.85 -1.425,4.65 -3.525,4.35 -8.475,6.75 -4.875,2.325 -9.45,2.325 z"
         style="font-style:normal;font-variant:normal;font-weight:normal;font-stretch:normal;font-size:75px;font-family:Pacifico;-inkscape-font-specification:Pacifico;letter-spacing:1px;fill:#865e04;fill-opacity:1;stroke:none;stroke-width:4;stroke-miterlimit:4;stroke-dasharray:none;stroke-opacity:1"
         id="path4281"
         inkscape:connector-curvature="0" />
      <path
         d="m 405.60586,130.23616 q -0.15,3.75 -0.15,5.85 0,5.4 0.525,8.475 0.6,3 1.875,4.35 1.35,1.275 3.675,1.275 1.2,0 2.85,-0.75 1.65,-0.75 3,-1.95 0.825,-0.75 1.65,-0.75 0.9,0 1.425,1.05 0.6,0.975 0.6,2.4 0,1.425 -0.6,2.775 -0.525,1.35 -1.65,2.25 -3.9,3.225 -8.85,3.225 -7.125,0 -10.425,-5.925 -3.3,-6 -3.3,-15.6 0,-3.3 0.225,-6.675 l -2.925,0 q -2.25,0 -3.075,-0.825 -0.75,-0.825 -0.75,-2.625 0,-4.2 3.375,-4.2 l 4.275,0 q 1.275,-8.25 3.9,-15.075 2.625,-6.825 6.3,-10.875004 3.75,-4.05 8.025,-4.05 3.15,0 4.95,2.775 1.8,2.775 1.8,6.975004 0,11.625 -9.75,20.25 l 8.4,0 q 1.2,0 1.725,0.525 0.525,0.525 0.525,1.95 0,5.175 -8.475,5.175 l -9.15,0 z m 7.95,-30.450004 q -1.125,0 -2.55,2.850004 -1.35,2.775 -2.625,7.8 -1.2,4.95 -2.025,11.025 4.425,-3.825 6.6,-8.55 2.25,-4.8 2.25,-8.7 0,-4.425004 -1.65,-4.425004 z"
         style="font-style:normal;font-variant:normal;font-weight:normal;font-stretch:normal;font-size:75px;font-family:Pacifico;-inkscape-font-specification:Pacifico;letter-spacing:1px;fill:#865e04;fill-opacity:1;stroke:none;stroke-width:4;stroke-miterlimit:4;stroke-dasharray:none;stroke-opacity:1"
         id="path4283"
         inkscape:connector-curvature="0" />
    </g>
    <g
       transform="translate(-1.4877063,-84.622807)"
       style="font-style:normal;font-weight:normal;font-size:98.80249023px;line-height:125%;font-family:sans-serif;letter-spacing:4.94012451px;word-spacing:0px;display:inline;fill:#865e04;fill-opacity:1;stroke:none;stroke-width:4;stroke-linecap:butt;stroke-linejoin:miter;stroke-miterlimit:4;stroke-dasharray:none;stroke-opacity:1"
       id="flowRoot4201-9">
      <path
         d="m 99.682812,93.372802 q 1.549998,0.3 2.299998,1.05 0.8,0.75 0.8,1.75 0,1.65 -0.95,2.4 -0.9,0.75 -2.899997,0.6 -4.500001,-0.35 -7.050001,-0.45 -2.5,-0.15 -6.599999,-0.2 -1.850001,9.199998 -3.400001,18.499998 -0.549999,3.4 -1.15,7.9 -0.6,4.45 -0.8,7.2 -0.1,1.45 -1.2,2.25 -1.1,0.75 -2.649999,0.75 -1.650001,0 -2.55,-0.8 -0.900001,-0.8 -0.900001,-2.1 0,-1.2 0.35,-3.95 0.4,-2.8 0.9,-5.85 0.55,-3.05 0.85,-5.3 0.550001,-3.8 1.25,-7.55 0.7,-3.75 1.4,-7.1 0.150001,-0.75 0.35,-1.7 0.2,-0.999998 0.45,-2.199998 -4.899999,0.15 -7.7,0.8 -2.8,0.649998 -4,1.849998 -1.149999,1.15 -1.149999,3 0,1.7 1,3.25 0.2,0.35 0.2,0.75 0,0.95 -1.150001,1.8 -1.099999,0.8 -2.299999,0.8 -0.85,0 -1.400001,-0.5 -1,-0.85 -1.65,-2.4 -0.65,-1.6 -0.65,-3.6 0,-4.25 2.75,-6.799998 2.8,-2.6 8.450001,-3.8 5.7,-1.2 14.599999,-1.2 5.500001,0 8.75,0.2 3.3,0.2 5.75,0.65 z"
         style="font-style:normal;font-variant:normal;font-weight:normal;font-stretch:normal;font-size:50px;font-family:Pacifico;-inkscape-font-specification:Pacifico;letter-spacing:1px;fill:#865e04;fill-opacity:1;stroke:none;stroke-width:4;stroke-miterlimit:4;stroke-dasharray:none;stroke-opacity:1"
         id="path4258"
         inkscape:connector-curvature="0" />
      <path
         d="m 123.64609,123.7228 q 0.65,0 1,0.6 0.4,0.6 0.4,1.65 0,2 -0.95,3.1 -2.3,2.65 -4.75,4.35 -2.4,1.7 -5.5,1.7 -2.55,0 -3.85,-1.45 -1.3,-1.5 -1.3,-4.3 0,-1.4 0.7,-5 0.65,-3.15 0.65,-4.35 0,-0.8 -0.55,-0.8 -0.65,0 -1.85,1.7 -1.2,1.65 -2.4,4.4 -1.2,2.75 -1.95,5.8 -0.95,4 -4.699996,4 -1.5,0 -2,-1.05 -0.45,-1.1 -0.45,-3.9 0,-1.6 0.05,-2.55 l 0.05,-4 q 0,-7.7 1.55,-16.05 1.6,-8.349998 4.649996,-13.999998 3.1,-5.7 7.4,-5.7 2.3,0 3.7,2 1.45,1.95 1.45,5.1 0,5.049998 -2.95,10.499998 -2.95,5.4 -9.6,12.65 -0.15,2.6 -0.15,5.35 1.65,-4.25 3.65,-6.9 2.05,-2.7 4,-3.85 2,-1.15 3.65,-1.15 3.25,0 3.25,3.25 0,1.95 -1.1,7.05 -0.95,4.35 -0.95,5.75 0,2 1.45,2 1,0 2.35,-1.2 1.4,-1.25 3.7,-4 0.6,-0.7 1.35,-0.7 z m -14.85,-30.899998 q -0.9,0 -2,2.6 -1.1,2.55 -2.15,6.949998 -1,4.35 -1.65,9.5 3.1,-3.65 5.1,-7.95 2.05,-4.299998 2.05,-7.799998 0,-1.6 -0.35,-2.45 -0.35,-0.85 -1,-0.85 z"
         style="font-style:normal;font-variant:normal;font-weight:normal;font-stretch:normal;font-size:50px;font-family:Pacifico;-inkscape-font-specification:Pacifico;letter-spacing:1px;fill:#865e04;fill-opacity:1;stroke:none;stroke-width:4;stroke-miterlimit:4;stroke-dasharray:none;stroke-opacity:1"
         id="path4260"
         inkscape:connector-curvature="0" />
      <path
         d="m 139.89375,125.2228 q 0.65,0 1,0.6 0.4,0.6 0.4,1.65 0,1.8 -0.85,3.1 -1.4,2.15 -3.7,3.35 -2.25,1.2 -5.4,1.2 -4.8,0 -7.45,-2.85 -2.65,-2.9 -2.65,-7.8 0,-3.45 1.45,-6.4 1.45,-3 4,-4.75 2.6,-1.75 5.85,-1.75 2.9,0 4.65,1.75 1.75,1.7 1.75,4.65 0,3.45 -2.5,5.95 -2.45,2.45 -8.4,3.9 1.2,2.3 4.05,2.3 2.05,0 3.35,-0.95 1.35,-0.95 3.1,-3.2 0.6,-0.75 1.35,-0.75 z m -8.2,-8.75 q -1.85,0 -3.15,2.15 -1.25,2.15 -1.25,5.2 l 0,0.1 q 2.95,-0.7 4.65,-2.1 1.7,-1.4 1.7,-3.25 0,-0.95 -0.55,-1.5 -0.5,-0.6 -1.4,-0.6 z"
         style="font-style:normal;font-variant:normal;font-weight:normal;font-stretch:normal;font-size:50px;font-family:Pacifico;-inkscape-font-specification:Pacifico;letter-spacing:1px;fill:#865e04;fill-opacity:1;stroke:none;stroke-width:4;stroke-miterlimit:4;stroke-dasharray:none;stroke-opacity:1"
         id="path4262"
         inkscape:connector-curvature="0" />
    </g>
  </g>
</svg>
