<?xml version="1.0" encoding="UTF-8" standalone="no"?>
<svg
   xmlns:dc="http://purl.org/dc/elements/1.1/"
   xmlns:cc="http://creativecommons.org/ns#"
   xmlns:rdf="http://www.w3.org/1999/02/22-rdf-syntax-ns#"
   xmlns:svg="http://www.w3.org/2000/svg"
   xmlns="http://www.w3.org/2000/svg"
   xmlns:sodipodi="http://sodipodi.sourceforge.net/DTD/sodipodi-0.dtd"
   xmlns:inkscape="http://www.inkscape.org/namespaces/inkscape"
   version="1.1"
   x="0px"
   y="0px"
   viewBox="0 0 447.99442 106.89139"
   id="svg4171"
   inkscape:version="0.91 r13725"
   sodipodi:docname="logo-readme.svg"
   width="447.99442"
   height="106.8914">
  <metadata
     id="metadata4185">
    <rdf:RDF>
      <cc:Work
         rdf:about="">
        <dc:format>image/svg+xml</dc:format>
        <dc:type
           rdf:resource="http://purl.org/dc/dcmitype/StillImage" />
        <dc:title></dc:title>
      </cc:Work>
    </rdf:RDF>
  </metadata>
  <defs
     id="defs4183" />
  <sodipodi:namedview
     pagecolor="#ffffff"
     bordercolor="#666666"
     borderopacity="1"
     objecttolerance="10"
     gridtolerance="10"
     guidetolerance="10"
     inkscape:pageopacity="0"
     inkscape:pageshadow="2"
     inkscape:window-width="1920"
     inkscape:window-height="1016"
     id="namedview4181"
     showgrid="false"
     fit-margin-top="0.5"
     fit-margin-left="0.5"
     fit-margin-right="0"
     fit-margin-bottom="0"
     inkscape:zoom="1.654"
     inkscape:cx="201.12147"
     inkscape:cy="33.916908"
     inkscape:window-x="0"
     inkscape:window-y="27"
     inkscape:window-maximized="1"
     inkscape:current-layer="layer5" />
  <g
     inkscape:groupmode="layer"
     id="layer3"
     inkscape:label="background"
     style="display:none"
     transform="translate(161.13009,-4.4848329)"
     sodipodi:insensitive="true">
    <rect
       style="fill:#62e8bc;fill-opacity:1;stroke:none;stroke-width:15;stroke-linecap:butt;stroke-linejoin:miter;stroke-miterlimit:4;stroke-dasharray:none;stroke-opacity:1"
       id="rect4144"
       width="619.98535"
       height="177.93167"
       x="-271.13412"
       y="-41.325947" />
  </g>
  <g
     inkscape:groupmode="layer"
     id="layer2"
     inkscape:label="Text stroke"
     transform="translate(161.13009,-4.4848329)"
     style="display:inline">
    <g
       transform="translate(-133.70441,-80.190323)"
       style="font-style:normal;font-weight:normal;font-size:98.80249023px;line-height:125%;font-family:sans-serif;letter-spacing:4.94012451px;word-spacing:0px;display:inline;fill:none;fill-opacity:1;stroke:#ffffff;stroke-width:13;stroke-linecap:butt;stroke-linejoin:miter;stroke-miterlimit:4;stroke-dasharray:none;stroke-opacity:1"
       id="flowRoot4266-3">
      <path
         d="m 122.43281,125.66116 q 1.725,0 2.475,0.75 0.825,0.75 0.825,1.95 0,1.95 -1.2,3.45 -1.125,1.5 -3.6,1.575 -6,0.15 -10.65,-0.9 -5.325,11.175 -12.899998,18.6 -7.5,7.35 -15.075,7.35 -7.8,0 -11.625,-9.075 -3.825,-9.075 -3.825,-24.525 0,-13.2 1.875,-23.7 0.675001,-3.900004 1.875,-5.250004 1.275,-1.425 4.275,-1.425 4.950001,0 4.950001,4.275 0,0.45 -0.150001,1.650004 -2.25,13.5 -2.25,24.45 0,11.475 1.875,17.475 1.95,5.925 5.775001,5.925 3.899999,0 8.475,-5.4 4.574999,-5.4 8.399997,-13.575 -4.574998,-2.85 -6.899998,-7.35 -2.325,-4.575 -2.325,-10.5 0,-5.925 1.800001,-9.975 1.875,-4.125004 5.025,-6.150004 3.224997,-2.025 7.124997,-2.025 4.8,0 7.575,3.45 2.85,3.450004 2.85,9.450004 0,8.625 -3.75,18.825 3.975,0.675 9.075,0.675 z m -22.125,-14.775 q 0,7.35 4.725,10.875 2.925,-8.4 2.925,-13.875 0,-3.15 -0.825,-4.575 -0.825,-1.5 -2.25,-1.5 -2.025,0 -3.3,2.4 -1.275,2.325 -1.275,6.675 z"
         style="font-style:normal;font-variant:normal;font-weight:normal;font-stretch:normal;font-size:75px;font-family:Pacifico;-inkscape-font-specification:Pacifico;letter-spacing:1px;fill:none;fill-opacity:1;stroke:#ffffff;stroke-width:13;stroke-miterlimit:4;stroke-dasharray:none;stroke-opacity:1"
         id="path4402"
         inkscape:connector-curvature="0" />
      <path
         d="m 127.1582,158.43616 q -3.375,0 -5.55,-3.075 -2.1,-3.15 -2.1,-7.8 0,-5.625 0.75,-10.275 0.75,-4.725 2.475,-9.975 0.75,-2.25 2.1,-3.225 1.35,-0.975 4.275,-0.975 1.65,0 2.25,0.525 0.675,0.525 0.675,1.575 0,0.6 -0.825,4.05 -0.75,2.775 -1.2,5.025 -1.5,7.875 -1.5,10.5 0,1.575 0.375,2.25 0.375,0.6 1.2,0.6 1.125,0 2.775,-2.25 1.725,-2.25 3.6,-6.825 1.95,-4.575 3.75,-11.25 0.6,-2.25 1.8,-3.225 1.275,-0.975 3.75,-0.975 1.725,0 2.4,0.45 0.675,0.375 0.675,1.5 0,1.875 -1.875,10.275 -2.1,9.6 -2.1,11.85 0,1.425 0.6,2.25 0.6,0.75 1.575,0.75 1.5,0 3.525,-1.8 2.1,-1.875 5.55,-6 0.9,-1.05 2.025,-1.05 0.975,0 1.5,0.9 0.6,0.9 0.6,2.475 0,3 -1.425,4.65 -3.225,3.975 -6.975,6.525 -3.675,2.55 -8.4,2.55 -3.6,0 -5.325,-2.775 -1.65,-2.775 -1.65,-7.8 -1.275,5.1 -3.825,7.875 -2.55,2.7 -5.475,2.7 z"
         style="font-style:normal;font-variant:normal;font-weight:normal;font-stretch:normal;font-size:75px;font-family:Pacifico;-inkscape-font-specification:Pacifico;letter-spacing:1px;fill:none;fill-opacity:1;stroke:#ffffff;stroke-width:13;stroke-miterlimit:4;stroke-dasharray:none;stroke-opacity:1"
         id="path4404"
         inkscape:connector-curvature="0" />
      <path
         d="m 188.675,141.33616 q 0.975,0 1.5,0.9 0.6,0.9 0.6,2.475 0,3 -1.425,4.65 -2.775,3.375 -7.875,6.225 -5.025,2.85 -10.8,2.85 -7.875,0 -12.225,-4.275 -4.35,-4.275 -4.35,-11.7 0,-5.175 2.175,-9.6 2.175,-4.5 6,-7.125 3.9,-2.625 8.775,-2.625 4.35,0 6.975,2.625 2.625,2.55 2.625,6.975 0,5.175 -3.75,8.925 -3.675,3.675 -12.525,5.85 1.875,3.45 7.125,3.45 3.375,0 7.65,-2.325 4.35,-2.4 7.5,-6.225 0.9,-1.05 2.025,-1.05 z m -18.9,-10.875 q -2.775,0 -4.725,3.225 -1.875,3.225 -1.875,7.8 l 0,0.15 q 4.425,-1.05 6.975,-3.15 2.55,-2.1 2.55,-4.875 0,-1.425 -0.825,-2.25 -0.75,-0.9 -2.1,-0.9 z"
         style="font-style:normal;font-variant:normal;font-weight:normal;font-stretch:normal;font-size:75px;font-family:Pacifico;-inkscape-font-specification:Pacifico;letter-spacing:1px;fill:none;fill-opacity:1;stroke:#ffffff;stroke-width:13;stroke-miterlimit:4;stroke-dasharray:none;stroke-opacity:1"
         id="path4406"
         inkscape:connector-curvature="0" />
      <path
         d="m 205.16836,158.43616 q -4.35,0 -9.825,-0.75 -3,-0.375 -4.125,-1.575 -1.125,-1.2 -0.975,-3.9 0.525,-7.425 2.475,-18.3 1.95,-10.95 4.725,-21.075 0.525,-1.875 2.1,-2.625 1.575,-0.75 4.125,-0.75 4.575,0 4.575,2.55 0,1.05 -0.45,2.4 -1.95,6 -3.9,16.125 -1.95,10.05 -2.775,19.2 2.25,0.225 5.1,0.225 13.125,0 19.575,-7.95 6.525,-7.95 6.525,-21.225 0,-8.925 -5.1,-13.8 -5.1,-4.875 -14.4,-4.875 -6,0 -11.925,1.875 -5.85,1.875 -10.575,4.95 -0.975,0.675 -2.1,0.675 -1.275,0 -2.025,-1.05 -0.75,-1.125 -0.75,-2.7 0,-1.8 0.6,-2.925 0.6,-1.2 2.025,-2.175 5.175,-3.525004 12.15,-5.325004 6.975,-1.875 13.425,-1.875 9.15,0 15.825,3.225 6.675,3.15 10.275,9.300004 3.6,6.15 3.6,14.85 0,11.325 -4.5,19.8 -4.5,8.4 -13.125,13.05 -8.625,4.65 -20.55,4.65 z"
         style="font-style:normal;font-variant:normal;font-weight:normal;font-stretch:normal;font-size:75px;font-family:Pacifico;-inkscape-font-specification:Pacifico;letter-spacing:1px;fill:none;fill-opacity:1;stroke:#ffffff;stroke-width:13;stroke-miterlimit:4;stroke-dasharray:none;stroke-opacity:1"
         id="path4408"
         inkscape:connector-curvature="0" />
      <path
         d="m 287.61367,135.03616 q 0.975,0 1.5,0.975 0.525,0.975 0.525,2.475 0,3.6 -2.175,4.275 -4.5,1.575 -9.9,1.8 -1.425,6.3 -5.625,10.125 -4.2,3.75 -9.525,3.75 -4.5,0 -7.725,-2.175 -3.15,-2.175 -4.8,-5.775 -1.65,-3.6 -1.65,-7.8 0,-5.7 2.175,-10.125 2.175,-4.5 6,-6.975 3.825,-2.55 8.475,-2.55 5.7,0 9.15,3.975 3.525,3.9 4.125,9.675 3.525,-0.225 8.4,-1.5 0.6,-0.15 1.05,-0.15 z m -24.6,15.45 q 2.4,0 4.125,-1.95 1.8,-1.95 2.4,-5.625 -2.325,-1.575 -3.6,-4.125 -1.2,-2.55 -1.2,-5.4 0,-1.2 0.225,-2.4 l -0.375,0 q -3,0 -5.025,2.925 -1.95,2.85 -1.95,8.1 0,4.125 1.575,6.3 1.65,2.175 3.825,2.175 z"
         style="font-style:normal;font-variant:normal;font-weight:normal;font-stretch:normal;font-size:75px;font-family:Pacifico;-inkscape-font-specification:Pacifico;letter-spacing:1px;fill:none;fill-opacity:1;stroke:#ffffff;stroke-width:13;stroke-miterlimit:4;stroke-dasharray:none;stroke-opacity:1"
         id="path4410"
         inkscape:connector-curvature="0" />
      <path
         d="m 289.52656,158.43616 q -2.85,0 -4.05,-3 -1.125,-3 -1.125,-9.6 0,-9.75 2.775,-18.525 0.675,-2.175 2.175,-3.15 1.575,-1.05 4.35,-1.05 1.5,0 2.1,0.375 0.6,0.375 0.6,1.425 0,1.2 -1.125,5.4 -0.75,3 -1.2,5.25 -0.45,2.25 -0.75,5.55 2.475,-6.45 5.55,-10.5 3.075,-4.05 6,-5.775 3,-1.725 5.475,-1.725 4.875,0 4.875,4.875 0,2.925 -1.65,10.575 -1.425,6.525 -1.425,8.625 0,3 2.175,3 1.5,0 3.525,-1.8 2.1,-1.875 5.55,-6 0.9,-1.05 2.025,-1.05 0.975,0 1.5,0.9 0.6,0.9 0.6,2.475 0,3 -1.425,4.65 -3.225,3.975 -6.975,6.525 -3.675,2.55 -8.4,2.55 -3.825,0 -5.775,-2.175 -1.95,-2.25 -1.95,-6.45 0,-2.1 1.05,-7.5 0.975,-4.725 0.975,-6.525 0,-1.2 -0.825,-1.2 -0.975,0 -2.775,2.55 -1.725,2.475 -3.6,6.6 -1.8,4.125 -2.925,8.7 -0.825,3.525 -1.95,4.8 -1.05,1.2 -3.375,1.2 z"
         style="font-style:normal;font-variant:normal;font-weight:normal;font-stretch:normal;font-size:75px;font-family:Pacifico;-inkscape-font-specification:Pacifico;letter-spacing:1px;fill:none;fill-opacity:1;stroke:#ffffff;stroke-width:13;stroke-miterlimit:4;stroke-dasharray:none;stroke-opacity:1"
         id="path4412"
         inkscape:connector-curvature="0" />
      <path
         d="m 330.05859,158.43616 q -3.375,0 -5.55,-3.075 -2.1,-3.15 -2.1,-7.8 0,-5.625 0.75,-10.275 0.75,-4.725 2.475,-9.975 0.75,-2.25 2.1,-3.225 1.35,-0.975 4.275,-0.975 1.65,0 2.25,0.525 0.675,0.525 0.675,1.575 0,0.6 -0.825,4.05 -0.75,2.775 -1.2,5.025 -1.5,7.875 -1.5,10.5 0,1.575 0.375,2.25 0.375,0.6 1.2,0.6 1.125,0 2.775,-2.25 1.725,-2.25 3.6,-6.825 1.95,-4.575 3.75,-11.25 0.6,-2.25 1.8,-3.225 1.275,-0.975 3.75,-0.975 1.725,0 2.4,0.45 0.675,0.375 0.675,1.5 0,1.875 -1.875,10.275 -2.1,9.6 -2.1,11.85 0,1.425 0.6,2.25 0.6,0.75 1.575,0.75 1.5,0 3.525,-1.8 2.1,-1.875 5.55,-6 0.9,-1.05 2.025,-1.05 0.975,0 1.5,0.9 0.6,0.9 0.6,2.475 0,3 -1.425,4.65 -3.225,3.975 -6.975,6.525 -3.675,2.55 -8.4,2.55 -3.6,0 -5.325,-2.775 -1.65,-2.775 -1.65,-7.8 -1.275,5.1 -3.825,7.875 -2.55,2.7 -5.475,2.7 z"
         style="font-style:normal;font-variant:normal;font-weight:normal;font-stretch:normal;font-size:75px;font-family:Pacifico;-inkscape-font-specification:Pacifico;letter-spacing:1px;fill:none;fill-opacity:1;stroke:#ffffff;stroke-width:13;stroke-miterlimit:4;stroke-dasharray:none;stroke-opacity:1"
         id="path4414"
         inkscape:connector-curvature="0" />
      <path
         d="m 391.57539,141.33616 q 0.975,0 1.5,0.9 0.6,0.9 0.6,2.475 0,3 -1.425,4.65 -3.225,3.975 -7.05,6.525 -3.825,2.55 -8.775,2.55 -15.3,0 -15.3,-21.525 0,-3.3 0.225,-6.675 l -2.925,0 q -2.25,0 -3.075,-0.825 -0.75,-0.825 -0.75,-2.625 0,-4.2 3.375,-4.2 l 4.275,0 q 1.275,-8.25 3.9,-15.075 2.625,-6.825 6.3,-10.875004 3.75,-4.05 8.025,-4.05 3.15,0 4.95,2.775 1.8,2.775 1.8,6.975004 0,11.625 -9.75,20.25 l 8.4,0 q 1.2,0 1.725,0.525 0.525,0.525 0.525,1.95 0,5.175 -8.475,5.175 l -9.15,0 q -0.15,3.75 -0.15,5.85 0,7.8 1.8,10.95 1.875,3.15 5.85,3.15 3.225,0 5.7,-1.95 2.475,-1.95 5.85,-5.85 0.9,-1.05 2.025,-1.05 z m -13.125,-41.550004 q -1.125,0 -2.55,2.850004 -1.35,2.775 -2.625,7.8 -1.2,4.95 -2.025,11.025 4.425,-3.825 6.6,-8.55 2.25,-4.8 2.25,-8.7 0,-4.425004 -1.65,-4.425004 z"
         style="font-style:normal;font-variant:normal;font-weight:normal;font-stretch:normal;font-size:75px;font-family:Pacifico;-inkscape-font-specification:Pacifico;letter-spacing:1px;fill:none;fill-opacity:1;stroke:#ffffff;stroke-width:13;stroke-miterlimit:4;stroke-dasharray:none;stroke-opacity:1"
         id="path4416"
         inkscape:connector-curvature="0" />
      <path
         d="m 402.51875,160.08616 q -3.9,0 -6,-1.8 -2.025,-1.8 -2.025,-4.05 0,-1.95 1.425,-3.375 1.425,-1.425 4.2,-1.425 0.975,0 2.25,0.225 1.35,0.15 2.025,0.225 -0.075,-1.95 -0.9,-3.675 -0.75,-1.725 -1.95,-3.3 -1.2,-1.65 -2.25,-2.85 -2.325,4.425 -4.65,7.35 -2.25,2.925 -4.95,5.55 -1.35,1.35 -2.85,1.35 -1.2,0 -1.95,-0.825 -0.75,-0.9 -0.75,-2.175 0,-1.5 1.05,-2.775 l 0.975,-1.2 q 4.125,-5.1 6.225,-8.4 1.35,-2.175 2.7,-5.175 1.425,-3 3.675,-8.175 1.425,-3.3 5.925,-3.3 2.1,0 2.925,0.375 0.825,0.375 0.825,1.2 0,0.45 -0.3,1.425 -0.3,0.975 -0.825,1.95 -1.35,2.7 -1.35,4.575 0,1.125 0.75,2.475 0.825,1.35 2.475,3.375 2.4,3.15 3.6,5.4 1.275,2.175 1.275,4.8 0,3.15 -1.5,6 -1.425,2.775 -4.05,4.5 -2.625,1.725 -6,1.725 z"
         style="font-style:normal;font-variant:normal;font-weight:normal;font-stretch:normal;font-size:75px;font-family:Pacifico;-inkscape-font-specification:Pacifico;letter-spacing:1px;fill:none;fill-opacity:1;stroke:#ffffff;stroke-width:13;stroke-miterlimit:4;stroke-dasharray:none;stroke-opacity:1"
         id="path4418"
         inkscape:connector-curvature="0" />
    </g>
  </g>
  <g
     inkscape:groupmode="layer"
     id="layer5"
     inkscape:label="text"
     style="display:inline"
     transform="translate(6.4833808,0.9110001)">
    <g
       transform="translate(20.9423,-85.586158)"
       style="font-style:normal;font-weight:normal;font-size:98.80249023px;line-height:125%;font-family:sans-serif;letter-spacing:4.94012451px;word-spacing:0px;display:inline;fill:#653400;fill-opacity:1;stroke:none;stroke-width:1;stroke-linecap:butt;stroke-linejoin:miter;stroke-miterlimit:4;stroke-dasharray:none;stroke-opacity:1"
       id="flowRoot4266-2">
      <path
         d="m 122.43281,125.66116 q 1.725,0 2.475,0.75 0.825,0.75 0.825,1.95 0,1.95 -1.2,3.45 -1.125,1.5 -3.6,1.575 -6,0.15 -10.65,-0.9 -5.325,11.175 -12.899998,18.6 -7.5,7.35 -15.075,7.35 -7.8,0 -11.625,-9.075 -3.825,-9.075 -3.825,-24.525 0,-13.2 1.875,-23.7 0.675001,-3.900004 1.875,-5.250004 1.275,-1.425 4.275,-1.425 4.950001,0 4.950001,4.275 0,0.45 -0.150001,1.650004 -2.25,13.5 -2.25,24.45 0,11.475 1.875,17.475 1.95,5.925 5.775001,5.925 3.899999,0 8.475,-5.4 4.574999,-5.4 8.399997,-13.575 -4.574998,-2.85 -6.899998,-7.35 -2.325,-4.575 -2.325,-10.5 0,-5.925 1.800001,-9.975 1.875,-4.125004 5.025,-6.150004 3.224997,-2.025 7.124997,-2.025 4.8,0 7.575,3.45 2.85,3.450004 2.85,9.450004 0,8.625 -3.75,18.825 3.975,0.675 9.075,0.675 z m -22.125,-14.775 q 0,7.35 4.725,10.875 2.925,-8.4 2.925,-13.875 0,-3.15 -0.825,-4.575 -0.825,-1.5 -2.25,-1.5 -2.025,0 -3.3,2.4 -1.275,2.325 -1.275,6.675 z"
         style="fill:#d2165e;fill-opacity:1;stroke:none"
         id="path5505"
         inkscape:connector-curvature="0" />
      <path
         d="m 127.1582,158.43616 q -3.375,0 -5.55,-3.075 -2.1,-3.15 -2.1,-7.8 0,-5.625 0.75,-10.275 0.75,-4.725 2.475,-9.975 0.75,-2.25 2.1,-3.225 1.35,-0.975 4.275,-0.975 1.65,0 2.25,0.525 0.675,0.525 0.675,1.575 0,0.6 -0.825,4.05 -0.75,2.775 -1.2,5.025 -1.5,7.875 -1.5,10.5 0,1.575 0.375,2.25 0.375,0.6 1.2,0.6 1.125,0 2.775,-2.25 1.725,-2.25 3.6,-6.825 1.95,-4.575 3.75,-11.25 0.6,-2.25 1.8,-3.225 1.275,-0.975 3.75,-0.975 1.725,0 2.4,0.45 0.675,0.375 0.675,1.5 0,1.875 -1.875,10.275 -2.1,9.6 -2.1,11.85 0,1.425 0.6,2.25 0.6,0.75 1.575,0.75 1.5,0 3.525,-1.8 2.1,-1.875 5.55,-6 0.9,-1.05 2.025,-1.05 0.975,0 1.5,0.9 0.6,0.9 0.6,2.475 0,3 -1.425,4.65 -3.225,3.975 -6.975,6.525 -3.675,2.55 -8.4,2.55 -3.6,0 -5.325,-2.775 -1.65,-2.775 -1.65,-7.8 -1.275,5.1 -3.825,7.875 -2.55,2.7 -5.475,2.7 z"
         style="fill:#d2165e;fill-opacity:1;stroke:none"
         id="path5507"
         inkscape:connector-curvature="0" />
      <path
         d="m 182.075,143.58616 q 0.975,0 1.5,0.9 0.6,0.9 0.6,2.475 0,2.7 -1.275,4.65 -2.1,3.225 -5.55,5.025 -3.375,1.8 -8.1,1.8 -7.2,0 -11.175,-4.275 -3.975,-4.35 -3.975,-11.7 0,-5.175 2.175,-9.6 2.175,-4.5 6,-7.125 3.9,-2.625 8.775,-2.625 4.35,0 6.975,2.625 2.625,2.55 2.625,6.975 0,5.175 -3.75,8.925 -3.675,3.675 -12.6,5.85 1.8,3.45 6.075,3.45 3.075,0 5.025,-1.425 2.025,-1.425 4.65,-4.8 0.9,-1.125 2.025,-1.125 z m -12.3,-13.125 q -2.775,0 -4.725,3.225 -1.875,3.225 -1.875,7.8 l 0,0.15 q 4.425,-1.05 6.975,-3.15 2.55,-2.1 2.55,-4.875 0,-1.425 -0.825,-2.25 -0.75,-0.9 -2.1,-0.9 z"
         style="fill:#d2165e;fill-opacity:1;stroke:none"
         id="path5509"
         inkscape:connector-curvature="0" />
      <path
         d="m 206.48672,158.43616 q -4.35,0 -9.825,-0.75 -3,-0.375 -4.125,-1.575 -1.125,-1.2 -0.975,-3.9 0.525,-7.425 2.475,-18.3 1.95,-10.95 4.725,-21.075 0.525,-1.875 2.1,-2.625 1.575,-0.75 4.125,-0.75 4.575,0 4.575,2.55 0,1.05 -0.45,2.4 -1.95,6 -3.9,16.125 -1.95,10.05 -2.775,19.2 2.25,0.225 5.1,0.225 13.125,0 19.575,-7.95 6.525,-7.95 6.525,-21.225 0,-8.925 -5.1,-13.8 -5.1,-4.875 -14.4,-4.875 -6,0 -11.925,1.875 -5.85,1.875 -10.575,4.95 -0.975,0.675 -2.1,0.675 -1.275,0 -2.025,-1.05 -0.75,-1.125 -0.75,-2.7 0,-1.8 0.6,-2.925 0.6,-1.2 2.025,-2.175 5.175,-3.525004 12.15,-5.325004 6.975,-1.875 13.425,-1.875 9.15,0 15.825,3.225 6.675,3.15 10.275,9.300004 3.6,6.15 3.6,14.85 0,11.325 -4.5,19.8 -4.5,8.4 -13.125,13.05 -8.625,4.65 -20.55,4.65 z"
         style="font-style:normal;font-variant:normal;font-weight:normal;font-stretch:normal;font-size:75px;font-family:Pacifico;-inkscape-font-specification:Pacifico;letter-spacing:1px;fill:#653400;fill-opacity:1;stroke:none;stroke-width:1;stroke-miterlimit:4;stroke-dasharray:none;stroke-opacity:1"
         id="path5511"
         inkscape:connector-curvature="0" />
      <path
         d="m 288.93203,135.03616 q 0.975,0 1.5,0.975 0.525,0.975 0.525,2.475 0,3.6 -2.175,4.275 -4.5,1.575 -9.9,1.8 -1.425,6.3 -5.625,10.125 -4.2,3.75 -9.525,3.75 -4.5,0 -7.725,-2.175 -3.15,-2.175 -4.8,-5.775 -1.65,-3.6 -1.65,-7.8 0,-5.7 2.175,-10.125 2.175,-4.5 6,-6.975 3.825,-2.55 8.475,-2.55 5.7,0 9.15,3.975 3.525,3.9 4.125,9.675 3.525,-0.225 8.4,-1.5 0.6,-0.15 1.05,-0.15 z m -24.6,15.45 q 2.4,0 4.125,-1.95 1.8,-1.95 2.4,-5.625 -2.325,-1.575 -3.6,-4.125 -1.2,-2.55 -1.2,-5.4 0,-1.2 0.225,-2.4 l -0.375,0 q -3,0 -5.025,2.925 -1.95,2.85 -1.95,8.1 0,4.125 1.575,6.3 1.65,2.175 3.825,2.175 z"
         style="font-style:normal;font-variant:normal;font-weight:normal;font-stretch:normal;font-size:75px;font-family:Pacifico;-inkscape-font-specification:Pacifico;letter-spacing:1px;fill:#653400;fill-opacity:1;stroke:none;stroke-width:1;stroke-miterlimit:4;stroke-dasharray:none;stroke-opacity:1"
         id="path5513"
         inkscape:connector-curvature="0" />
      <path
         d="m 290.84492,158.43616 q -2.85,0 -4.05,-3 -1.125,-3 -1.125,-9.6 0,-9.75 2.775,-18.525 0.675,-2.175 2.175,-3.15 1.575,-1.05 4.35,-1.05 1.5,0 2.1,0.375 0.6,0.375 0.6,1.425 0,1.2 -1.125,5.4 -0.75,3 -1.2,5.25 -0.45,2.25 -0.75,5.55 2.475,-6.45 5.55,-10.5 3.075,-4.05 6,-5.775 3,-1.725 5.475,-1.725 4.875,0 4.875,4.875 0,2.925 -1.65,10.575 -1.425,6.525 -1.425,8.625 0,3 2.175,3 1.5,0 3.525,-1.8 2.1,-1.875 5.55,-6 0.9,-1.05 2.025,-1.05 0.975,0 1.5,0.9 0.6,0.9 0.6,2.475 0,3 -1.425,4.65 -3.225,3.975 -6.975,6.525 -3.675,2.55 -8.4,2.55 -3.825,0 -5.775,-2.175 -1.95,-2.25 -1.95,-6.45 0,-2.1 1.05,-7.5 0.975,-4.725 0.975,-6.525 0,-1.2 -0.825,-1.2 -0.975,0 -2.775,2.55 -1.725,2.475 -3.6,6.6 -1.8,4.125 -2.925,8.7 -0.825,3.525 -1.95,4.8 -1.05,1.2 -3.375,1.2 z"
         style="font-style:normal;font-variant:normal;font-weight:normal;font-stretch:normal;font-size:75px;font-family:Pacifico;-inkscape-font-specification:Pacifico;letter-spacing:1px;fill:#653400;fill-opacity:1;stroke:none;stroke-width:1;stroke-miterlimit:4;stroke-dasharray:none;stroke-opacity:1"
         id="path5515"
         inkscape:connector-curvature="0" />
      <path
         d="m 331.37695,158.43616 q -3.375,0 -5.55,-3.075 -2.1,-3.15 -2.1,-7.8 0,-5.625 0.75,-10.275 0.75,-4.725 2.475,-9.975 0.75,-2.25 2.1,-3.225 1.35,-0.975 4.275,-0.975 1.65,0 2.25,0.525 0.675,0.525 0.675,1.575 0,0.6 -0.825,4.05 -0.75,2.775 -1.2,5.025 -1.5,7.875 -1.5,10.5 0,1.575 0.375,2.25 0.375,0.6 1.2,0.6 1.125,0 2.775,-2.25 1.725,-2.25 3.6,-6.825 1.95,-4.575 3.75,-11.25 0.6,-2.25 1.8,-3.225 1.275,-0.975 3.75,-0.975 1.725,0 2.4,0.45 0.675,0.375 0.675,1.5 0,1.875 -1.875,10.275 -2.1,9.6 -2.1,11.85 0,1.425 0.6,2.25 0.6,0.75 1.575,0.75 1.5,0 3.525,-1.8 2.1,-1.875 5.55,-6 0.9,-1.05 2.025,-1.05 0.975,0 1.5,0.9 0.6,0.9 0.6,2.475 0,3 -1.425,4.65 -3.225,3.975 -6.975,6.525 -3.675,2.55 -8.4,2.55 -3.6,0 -5.325,-2.775 -1.65,-2.775 -1.65,-7.8 -1.275,5.1 -3.825,7.875 -2.55,2.7 -5.475,2.7 z"
         style="font-style:normal;font-variant:normal;font-weight:normal;font-stretch:normal;font-size:75px;font-family:Pacifico;-inkscape-font-specification:Pacifico;letter-spacing:1px;fill:#653400;fill-opacity:1;stroke:none;stroke-width:1;stroke-miterlimit:4;stroke-dasharray:none;stroke-opacity:1"
         id="path5517"
         inkscape:connector-curvature="0" />
      <path
         d="m 392.89375,141.33616 q 0.975,0 1.5,0.9 0.6,0.9 0.6,2.475 0,3 -1.425,4.65 -3.225,3.975 -7.05,6.525 -3.825,2.55 -8.775,2.55 -15.3,0 -15.3,-21.525 0,-3.3 0.225,-6.675 l -2.925,0 q -2.25,0 -3.075,-0.825 -0.75,-0.825 -0.75,-2.625 0,-4.2 3.375,-4.2 l 4.275,0 q 1.275,-8.25 3.9,-15.075 2.625,-6.825 6.3,-10.875004 3.75,-4.05 8.025,-4.05 3.15,0 4.95,2.775 1.8,2.775 1.8,6.975004 0,11.625 -9.75,20.25 l 8.4,0 q 1.2,0 1.725,0.525 0.525,0.525 0.525,1.95 0,5.175 -8.475,5.175 l -9.15,0 q -0.15,3.75 -0.15,5.85 0,7.8 1.8,10.95 1.875,3.15 5.85,3.15 3.225,0 5.7,-1.95 2.475,-1.95 5.85,-5.85 0.9,-1.05 2.025,-1.05 z m -13.125,-41.550004 q -1.125,0 -2.55,2.850004 -1.35,2.775 -2.625,7.8 -1.2,4.95 -2.025,11.025 4.425,-3.825 6.6,-8.55 2.25,-4.8 2.25,-8.7 0,-4.425004 -1.65,-4.425004 z"
         style="font-style:normal;font-variant:normal;font-weight:normal;font-stretch:normal;font-size:75px;font-family:Pacifico;-inkscape-font-specification:Pacifico;letter-spacing:1px;fill:#653400;fill-opacity:1;stroke:none;stroke-width:1;stroke-miterlimit:4;stroke-dasharray:none;stroke-opacity:1"
         id="path5519"
         inkscape:connector-curvature="0" />
      <path
         d="m 403.83711,160.08616 q -3.9,0 -6,-1.8 -2.025,-1.8 -2.025,-4.05 0,-1.95 1.425,-3.375 1.425,-1.425 4.2,-1.425 0.975,0 2.25,0.225 1.35,0.15 2.025,0.225 -0.075,-1.95 -0.9,-3.675 -0.75,-1.725 -1.95,-3.3 -1.2,-1.65 -2.25,-2.85 -2.325,4.425 -4.65,7.35 -2.25,2.925 -4.95,5.55 -1.35,1.35 -2.85,1.35 -1.2,0 -1.95,-0.825 -0.75,-0.9 -0.75,-2.175 0,-1.5 1.05,-2.775 l 0.975,-1.2 q 4.125,-5.1 6.225,-8.4 1.35,-2.175 2.7,-5.175 1.425,-3 3.675,-8.175 1.425,-3.3 5.925,-3.3 2.1,0 2.925,0.375 0.825,0.375 0.825,1.2 0,0.45 -0.3,1.425 -0.3,0.975 -0.825,1.95 -1.35,2.7 -1.35,4.575 0,1.125 0.75,2.475 0.825,1.35 2.475,3.375 2.4,3.15 3.6,5.4 1.275,2.175 1.275,4.8 0,3.15 -1.5,6 -1.425,2.775 -4.05,4.5 -2.625,1.725 -6,1.725 z"
         style="font-style:normal;font-variant:normal;font-weight:normal;font-stretch:normal;font-size:75px;font-family:Pacifico;-inkscape-font-specification:Pacifico;letter-spacing:1px;fill:#653400;fill-opacity:1;stroke:none;stroke-width:1;stroke-miterlimit:4;stroke-dasharray:none;stroke-opacity:1"
         id="path5521"
         inkscape:connector-curvature="0" />
    </g>
  </g>
  <g
     inkscape:groupmode="layer"
     id="layer4"
     inkscape:label="tagline"
     transform="translate(-55.088741,-27.387154)"
     style="display:inline">
    <g
       transform="translate(-94.038696,-12.696494)"
       style="font-style:normal;font-weight:normal;font-size:40px;line-height:125%;font-family:sans-serif;letter-spacing:2px;word-spacing:0px;fill:#653400;fill-opacity:1;stroke:none;stroke-width:1px;stroke-linecap:butt;stroke-linejoin:miter;stroke-opacity:1"
       id="flowRoot4434">
      <path
         d="m 196.63633,143.89254 -2.565,-13.9725 -5.715,0 -2.565,13.9725 3.5775,0 0.4275,-2.205 2.655,0 0.4275,2.205 3.7575,0 z m -4.6125,-4.8375 -1.7325,0 0.7875,-4.995 0.1575,0 0.7875,4.995 z"
         style="font-style:normal;font-variant:normal;font-weight:normal;font-stretch:normal;font-size:22.5px;font-family:'Passion One';-inkscape-font-specification:'Passion One';fill:#653400;fill-opacity:1"
         id="path4453"
         inkscape:connector-curvature="0" />
      <path
         d="m 216.94848,136.60254 c 0,-4.0275 -1.3275,-6.6825 -5.67,-6.6825 l -4.725,0 0,13.9725 4.635,0 c 4.455,0 5.76,-3.195 5.76,-7.29 z m -3.9375,0.3825 c 0,2.34 -0.18,3.6675 -1.89,3.6675 l -0.7425,0 0,-7.335 0.675,0 c 1.71,0 1.9575,1.2375 1.9575,3.6675 z"
         style="font-style:normal;font-variant:normal;font-weight:normal;font-stretch:normal;font-size:22.5px;font-family:'Passion One';-inkscape-font-specification:'Passion One';fill:#653400;fill-opacity:1"
         id="path4455"
         inkscape:connector-curvature="0" />
      <path
         d="m 224.55977,136.06254 c 0.765,0 1.0125,0.3825 1.0125,1.0575 l 0,0.54 -1.9575,0 c 0,-0.9225 0.1125,-1.5975 0.945,-1.5975 z m 0.09,-3.2175 c -3.285,0 -4.77,1.98 -4.77,5.625 0,3.3975 1.6425,5.6475 4.7925,5.6475 1.4175,0 2.5425,-0.2025 3.78,-0.585 l -0.315,-2.79 c -1.125,0.27 -1.98,0.5175 -2.9025,0.5175 -1.0125,0 -1.5525,-0.5175 -1.5525,-1.6875 l 5.13,0 c 0.0675,-0.9225 0.1575,-1.8225 0.1575,-2.43 0,-2.5875 -1.0575,-4.2975 -4.32,-4.2975 z"
         style="font-style:normal;font-variant:normal;font-weight:normal;font-stretch:normal;font-size:22.5px;font-family:'Passion One';-inkscape-font-specification:'Passion One';fill:#653400;fill-opacity:1"
         id="path4457"
         inkscape:connector-curvature="0" />
      <path
         d="m 231.99141,141.41754 c 0,2.0025 1.035,2.7 2.9475,2.7 l 1.2375,0 0.2925,-3.195 c -0.5625,0 -0.765,-0.2025 -0.765,-0.6975 l 0,-10.755 -3.7125,0 0,11.9475 z"
         style="font-style:normal;font-variant:normal;font-weight:normal;font-stretch:normal;font-size:22.5px;font-family:'Passion One';-inkscape-font-specification:'Passion One';fill:#653400;fill-opacity:1"
         id="path4459"
         inkscape:connector-curvature="0" />
      <path
         d="m 243.0234,143.89254 0,-10.665 -3.7125,0 0,10.665 3.7125,0 z m -3.8925,-12.825 c 0,1.17 0.5625,1.71 2.0475,1.71 1.44,0 2.0025,-0.5625 2.0025,-1.71 0,-1.1925 -0.5625,-1.755 -2.0025,-1.755 -1.485,0 -2.0475,0.5625 -2.0475,1.755 z"
         style="font-style:normal;font-variant:normal;font-weight:normal;font-stretch:normal;font-size:22.5px;font-family:'Passion One';-inkscape-font-specification:'Passion One';fill:#653400;fill-opacity:1"
         id="path4461"
         inkscape:connector-curvature="0" />
      <path
         d="m 250.05039,138.53754 c 0,-1.5075 0.2025,-2.4075 1.0575,-2.4075 0.585,0 1.395,0.2925 2.025,0.5625 l 0.405,-3.3075 c -0.855,-0.36 -1.62,-0.54 -2.88,-0.54 -2.97,0 -4.3875,2.4975 -4.3875,5.85 0,3.285 1.395,5.4225 4.32,5.4225 1.0575,0 1.8225,-0.2025 2.7675,-0.5175 l -0.405,-2.88 c -0.6975,0.1575 -1.2825,0.2475 -1.845,0.2475 -0.8775,0 -1.0575,-0.81 -1.0575,-2.43 z"
         style="font-style:normal;font-variant:normal;font-weight:normal;font-stretch:normal;font-size:22.5px;font-family:'Passion One';-inkscape-font-specification:'Passion One';fill:#653400;fill-opacity:1"
         id="path4463"
         inkscape:connector-curvature="0" />
      <path
         d="m 260.03121,143.89254 0,-10.665 -3.7125,0 0,10.665 3.7125,0 z m -3.8925,-12.825 c 0,1.17 0.5625,1.71 2.0475,1.71 1.44,0 2.0025,-0.5625 2.0025,-1.71 0,-1.1925 -0.5625,-1.755 -2.0025,-1.755 -1.485,0 -2.0475,0.5625 -2.0475,1.755 z"
         style="font-style:normal;font-variant:normal;font-weight:normal;font-stretch:normal;font-size:22.5px;font-family:'Passion One';-inkscape-font-specification:'Passion One';fill:#653400;fill-opacity:1"
         id="path4465"
         inkscape:connector-curvature="0" />
      <path
         d="m 267.9807,132.84504 c -3.2175,0 -4.7025,1.6425 -4.7025,5.625 0,3.9375 1.4175,5.6475 4.7025,5.6475 3.2625,0 4.6125,-1.665 4.6125,-5.805 0,-3.825 -1.4175,-5.4675 -4.6125,-5.4675 z m -0.0225,3.0375 c 0.81,0 0.8775,0.5175 0.8775,2.3625 l 0,0.6525 c 0,1.9125 -0.1125,2.4075 -0.8325,2.4075 -0.8775,0 -0.945,-0.5175 -0.945,-2.5425 l 0,-0.54 c 0,-1.8225 0.09,-2.34 0.9,-2.34 z"
         style="font-style:normal;font-variant:normal;font-weight:normal;font-stretch:normal;font-size:22.5px;font-family:'Passion One';-inkscape-font-specification:'Passion One';fill:#653400;fill-opacity:1"
         id="path4467"
         inkscape:connector-curvature="0" />
      <path
         d="m 278.46285,144.11754 c 1.3725,0 2.205,-0.54 2.8125,-1.0575 l 0.09,0 0,0.7875 3.5775,0 0,-10.7325 -3.78,0 0,7.3575 c -0.27,0.2025 -0.675,0.315 -1.0575,0.315 -0.3375,0 -0.495,-0.225 -0.495,-0.5625 l 0,-7.11 -3.825,0 0,8.0325 c 0,1.7325 0.7425,2.97 2.6775,2.97 z"
         style="font-style:normal;font-variant:normal;font-weight:normal;font-stretch:normal;font-size:22.5px;font-family:'Passion One';-inkscape-font-specification:'Passion One';fill:#653400;fill-opacity:1"
         id="path4469"
         inkscape:connector-curvature="0" />
      <path
         d="m 291.52828,132.84504 c -2.43,0 -3.825,1.2375 -3.825,3.51 0,2.25 1.4625,3.15 3.8475,4.0725 0.36,0.135 0.495,0.225 0.495,0.4725 0,0.2475 -0.2025,0.3375 -0.5175,0.3375 -0.675,0 -1.7325,-0.2475 -3.06,-0.6075 l -0.2475,3.0375 c 1.0575,0.27 2.1375,0.45 3.285,0.45 2.745,0 3.7125,-1.2375 3.7125,-3.51 0,-2.2725 -1.5975,-3.1275 -3.6225,-3.87 -0.2925,-0.1125 -0.5175,-0.225 -0.5175,-0.45 0,-0.2475 0.1575,-0.3825 0.4725,-0.3825 0.6075,0 1.98,0.27 3.0825,0.5175 l 0.3825,-3.1275 c -1.08,-0.27 -2.25,-0.45 -3.4875,-0.45 z"
         style="font-style:normal;font-variant:normal;font-weight:normal;font-stretch:normal;font-size:22.5px;font-family:'Passion One';-inkscape-font-specification:'Passion One';fill:#653400;fill-opacity:1"
         id="path4471"
         inkscape:connector-curvature="0" />
      <path
         d="m 309.8548,139.32504 c 2.97,0 4.5,-1.215 4.5,-4.68 0,-3.42 -1.5975,-4.725 -4.7475,-4.725 l -4.5675,0 0,13.9725 3.78,0 0,-4.5675 1.035,0 z m 0.63,-4.41 c 0,1.26 -0.18,1.755 -1.035,1.755 l -0.63,0 0,-3.555 0.54,0 c 0.9225,0 1.125,0.54 1.125,1.8 z"
         style="font-style:normal;font-variant:normal;font-weight:normal;font-stretch:normal;font-size:22.5px;font-family:'Passion One';-inkscape-font-specification:'Passion One';fill:#653400;fill-opacity:1"
         id="path4473"
         inkscape:connector-curvature="0" />
      <path
         d="m 331.38129,129.92004 -3.555,0 -0.405,7.4025 -0.225,0 -1.035,-7.4025 -3.7575,0 -0.945,7.4025 -0.225,0 -0.585,-7.4025 -3.69,0 1.4625,13.9725 4.6575,0 1.0125,-6.1875 0.18,0 1.215,6.1875 4.635,0 1.26,-13.9725 z"
         style="font-style:normal;font-variant:normal;font-weight:normal;font-stretch:normal;font-size:22.5px;font-family:'Passion One';-inkscape-font-specification:'Passion One';fill:#653400;fill-opacity:1"
         id="path4475"
         inkscape:connector-curvature="0" />
      <path
         d="m 344.8707,143.89254 -2.565,-13.9725 -5.715,0 -2.565,13.9725 3.5775,0 0.4275,-2.205 2.655,0 0.4275,2.205 3.7575,0 z m -4.6125,-4.8375 -1.7325,0 0.7875,-4.995 0.1575,0 0.7875,4.995 z"
         style="font-style:normal;font-variant:normal;font-weight:normal;font-stretch:normal;font-size:22.5px;font-family:'Passion One';-inkscape-font-specification:'Passion One';fill:#653400;fill-opacity:1"
         id="path4477"
         inkscape:connector-curvature="0" />
      <path
         d="m 362.34785,143.89254 0.225,-3.15 -3.9375,0 0,-2.3175 3.2175,0 0,-2.97 -3.2175,0 0,-2.0925 3.7125,0 0.225,-3.4425 -7.785,0 0,13.9725 7.56,0 z"
         style="font-style:normal;font-variant:normal;font-weight:normal;font-stretch:normal;font-size:22.5px;font-family:'Passion One';-inkscape-font-specification:'Passion One';fill:#653400;fill-opacity:1"
         id="path4479"
         inkscape:connector-curvature="0" />
      <path
         d="m 374.50203,143.89254 -1.845,-5.31 1.8,-5.4675 -3.8475,0 -0.6975,3.4425 -0.135,0 -0.6525,-3.4425 -4.095,0 1.8225,5.535 -1.8225,5.2425 3.87,0 0.72,-3.1725 0.135,0 0.765,3.1725 3.9825,0 z"
         style="font-style:normal;font-variant:normal;font-weight:normal;font-stretch:normal;font-size:22.5px;font-family:'Passion One';-inkscape-font-specification:'Passion One';fill:#653400;fill-opacity:1"
         id="path4481"
         inkscape:connector-curvature="0" />
      <path
         d="m 376.96539,140.92254 c 0,1.9575 0.945,3.195 2.745,3.195 1.395,0 2.0475,-0.4275 2.565,-1.1475 l 0.1125,0 c 0.3375,0.8775 1.125,1.1475 2.115,1.1475 0.5625,0 0.7875,-0.045 1.44,-0.09 l 0.3375,-2.7225 c -0.675,0 -0.945,-0.135 -0.945,-0.72 0,-1.5525 0.1125,-3.2625 0.1125,-4.6575 0,-2.0925 -0.9225,-3.0825 -3.285,-3.0825 -1.62,0 -3.375,0.3375 -4.95,0.7425 l 0.5625,3.285 c 1.26,-0.36 2.61,-0.6525 3.375,-0.6525 0.45,0 0.63,0.27 0.63,0.63 l 0,0.54 c -2.9925,0.27 -4.815,0.8775 -4.815,3.5325 z m 4.14,0.5625 c -0.4725,0 -0.6975,-0.2925 -0.6975,-0.8325 0,-0.7875 0.495,-1.0125 1.53,-1.1475 l 0,1.1025 c 0,0.6075 -0.27,0.8775 -0.8325,0.8775 z"
         style="font-style:normal;font-variant:normal;font-weight:normal;font-stretch:normal;font-size:22.5px;font-family:'Passion One';-inkscape-font-specification:'Passion One';fill:#653400;fill-opacity:1"
         id="path4483"
         inkscape:connector-curvature="0" />
      <path
         d="m 401.0727,132.84504 c -1.3725,0 -2.205,0.54 -2.8125,1.0575 l -0.225,0.2025 c -0.3375,-0.81 -1.0575,-1.26 -2.34,-1.26 -1.3725,0 -2.205,0.54 -2.8125,1.0575 l -0.09,0 -0.225,-0.7875 -3.4425,0 0,10.7775 3.78,0 0,-7.2675 c 0.27,-0.2025 0.675,-0.315 1.0575,-0.315 0.3375,0 0.495,0.225 0.495,0.5625 l 0,7.02 3.825,0 0,-7.2675 c 0.27,-0.2025 0.675,-0.315 1.0575,-0.315 0.3375,0 0.495,0.225 0.495,0.5625 l 0,7.02 3.825,0 0,-8.3025 c 0,-1.7325 -0.6525,-2.745 -2.5875,-2.745 z"
         style="font-style:normal;font-variant:normal;font-weight:normal;font-stretch:normal;font-size:22.5px;font-family:'Passion One';-inkscape-font-specification:'Passion One';fill:#653400;fill-opacity:1"
         id="path4485"
         inkscape:connector-curvature="0" />
      <path
         d="m 410.76945,143.64504 0.09,0 c 0.5175,0.3825 0.945,0.495 1.665,0.495 3.015,0 3.735,-2.16 3.735,-5.85 0,-3.6225 -0.7425,-5.4225 -3.51,-5.4225 -0.99,0 -1.845,0.225 -2.3175,0.9225 l -0.1125,0 -0.225,-0.675 -3.105,0 0,13.86 3.78,0 0,-3.33 z m 1.71,-5.085 c 0,1.7325 -0.0225,2.6325 -0.855,2.6325 -0.2925,0 -0.5625,-0.045 -0.9,-0.2025 l 0,-4.6575 c 0.27,-0.1575 0.54,-0.27 0.8775,-0.27 0.81,0 0.8775,0.945 0.8775,2.4975 z"
         style="font-style:normal;font-variant:normal;font-weight:normal;font-stretch:normal;font-size:22.5px;font-family:'Passion One';-inkscape-font-specification:'Passion One';fill:#653400;fill-opacity:1"
         id="path4487"
         inkscape:connector-curvature="0" />
      <path
         d="m 419.49238,141.41754 c 0,2.0025 1.035,2.7 2.9475,2.7 l 1.2375,0 0.2925,-3.195 c -0.5625,0 -0.765,-0.2025 -0.765,-0.6975 l 0,-10.755 -3.7125,0 0,11.9475 z"
         style="font-style:normal;font-variant:normal;font-weight:normal;font-stretch:normal;font-size:22.5px;font-family:'Passion One';-inkscape-font-specification:'Passion One';fill:#653400;fill-opacity:1"
         id="path4489"
         inkscape:connector-curvature="0" />
      <path
         d="m 431.22187,136.06254 c 0.765,0 1.0125,0.3825 1.0125,1.0575 l 0,0.54 -1.95749,0 c 0,-0.9225 0.11249,-1.5975 0.94499,-1.5975 z m 0.09,-3.2175 c -3.28499,0 -4.77,1.98 -4.77,5.625 0,3.3975 1.6425,5.6475 4.79251,5.6475 1.41749,0 2.54249,-0.2025 3.77999,-0.585 l -0.315,-2.79 c -1.125,0.27 -1.98,0.5175 -2.90249,0.5175 -1.01251,0 -1.5525,-0.5175 -1.5525,-1.6875 l 5.12999,0 c 0.0675,-0.9225 0.1575,-1.8225 0.1575,-2.43 0,-2.5875 -1.0575,-4.2975 -4.32,-4.2975 z"
         style="font-style:normal;font-variant:normal;font-weight:normal;font-stretch:normal;font-size:22.5px;font-family:'Passion One';-inkscape-font-specification:'Passion One';fill:#653400;fill-opacity:1"
         id="path4491"
         inkscape:connector-curvature="0" />
      <path
         d="m 445.03961,140.92254 c 0,1.9575 0.945,3.195 2.745,3.195 1.395,0 2.0475,-0.4275 2.565,-1.1475 l 0.1125,0 c 0.3375,0.8775 1.125,1.1475 2.115,1.1475 0.5625,0 0.7875,-0.045 1.44,-0.09 l 0.3375,-2.7225 c -0.675,0 -0.945,-0.135 -0.945,-0.72 0,-1.5525 0.1125,-3.2625 0.1125,-4.6575 0,-2.0925 -0.9225,-3.0825 -3.285,-3.0825 -1.62,0 -3.375,0.3375 -4.95,0.7425 l 0.5625,3.285 c 1.26,-0.36 2.61,-0.6525 3.375,-0.6525 0.45,0 0.63,0.27 0.63,0.63 l 0,0.54 c -2.9925,0.27 -4.815,0.8775 -4.815,3.5325 z m 4.14,0.5625 c -0.4725,0 -0.6975,-0.2925 -0.6975,-0.8325 0,-0.7875 0.495,-1.0125 1.53,-1.1475 l 0,1.1025 c 0,0.6075 -0.27,0.8775 -0.8325,0.8775 z"
         style="font-style:normal;font-variant:normal;font-weight:normal;font-stretch:normal;font-size:22.5px;font-family:'Passion One';-inkscape-font-specification:'Passion One';fill:#653400;fill-opacity:1"
         id="path4493"
         inkscape:connector-curvature="0" />
      <path
         d="m 463.76941,132.84504 c -1.3725,0 -2.205,0.54 -2.8125,1.0575 l -0.09,0 -0.225,-0.7875 -3.4425,0 0,10.7775 3.78,0 0,-7.2675 c 0.27,-0.2025 0.675,-0.315 1.0575,-0.315 0.3375,0 0.495,0.225 0.495,0.5625 l 0,7.02 3.825,0 0,-8.3025 c 0,-1.7325 -0.6525,-2.745 -2.5875,-2.745 z"
         style="font-style:normal;font-variant:normal;font-weight:normal;font-stretch:normal;font-size:22.5px;font-family:'Passion One';-inkscape-font-specification:'Passion One';fill:#653400;fill-opacity:1"
         id="path4495"
         inkscape:connector-curvature="0" />
      <path
         d="m 477.73484,144.11754 c 0.5625,0 1.1025,-0.0675 1.5075,-0.09 l 0.3375,-2.7225 c -0.63,0 -0.8325,-0.1575 -0.8325,-0.72 l 0,-11.115 -3.7575,0 0,3.9375 c -0.4725,-0.405 -1.035,-0.5625 -1.845,-0.5625 -2.3175,0 -3.5775,1.935 -3.5775,5.5575 0,3.6225 0.855,5.715 3.6675,5.715 1.08,0 1.8225,-0.45 2.2725,-1.1475 l 0.1125,0 c 0.315,0.9225 1.2375,1.1475 2.115,1.1475 z m -4.3875,-5.6025 c 0,-1.5525 0.0675,-2.4975 0.8775,-2.4975 0.3375,0 0.6075,0.1125 0.8775,0.27 l 0,4.6575 c -0.3375,0.1575 -0.6075,0.2025 -0.9,0.2025 -0.8325,0 -0.855,-0.9 -0.855,-2.6325 z"
         style="font-style:normal;font-variant:normal;font-weight:normal;font-stretch:normal;font-size:22.5px;font-family:'Passion One';-inkscape-font-specification:'Passion One';fill:#653400;fill-opacity:1"
         id="path4497"
         inkscape:connector-curvature="0" />
      <path
         d="m 497.60859,133.31754 0.225,-3.3975 -9.225,0 -0.225,3.3975 2.7675,0 0,10.575 3.8475,0 0,-10.575 2.61,0 z"
         style="font-style:normal;font-variant:normal;font-weight:normal;font-stretch:normal;font-size:22.5px;font-family:'Passion One';-inkscape-font-specification:'Passion One';fill:#653400;fill-opacity:1"
         id="path4499"
         inkscape:connector-curvature="0" />
      <path
         d="m 503.07711,144.11754 c 1.3725,0 2.205,-0.54 2.8125,-1.0575 l 0.09,0 0,0.7875 3.5775,0 0,-10.7325 -3.78,0 0,7.3575 c -0.27,0.2025 -0.675,0.315 -1.0575,0.315 -0.3375,0 -0.495,-0.225 -0.495,-0.5625 l 0,-7.11 -3.825,0 0,8.0325 c 0,1.7325 0.7425,2.97 2.6775,2.97 z"
         style="font-style:normal;font-variant:normal;font-weight:normal;font-stretch:normal;font-size:22.5px;font-family:'Passion One';-inkscape-font-specification:'Passion One';fill:#653400;fill-opacity:1"
         id="path4501"
         inkscape:connector-curvature="0" />
      <path
         d="m 516.32254,144.11754 c 0.945,0 1.7325,-0.09 2.655,-0.2025 l 0.1125,-2.9925 c -0.45,0.0225 -1.08,0.0675 -1.395,0.0675 -0.315,0 -0.45,-0.135 -0.45,-0.4725 l 0,-4.4775 1.8675,0 0.1575,-2.79 -2.0025,0 0,-2.07 -3.3975,0 -0.2025,2.07 -1.26,0 0,2.79 1.08,0 0,5.22 c 0,2.16 0.945,2.8575 2.835,2.8575 z"
         style="font-style:normal;font-variant:normal;font-weight:normal;font-stretch:normal;font-size:22.5px;font-family:'Passion One';-inkscape-font-specification:'Passion One';fill:#653400;fill-opacity:1"
         id="path4503"
         inkscape:connector-curvature="0" />
      <path
         d="m 526.54418,132.84504 c -3.2175,0 -4.7025,1.6425 -4.7025,5.625 0,3.9375 1.4175,5.6475 4.7025,5.6475 3.2625,0 4.6125,-1.665 4.6125,-5.805 0,-3.825 -1.4175,-5.4675 -4.6125,-5.4675 z m -0.0225,3.0375 c 0.81,0 0.8775,0.5175 0.8775,2.3625 l 0,0.6525 c 0,1.9125 -0.1125,2.4075 -0.8325,2.4075 -0.8775,0 -0.945,-0.5175 -0.945,-2.5425 l 0,-0.54 c 0,-1.8225 0.09,-2.34 0.9,-2.34 z"
         style="font-style:normal;font-variant:normal;font-weight:normal;font-stretch:normal;font-size:22.5px;font-family:'Passion One';-inkscape-font-specification:'Passion One';fill:#653400;fill-opacity:1"
         id="path4505"
         inkscape:connector-curvature="0" />
      <path
         d="m 538.08383,137.84004 c 0,-1.1475 0.27,-1.395 1.44,-1.395 l 1.035,0 0.1575,-3.6 c -1.5525,0 -2.07,0.135 -2.7675,0.9225 l -0.09,0 -0.225,-0.6525 -3.285,0 0,10.7775 3.735,0 0,-6.0525 z"
         style="font-style:normal;font-variant:normal;font-weight:normal;font-stretch:normal;font-size:22.5px;font-family:'Passion One';-inkscape-font-specification:'Passion One';fill:#653400;fill-opacity:1"
         id="path4507"
         inkscape:connector-curvature="0" />
      <path
         d="m 547.18258,143.89254 0,-10.665 -3.7125,0 0,10.665 3.7125,0 z m -3.8925,-12.825 c 0,1.17 0.5625,1.71 2.0475,1.71 1.44,0 2.0025,-0.5625 2.0025,-1.71 0,-1.1925 -0.5625,-1.755 -2.0025,-1.755 -1.485,0 -2.0475,0.5625 -2.0475,1.755 z"
         style="font-style:normal;font-variant:normal;font-weight:normal;font-stretch:normal;font-size:22.5px;font-family:'Passion One';-inkscape-font-specification:'Passion One';fill:#653400;fill-opacity:1"
         id="path4509"
         inkscape:connector-curvature="0" />
      <path
         d="m 550.24957,140.92254 c 0,1.9575 0.945,3.195 2.745,3.195 1.395,0 2.0475,-0.4275 2.565,-1.1475 l 0.1125,0 c 0.3375,0.8775 1.125,1.1475 2.115,1.1475 0.5625,0 0.7875,-0.045 1.44,-0.09 l 0.3375,-2.7225 c -0.675,0 -0.945,-0.135 -0.945,-0.72 0,-1.5525 0.1125,-3.2625 0.1125,-4.6575 0,-2.0925 -0.9225,-3.0825 -3.285,-3.0825 -1.62,0 -3.375,0.3375 -4.95,0.7425 l 0.5625,3.285 c 1.26,-0.36 2.61,-0.6525 3.375,-0.6525 0.45,0 0.63,0.27 0.63,0.63 l 0,0.54 c -2.9925,0.27 -4.815,0.8775 -4.815,3.5325 z m 4.14,0.5625 c -0.4725,0 -0.6975,-0.2925 -0.6975,-0.8325 0,-0.7875 0.495,-1.0125 1.53,-1.1475 l 0,1.1025 c 0,0.6075 -0.27,0.8775 -0.8325,0.8775 z"
         style="font-style:normal;font-variant:normal;font-weight:normal;font-stretch:normal;font-size:22.5px;font-family:'Passion One';-inkscape-font-specification:'Passion One';fill:#653400;fill-opacity:1"
         id="path4511"
         inkscape:connector-curvature="0" />
      <path
         d="m 562.40937,141.41754 c 0,2.0025 1.03501,2.7 2.9475,2.7 l 1.23751,0 0.2925,-3.195 c -0.5625,0 -0.765,-0.2025 -0.765,-0.6975 l 0,-10.755 -3.71251,0 0,11.9475 z"
         style="font-style:normal;font-variant:normal;font-weight:normal;font-stretch:normal;font-size:22.5px;font-family:'Passion One';-inkscape-font-specification:'Passion One';fill:#653400;fill-opacity:1"
         id="path4513"
         inkscape:connector-curvature="0" />
    </g>
  </g>
  <g
     inkscape:label="tagline text"
     id="g4442"
     inkscape:groupmode="layer"
     style="display:none"
     sodipodi:insensitive="true"
     transform="translate(-55.088741,-27.387154)">
    <flowRoot
       transform="translate(-90.643291,-12.696494)"
       style="font-style:normal;font-weight:normal;font-size:40px;line-height:125%;font-family:sans-serif;letter-spacing:2px;word-spacing:0px;fill:#653400;fill-opacity:1;stroke:none;stroke-width:1px;stroke-linecap:butt;stroke-linejoin:miter;stroke-opacity:1"
       id="flowRoot4444"
       xml:space="preserve"><flowRegion
         id="flowRegion4446"><rect
           style="fill:#653400;fill-opacity:1"
           y="122.56216"
           x="185.61064"
           height="61.668671"
           width="394.80048"
           id="rect4448" /></flowRegion><flowPara
         style="font-style:normal;font-variant:normal;font-weight:normal;font-stretch:normal;font-size:22.5px;font-family:'Passion One';-inkscape-font-specification:'Passion One';fill:#653400;fill-opacity:1"
         id="flowPara4450">A Delicious PWA Example and Tutorial</flowPara></flowRoot>  </g>
  <g
     inkscape:groupmode="layer"
     id="layer6"
     inkscape:label="donut stroke"
     style="display:inline"
     transform="translate(5.1254311,-5.6848259)">
    <ellipse
       style="display:inline;fill:none;fill-opacity:1;stroke:#ffffff;stroke-width:18;stroke-linecap:butt;stroke-linejoin:miter;stroke-miterlimit:4;stroke-dasharray:none;stroke-opacity:1"
       id="path4176"
       cx="36.03289"
       cy="47.970451"
       rx="31.658321"
       ry="32.785625" />
  </g>
  <g
     transform="translate(5.1254311,-5.6848259)"
     style="display:inline"
     inkscape:label="donut"
     id="g5025"
     inkscape:groupmode="layer">
    <g
       style="display:inline;fill:#653400;fill-opacity:1;stroke:none;stroke-width:3;stroke-miterlimit:4;stroke-dasharray:none;stroke-opacity:1"
       id="g5029"
       transform="matrix(0.74625229,0,0,0.78175973,-1.231764,-735.51725)">
      <path
         inkscape:connector-curvature="0"
         id="path5031"
         overflow="visible"
         display="inline"
         visibility="visible"
         d="m 50,957.36215 c 24.829,0 45,20.17101 45,45.00005 0,24.829 -20.171,45 -45,45 -24.829,0 -45.0000001,-20.171 -45.0000001,-45 C 4.9999999,977.53316 25.171,957.36215 50,957.36215 Z m 0,4 c -22.6672,0 -41.0000001,18.33279 -41.0000001,41.00005 0,7.4577 1.9983001,14.4479 5.4688001,20.4687 3.4443,-2.1447 7.6865,-3.4372 11.1562,-2.375 4.1494,1.3664 5.8833,4.5725 7.125,6.6875 0.6208,1.0575 1.1631,1.8403 1.75,2.3125 0.5813,0.4678 1.2114,0.7807 2.5938,0.7813 1.3357,0.1035 2.3415,-0.5287 3.0312,-1.25 0.7017,-0.7471 1.2901,-1.9467 1.9062,-3.3125 0.6164,-1.3658 1.2578,-2.8871 2.5,-4.2188 1.2423,-1.3316 3.2329,-2.2478 5.5938,-2.0937 2.9166,0.4511 5.0498,1.9477 6.25,3.75 1.1353,1.7702 1.4952,3.672 1.8125,5.2812 0.3173,1.6093 0.6117,2.9245 1.0937,3.6563 0.4703,0.7137 0.9979,1.1408 2.75,1.2812 1.4498,-0.065 1.9498,-0.4343 2.5,-1.2187 0.5669,-0.8079 1.0096,-2.2025 1.5,-3.8125 0.4905,-1.61 1.0142,-3.4643 2.3126,-5.0625 2.0061,-2.202 4.1793,-2.718 6.3124,-2.7813 3.9098,0.051 7.3635,2.1882 9,5.3125 C 88.2771,1019.1321 91,1011.0734 91,1002.3622 91,979.69494 72.6672,961.36215 50,961.36215 Z m 13.7188,7 c 0.5118,0 1.0156,0.172 1.4062,0.5625 0.781,0.7811 0.781,2.06275 0,2.84375 l -4.25,4.25 c -0.781,0.781 -2.0314,0.781 -2.8125,0 -0.7811,-0.7811 -0.7811,-2.06265 0,-2.84375 l 4.2187,-4.25 c 0.3907,-0.3905 0.9256,-0.5625 1.4376,-0.5625 z m -31.5938,4.25 c 0.6404,0.045 1.2485,0.4021 1.5938,1 l 3,5.1875 c 0.5522,0.9566 0.2378,2.1977 -0.7188,2.75 -0.9567,0.5523 -2.1663,0.2066 -2.7188,-0.75 l -3,-5.1875 c -0.5522,-0.9567 -0.2379,-2.1977 0.7188,-2.75 0.3587,-0.2071 0.7407,-0.2771 1.125,-0.25 z m 23.5312,7.03125 c 0.258,0.032 0.511,0.14325 0.75,0.28125 l 5.1876,3 c 0.9564,0.5523 1.3022,1.76215 0.75,2.71875 -0.5523,0.9566 -1.7936,1.27105 -2.75,0.71875 l -5.1876,-3 c -0.9564,-0.5523 -1.3022,-1.76215 -0.75,-2.71875 0.4143,-0.7175 1.2266,-1.096 2,-1 z m 21.2188,4.84375 c 0.5118,0 1.0158,0.20325 1.4062,0.59375 l 4.25,4.25 c 0.7812,0.7811 0.7812,2.0315 0,2.8125 -0.7811,0.7811 -2.0315,0.7811 -2.8124,0 l -4.25,-4.25 c -0.781,-0.7811 -0.781,-2.0315 0,-2.8125 0.3904,-0.3905 0.8944,-0.59375 1.4062,-0.59375 z m -40.0213,1.625 c 0.2578,0.032 0.5109,0.14325 0.75,0.28125 0.9566,0.5523 1.271,1.76205 0.7188,2.71875 l -3,5.1875 c -0.5523,0.9566 -1.7622,1.3023 -2.7188,0.75 -0.9566,-0.5523 -1.3023,-1.7934 -0.75,-2.75 l 3,-5.1875 c 0.4142,-0.7175 1.2265,-1.096 2,-1 z M 19,987.1434 c 0.6404,0.045 1.2485,0.4021 1.5938,1 l 3,5.1875 c 0.5522,0.9566 0.2378,2.1977 -0.7188,2.75 -0.9566,0.5523 -2.1977,0.2066 -2.75,-0.75 l -3,-5.1875 c -0.5523,-0.9567 -0.2066,-2.16645 0.75,-2.71875 0.3587,-0.2071 0.7407,-0.30845 1.125,-0.28125 z m 31,1.21875 c 7.7083,0 14,6.29171 14,14.00005 0,7.7083 -6.2917,14 -14,14 -7.7082,0 -14,-6.2917 -14,-14 0,-7.70836 6.2918,-14.00005 14,-14.00005 z m 0,4 c -5.5464,0 -10,4.45351 -10,10.00005 0,5.5465 4.4536,10 10,10 5.5465,0 10,-4.4535 10,-10 0,-5.54656 -4.4535,-10.00005 -10,-10.00005 z m 22.75,2.59375 c 0.5118,0 1.0158,0.172 1.4062,0.5625 0.7812,0.7811 0.7812,2.06275 0,2.84375 l -4.25,4.25005 c -0.7811,0.7811 -2.0315,0.7811 -2.8124,0 -0.7812,-0.7812 -0.7812,-2.0628 0,-2.8438 l 4.2187,-4.25 c 0.3906,-0.3905 0.9256,-0.5625 1.4375,-0.5625 z m -50.1562,9.625 c 2.0477,0.4301 4.1379,1.0711 6.1874,1.625 1.0672,0.2859 1.7233,1.3705 1.4376,2.4375 -0.2861,1.067 -1.4018,1.6922 -2.4688,1.4063 l -5.7812,-1.5313 c -1.0672,-0.2859 -1.6922,-1.4017 -1.4063,-2.4687 0.2502,-0.9335 1.1026,-1.5246 2.0313,-1.4688 z M 76,1006.9559 c 0.6404,0.045 1.2485,0.4021 1.5938,1 l 3,5.1875 c 0.5522,0.9566 0.2378,2.1665 -0.7188,2.7188 -0.9566,0.5523 -2.1977,0.2378 -2.75,-0.7188 l -3,-5.1875 c -0.5523,-0.9566 -0.2066,-2.1977 0.75,-2.75 0.3587,-0.2071 0.7407,-0.2772 1.125,-0.25 z m -26.2812,16.4063 c -1.2353,-0.049 -1.7296,0.2211 -2.2813,0.8125 -0.5817,0.6235 -1.1251,1.7716 -1.75,3.1562 -0.6249,1.3847 -1.3476,3.0131 -2.6563,4.4063 -2.0009,1.9935 -3.9146,2.415 -5.875,2.5 -2.1271,0.01 -3.8874,-0.6354 -5.1562,-1.6563 -1.2688,-1.0208 -2.024,-2.276 -2.6875,-3.4062 -1.3199,-2.2483 -2.1482,-3.9824 -4.9063,-4.9063 -1.385,-0.4405 -3.4208,-0.6169 -7.7812,1.9375 7.433,10.3894 19.6077,17.1563 33.375,17.1563 12.209,0 23.1496,-5.3315 30.6562,-13.7813 -0.1208,-2.8604 -2.552,-5.0529 -6,-5.125 -1.2627,0.09 -2.5073,0.4917 -3.1874,1.3125 -0.6441,0.793 -1.1488,2.1243 -1.625,3.6875 -0.4763,1.5633 -0.9329,3.3588 -2.0626,4.9688 -1.1293,1.61 -3.1439,2.8597 -5.7187,2.9375 -2.5573,-0.047 -4.9504,-1.388 -6.125,-3.0938 -1.1051,-1.6771 -1.3735,-3.5011 -1.6875,-5.0937 -0.314,-1.5926 -0.657,-2.9817 -1.25,-3.9063 -0.5842,-0.9108 -1.3274,-1.5353 -3.2812,-1.9062 z"
         style="color:#000000;text-indent:0;text-transform:none;direction:ltr;block-progression:tb;baseline-shift:baseline;display:inline;overflow:visible;visibility:visible;fill:#653400;fill-opacity:1;stroke:none;stroke-width:3;stroke-miterlimit:4;stroke-dasharray:none;stroke-opacity:1;marker:none;enable-background:accumulate" />
    </g>
    <path
       inkscape:connector-curvature="0"
       id="path5059"
       d="m 44.22903,72.106385 c -1.07591,-0.303131 -1.4101,-0.898459 -1.95167,-3.476789 -0.44873,-2.13641 -0.63576,-2.781896 -1.06668,-3.681439 -0.84747,-1.769143 -2.46266,-3.026153 -4.49794,-3.500504 -1.68145,-0.391887 -3.4209,0.181089 -4.70066,1.548403 -0.61856,0.660874 -0.85295,1.054645 -1.73092,2.907964 -1.28682,2.716376 -1.61548,3.188536 -2.54516,3.656486 -0.52749,0.265516 -1.752792,0.311179 -2.452979,0.09141 -0.650694,-0.204227 -1.304926,-0.958465 -2.247316,-2.590826 -1.030447,-1.784897 -1.849137,-2.820991 -2.860571,-3.620202 -2.56113,-2.023738 -5.75339,-2.045358 -9.436898,-0.06392 -0.577196,0.310486 -1.079491,0.579956 -1.116207,0.598821 -0.114354,0.05875 -1.406774,-2.680393 -1.95739,-4.14847 C 6.670392,57.176396 5.956028,54.070657 5.677877,51.189736 5.505552,49.404884 5.602117,45.010159 5.84912,43.396275 7.339609,33.657679 12.54586,25.53437 20.471963,20.580275 27.43153,16.230296 35.96887,14.978194 43.87192,17.148391 c 9.93712,2.728758 17.98428,10.647034 21.1836,20.844326 1.18697,3.783253 1.59883,6.766832 1.50266,10.885397 -0.0357,1.530033 -0.13865,3.16025 -0.24246,3.840265 -0.71378,4.675255 -2.23774,8.941939 -4.48558,12.558308 l -0.60817,0.978432 -0.43504,-0.661736 c -1.33034,-2.023477 -3.82668,-3.365588 -6.25193,-3.361218 -1.86888,0.0034 -3.26979,0.578803 -4.47604,1.83857 -0.86161,0.899844 -1.34002,1.882047 -2.02905,4.165746 -0.87839,2.911243 -1.29562,3.636979 -2.24669,3.907877 -0.56551,0.161076 -0.87444,0.153527 -1.55419,-0.03798 z M 38.84632,58.690032 c 3.43683,-1.046419 6.11217,-3.72569 7.20176,-7.212343 0.36611,-1.17152 0.47502,-1.94484 0.47605,-3.380136 0.002,-2.134729 -0.45123,-3.868876 -1.49706,-5.734131 -0.66721,-1.189973 -2.35885,-2.94449 -3.55979,-3.692097 -4.1175,-2.563238 -9.26966,-1.920447 -12.67195,1.580973 -2.37329,2.442434 -3.457802,5.54833 -3.129235,8.961702 0.457075,4.748322 3.765115,8.580398 8.330035,9.649597 1.10248,0.258224 3.74231,0.163756 4.85019,-0.173565 z m 19.31979,0.06985 c 0.56259,-0.251121 0.88904,-0.69769 0.95445,-1.30563 0.0549,-0.510261 -0.003,-0.647729 -1.15024,-2.754624 -1.28562,-2.359964 -1.72242,-2.924451 -2.35992,-3.049739 -0.8229,-0.161721 -1.76233,0.687513 -1.76233,1.593124 0,0.300961 0.17342,0.749255 0.57604,1.489091 1.51098,2.776474 2.1258,3.791573 2.3733,3.918392 0.60612,0.310589 0.87059,0.331724 1.3687,0.109386 z M 20.518275,54.025283 c 1.015135,-0.444336 1.124036,-2.24794 0.16808,-2.783893 -0.525608,-0.294683 -4.660183,-1.418782 -5.209058,-1.416229 -0.509839,0.0023 -0.882482,0.220833 -1.188721,0.696886 -0.431139,0.670205 -0.266083,1.690004 0.349335,2.158416 0.282845,0.215279 4.665041,1.48914 5.177865,1.505152 0.172593,0.0054 0.488721,-0.06676 0.702499,-0.160332 z M 50.55442,48.592049 c 0.16753,-0.09235 1.12939,-1.039817 2.1375,-2.105474 1.89847,-2.006844 1.91795,-2.037784 1.8431,-2.92574 -0.0845,-1.001599 -1.33111,-1.610978 -2.23609,-1.092998 -0.60154,0.344302 -3.82756,3.953858 -3.9176,4.383366 -0.13838,0.659923 0.35094,1.595375 0.95494,1.825607 0.32351,0.12332 0.91541,0.08213 1.21815,-0.08476 z M 15.808954,43.206987 c 0.543584,-0.347194 0.838697,-0.9055 0.783139,-1.481552 -0.05604,-0.58096 -2.316748,-4.763223 -2.809565,-5.197635 -0.69306,-0.610915 -1.6718,-0.431469 -2.20293,0.403897 -0.462937,0.728113 -0.375872,1.05366 0.906637,3.389973 1.479475,2.695108 1.487244,2.706978 1.917234,2.929091 0.489176,0.252689 0.964509,0.237884 1.405485,-0.04376 z m 8.830687,-0.857768 c 0.272926,-0.192677 0.729238,-0.903348 1.650189,-2.570024 1.12715,-2.03985 1.27318,-2.367516 1.27497,-2.86086 0.004,-1.021822 -0.94431,-1.784636 -1.887309,-1.51863 -0.240718,0.0679 -0.542354,0.243695 -0.670299,0.390652 -0.127945,0.146954 -0.784491,1.274138 -1.458991,2.504852 -1.05667,1.928047 -1.224884,2.307161 -1.215712,2.739951 0.02648,1.250171 1.338867,1.997635 2.307152,1.314059 z m 35.384999,-1.97812 c 0.69277,-0.442488 0.96832,-1.221843 0.69663,-1.9704 -0.13125,-0.361671 -2.93941,-3.40481 -3.64726,-3.952472 -1.44141,-1.115204 -3.17757,0.704965 -2.10987,2.211942 0.48667,0.686885 3.2879,3.553036 3.67773,3.762945 0.45966,0.24752 0.94222,0.229368 1.38277,-0.05201 z M 44.83737,35.55524 c 0.67698,-0.41233 0.87167,-1.443859 0.40844,-2.163965 -0.1853,-0.288046 -0.85888,-0.763256 -2.4533,-1.73081 -1.97997,-1.201524 -2.25229,-1.333748 -2.74691,-1.33376 -0.4874,-1.3e-5 -0.59822,0.05149 -0.98695,0.458733 -0.38895,0.407446 -0.43786,0.523066 -0.4375,1.033919 7.1e-4,0.957183 0.18797,1.144074 2.60689,2.601692 1.20257,0.724651 2.288,1.343766 2.41207,1.37581 0.31171,0.0805 0.84515,-0.02714 1.19726,-0.241619 z M 25.759444,31.768862 c 0.421586,-0.323288 0.699916,-0.953664 0.641946,-1.453901 -0.0465,-0.401045 -1.891306,-3.915534 -2.521449,-4.803495 -0.682566,-0.961829 -1.964062,-0.951591 -2.529751,0.02022 -0.428155,0.735532 -0.319232,1.122582 0.984672,3.498992 0.658553,1.200232 1.30571,2.308659 1.438134,2.463171 0.530248,0.618687 1.384133,0.736907 1.986448,0.275025 z M 44.10256,27.624619 c 0.24195,-0.186358 1.13005,-1.077004 1.97354,-1.979214 1.6924,-1.810212 1.91983,-2.210882 1.69707,-2.98976 -0.2418,-0.845492 -1.08465,-1.350188 -1.89923,-1.13726 -0.34997,0.09148 -3.77779,3.568414 -4.04751,4.1055 -0.0881,0.175492 -0.16023,0.556917 -0.16023,0.847607 0,1.281445 1.40589,1.946846 2.43636,1.153127 z"
       style="color:#000000;clip-rule:nonzero;display:inline;overflow:visible;visibility:visible;opacity:1;isolation:auto;mix-blend-mode:normal;color-interpolation:sRGB;color-interpolation-filters:linearRGB;solid-color:#000000;solid-opacity:1;fill:#ef6b9c;fill-opacity:1;fill-rule:nonzero;stroke:none;stroke-width:15;stroke-linecap:butt;stroke-linejoin:miter;stroke-miterlimit:4;stroke-dasharray:none;stroke-dashoffset:0;stroke-opacity:1;color-rendering:auto;image-rendering:auto;shape-rendering:auto;text-rendering:auto;enable-background:accumulate" />
    <path
       style="color:#000000;clip-rule:nonzero;display:inline;overflow:visible;visibility:visible;opacity:1;isolation:auto;mix-blend-mode:normal;color-interpolation:sRGB;color-interpolation-filters:linearRGB;solid-color:#000000;solid-opacity:1;fill:#ffeeaa;fill-opacity:1;fill-rule:nonzero;stroke:none;stroke-width:15;stroke-linecap:butt;stroke-linejoin:miter;stroke-miterlimit:4;stroke-dasharray:none;stroke-dashoffset:0;stroke-opacity:1;color-rendering:auto;image-rendering:auto;shape-rendering:auto;text-rendering:auto;enable-background:accumulate"
       d="m 31.44154,79.659319 c -4.81529,-0.823906 -9.516828,-2.84924 -13.229996,-5.699223 -2.379217,-1.826133 -6.745091,-6.464455 -6.745091,-7.166006 0,-0.315492 2.750947,-1.492235 3.769701,-1.612527 1.206682,-0.142482 2.696486,0.418788 3.529586,1.329733 0.334583,0.36584 1.240111,1.663389 2.012288,2.883441 1.247159,1.970528 1.553398,2.298275 2.742007,2.93458 1.134662,0.607425 1.580435,0.713377 2.932675,0.697049 2.95914,-0.03571 4.51543,-1.261029 6.26324,-4.931212 0.62223,-1.306567 1.34138,-2.614854 1.59812,-2.907304 0.95267,-1.085143 3.23706,-0.439204 4.00204,1.131625 0.23821,0.489138 0.63332,1.850357 0.87803,3.024932 0.66352,3.184805 1.46804,4.548349 3.24999,5.508339 2.19661,1.183365 4.5988,0.773795 6.36414,-1.085068 1.00713,-1.060498 1.23341,-1.499998 2.01438,-3.91243 0.97539,-3.012952 1.81637,-4.225202 2.9758,-4.289469 2.13718,-0.118463 3.66754,0.574381 4.48115,2.028772 0.30843,0.551343 0.5608,1.172115 0.5608,1.379492 0,0.752987 -3.50947,4.092774 -6.20374,5.903783 -3.20438,2.153906 -6.06938,3.421419 -9.81317,4.341497 -3.06118,0.752315 -8.35954,0.957141 -11.38195,0.439996 z"
       id="path5061"
       inkscape:connector-curvature="0" />
  </g>
</svg>
