<?xml version="1.0" encoding="UTF-8" standalone="no"?>
<svg
   xmlns:dc="http://purl.org/dc/elements/1.1/"
   xmlns:cc="http://creativecommons.org/ns#"
   xmlns:rdf="http://www.w3.org/1999/02/22-rdf-syntax-ns#"
   xmlns:svg="http://www.w3.org/2000/svg"
   xmlns="http://www.w3.org/2000/svg"
   xmlns:sodipodi="http://sodipodi.sourceforge.net/DTD/sodipodi-0.dtd"
   xmlns:inkscape="http://www.inkscape.org/namespaces/inkscape"
   version="1.1"
   x="0px"
   y="0px"
   viewBox="0 0 436.39727 142.58654"
   id="svg4171"
   inkscape:version="0.91 r13725"
   sodipodi:docname="logo.svg"
   width="436.39728"
   height="142.58655">
  <metadata
     id="metadata4185">
    <rdf:RDF>
      <cc:Work
         rdf:about="">
        <dc:format>image/svg+xml</dc:format>
        <dc:type
           rdf:resource="http://purl.org/dc/dcmitype/StillImage" />
        <dc:title></dc:title>
      </cc:Work>
    </rdf:RDF>
  </metadata>
  <defs
     id="defs4183" />
  <sodipodi:namedview
     pagecolor="#ffffff"
     bordercolor="#666666"
     borderopacity="1"
     objecttolerance="10"
     gridtolerance="10"
     guidetolerance="10"
     inkscape:pageopacity="0"
     inkscape:pageshadow="2"
     inkscape:window-width="1920"
     inkscape:window-height="1016"
     id="namedview4181"
     showgrid="false"
     fit-margin-top="0.5"
     fit-margin-left="0.5"
     fit-margin-right="0"
     fit-margin-bottom="0"
     inkscape:zoom="1.1695546"
     inkscape:cx="131.7535"
     inkscape:cy="-93.791695"
     inkscape:window-x="0"
     inkscape:window-y="27"
     inkscape:window-maximized="1"
     inkscape:current-layer="layer4" />
  <g
     inkscape:groupmode="layer"
     id="layer3"
     inkscape:label="background"
     style="display:none"
     transform="translate(216.21883,22.902321)">
    <rect
       style="fill:#62e8bc;fill-opacity:1;stroke:none;stroke-width:15;stroke-linecap:butt;stroke-linejoin:miter;stroke-miterlimit:4;stroke-dasharray:none;stroke-opacity:1"
       id="rect4144"
       width="619.98535"
       height="177.93167"
       x="-271.13412"
       y="-41.325947" />
  </g>
  <g
     inkscape:groupmode="layer"
     id="layer6"
     inkscape:label="donut stroke"
     style="display:inline"
     transform="translate(60.214172,21.702328)">
    <ellipse
       style="display:inline;fill:none;fill-opacity:1;stroke:#ffffff;stroke-width:23.4960556;stroke-linecap:butt;stroke-linejoin:miter;stroke-miterlimit:4;stroke-dasharray:none;stroke-opacity:1"
       id="path4176"
       cx="10.448849"
       cy="48.293083"
       rx="58.414993"
       ry="57.747383" />
  </g>
  <g
     inkscape:groupmode="layer"
     id="layer2"
     inkscape:label="Text stroke"
     transform="translate(216.21883,22.902321)"
     style="display:none">
    <flowRoot
       xml:space="preserve"
       id="flowRoot4150"
       style="font-style:normal;font-weight:normal;font-size:98.80249023px;line-height:125%;font-family:sans-serif;letter-spacing:4.94012451px;word-spacing:0px;fill:#000000;fill-opacity:1;stroke:#ffffff;stroke-width:13.10000038;stroke-linecap:butt;stroke-linejoin:miter;stroke-miterlimit:4;stroke-dasharray:none;stroke-opacity:1"
       transform="translate(-124.54656,-79.201935)"><flowRegion
         id="flowRegion4152"
         style="stroke-width:4"><rect
           id="rect4154"
           width="615.27551"
           height="216.54114"
           x="57.633083"
           y="88.496887"
           style="fill:#000000;fill-opacity:1;stroke:#ffffff;stroke-width:13.10000038;stroke-miterlimit:4;stroke-dasharray:none;stroke-opacity:1" /></flowRegion><flowPara
         id="flowPara4156"
         style="font-style:normal;font-variant:normal;font-weight:normal;font-stretch:normal;font-size:75px;font-family:Pacifico;-inkscape-font-specification:Pacifico;letter-spacing:1px;fill:#000000;fill-opacity:1;stroke:#ffffff;stroke-width:13.10000038;stroke-miterlimit:4;stroke-dasharray:none;stroke-opacity:1">Example</flowPara></flowRoot>  </g>
  <g
     style="display:none"
     transform="translate(216.21883,22.902321)"
     inkscape:label="text"
     id="g4166"
     inkscape:groupmode="layer">
    <flowRoot
       transform="translate(-124.54656,-79.201935)"
       style="font-style:normal;font-weight:normal;font-size:98.80249023px;line-height:125%;font-family:sans-serif;letter-spacing:4.94012451px;word-spacing:0px;fill:#865e04;fill-opacity:1;stroke:none;stroke-width:4;stroke-linecap:butt;stroke-linejoin:miter;stroke-miterlimit:4;stroke-dasharray:none;stroke-opacity:1"
       id="flowRoot4168"
       xml:space="preserve"><flowRegion
         style="stroke-width:4"
         id="flowRegion4170"><rect
           style="fill:#865e04;fill-opacity:1;stroke:none;stroke-width:9.88024902;stroke-miterlimit:4;stroke-dasharray:none;stroke-opacity:1"
           y="88.496887"
           x="57.633083"
           height="216.54114"
           width="615.27551"
           id="rect4172" /></flowRegion><flowPara
         style="font-style:normal;font-variant:normal;font-weight:normal;font-stretch:normal;font-size:75px;font-family:Pacifico;-inkscape-font-specification:Pacifico;letter-spacing:1px;fill:#865e04;fill-opacity:1;stroke:none;stroke-width:4;stroke-miterlimit:4;stroke-dasharray:none;stroke-opacity:1"
         id="flowPara4174">Example</flowPara></flowRoot>  </g>
  <g
     inkscape:groupmode="layer"
     id="layer5"
     inkscape:label="group text"
     transform="translate(2.5650828,2.5650773)"
     style="display:none">
    <g
       id="g4977"
       style="fill:#653400;fill-opacity:1">
      <g
         transform="translate(89.10719,-58.864689)"
         style="font-style:normal;font-weight:normal;font-size:98.80249023px;line-height:125%;font-family:sans-serif;letter-spacing:4.94012451px;word-spacing:0px;display:inline;fill:#653400;fill-opacity:1;stroke:#ffffff;stroke-width:13.10000038;stroke-linecap:butt;stroke-linejoin:miter;stroke-miterlimit:4;stroke-dasharray:none;stroke-opacity:1"
         id="flowRoot4150-2">
        <path
           d="m 122.43281,125.66116 q 1.725,0 2.475,0.75 0.825,0.75 0.825,1.95 0,1.95 -1.2,3.45 -1.125,1.5 -3.6,1.575 -6,0.15 -10.65,-0.9 -5.325,11.175 -12.899998,18.6 -7.5,7.35 -15.075,7.35 -7.8,0 -11.625,-9.075 -3.825,-9.075 -3.825,-24.525 0,-13.2 1.875,-23.7 0.675001,-3.900004 1.875,-5.250004 1.275,-1.425 4.275,-1.425 4.950001,0 4.950001,4.275 0,0.45 -0.150001,1.650004 -2.25,13.5 -2.25,24.45 0,11.475 1.875,17.475 1.95,5.925 5.775001,5.925 3.899999,0 8.475,-5.4 4.574999,-5.4 8.399997,-13.575 -4.574998,-2.85 -6.899998,-7.35 -2.325,-4.575 -2.325,-10.5 0,-5.925 1.800001,-9.975 1.875,-4.125004 5.025,-6.150004 3.224997,-2.025 7.124997,-2.025 4.8,0 7.575,3.45 2.85,3.450004 2.85,9.450004 0,8.625 -3.75,18.825 3.975,0.675 9.075,0.675 z m -22.125,-14.775 q 0,7.35 4.725,10.875 2.925,-8.4 2.925,-13.875 0,-3.15 -0.825,-4.575 -0.825,-1.5 -2.25,-1.5 -2.025,0 -3.3,2.4 -1.275,2.325 -1.275,6.675 z"
           style="font-style:normal;font-variant:normal;font-weight:normal;font-stretch:normal;font-size:75px;font-family:Pacifico;-inkscape-font-specification:Pacifico;letter-spacing:1px;fill:#653400;fill-opacity:1;stroke:#ffffff;stroke-width:13.10000038;stroke-miterlimit:4;stroke-dasharray:none;stroke-opacity:1"
           id="path4988"
           inkscape:connector-curvature="0" />
        <path
           d="m 127.1582,158.43616 q -3.375,0 -5.55,-3.075 -2.1,-3.15 -2.1,-7.8 0,-5.625 0.75,-10.275 0.75,-4.725 2.475,-9.975 0.75,-2.25 2.1,-3.225 1.35,-0.975 4.275,-0.975 1.65,0 2.25,0.525 0.675,0.525 0.675,1.575 0,0.6 -0.825,4.05 -0.75,2.775 -1.2,5.025 -1.5,7.875 -1.5,10.5 0,1.575 0.375,2.25 0.375,0.6 1.2,0.6 1.125,0 2.775,-2.25 1.725,-2.25 3.6,-6.825 1.95,-4.575 3.75,-11.25 0.6,-2.25 1.8,-3.225 1.275,-0.975 3.75,-0.975 1.725,0 2.4,0.45 0.675,0.375 0.675,1.5 0,1.875 -1.875,10.275 -2.1,9.6 -2.1,11.85 0,1.425 0.6,2.25 0.6,0.75 1.575,0.75 1.5,0 3.525,-1.8 2.1,-1.875 5.55,-6 0.9,-1.05 2.025,-1.05 0.975,0 1.5,0.9 0.6,0.9 0.6,2.475 0,3 -1.425,4.65 -3.225,3.975 -6.975,6.525 -3.675,2.55 -8.4,2.55 -3.6,0 -5.325,-2.775 -1.65,-2.775 -1.65,-7.8 -1.275,5.1 -3.825,7.875 -2.55,2.7 -5.475,2.7 z"
           style="font-style:normal;font-variant:normal;font-weight:normal;font-stretch:normal;font-size:75px;font-family:Pacifico;-inkscape-font-specification:Pacifico;letter-spacing:1px;fill:#653400;fill-opacity:1;stroke:#ffffff;stroke-width:13.10000038;stroke-miterlimit:4;stroke-dasharray:none;stroke-opacity:1"
           id="path4990"
           inkscape:connector-curvature="0" />
        <path
           d="m 188.675,141.33616 q 0.975,0 1.5,0.9 0.6,0.9 0.6,2.475 0,3 -1.425,4.65 -2.775,3.375 -7.875,6.225 -5.025,2.85 -10.8,2.85 -7.875,0 -12.225,-4.275 -4.35,-4.275 -4.35,-11.7 0,-5.175 2.175,-9.6 2.175,-4.5 6,-7.125 3.9,-2.625 8.775,-2.625 4.35,0 6.975,2.625 2.625,2.55 2.625,6.975 0,5.175 -3.75,8.925 -3.675,3.675 -12.525,5.85 1.875,3.45 7.125,3.45 3.375,0 7.65,-2.325 4.35,-2.4 7.5,-6.225 0.9,-1.05 2.025,-1.05 z m -18.9,-10.875 q -2.775,0 -4.725,3.225 -1.875,3.225 -1.875,7.8 l 0,0.15 q 4.425,-1.05 6.975,-3.15 2.55,-2.1 2.55,-4.875 0,-1.425 -0.825,-2.25 -0.75,-0.9 -2.1,-0.9 z"
           style="font-style:normal;font-variant:normal;font-weight:normal;font-stretch:normal;font-size:75px;font-family:Pacifico;-inkscape-font-specification:Pacifico;letter-spacing:1px;fill:#653400;fill-opacity:1;stroke:#ffffff;stroke-width:13.10000038;stroke-miterlimit:4;stroke-dasharray:none;stroke-opacity:1"
           id="path4992"
           inkscape:connector-curvature="0" />
        <path
           d="m 205.16836,158.43616 q -4.35,0 -9.825,-0.75 -3,-0.375 -4.125,-1.575 -1.125,-1.2 -0.975,-3.9 0.525,-7.425 2.475,-18.3 1.95,-10.95 4.725,-21.075 0.525,-1.875 2.1,-2.625 1.575,-0.75 4.125,-0.75 4.575,0 4.575,2.55 0,1.05 -0.45,2.4 -1.95,6 -3.9,16.125 -1.95,10.05 -2.775,19.2 2.25,0.225 5.1,0.225 13.125,0 19.575,-7.95 6.525,-7.95 6.525,-21.225 0,-8.925 -5.1,-13.8 -5.1,-4.875 -14.4,-4.875 -6,0 -11.925,1.875 -5.85,1.875 -10.575,4.95 -0.975,0.675 -2.1,0.675 -1.275,0 -2.025,-1.05 -0.75,-1.125 -0.75,-2.7 0,-1.8 0.6,-2.925 0.6,-1.2 2.025,-2.175 5.175,-3.525004 12.15,-5.325004 6.975,-1.875 13.425,-1.875 9.15,0 15.825,3.225 6.675,3.15 10.275,9.300004 3.6,6.15 3.6,14.85 0,11.325 -4.5,19.8 -4.5,8.4 -13.125,13.05 -8.625,4.65 -20.55,4.65 z"
           style="font-style:normal;font-variant:normal;font-weight:normal;font-stretch:normal;font-size:75px;font-family:Pacifico;-inkscape-font-specification:Pacifico;letter-spacing:1px;fill:#653400;fill-opacity:1;stroke:#ffffff;stroke-width:13.10000038;stroke-miterlimit:4;stroke-dasharray:none;stroke-opacity:1"
           id="path4994"
           inkscape:connector-curvature="0" />
        <path
           d="m 287.61367,135.03616 q 0.975,0 1.5,0.975 0.525,0.975 0.525,2.475 0,3.6 -2.175,4.275 -4.5,1.575 -9.9,1.8 -1.425,6.3 -5.625,10.125 -4.2,3.75 -9.525,3.75 -4.5,0 -7.725,-2.175 -3.15,-2.175 -4.8,-5.775 -1.65,-3.6 -1.65,-7.8 0,-5.7 2.175,-10.125 2.175,-4.5 6,-6.975 3.825,-2.55 8.475,-2.55 5.7,0 9.15,3.975 3.525,3.9 4.125,9.675 3.525,-0.225 8.4,-1.5 0.6,-0.15 1.05,-0.15 z m -24.6,15.45 q 2.4,0 4.125,-1.95 1.8,-1.95 2.4,-5.625 -2.325,-1.575 -3.6,-4.125 -1.2,-2.55 -1.2,-5.4 0,-1.2 0.225,-2.4 l -0.375,0 q -3,0 -5.025,2.925 -1.95,2.85 -1.95,8.1 0,4.125 1.575,6.3 1.65,2.175 3.825,2.175 z"
           style="font-style:normal;font-variant:normal;font-weight:normal;font-stretch:normal;font-size:75px;font-family:Pacifico;-inkscape-font-specification:Pacifico;letter-spacing:1px;fill:#653400;fill-opacity:1;stroke:#ffffff;stroke-width:13.10000038;stroke-miterlimit:4;stroke-dasharray:none;stroke-opacity:1"
           id="path4996"
           inkscape:connector-curvature="0" />
        <path
           d="m 289.52656,158.43616 q -2.85,0 -4.05,-3 -1.125,-3 -1.125,-9.6 0,-9.75 2.775,-18.525 0.675,-2.175 2.175,-3.15 1.575,-1.05 4.35,-1.05 1.5,0 2.1,0.375 0.6,0.375 0.6,1.425 0,1.2 -1.125,5.4 -0.75,3 -1.2,5.25 -0.45,2.25 -0.75,5.55 2.475,-6.45 5.55,-10.5 3.075,-4.05 6,-5.775 3,-1.725 5.475,-1.725 4.875,0 4.875,4.875 0,2.925 -1.65,10.575 -1.425,6.525 -1.425,8.625 0,3 2.175,3 1.5,0 3.525,-1.8 2.1,-1.875 5.55,-6 0.9,-1.05 2.025,-1.05 0.975,0 1.5,0.9 0.6,0.9 0.6,2.475 0,3 -1.425,4.65 -3.225,3.975 -6.975,6.525 -3.675,2.55 -8.4,2.55 -3.825,0 -5.775,-2.175 -1.95,-2.25 -1.95,-6.45 0,-2.1 1.05,-7.5 0.975,-4.725 0.975,-6.525 0,-1.2 -0.825,-1.2 -0.975,0 -2.775,2.55 -1.725,2.475 -3.6,6.6 -1.8,4.125 -2.925,8.7 -0.825,3.525 -1.95,4.8 -1.05,1.2 -3.375,1.2 z"
           style="font-style:normal;font-variant:normal;font-weight:normal;font-stretch:normal;font-size:75px;font-family:Pacifico;-inkscape-font-specification:Pacifico;letter-spacing:1px;fill:#653400;fill-opacity:1;stroke:#ffffff;stroke-width:13.10000038;stroke-miterlimit:4;stroke-dasharray:none;stroke-opacity:1"
           id="path4998"
           inkscape:connector-curvature="0" />
        <path
           d="m 330.05859,158.43616 q -3.375,0 -5.55,-3.075 -2.1,-3.15 -2.1,-7.8 0,-5.625 0.75,-10.275 0.75,-4.725 2.475,-9.975 0.75,-2.25 2.1,-3.225 1.35,-0.975 4.275,-0.975 1.65,0 2.25,0.525 0.675,0.525 0.675,1.575 0,0.6 -0.825,4.05 -0.75,2.775 -1.2,5.025 -1.5,7.875 -1.5,10.5 0,1.575 0.375,2.25 0.375,0.6 1.2,0.6 1.125,0 2.775,-2.25 1.725,-2.25 3.6,-6.825 1.95,-4.575 3.75,-11.25 0.6,-2.25 1.8,-3.225 1.275,-0.975 3.75,-0.975 1.725,0 2.4,0.45 0.675,0.375 0.675,1.5 0,1.875 -1.875,10.275 -2.1,9.6 -2.1,11.85 0,1.425 0.6,2.25 0.6,0.75 1.575,0.75 1.5,0 3.525,-1.8 2.1,-1.875 5.55,-6 0.9,-1.05 2.025,-1.05 0.975,0 1.5,0.9 0.6,0.9 0.6,2.475 0,3 -1.425,4.65 -3.225,3.975 -6.975,6.525 -3.675,2.55 -8.4,2.55 -3.6,0 -5.325,-2.775 -1.65,-2.775 -1.65,-7.8 -1.275,5.1 -3.825,7.875 -2.55,2.7 -5.475,2.7 z"
           style="font-style:normal;font-variant:normal;font-weight:normal;font-stretch:normal;font-size:75px;font-family:Pacifico;-inkscape-font-specification:Pacifico;letter-spacing:1px;fill:#653400;fill-opacity:1;stroke:#ffffff;stroke-width:13.10000038;stroke-miterlimit:4;stroke-dasharray:none;stroke-opacity:1"
           id="path5000"
           inkscape:connector-curvature="0" />
        <path
           d="m 391.57539,141.33616 q 0.975,0 1.5,0.9 0.6,0.9 0.6,2.475 0,3 -1.425,4.65 -3.225,3.975 -7.05,6.525 -3.825,2.55 -8.775,2.55 -15.3,0 -15.3,-21.525 0,-3.3 0.225,-6.675 l -2.925,0 q -2.25,0 -3.075,-0.825 -0.75,-0.825 -0.75,-2.625 0,-4.2 3.375,-4.2 l 4.275,0 q 1.275,-8.25 3.9,-15.075 2.625,-6.825 6.3,-10.875004 3.75,-4.05 8.025,-4.05 3.15,0 4.95,2.775 1.8,2.775 1.8,6.975004 0,11.625 -9.75,20.25 l 8.4,0 q 1.2,0 1.725,0.525 0.525,0.525 0.525,1.95 0,5.175 -8.475,5.175 l -9.15,0 q -0.15,3.75 -0.15,5.85 0,7.8 1.8,10.95 1.875,3.15 5.85,3.15 3.225,0 5.7,-1.95 2.475,-1.95 5.85,-5.85 0.9,-1.05 2.025,-1.05 z m -13.125,-41.550004 q -1.125,0 -2.55,2.850004 -1.35,2.775 -2.625,7.8 -1.2,4.95 -2.025,11.025 4.425,-3.825 6.6,-8.55 2.25,-4.8 2.25,-8.7 0,-4.425004 -1.65,-4.425004 z"
           style="font-style:normal;font-variant:normal;font-weight:normal;font-stretch:normal;font-size:75px;font-family:Pacifico;-inkscape-font-specification:Pacifico;letter-spacing:1px;fill:#653400;fill-opacity:1;stroke:#ffffff;stroke-width:13.10000038;stroke-miterlimit:4;stroke-dasharray:none;stroke-opacity:1"
           id="path5002"
           inkscape:connector-curvature="0" />
        <path
           d="m 402.51875,160.08616 q -3.9,0 -6,-1.8 -2.025,-1.8 -2.025,-4.05 0,-1.95 1.425,-3.375 1.425,-1.425 4.2,-1.425 0.975,0 2.25,0.225 1.35,0.15 2.025,0.225 -0.075,-1.95 -0.9,-3.675 -0.75,-1.725 -1.95,-3.3 -1.2,-1.65 -2.25,-2.85 -2.325,4.425 -4.65,7.35 -2.25,2.925 -4.95,5.55 -1.35,1.35 -2.85,1.35 -1.2,0 -1.95,-0.825 -0.75,-0.9 -0.75,-2.175 0,-1.5 1.05,-2.775 l 0.975,-1.2 q 4.125,-5.1 6.225,-8.4 1.35,-2.175 2.7,-5.175 1.425,-3 3.675,-8.175 1.425,-3.3 5.925,-3.3 2.1,0 2.925,0.375 0.825,0.375 0.825,1.2 0,0.45 -0.3,1.425 -0.3,0.975 -0.825,1.95 -1.35,2.7 -1.35,4.575 0,1.125 0.75,2.475 0.825,1.35 2.475,3.375 2.4,3.15 3.6,5.4 1.275,2.175 1.275,4.8 0,3.15 -1.5,6 -1.425,2.775 -4.05,4.5 -2.625,1.725 -6,1.725 z"
           style="font-style:normal;font-variant:normal;font-weight:normal;font-stretch:normal;font-size:75px;font-family:Pacifico;-inkscape-font-specification:Pacifico;letter-spacing:1px;fill:#653400;fill-opacity:1;stroke:#ffffff;stroke-width:13.10000038;stroke-miterlimit:4;stroke-dasharray:none;stroke-opacity:1"
           id="path5004"
           inkscape:connector-curvature="0" />
      </g>
      <g
         transform="translate(89.10719,-58.864689)"
         style="font-style:normal;font-weight:normal;font-size:98.80249023px;line-height:125%;font-family:sans-serif;letter-spacing:4.94012451px;word-spacing:0px;display:inline;fill:#653400;fill-opacity:1;stroke:none;stroke-width:4;stroke-linecap:butt;stroke-linejoin:miter;stroke-miterlimit:4;stroke-dasharray:none;stroke-opacity:1"
         id="flowRoot4168-7">
        <path
           d="m 122.43281,125.66116 q 1.725,0 2.475,0.75 0.825,0.75 0.825,1.95 0,1.95 -1.2,3.45 -1.125,1.5 -3.6,1.575 -6,0.15 -10.65,-0.9 -5.325,11.175 -12.899998,18.6 -7.5,7.35 -15.075,7.35 -7.8,0 -11.625,-9.075 -3.825,-9.075 -3.825,-24.525 0,-13.2 1.875,-23.7 0.675001,-3.900004 1.875,-5.250004 1.275,-1.425 4.275,-1.425 4.950001,0 4.950001,4.275 0,0.45 -0.150001,1.650004 -2.25,13.5 -2.25,24.45 0,11.475 1.875,17.475 1.95,5.925 5.775001,5.925 3.899999,0 8.475,-5.4 4.574999,-5.4 8.399997,-13.575 -4.574998,-2.85 -6.899998,-7.35 -2.325,-4.575 -2.325,-10.5 0,-5.925 1.800001,-9.975 1.875,-4.125004 5.025,-6.150004 3.224997,-2.025 7.124997,-2.025 4.8,0 7.575,3.45 2.85,3.450004 2.85,9.450004 0,8.625 -3.75,18.825 3.975,0.675 9.075,0.675 z m -22.125,-14.775 q 0,7.35 4.725,10.875 2.925,-8.4 2.925,-13.875 0,-3.15 -0.825,-4.575 -0.825,-1.5 -2.25,-1.5 -2.025,0 -3.3,2.4 -1.275,2.325 -1.275,6.675 z"
           style="font-style:normal;font-variant:normal;font-weight:normal;font-stretch:normal;font-size:75px;font-family:Pacifico;-inkscape-font-specification:Pacifico;letter-spacing:1px;fill:#653400;fill-opacity:1;stroke:none;stroke-width:4;stroke-miterlimit:4;stroke-dasharray:none;stroke-opacity:1"
           id="path5007"
           inkscape:connector-curvature="0" />
        <path
           d="m 127.1582,158.43616 q -3.375,0 -5.55,-3.075 -2.1,-3.15 -2.1,-7.8 0,-5.625 0.75,-10.275 0.75,-4.725 2.475,-9.975 0.75,-2.25 2.1,-3.225 1.35,-0.975 4.275,-0.975 1.65,0 2.25,0.525 0.675,0.525 0.675,1.575 0,0.6 -0.825,4.05 -0.75,2.775 -1.2,5.025 -1.5,7.875 -1.5,10.5 0,1.575 0.375,2.25 0.375,0.6 1.2,0.6 1.125,0 2.775,-2.25 1.725,-2.25 3.6,-6.825 1.95,-4.575 3.75,-11.25 0.6,-2.25 1.8,-3.225 1.275,-0.975 3.75,-0.975 1.725,0 2.4,0.45 0.675,0.375 0.675,1.5 0,1.875 -1.875,10.275 -2.1,9.6 -2.1,11.85 0,1.425 0.6,2.25 0.6,0.75 1.575,0.75 1.5,0 3.525,-1.8 2.1,-1.875 5.55,-6 0.9,-1.05 2.025,-1.05 0.975,0 1.5,0.9 0.6,0.9 0.6,2.475 0,3 -1.425,4.65 -3.225,3.975 -6.975,6.525 -3.675,2.55 -8.4,2.55 -3.6,0 -5.325,-2.775 -1.65,-2.775 -1.65,-7.8 -1.275,5.1 -3.825,7.875 -2.55,2.7 -5.475,2.7 z"
           style="font-style:normal;font-variant:normal;font-weight:normal;font-stretch:normal;font-size:75px;font-family:Pacifico;-inkscape-font-specification:Pacifico;letter-spacing:1px;fill:#653400;fill-opacity:1;stroke:none;stroke-width:4;stroke-miterlimit:4;stroke-dasharray:none;stroke-opacity:1"
           id="path5009"
           inkscape:connector-curvature="0" />
        <path
           d="m 188.675,141.33616 q 0.975,0 1.5,0.9 0.6,0.9 0.6,2.475 0,3 -1.425,4.65 -2.775,3.375 -7.875,6.225 -5.025,2.85 -10.8,2.85 -7.875,0 -12.225,-4.275 -4.35,-4.275 -4.35,-11.7 0,-5.175 2.175,-9.6 2.175,-4.5 6,-7.125 3.9,-2.625 8.775,-2.625 4.35,0 6.975,2.625 2.625,2.55 2.625,6.975 0,5.175 -3.75,8.925 -3.675,3.675 -12.525,5.85 1.875,3.45 7.125,3.45 3.375,0 7.65,-2.325 4.35,-2.4 7.5,-6.225 0.9,-1.05 2.025,-1.05 z m -18.9,-10.875 q -2.775,0 -4.725,3.225 -1.875,3.225 -1.875,7.8 l 0,0.15 q 4.425,-1.05 6.975,-3.15 2.55,-2.1 2.55,-4.875 0,-1.425 -0.825,-2.25 -0.75,-0.9 -2.1,-0.9 z"
           style="font-style:normal;font-variant:normal;font-weight:normal;font-stretch:normal;font-size:75px;font-family:Pacifico;-inkscape-font-specification:Pacifico;letter-spacing:1px;fill:#653400;fill-opacity:1;stroke:none;stroke-width:4;stroke-miterlimit:4;stroke-dasharray:none;stroke-opacity:1"
           id="path5011"
           inkscape:connector-curvature="0" />
        <path
           d="m 205.16836,158.43616 q -4.35,0 -9.825,-0.75 -3,-0.375 -4.125,-1.575 -1.125,-1.2 -0.975,-3.9 0.525,-7.425 2.475,-18.3 1.95,-10.95 4.725,-21.075 0.525,-1.875 2.1,-2.625 1.575,-0.75 4.125,-0.75 4.575,0 4.575,2.55 0,1.05 -0.45,2.4 -1.95,6 -3.9,16.125 -1.95,10.05 -2.775,19.2 2.25,0.225 5.1,0.225 13.125,0 19.575,-7.95 6.525,-7.95 6.525,-21.225 0,-8.925 -5.1,-13.8 -5.1,-4.875 -14.4,-4.875 -6,0 -11.925,1.875 -5.85,1.875 -10.575,4.95 -0.975,0.675 -2.1,0.675 -1.275,0 -2.025,-1.05 -0.75,-1.125 -0.75,-2.7 0,-1.8 0.6,-2.925 0.6,-1.2 2.025,-2.175 5.175,-3.525004 12.15,-5.325004 6.975,-1.875 13.425,-1.875 9.15,0 15.825,3.225 6.675,3.15 10.275,9.300004 3.6,6.15 3.6,14.85 0,11.325 -4.5,19.8 -4.5,8.4 -13.125,13.05 -8.625,4.65 -20.55,4.65 z"
           style="font-style:normal;font-variant:normal;font-weight:normal;font-stretch:normal;font-size:75px;font-family:Pacifico;-inkscape-font-specification:Pacifico;letter-spacing:1px;fill:#653400;fill-opacity:1;stroke:none;stroke-width:4;stroke-miterlimit:4;stroke-dasharray:none;stroke-opacity:1"
           id="path5013"
           inkscape:connector-curvature="0" />
        <path
           d="m 287.61367,135.03616 q 0.975,0 1.5,0.975 0.525,0.975 0.525,2.475 0,3.6 -2.175,4.275 -4.5,1.575 -9.9,1.8 -1.425,6.3 -5.625,10.125 -4.2,3.75 -9.525,3.75 -4.5,0 -7.725,-2.175 -3.15,-2.175 -4.8,-5.775 -1.65,-3.6 -1.65,-7.8 0,-5.7 2.175,-10.125 2.175,-4.5 6,-6.975 3.825,-2.55 8.475,-2.55 5.7,0 9.15,3.975 3.525,3.9 4.125,9.675 3.525,-0.225 8.4,-1.5 0.6,-0.15 1.05,-0.15 z m -24.6,15.45 q 2.4,0 4.125,-1.95 1.8,-1.95 2.4,-5.625 -2.325,-1.575 -3.6,-4.125 -1.2,-2.55 -1.2,-5.4 0,-1.2 0.225,-2.4 l -0.375,0 q -3,0 -5.025,2.925 -1.95,2.85 -1.95,8.1 0,4.125 1.575,6.3 1.65,2.175 3.825,2.175 z"
           style="font-style:normal;font-variant:normal;font-weight:normal;font-stretch:normal;font-size:75px;font-family:Pacifico;-inkscape-font-specification:Pacifico;letter-spacing:1px;fill:#653400;fill-opacity:1;stroke:none;stroke-width:4;stroke-miterlimit:4;stroke-dasharray:none;stroke-opacity:1"
           id="path5015"
           inkscape:connector-curvature="0" />
        <path
           d="m 289.52656,158.43616 q -2.85,0 -4.05,-3 -1.125,-3 -1.125,-9.6 0,-9.75 2.775,-18.525 0.675,-2.175 2.175,-3.15 1.575,-1.05 4.35,-1.05 1.5,0 2.1,0.375 0.6,0.375 0.6,1.425 0,1.2 -1.125,5.4 -0.75,3 -1.2,5.25 -0.45,2.25 -0.75,5.55 2.475,-6.45 5.55,-10.5 3.075,-4.05 6,-5.775 3,-1.725 5.475,-1.725 4.875,0 4.875,4.875 0,2.925 -1.65,10.575 -1.425,6.525 -1.425,8.625 0,3 2.175,3 1.5,0 3.525,-1.8 2.1,-1.875 5.55,-6 0.9,-1.05 2.025,-1.05 0.975,0 1.5,0.9 0.6,0.9 0.6,2.475 0,3 -1.425,4.65 -3.225,3.975 -6.975,6.525 -3.675,2.55 -8.4,2.55 -3.825,0 -5.775,-2.175 -1.95,-2.25 -1.95,-6.45 0,-2.1 1.05,-7.5 0.975,-4.725 0.975,-6.525 0,-1.2 -0.825,-1.2 -0.975,0 -2.775,2.55 -1.725,2.475 -3.6,6.6 -1.8,4.125 -2.925,8.7 -0.825,3.525 -1.95,4.8 -1.05,1.2 -3.375,1.2 z"
           style="font-style:normal;font-variant:normal;font-weight:normal;font-stretch:normal;font-size:75px;font-family:Pacifico;-inkscape-font-specification:Pacifico;letter-spacing:1px;fill:#653400;fill-opacity:1;stroke:none;stroke-width:4;stroke-miterlimit:4;stroke-dasharray:none;stroke-opacity:1"
           id="path5017"
           inkscape:connector-curvature="0" />
        <path
           d="m 330.05859,158.43616 q -3.375,0 -5.55,-3.075 -2.1,-3.15 -2.1,-7.8 0,-5.625 0.75,-10.275 0.75,-4.725 2.475,-9.975 0.75,-2.25 2.1,-3.225 1.35,-0.975 4.275,-0.975 1.65,0 2.25,0.525 0.675,0.525 0.675,1.575 0,0.6 -0.825,4.05 -0.75,2.775 -1.2,5.025 -1.5,7.875 -1.5,10.5 0,1.575 0.375,2.25 0.375,0.6 1.2,0.6 1.125,0 2.775,-2.25 1.725,-2.25 3.6,-6.825 1.95,-4.575 3.75,-11.25 0.6,-2.25 1.8,-3.225 1.275,-0.975 3.75,-0.975 1.725,0 2.4,0.45 0.675,0.375 0.675,1.5 0,1.875 -1.875,10.275 -2.1,9.6 -2.1,11.85 0,1.425 0.6,2.25 0.6,0.75 1.575,0.75 1.5,0 3.525,-1.8 2.1,-1.875 5.55,-6 0.9,-1.05 2.025,-1.05 0.975,0 1.5,0.9 0.6,0.9 0.6,2.475 0,3 -1.425,4.65 -3.225,3.975 -6.975,6.525 -3.675,2.55 -8.4,2.55 -3.6,0 -5.325,-2.775 -1.65,-2.775 -1.65,-7.8 -1.275,5.1 -3.825,7.875 -2.55,2.7 -5.475,2.7 z"
           style="font-style:normal;font-variant:normal;font-weight:normal;font-stretch:normal;font-size:75px;font-family:Pacifico;-inkscape-font-specification:Pacifico;letter-spacing:1px;fill:#653400;fill-opacity:1;stroke:none;stroke-width:4;stroke-miterlimit:4;stroke-dasharray:none;stroke-opacity:1"
           id="path5019"
           inkscape:connector-curvature="0" />
        <path
           d="m 391.57539,141.33616 q 0.975,0 1.5,0.9 0.6,0.9 0.6,2.475 0,3 -1.425,4.65 -3.225,3.975 -7.05,6.525 -3.825,2.55 -8.775,2.55 -15.3,0 -15.3,-21.525 0,-3.3 0.225,-6.675 l -2.925,0 q -2.25,0 -3.075,-0.825 -0.75,-0.825 -0.75,-2.625 0,-4.2 3.375,-4.2 l 4.275,0 q 1.275,-8.25 3.9,-15.075 2.625,-6.825 6.3,-10.875004 3.75,-4.05 8.025,-4.05 3.15,0 4.95,2.775 1.8,2.775 1.8,6.975004 0,11.625 -9.75,20.25 l 8.4,0 q 1.2,0 1.725,0.525 0.525,0.525 0.525,1.95 0,5.175 -8.475,5.175 l -9.15,0 q -0.15,3.75 -0.15,5.85 0,7.8 1.8,10.95 1.875,3.15 5.85,3.15 3.225,0 5.7,-1.95 2.475,-1.95 5.85,-5.85 0.9,-1.05 2.025,-1.05 z m -13.125,-41.550004 q -1.125,0 -2.55,2.850004 -1.35,2.775 -2.625,7.8 -1.2,4.95 -2.025,11.025 4.425,-3.825 6.6,-8.55 2.25,-4.8 2.25,-8.7 0,-4.425004 -1.65,-4.425004 z"
           style="font-style:normal;font-variant:normal;font-weight:normal;font-stretch:normal;font-size:75px;font-family:Pacifico;-inkscape-font-specification:Pacifico;letter-spacing:1px;fill:#653400;fill-opacity:1;stroke:none;stroke-width:4;stroke-miterlimit:4;stroke-dasharray:none;stroke-opacity:1"
           id="path5021"
           inkscape:connector-curvature="0" />
        <path
           d="m 402.51875,160.08616 q -3.9,0 -6,-1.8 -2.025,-1.8 -2.025,-4.05 0,-1.95 1.425,-3.375 1.425,-1.425 4.2,-1.425 0.975,0 2.25,0.225 1.35,0.15 2.025,0.225 -0.075,-1.95 -0.9,-3.675 -0.75,-1.725 -1.95,-3.3 -1.2,-1.65 -2.25,-2.85 -2.325,4.425 -4.65,7.35 -2.25,2.925 -4.95,5.55 -1.35,1.35 -2.85,1.35 -1.2,0 -1.95,-0.825 -0.75,-0.9 -0.75,-2.175 0,-1.5 1.05,-2.775 l 0.975,-1.2 q 4.125,-5.1 6.225,-8.4 1.35,-2.175 2.7,-5.175 1.425,-3 3.675,-8.175 1.425,-3.3 5.925,-3.3 2.1,0 2.925,0.375 0.825,0.375 0.825,1.2 0,0.45 -0.3,1.425 -0.3,0.975 -0.825,1.95 -1.35,2.7 -1.35,4.575 0,1.125 0.75,2.475 0.825,1.35 2.475,3.375 2.4,3.15 3.6,5.4 1.275,2.175 1.275,4.8 0,3.15 -1.5,6 -1.425,2.775 -4.05,4.5 -2.625,1.725 -6,1.725 z"
           style="font-style:normal;font-variant:normal;font-weight:normal;font-stretch:normal;font-size:75px;font-family:Pacifico;-inkscape-font-specification:Pacifico;letter-spacing:1px;fill:#653400;fill-opacity:1;stroke:none;stroke-width:4;stroke-miterlimit:4;stroke-dasharray:none;stroke-opacity:1"
           id="path5023"
           inkscape:connector-curvature="0" />
      </g>
    </g>
  </g>
  <g
     inkscape:groupmode="layer"
     id="layer4"
     inkscape:label="group text 2"
     style="display:inline">
    <g
       id="g5607">
      <g
         transform="translate(91.672268,-56.299612)"
         style="font-style:normal;font-weight:normal;font-size:98.80249023px;line-height:125%;font-family:sans-serif;letter-spacing:4.94012451px;word-spacing:0px;display:inline;fill:#000000;fill-opacity:1;stroke:#ffffff;stroke-width:13.10000038;stroke-linecap:butt;stroke-linejoin:miter;stroke-miterlimit:4;stroke-dasharray:none;stroke-opacity:1"
         id="flowRoot4150-9">
        <path
           d="m 114.25781,144.41116 q 1.125,-0.45 1.875,-0.45 1.2,0 1.8,0.9 0.6,0.9 0.6,2.325 0,2.25 -1.125,3.825 -1.05,1.575 -3.675,2.85 -4.425,2.1 -11.475,3.375 -7.049997,1.2 -13.874998,1.2 -9.45,0 -15.825,-2.1 -6.375,-2.175 -9.525,-5.925 -3.074999,-3.75 -3.074999,-8.475 0,-6.45 4.125,-10.95 4.2,-4.575 12.299999,-6.6 -4.424999,-1.275 -6.825,-4.5 -2.325,-3.225 -2.325,-7.2 0,-5.4 3.375,-9.525 3.45,-4.200004 9.225001,-6.450004 5.774999,-2.25 12.674999,-2.25 9.299998,0 13.949998,4.05 4.65,3.975004 4.65,10.350004 0,4.425 -1.65,7.2 -1.575,2.7 -4.575,2.7 -2.1,0 -3.3,-0.9 -1.2,-0.975 -1.2,-2.85 0,-1.275 0.375,-2.775 0.375,-2.475 0.375,-3.375 0,-2.7 -2.024998,-4.35 -2.024999,-1.725 -6.75,-1.725 -6.375,0 -10.199999,2.7 -3.825,2.7 -3.825,7.275 0,3.525 2.849999,5.85 2.925,2.25 9.45,2.475 1.650001,0.075 2.325001,0.75 0.674999,0.675 0.674999,2.25 0,4.95 -4.5,5.025 -6.224999,0.15 -10.349999,1.725 -4.050001,1.575 -5.925001,4.05 -1.8,2.4 -1.8,5.175 0,4.65 4.350001,7.05 4.349999,2.325 13.8,2.325 6.224999,0 13.124997,-1.425 6.975,-1.5 11.925,-3.6 z"
           style="font-style:normal;font-variant:normal;font-weight:normal;font-stretch:normal;font-size:75px;font-family:Pacifico;-inkscape-font-specification:Pacifico;letter-spacing:1px;fill:#000000;fill-opacity:1;stroke:#ffffff;stroke-width:13.10000038;stroke-miterlimit:4;stroke-dasharray:none;stroke-opacity:1"
           id="path5618"
           inkscape:connector-curvature="0" />
        <path
           d="m 157.29883,141.33616 q 0.975,0 1.5,0.9 0.6,0.9 0.6,2.475 0,3 -1.425,4.65 -3.3,3.9 -7.275,6.525 -3.9,2.55 -8.85,2.55 -3.825,0 -6.825,-1.425 -2.925,-1.425 -4.65,-4.05 -4.275,5.4 -10.125,5.4 -4.125,0 -6.525,-2.4 -2.4,-2.4 -2.4,-6.375 0,-3.75 1.725,-6.075 1.725,-2.325 4.875,-2.325 2.7,0 2.7,2.025 0,0.525 -0.15,1.875 -0.225,2.7 -0.225,3.075 0,2.25 1.95,2.25 1.425,0 2.7,-1.65 1.35,-1.725 2.175,-4.65 0.9,-2.925 0.9,-6.45 0,-2.7 -0.675,-4.5 -0.675,-1.875 -1.65,-1.875 -0.825,0 -1.2,0.45 -0.375,0.375 -0.75,1.35 -0.45,1.2 -1.2,1.95 -0.75,0.675 -2.625,0.675 -1.65,0 -2.625,-1.125 -0.975,-1.2 -0.975,-3.6 0,-3.825 2.325,-6 2.325,-2.175 6,-2.175 3.15,0 5.7,1.575 2.55,1.5 3.9,4.425 2.25,-3 5.025,-4.5 2.85,-1.5 5.55,-1.5 2.925,0 4.425,1.35 1.575,1.35 1.575,4.35 0,3.375 -1.275,5.325 -1.275,1.875 -3.075,1.875 -1.65,0 -2.25,-0.675 -0.6,-0.675 -0.9,-1.95 -0.15,-0.9 -0.45,-1.35 -0.3,-0.45 -1.05,-0.45 -0.9,0 -1.95,1.725 -0.975,1.65 -1.725,4.425 -0.675,2.775 -0.675,5.775 0,3.525 1.65,5.475 1.725,1.875 4.65,1.875 2.925,0 5.475,-1.95 2.625,-2.025 6.075,-6.225 0.9,-1.05 2.025,-1.05 z"
           style="font-style:normal;font-variant:normal;font-weight:normal;font-stretch:normal;font-size:75px;font-family:Pacifico;-inkscape-font-specification:Pacifico;letter-spacing:1px;fill:#000000;fill-opacity:1;stroke:#ffffff;stroke-width:13.10000038;stroke-miterlimit:4;stroke-dasharray:none;stroke-opacity:1"
           id="path5620"
           inkscape:connector-curvature="0" />
        <path
           d="m 162.83867,158.43616 q -4.65,0 -7.425,-3.375 -2.775,-3.375 -2.775,-8.85 0,-6 2.775,-11.325 2.775,-5.4 7.35,-8.625 4.65,-3.3 9.825,-3.3 1.65,0 2.175,0.675 0.6,0.6 0.975,2.25 1.575,-0.3 3.3,-0.3 3.675,0 3.675,2.625 0,1.575 -1.125,7.5 -1.725,8.625 -1.725,12 0,1.125 0.525,1.8 0.6,0.675 1.5,0.675 1.425,0 3.45,-1.8 2.025,-1.875 5.475,-6 0.9,-1.05 2.025,-1.05 0.975,0 1.5,0.9 0.6,0.9 0.6,2.475 0,3 -1.425,4.65 -3.075,3.825 -6.525,6.45 -3.45,2.625 -6.675,2.625 -2.475,0 -4.575,-1.65 -2.025,-1.725 -3.075,-4.65 -3.9,6.3 -9.825,6.3 z m 2.7,-7.575 q 1.65,0 3.15,-1.95 1.5,-1.95 2.175,-5.175 l 2.775,-13.8 q -3.15,0.075 -5.85,2.4 -2.625,2.25 -4.2,6 -1.575,3.75 -1.575,7.95 0,2.325 0.9,3.45 0.975,1.125 2.625,1.125 z"
           style="font-style:normal;font-variant:normal;font-weight:normal;font-stretch:normal;font-size:75px;font-family:Pacifico;-inkscape-font-specification:Pacifico;letter-spacing:1px;fill:#000000;fill-opacity:1;stroke:#ffffff;stroke-width:13.10000038;stroke-miterlimit:4;stroke-dasharray:none;stroke-opacity:1"
           id="path5622"
           inkscape:connector-curvature="0" />
        <path
           d="m 195.24141,158.43616 q -2.85,0 -4.05,-3 -1.125,-3 -1.125,-9.6 0,-9.75 2.775,-18.525 0.675,-2.175 2.175,-3.15 1.575,-1.05 4.35,-1.05 1.5,0 2.1,0.375 0.6,0.375 0.6,1.425 0,1.2 -1.125,5.4 -0.75,3 -1.2,5.25 -0.45,2.175 -0.75,5.475 2.025,-5.85 4.8,-9.9 2.85,-4.05 5.775,-6 3,-2.025 5.625,-2.025 2.625,0 3.675,1.2 1.125,1.2 1.125,3.675 0,2.4 -1.425,8.7 -0.6,2.7 -0.825,4.05 3.75,-9.225 8.325,-13.425 4.575,-4.2 8.55,-4.2 4.875,0 4.875,4.875 0,2.925 -1.65,10.575 -1.425,6.525 -1.425,8.625 0,3 2.175,3 1.5,0 3.525,-1.8 2.1,-1.875 5.55,-6 0.9,-1.05 2.025,-1.05 0.975,0 1.5,0.9 0.6,0.9 0.6,2.475 0,3 -1.425,4.65 -3.225,3.975 -6.975,6.525 -3.675,2.55 -8.4,2.55 -3.825,0 -5.775,-2.175 -1.95,-2.25 -1.95,-6.45 0,-2.1 1.05,-7.5 0.975,-4.725 0.975,-6.525 0,-1.2 -0.825,-1.2 -0.975,0 -2.775,2.55 -1.8,2.475 -3.6,6.6 -1.8,4.125 -2.925,8.7 -0.825,3.6 -1.95,4.8 -1.05,1.2 -3.45,1.2 -2.475,0 -3.75,-2.325 -1.2,-2.4 -1.2,-5.775 0,-2.85 0.75,-8.25 0.6,-4.8 0.6,-6.3 0,-1.2 -0.825,-1.2 -1.125,0 -2.85,2.7 -1.725,2.7 -3.375,6.9 -1.575,4.2 -2.55,8.25 -0.825,3.525 -1.95,4.8 -1.05,1.2 -3.375,1.2 z"
           style="font-style:normal;font-variant:normal;font-weight:normal;font-stretch:normal;font-size:75px;font-family:Pacifico;-inkscape-font-specification:Pacifico;letter-spacing:1px;fill:#000000;fill-opacity:1;stroke:#ffffff;stroke-width:13.10000038;stroke-miterlimit:4;stroke-dasharray:none;stroke-opacity:1"
           id="path5624"
           inkscape:connector-curvature="0" />
        <path
           d="m 286.77695,141.33616 q 0.975,0 1.5,0.9 0.6,0.9 0.6,2.475 0,3 -1.425,4.65 -3.225,3.975 -6.975,6.525 -3.675,2.55 -8.4,2.55 -3.975,0 -6.45,-2.85 -4.275,2.775 -8.925,2.85 -0.975,14.475 -4.425,24.15 -3.45,9.75 -10.125,9.75 -4.05,0 -6,-2.925 -1.95,-2.925 -1.95,-8.1 0,-7.35 3.375,-17.175 3.375,-9.75 10.425,-21.525 0,-10.95 -0.15,-15.225 -0.075,-2.175 1.725,-3.45 1.8,-1.275 4.5,-1.275 1.575,0 2.25,0.675 0.75,0.6 0.825,2.475 0,1.875 0.075,2.775 2.4,-3 4.725,-4.275 2.325,-1.35 4.95,-1.35 4.2,0 6.825,3.375 2.7,3.375 2.7,8.85 0,3.975 -1.275,7.725 -1.275,3.75 -3.525,6.825 1.575,0.45 2.625,0.45 2.475,0 4.725,-1.8 2.25,-1.8 5.775,-6 0.9,-1.05 2.025,-1.05 z m -29.7,9.9 q 2.7,-0.6 4.95,-2.925 2.325,-2.4 3.675,-5.85 1.35,-3.525 1.35,-7.35 0,-2.25 -0.9,-3.375 -0.9,-1.2 -2.4,-1.2 -2.7,0 -6.525,5.7 -0.075,3.3 -0.075,9.675 0,3.45 -0.075,5.325 z m -14.325,33.75 q 2.025,0 3.375,-8.85 1.35,-8.775 1.725,-21.9 -3.225,7.5 -5.1,14.325 -1.875,6.825 -1.875,11.475 0,2.4 0.6,3.675 0.525,1.275 1.275,1.275 z"
           style="font-style:normal;font-variant:normal;font-weight:normal;font-stretch:normal;font-size:75px;font-family:Pacifico;-inkscape-font-specification:Pacifico;letter-spacing:1px;fill:#000000;fill-opacity:1;stroke:#ffffff;stroke-width:13.10000038;stroke-miterlimit:4;stroke-dasharray:none;stroke-opacity:1"
           id="path5626"
           inkscape:connector-curvature="0" />
        <path
           d="m 312.18711,141.33616 q 0.975,0 1.5,0.9 0.6,0.9 0.6,2.475 0,3 -1.425,4.65 -3.225,3.975 -7.05,6.525 -3.75,2.55 -8.55,2.55 -6.6,0 -9.825,-6 -3.15,-6 -3.15,-15.525 0,-9.15 2.325,-20.85 2.4,-11.7 6.975,-20.100004 4.65,-8.4 11.025,-8.4 3.6,0 5.625,3.375 2.1,3.3 2.1,9.525004 0,8.925 -4.95,20.7 -4.95,11.775 -13.425,23.325 0.525,3.075 1.725,4.425 1.2,1.275 3.15,1.275 3.075,0 5.4,-1.725 2.325,-1.8 5.925,-6.075 0.9,-1.05 2.025,-1.05 z m -9.225,-46.350004 q -1.725,0 -3.9,6.225004 -2.175,6.225 -3.825,15.45 -1.65,9.225 -1.8,17.7 5.325,-8.775 8.475,-17.55 3.15,-8.85 3.15,-16.125 0,-5.700004 -2.1,-5.700004 z"
           style="font-style:normal;font-variant:normal;font-weight:normal;font-stretch:normal;font-size:75px;font-family:Pacifico;-inkscape-font-specification:Pacifico;letter-spacing:1px;fill:#000000;fill-opacity:1;stroke:#ffffff;stroke-width:13.10000038;stroke-miterlimit:4;stroke-dasharray:none;stroke-opacity:1"
           id="path5628"
           inkscape:connector-curvature="0" />
        <path
           d="m 336.075,143.58616 q 0.975,0 1.5,0.9 0.6,0.9 0.6,2.475 0,2.7 -1.275,4.65 -2.1,3.225 -5.55,5.025 -3.375,1.8 -8.1,1.8 -7.2,0 -11.175,-4.275 -3.975,-4.35 -3.975,-11.7 0,-5.175 2.175,-9.6 2.175,-4.5 6,-7.125 3.9,-2.625 8.775,-2.625 4.35,0 6.975,2.625 2.625,2.55 2.625,6.975 0,5.175 -3.75,8.925 -3.675,3.675 -12.6,5.85 1.8,3.45 6.075,3.45 3.075,0 5.025,-1.425 2.025,-1.425 4.65,-4.8 0.9,-1.125 2.025,-1.125 z m -12.3,-13.125 q -2.775,0 -4.725,3.225 -1.875,3.225 -1.875,7.8 l 0,0.15 q 4.425,-1.05 6.975,-3.15 2.55,-2.1 2.55,-4.875 0,-1.425 -0.825,-2.25 -0.75,-0.9 -2.1,-0.9 z"
           style="font-style:normal;font-variant:normal;font-weight:normal;font-stretch:normal;font-size:75px;font-family:Pacifico;-inkscape-font-specification:Pacifico;letter-spacing:1px;fill:#000000;fill-opacity:1;stroke:#ffffff;stroke-width:13.10000038;stroke-miterlimit:4;stroke-dasharray:none;stroke-opacity:1"
           id="path5630"
           inkscape:connector-curvature="0" />
      </g>
      <g
         transform="translate(91.672268,-56.299612)"
         style="font-style:normal;font-weight:normal;font-size:98.80249023px;line-height:125%;font-family:sans-serif;letter-spacing:4.94012451px;word-spacing:0px;display:inline;fill:#653400;fill-opacity:1;stroke:none;stroke-width:4;stroke-linecap:butt;stroke-linejoin:miter;stroke-miterlimit:4;stroke-dasharray:none;stroke-opacity:1"
         id="flowRoot4168-0">
        <path
           d="m 114.25781,144.41116 q 1.125,-0.45 1.875,-0.45 1.2,0 1.8,0.9 0.6,0.9 0.6,2.325 0,2.25 -1.125,3.825 -1.05,1.575 -3.675,2.85 -4.425,2.1 -11.475,3.375 -7.049997,1.2 -13.874998,1.2 -9.45,0 -15.825,-2.1 -6.375,-2.175 -9.525,-5.925 -3.074999,-3.75 -3.074999,-8.475 0,-6.45 4.125,-10.95 4.2,-4.575 12.299999,-6.6 -4.424999,-1.275 -6.825,-4.5 -2.325,-3.225 -2.325,-7.2 0,-5.4 3.375,-9.525 3.45,-4.200004 9.225001,-6.450004 5.774999,-2.25 12.674999,-2.25 9.299998,0 13.949998,4.05 4.65,3.975004 4.65,10.350004 0,4.425 -1.65,7.2 -1.575,2.7 -4.575,2.7 -2.1,0 -3.3,-0.9 -1.2,-0.975 -1.2,-2.85 0,-1.275 0.375,-2.775 0.375,-2.475 0.375,-3.375 0,-2.7 -2.024998,-4.35 -2.024999,-1.725 -6.75,-1.725 -6.375,0 -10.199999,2.7 -3.825,2.7 -3.825,7.275 0,3.525 2.849999,5.85 2.925,2.25 9.45,2.475 1.650001,0.075 2.325001,0.75 0.674999,0.675 0.674999,2.25 0,4.95 -4.5,5.025 -6.224999,0.15 -10.349999,1.725 -4.050001,1.575 -5.925001,4.05 -1.8,2.4 -1.8,5.175 0,4.65 4.350001,7.05 4.349999,2.325 13.8,2.325 6.224999,0 13.124997,-1.425 6.975,-1.5 11.925,-3.6 z"
           style="font-style:normal;font-variant:normal;font-weight:normal;font-stretch:normal;font-size:75px;font-family:Pacifico;-inkscape-font-specification:Pacifico;letter-spacing:1px;fill:#653400;fill-opacity:1;stroke:none;stroke-width:4;stroke-miterlimit:4;stroke-dasharray:none;stroke-opacity:1"
           id="path5633"
           inkscape:connector-curvature="0" />
        <path
           d="m 157.29883,141.33616 q 0.975,0 1.5,0.9 0.6,0.9 0.6,2.475 0,3 -1.425,4.65 -3.3,3.9 -7.275,6.525 -3.9,2.55 -8.85,2.55 -3.825,0 -6.825,-1.425 -2.925,-1.425 -4.65,-4.05 -4.275,5.4 -10.125,5.4 -4.125,0 -6.525,-2.4 -2.4,-2.4 -2.4,-6.375 0,-3.75 1.725,-6.075 1.725,-2.325 4.875,-2.325 2.7,0 2.7,2.025 0,0.525 -0.15,1.875 -0.225,2.7 -0.225,3.075 0,2.25 1.95,2.25 1.425,0 2.7,-1.65 1.35,-1.725 2.175,-4.65 0.9,-2.925 0.9,-6.45 0,-2.7 -0.675,-4.5 -0.675,-1.875 -1.65,-1.875 -0.825,0 -1.2,0.45 -0.375,0.375 -0.75,1.35 -0.45,1.2 -1.2,1.95 -0.75,0.675 -2.625,0.675 -1.65,0 -2.625,-1.125 -0.975,-1.2 -0.975,-3.6 0,-3.825 2.325,-6 2.325,-2.175 6,-2.175 3.15,0 5.7,1.575 2.55,1.5 3.9,4.425 2.25,-3 5.025,-4.5 2.85,-1.5 5.55,-1.5 2.925,0 4.425,1.35 1.575,1.35 1.575,4.35 0,3.375 -1.275,5.325 -1.275,1.875 -3.075,1.875 -1.65,0 -2.25,-0.675 -0.6,-0.675 -0.9,-1.95 -0.15,-0.9 -0.45,-1.35 -0.3,-0.45 -1.05,-0.45 -0.9,0 -1.95,1.725 -0.975,1.65 -1.725,4.425 -0.675,2.775 -0.675,5.775 0,3.525 1.65,5.475 1.725,1.875 4.65,1.875 2.925,0 5.475,-1.95 2.625,-2.025 6.075,-6.225 0.9,-1.05 2.025,-1.05 z"
           style="font-style:normal;font-variant:normal;font-weight:normal;font-stretch:normal;font-size:75px;font-family:Pacifico;-inkscape-font-specification:Pacifico;letter-spacing:1px;fill:#653400;fill-opacity:1;stroke:none;stroke-width:4;stroke-miterlimit:4;stroke-dasharray:none;stroke-opacity:1"
           id="path5635"
           inkscape:connector-curvature="0" />
        <path
           d="m 162.83867,158.43616 q -4.65,0 -7.425,-3.375 -2.775,-3.375 -2.775,-8.85 0,-6 2.775,-11.325 2.775,-5.4 7.35,-8.625 4.65,-3.3 9.825,-3.3 1.65,0 2.175,0.675 0.6,0.6 0.975,2.25 1.575,-0.3 3.3,-0.3 3.675,0 3.675,2.625 0,1.575 -1.125,7.5 -1.725,8.625 -1.725,12 0,1.125 0.525,1.8 0.6,0.675 1.5,0.675 1.425,0 3.45,-1.8 2.025,-1.875 5.475,-6 0.9,-1.05 2.025,-1.05 0.975,0 1.5,0.9 0.6,0.9 0.6,2.475 0,3 -1.425,4.65 -3.075,3.825 -6.525,6.45 -3.45,2.625 -6.675,2.625 -2.475,0 -4.575,-1.65 -2.025,-1.725 -3.075,-4.65 -3.9,6.3 -9.825,6.3 z m 2.7,-7.575 q 1.65,0 3.15,-1.95 1.5,-1.95 2.175,-5.175 l 2.775,-13.8 q -3.15,0.075 -5.85,2.4 -2.625,2.25 -4.2,6 -1.575,3.75 -1.575,7.95 0,2.325 0.9,3.45 0.975,1.125 2.625,1.125 z"
           style="font-style:normal;font-variant:normal;font-weight:normal;font-stretch:normal;font-size:75px;font-family:Pacifico;-inkscape-font-specification:Pacifico;letter-spacing:1px;fill:#653400;fill-opacity:1;stroke:none;stroke-width:4;stroke-miterlimit:4;stroke-dasharray:none;stroke-opacity:1"
           id="path5637"
           inkscape:connector-curvature="0" />
        <path
           d="m 195.24141,158.43616 q -2.85,0 -4.05,-3 -1.125,-3 -1.125,-9.6 0,-9.75 2.775,-18.525 0.675,-2.175 2.175,-3.15 1.575,-1.05 4.35,-1.05 1.5,0 2.1,0.375 0.6,0.375 0.6,1.425 0,1.2 -1.125,5.4 -0.75,3 -1.2,5.25 -0.45,2.175 -0.75,5.475 2.025,-5.85 4.8,-9.9 2.85,-4.05 5.775,-6 3,-2.025 5.625,-2.025 2.625,0 3.675,1.2 1.125,1.2 1.125,3.675 0,2.4 -1.425,8.7 -0.6,2.7 -0.825,4.05 3.75,-9.225 8.325,-13.425 4.575,-4.2 8.55,-4.2 4.875,0 4.875,4.875 0,2.925 -1.65,10.575 -1.425,6.525 -1.425,8.625 0,3 2.175,3 1.5,0 3.525,-1.8 2.1,-1.875 5.55,-6 0.9,-1.05 2.025,-1.05 0.975,0 1.5,0.9 0.6,0.9 0.6,2.475 0,3 -1.425,4.65 -3.225,3.975 -6.975,6.525 -3.675,2.55 -8.4,2.55 -3.825,0 -5.775,-2.175 -1.95,-2.25 -1.95,-6.45 0,-2.1 1.05,-7.5 0.975,-4.725 0.975,-6.525 0,-1.2 -0.825,-1.2 -0.975,0 -2.775,2.55 -1.8,2.475 -3.6,6.6 -1.8,4.125 -2.925,8.7 -0.825,3.6 -1.95,4.8 -1.05,1.2 -3.45,1.2 -2.475,0 -3.75,-2.325 -1.2,-2.4 -1.2,-5.775 0,-2.85 0.75,-8.25 0.6,-4.8 0.6,-6.3 0,-1.2 -0.825,-1.2 -1.125,0 -2.85,2.7 -1.725,2.7 -3.375,6.9 -1.575,4.2 -2.55,8.25 -0.825,3.525 -1.95,4.8 -1.05,1.2 -3.375,1.2 z"
           style="font-style:normal;font-variant:normal;font-weight:normal;font-stretch:normal;font-size:75px;font-family:Pacifico;-inkscape-font-specification:Pacifico;letter-spacing:1px;fill:#653400;fill-opacity:1;stroke:none;stroke-width:4;stroke-miterlimit:4;stroke-dasharray:none;stroke-opacity:1"
           id="path5639"
           inkscape:connector-curvature="0" />
        <path
           d="m 286.77695,141.33616 q 0.975,0 1.5,0.9 0.6,0.9 0.6,2.475 0,3 -1.425,4.65 -3.225,3.975 -6.975,6.525 -3.675,2.55 -8.4,2.55 -3.975,0 -6.45,-2.85 -4.275,2.775 -8.925,2.85 -0.975,14.475 -4.425,24.15 -3.45,9.75 -10.125,9.75 -4.05,0 -6,-2.925 -1.95,-2.925 -1.95,-8.1 0,-7.35 3.375,-17.175 3.375,-9.75 10.425,-21.525 0,-10.95 -0.15,-15.225 -0.075,-2.175 1.725,-3.45 1.8,-1.275 4.5,-1.275 1.575,0 2.25,0.675 0.75,0.6 0.825,2.475 0,1.875 0.075,2.775 2.4,-3 4.725,-4.275 2.325,-1.35 4.95,-1.35 4.2,0 6.825,3.375 2.7,3.375 2.7,8.85 0,3.975 -1.275,7.725 -1.275,3.75 -3.525,6.825 1.575,0.45 2.625,0.45 2.475,0 4.725,-1.8 2.25,-1.8 5.775,-6 0.9,-1.05 2.025,-1.05 z m -29.7,9.9 q 2.7,-0.6 4.95,-2.925 2.325,-2.4 3.675,-5.85 1.35,-3.525 1.35,-7.35 0,-2.25 -0.9,-3.375 -0.9,-1.2 -2.4,-1.2 -2.7,0 -6.525,5.7 -0.075,3.3 -0.075,9.675 0,3.45 -0.075,5.325 z m -14.325,33.75 q 2.025,0 3.375,-8.85 1.35,-8.775 1.725,-21.9 -3.225,7.5 -5.1,14.325 -1.875,6.825 -1.875,11.475 0,2.4 0.6,3.675 0.525,1.275 1.275,1.275 z"
           style="font-style:normal;font-variant:normal;font-weight:normal;font-stretch:normal;font-size:75px;font-family:Pacifico;-inkscape-font-specification:Pacifico;letter-spacing:1px;fill:#653400;fill-opacity:1;stroke:none;stroke-width:4;stroke-miterlimit:4;stroke-dasharray:none;stroke-opacity:1"
           id="path5641"
           inkscape:connector-curvature="0" />
        <path
           d="m 312.18711,141.33616 q 0.975,0 1.5,0.9 0.6,0.9 0.6,2.475 0,3 -1.425,4.65 -3.225,3.975 -7.05,6.525 -3.75,2.55 -8.55,2.55 -6.6,0 -9.825,-6 -3.15,-6 -3.15,-15.525 0,-9.15 2.325,-20.85 2.4,-11.7 6.975,-20.100004 4.65,-8.4 11.025,-8.4 3.6,0 5.625,3.375 2.1,3.3 2.1,9.525004 0,8.925 -4.95,20.7 -4.95,11.775 -13.425,23.325 0.525,3.075 1.725,4.425 1.2,1.275 3.15,1.275 3.075,0 5.4,-1.725 2.325,-1.8 5.925,-6.075 0.9,-1.05 2.025,-1.05 z m -9.225,-46.350004 q -1.725,0 -3.9,6.225004 -2.175,6.225 -3.825,15.45 -1.65,9.225 -1.8,17.7 5.325,-8.775 8.475,-17.55 3.15,-8.85 3.15,-16.125 0,-5.700004 -2.1,-5.700004 z"
           style="font-style:normal;font-variant:normal;font-weight:normal;font-stretch:normal;font-size:75px;font-family:Pacifico;-inkscape-font-specification:Pacifico;letter-spacing:1px;fill:#653400;fill-opacity:1;stroke:none;stroke-width:4;stroke-miterlimit:4;stroke-dasharray:none;stroke-opacity:1"
           id="path5643"
           inkscape:connector-curvature="0" />
        <path
           d="m 336.075,143.58616 q 0.975,0 1.5,0.9 0.6,0.9 0.6,2.475 0,2.7 -1.275,4.65 -2.1,3.225 -5.55,5.025 -3.375,1.8 -8.1,1.8 -7.2,0 -11.175,-4.275 -3.975,-4.35 -3.975,-11.7 0,-5.175 2.175,-9.6 2.175,-4.5 6,-7.125 3.9,-2.625 8.775,-2.625 4.35,0 6.975,2.625 2.625,2.55 2.625,6.975 0,5.175 -3.75,8.925 -3.675,3.675 -12.6,5.85 1.8,3.45 6.075,3.45 3.075,0 5.025,-1.425 2.025,-1.425 4.65,-4.8 0.9,-1.125 2.025,-1.125 z m -12.3,-13.125 q -2.775,0 -4.725,3.225 -1.875,3.225 -1.875,7.8 l 0,0.15 q 4.425,-1.05 6.975,-3.15 2.55,-2.1 2.55,-4.875 0,-1.425 -0.825,-2.25 -0.75,-0.9 -2.1,-0.9 z"
           style="font-style:normal;font-variant:normal;font-weight:normal;font-stretch:normal;font-size:75px;font-family:Pacifico;-inkscape-font-specification:Pacifico;letter-spacing:1px;fill:#653400;fill-opacity:1;stroke:none;stroke-width:4;stroke-miterlimit:4;stroke-dasharray:none;stroke-opacity:1"
           id="path5645"
           inkscape:connector-curvature="0" />
      </g>
    </g>
  </g>
  <g
     transform="translate(60.214172,21.702328)"
     style="display:inline"
     inkscape:label="donut"
     id="g5025"
     inkscape:groupmode="layer">
    <g
       style="display:inline;fill:#653400;fill-opacity:1;stroke:none;stroke-width:3;stroke-miterlimit:4;stroke-dasharray:none;stroke-opacity:1"
       id="g5029"
       transform="matrix(1.3769626,0,0,1.3769626,-58.310779,-1331.7131)">
      <path
         inkscape:connector-curvature="0"
         id="path5031"
         overflow="visible"
         display="inline"
         visibility="visible"
         d="m 50,957.36215 c 24.829,0 45,20.17101 45,45.00005 0,24.829 -20.171,45 -45,45 -24.829,0 -45.0000001,-20.171 -45.0000001,-45 C 4.9999999,977.53316 25.171,957.36215 50,957.36215 Z m 0,4 c -22.6672,0 -41.0000001,18.33279 -41.0000001,41.00005 0,7.4577 1.9983001,14.4479 5.4688001,20.4687 3.4443,-2.1447 7.6865,-3.4372 11.1562,-2.375 4.1494,1.3664 5.8833,4.5725 7.125,6.6875 0.6208,1.0575 1.1631,1.8403 1.75,2.3125 0.5813,0.4678 1.2114,0.7807 2.5938,0.7813 1.3357,0.1035 2.3415,-0.5287 3.0312,-1.25 0.7017,-0.7471 1.2901,-1.9467 1.9062,-3.3125 0.6164,-1.3658 1.2578,-2.8871 2.5,-4.2188 1.2423,-1.3316 3.2329,-2.2478 5.5938,-2.0937 2.9166,0.4511 5.0498,1.9477 6.25,3.75 1.1353,1.7702 1.4952,3.672 1.8125,5.2812 0.3173,1.6093 0.6117,2.9245 1.0937,3.6563 0.4703,0.7137 0.9979,1.1408 2.75,1.2812 1.4498,-0.065 1.9498,-0.4343 2.5,-1.2187 0.5669,-0.8079 1.0096,-2.2025 1.5,-3.8125 0.4905,-1.61 1.0142,-3.4643 2.3126,-5.0625 2.0061,-2.202 4.1793,-2.718 6.3124,-2.7813 3.9098,0.051 7.3635,2.1882 9,5.3125 C 88.2771,1019.1321 91,1011.0734 91,1002.3622 91,979.69494 72.6672,961.36215 50,961.36215 Z m 13.7188,7 c 0.5118,0 1.0156,0.172 1.4062,0.5625 0.781,0.7811 0.781,2.06275 0,2.84375 l -4.25,4.25 c -0.781,0.781 -2.0314,0.781 -2.8125,0 -0.7811,-0.7811 -0.7811,-2.06265 0,-2.84375 l 4.2187,-4.25 c 0.3907,-0.3905 0.9256,-0.5625 1.4376,-0.5625 z m -31.5938,4.25 c 0.6404,0.045 1.2485,0.4021 1.5938,1 l 3,5.1875 c 0.5522,0.9566 0.2378,2.1977 -0.7188,2.75 -0.9567,0.5523 -2.1663,0.2066 -2.7188,-0.75 l -3,-5.1875 c -0.5522,-0.9567 -0.2379,-2.1977 0.7188,-2.75 0.3587,-0.2071 0.7407,-0.2771 1.125,-0.25 z m 23.5312,7.03125 c 0.258,0.032 0.511,0.14325 0.75,0.28125 l 5.1876,3 c 0.9564,0.5523 1.3022,1.76215 0.75,2.71875 -0.5523,0.9566 -1.7936,1.27105 -2.75,0.71875 l -5.1876,-3 c -0.9564,-0.5523 -1.3022,-1.76215 -0.75,-2.71875 0.4143,-0.7175 1.2266,-1.096 2,-1 z m 21.2188,4.84375 c 0.5118,0 1.0158,0.20325 1.4062,0.59375 l 4.25,4.25 c 0.7812,0.7811 0.7812,2.0315 0,2.8125 -0.7811,0.7811 -2.0315,0.7811 -2.8124,0 l -4.25,-4.25 c -0.781,-0.7811 -0.781,-2.0315 0,-2.8125 0.3904,-0.3905 0.8944,-0.59375 1.4062,-0.59375 z m -40.0213,1.625 c 0.2578,0.032 0.5109,0.14325 0.75,0.28125 0.9566,0.5523 1.271,1.76205 0.7188,2.71875 l -3,5.1875 c -0.5523,0.9566 -1.7622,1.3023 -2.7188,0.75 -0.9566,-0.5523 -1.3023,-1.7934 -0.75,-2.75 l 3,-5.1875 c 0.4142,-0.7175 1.2265,-1.096 2,-1 z M 19,987.1434 c 0.6404,0.045 1.2485,0.4021 1.5938,1 l 3,5.1875 c 0.5522,0.9566 0.2378,2.1977 -0.7188,2.75 -0.9566,0.5523 -2.1977,0.2066 -2.75,-0.75 l -3,-5.1875 c -0.5523,-0.9567 -0.2066,-2.16645 0.75,-2.71875 0.3587,-0.2071 0.7407,-0.30845 1.125,-0.28125 z m 31,1.21875 c 7.7083,0 14,6.29171 14,14.00005 0,7.7083 -6.2917,14 -14,14 -7.7082,0 -14,-6.2917 -14,-14 0,-7.70836 6.2918,-14.00005 14,-14.00005 z m 0,4 c -5.5464,0 -10,4.45351 -10,10.00005 0,5.5465 4.4536,10 10,10 5.5465,0 10,-4.4535 10,-10 0,-5.54656 -4.4535,-10.00005 -10,-10.00005 z m 22.75,2.59375 c 0.5118,0 1.0158,0.172 1.4062,0.5625 0.7812,0.7811 0.7812,2.06275 0,2.84375 l -4.25,4.25005 c -0.7811,0.7811 -2.0315,0.7811 -2.8124,0 -0.7812,-0.7812 -0.7812,-2.0628 0,-2.8438 l 4.2187,-4.25 c 0.3906,-0.3905 0.9256,-0.5625 1.4375,-0.5625 z m -50.1562,9.625 c 2.0477,0.4301 4.1379,1.0711 6.1874,1.625 1.0672,0.2859 1.7233,1.3705 1.4376,2.4375 -0.2861,1.067 -1.4018,1.6922 -2.4688,1.4063 l -5.7812,-1.5313 c -1.0672,-0.2859 -1.6922,-1.4017 -1.4063,-2.4687 0.2502,-0.9335 1.1026,-1.5246 2.0313,-1.4688 z M 76,1006.9559 c 0.6404,0.045 1.2485,0.4021 1.5938,1 l 3,5.1875 c 0.5522,0.9566 0.2378,2.1665 -0.7188,2.7188 -0.9566,0.5523 -2.1977,0.2378 -2.75,-0.7188 l -3,-5.1875 c -0.5523,-0.9566 -0.2066,-2.1977 0.75,-2.75 0.3587,-0.2071 0.7407,-0.2772 1.125,-0.25 z m -26.2812,16.4063 c -1.2353,-0.049 -1.7296,0.2211 -2.2813,0.8125 -0.5817,0.6235 -1.1251,1.7716 -1.75,3.1562 -0.6249,1.3847 -1.3476,3.0131 -2.6563,4.4063 -2.0009,1.9935 -3.9146,2.415 -5.875,2.5 -2.1271,0.01 -3.8874,-0.6354 -5.1562,-1.6563 -1.2688,-1.0208 -2.024,-2.276 -2.6875,-3.4062 -1.3199,-2.2483 -2.1482,-3.9824 -4.9063,-4.9063 -1.385,-0.4405 -3.4208,-0.6169 -7.7812,1.9375 7.433,10.3894 19.6077,17.1563 33.375,17.1563 12.209,0 23.1496,-5.3315 30.6562,-13.7813 -0.1208,-2.8604 -2.552,-5.0529 -6,-5.125 -1.2627,0.09 -2.5073,0.4917 -3.1874,1.3125 -0.6441,0.793 -1.1488,2.1243 -1.625,3.6875 -0.4763,1.5633 -0.9329,3.3588 -2.0626,4.9688 -1.1293,1.61 -3.1439,2.8597 -5.7187,2.9375 -2.5573,-0.047 -4.9504,-1.388 -6.125,-3.0938 -1.1051,-1.6771 -1.3735,-3.5011 -1.6875,-5.0937 -0.314,-1.5926 -0.657,-2.9817 -1.25,-3.9063 -0.5842,-0.9108 -1.3274,-1.5353 -3.2812,-1.9062 z"
         style="color:#000000;text-indent:0;text-transform:none;direction:ltr;block-progression:tb;baseline-shift:baseline;display:inline;overflow:visible;visibility:visible;fill:#653400;fill-opacity:1;stroke:none;stroke-width:3;stroke-miterlimit:4;stroke-dasharray:none;stroke-opacity:1;marker:none;enable-background:accumulate" />
    </g>
    <path
       inkscape:connector-curvature="0"
       id="path5059"
       d="m 25.572145,90.805215 c -1.985263,-0.533924 -2.601881,-1.582511 -3.60117,-6.123884 -0.827995,-3.762994 -1.173103,-4.899931 -1.968203,-6.484354 -1.563747,-3.1161 -4.544031,-5.330152 -8.299476,-6.165655 -3.1025589,-0.690255 -6.3121349,0.318963 -8.6735149,2.727298 -1.141351,1.164041 -1.573841,1.857614 -3.19383804,5.121982 -2.37441996,4.784522 -2.98084796,5.616169 -4.69625396,6.440398 -0.97332,0.46767 -3.23421,0.548099 -4.526173,0.161015 -1.2006431,-0.359719 -2.4078121,-1.688204 -4.1466821,-4.563386 -1.901351,-3.143852 -3.411975,-4.968787 -5.278241,-6.376488 -4.725722,-3.564537 -10.615983,-3.602617 -17.412684,-0.112567 -1.065025,0.546878 -1.991845,1.021513 -2.059592,1.05474 -0.211005,0.103479 -2.595739,-4.721149 -3.611718,-7.306966 -1.834554,-4.669235 -3.152679,-10.139571 -3.665915,-15.213918 -0.317968,-3.143772 -0.139789,-10.884477 0.315972,-13.72711 C -42.495137,23.083117 -32.888716,8.7750209 -18.263707,0.04906087 -5.4221119,-7.6128281 10.330725,-9.8182351 24.9132,-5.9957301 43.248884,-1.1893961 58.097259,12.75756 64.000549,30.718691 c 2.19015,6.663683 2.95011,11.918847 2.77267,19.173135 -0.0659,2.694944 -0.25584,5.566345 -0.4474,6.764099 -1.31702,8.234821 -4.129,15.750001 -8.27664,22.119739 l -1.12217,1.723373 -0.80275,-1.165556 c -2.454674,-3.564079 -7.060869,-5.928025 -11.535866,-5.920325 -3.448417,0.0059 -6.033324,1.019481 -8.259058,3.238389 -1.589813,1.58495 -2.47257,3.314968 -3.743947,7.33739 -1.620754,5.127754 -2.390614,6.406038 -4.145511,6.88319 -1.043463,0.283714 -1.613484,0.270416 -2.867732,-0.06691 z M 15.640114,67.174151 c 6.341519,-1.843124 11.277985,-6.562293 13.288474,-12.703554 0.675538,-2.063471 0.876492,-3.425568 0.878392,-5.953646 0.0028,-3.760032 -0.832594,-6.814495 -2.762338,-10.099885 -1.231115,-2.095974 -4.352483,-5.186316 -6.568401,-6.503122 -7.597501,-4.514793 -17.1041059,-3.382605 -23.3819129,2.784668 -4.379126,4.30201 -6.380239,9.772621 -5.773976,15.784808 0.843376,8.363518 6.947286,15.113194 15.370332,16.99644 2.034269,0.454827 6.9051919,0.288436 8.9494299,-0.305709 z m 35.648294,0.123031 c 1.038068,-0.442316 1.64043,-1.228884 1.761125,-2.299688 0.101303,-0.898755 -0.0047,-1.140885 -2.122398,-4.851893 -2.372161,-4.156752 -3.178144,-5.15102 -4.35445,-5.371697 -1.518382,-0.284849 -3.251788,1.210961 -3.251788,2.80607 0,0.530102 0.319987,1.319711 1.062894,2.622829 2.788005,4.890379 3.922461,6.678337 4.379128,6.901711 1.118405,0.547059 1.606396,0.584286 2.525489,0.192668 z m -69.46666,-8.339348 c 1.873095,-0.782636 2.074036,-3.959438 0.310133,-4.903446 -0.969836,-0.519044 -8.598829,-2.498988 -9.611598,-2.494491 -0.940741,0.0041 -1.628328,0.388966 -2.193392,1.227469 -0.795526,1.180474 -0.49097,2.976709 0.644584,3.801752 0.521896,0.379186 8.607793,2.622915 9.554041,2.65112 0.318464,0.0095 0.901773,-0.117592 1.296232,-0.282404 z m 55.421794,-9.569897 c 0.309107,-0.162667 2.083934,-1.831494 3.944062,-3.708502 3.50299,-3.534781 3.538956,-3.589277 3.40084,-5.15329 -0.155794,-1.76418 -2.456152,-2.837518 -4.125983,-1.925168 -1.109937,0.606441 -7.06249,6.964179 -7.228648,7.7207 -0.255302,1.162364 0.647572,2.810034 1.762044,3.215557 0.596927,0.217211 1.689079,0.14467 2.247685,-0.149297 z M -26.867754,39.90289 c 1.003007,-0.611535 1.547541,-1.594916 1.445026,-2.609552 -0.10341,-1.023281 -4.274794,-8.389763 -5.184127,-9.15492 -1.278812,-1.076044 -3.084754,-0.759974 -4.064779,0.711409 -0.854199,1.282472 -0.693549,1.855878 1.672899,5.970974 2.729883,4.747062 2.744218,4.767968 3.537623,5.159191 0.902613,0.445078 1.779683,0.419001 2.593358,-0.0771 z m 16.294122,-1.510842 c 0.503596,-0.339373 1.3455681,-1.591124 3.0448771,-4.526744 2.079792,-3.592916 2.349236,-4.170055 2.352541,-5.039012 0.0069,-1.799799 -1.742409,-3.143392 -3.482408,-2.67486 -0.444166,0.119603 -1.000735,0.429236 -1.236815,0.688079 -0.2360801,0.258841 -1.4475181,2.244222 -2.6920861,4.411956 -1.949737,3.395989 -2.260119,4.063746 -2.243196,4.826048 0.04888,2.202005 2.470436,3.518558 4.257087,2.314533 z m 65.291341,-3.484186 c 1.27829,-0.779382 1.78672,-2.15211 1.28543,-3.47059 -0.2422,-0.637033 -5.423728,-5.997106 -6.729843,-6.961737 -2.659638,-1.96428 -5.863163,1.241698 -3.893053,3.896034 0.897979,1.209852 6.066736,6.258185 6.786016,6.62791 0.848155,0.435974 1.73857,0.404 2.55145,-0.09162 z M 26.694618,26.425388 c 1.249139,-0.726265 1.608389,-2.54316 0.753639,-3.811529 -0.341914,-0.507354 -1.584774,-1.34437 -4.526751,-3.048584 -3.653385,-2.11632 -4.155866,-2.349215 -5.068517,-2.349236 -0.899335,-2.2e-5 -1.103814,0.09071 -1.821101,0.807995 -0.717673,0.71766 -0.807933,0.92131 -0.807245,1.821105 0.0013,1.68595 0.34683,2.015131 4.810157,4.582524 2.218934,1.276376 4.22174,2.366861 4.450674,2.423302 0.575157,0.141791 1.559424,-0.04782 2.209144,-0.425577 z M -8.5074029,19.756199 c 0.777901,-0.569425 1.291467,-1.679748 1.18449,-2.560845 -0.08579,-0.706386 -3.4897741,-6.896678 -4.6524951,-8.4606981 -1.259452,-1.69413 -3.624028,-1.676098 -4.66782,0.0356 -0.790019,1.2955381 -0.589037,1.9772741 1.816888,6.1629931 1.215142,2.114046 2.409258,4.066387 2.6536,4.33854 0.9784,1.089731 2.5539621,1.29796 3.6653371,0.484417 z M 25.338778,12.456685 c 0.446439,-0.328243 2.085121,-1.896995 3.641501,-3.4861131 3.122772,-3.188442 3.542429,-3.894167 3.131406,-5.266054 -0.446191,-1.489217 -2.001388,-2.37817 -3.504425,-2.003126 -0.645754,0.161134 -6.970666,6.285273 -7.468328,7.231274 -0.16262,0.309106 -0.295662,0.980931 -0.295662,1.4929451 0,2.257089 2.594101,3.429101 4.495508,2.031074 z"
       style="color:#000000;clip-rule:nonzero;display:inline;overflow:visible;visibility:visible;opacity:1;isolation:auto;mix-blend-mode:normal;color-interpolation:sRGB;color-interpolation-filters:linearRGB;solid-color:#000000;solid-opacity:1;fill:#f7aae3;fill-opacity:1;fill-rule:nonzero;stroke:none;stroke-width:15;stroke-linecap:butt;stroke-linejoin:miter;stroke-miterlimit:4;stroke-dasharray:none;stroke-dashoffset:0;stroke-opacity:1;color-rendering:auto;image-rendering:auto;shape-rendering:auto;text-rendering:auto;enable-background:accumulate" />
    <path
       style="color:#000000;clip-rule:nonzero;display:inline;overflow:visible;visibility:visible;opacity:1;isolation:auto;mix-blend-mode:normal;color-interpolation:sRGB;color-interpolation-filters:linearRGB;solid-color:#000000;solid-opacity:1;fill:#ffeeaa;fill-opacity:1;fill-rule:nonzero;stroke:none;stroke-width:15;stroke-linecap:butt;stroke-linejoin:miter;stroke-miterlimit:4;stroke-dasharray:none;stroke-dashoffset:0;stroke-opacity:1;color-rendering:auto;image-rendering:auto;shape-rendering:auto;text-rendering:auto;enable-background:accumulate"
       d="m 1.9770441,104.10868 c -8.885044,-1.4512 -17.5601831,-5.018544 -24.4116091,-10.038404 -4.39006,-3.216486 -12.445842,-11.386253 -12.445842,-12.621941 0,-0.555694 5.075966,-2.628365 6.95574,-2.840244 2.226535,-0.250962 4.975476,0.737636 6.512689,2.342143 0.617361,0.644379 2.288213,2.929832 3.713012,5.078786 2.301221,3.470816 2.866285,4.048097 5.05947,5.168861 2.093644,1.069895 2.9161721,1.256515 5.4112841,1.227755 5.460111,-0.0629 8.331725,-2.221127 11.55675,-8.685653 1.148112,-2.301337 2.475063,-4.605705 2.948807,-5.120818 1.757831,-1.91133 5.9729199,-0.773597 7.3844439,1.993203 0.439526,0.861549 1.168573,3.259149 1.620107,5.328004 1.224312,5.609596 2.708774,8.011294 5.996796,9.702184 4.053103,2.08433 8.485573,1.36293 11.742902,-1.9112 1.858335,-1.867921 2.275858,-2.642041 3.71689,-6.891208 1.799745,-5.306904 3.351513,-7.442114 5.490859,-7.555311 3.943456,-0.208658 6.767234,1.011693 8.268481,3.573402 0.569113,0.971115 1.03476,2.06452 1.03476,2.429788 0,1.326282 -6.475566,7.208859 -11.446938,10.398709 -5.912636,3.7938 -11.199043,6.026354 -18.106975,7.646944 -5.648397,1.3251 -15.4247899,1.68587 -21.0016269,0.775 z"
       id="path5061"
       inkscape:connector-curvature="0" />
  </g>
</svg>
