<?xml version="1.0" encoding="UTF-8" standalone="no"?>
<svg
   xmlns:dc="http://purl.org/dc/elements/1.1/"
   xmlns:cc="http://creativecommons.org/ns#"
   xmlns:rdf="http://www.w3.org/1999/02/22-rdf-syntax-ns#"
   xmlns:svg="http://www.w3.org/2000/svg"
   xmlns="http://www.w3.org/2000/svg"
   xmlns:sodipodi="http://sodipodi.sourceforge.net/DTD/sodipodi-0.dtd"
   xmlns:inkscape="http://www.inkscape.org/namespaces/inkscape"
   version="1.1"
   x="0px"
   y="0px"
   viewBox="0 0 89.199996 75.499981"
   enable-background="new 0 0 100 100"
   xml:space="preserve"
   id="svg2"
   inkscape:version="0.91 r13725"
   sodipodi:docname="logo-sm.svg"
   width="89.199997"
   height="75.5"><metadata
     id="metadata50"><rdf:RDF><cc:Work
         rdf:about=""><dc:format>image/svg+xml</dc:format><dc:type
           rdf:resource="http://purl.org/dc/dcmitype/StillImage" /><dc:title></dc:title></cc:Work></rdf:RDF></metadata><defs
     id="defs48" /><sodipodi:namedview
     pagecolor="#ffffff"
     bordercolor="#666666"
     borderopacity="1"
     objecttolerance="10"
     gridtolerance="10"
     guidetolerance="10"
     inkscape:pageopacity="0"
     inkscape:pageshadow="2"
     inkscape:window-width="1920"
     inkscape:window-height="1016"
     id="namedview46"
     showgrid="false"
     fit-margin-top="0"
     fit-margin-left="0"
     fit-margin-right="0"
     fit-margin-bottom="0"
     inkscape:zoom="1.888"
     inkscape:cx="161.09441"
     inkscape:cy="15.736359"
     inkscape:window-x="0"
     inkscape:window-y="27"
     inkscape:window-maximized="1"
     inkscape:current-layer="layer1" /><g
     inkscape:groupmode="layer"
     id="layer4"
     inkscape:label="background"
     style="display:none"
     transform="translate(-107.58701,-67.235633)"
     sodipodi:insensitive="true"><rect
       style="display:inline;fill:#62e8bc;fill-opacity:1;stroke:none;stroke-width:15;stroke-linecap:butt;stroke-linejoin:miter;stroke-miterlimit:4;stroke-dasharray:none;stroke-opacity:1"
       id="rect4144"
       width="601.91272"
       height="275.11847"
       x="2.2386994"
       y="-32.72366" /></g><g
     inkscape:groupmode="layer"
     id="layer10"
     inkscape:label="box"
     style="display:none"
     transform="translate(-98.012982,-68.42069)"><rect
       style="font-style:normal;font-weight:normal;font-size:63.35665894px;line-height:125%;font-family:sans-serif;letter-spacing:3.16783285px;word-spacing:0px;display:inline;fill:#ffffff;fill-opacity:1;stroke:none;stroke-width:2.89217424;stroke-linecap:butt;stroke-linejoin:miter;stroke-miterlimit:4;stroke-dasharray:none;stroke-opacity:1"
       id="rect6140"
       width="85.782341"
       height="32.060375"
       x="251.80354"
       y="74.081474"
       transform="matrix(0.9974581,0.07125546,-0.13073739,0.99141703,0,0)" /></g><g
     transform="translate(-98.012982,-68.42069)"
     style="display:none"
     inkscape:label="box copy"
     id="g6448"
     inkscape:groupmode="layer"><rect
       style="fill:#ffffff;fill-opacity:1;stroke:none;stroke-width:7.88999939;stroke-linecap:butt;stroke-linejoin:miter;stroke-miterlimit:4;stroke-dasharray:none;stroke-opacity:1"
       id="rect6455"
       width="32.845524"
       height="14.920344"
       x="201.81627"
       y="78.60701" /></g><g
     inkscape:groupmode="layer"
     id="g6457"
     inkscape:label="box copy copy"
     style="display:none"
     transform="translate(-98.012982,-68.42069)"><rect
       y="84.950394"
       x="212.59436"
       height="25.261786"
       width="38.532333"
       id="rect6459"
       style="fill:#ffffff;fill-opacity:1;stroke:none;stroke-width:7.88999939;stroke-linecap:butt;stroke-linejoin:miter;stroke-miterlimit:4;stroke-dasharray:none;stroke-opacity:1" /></g><g
     inkscape:groupmode="layer"
     id="layer8"
     inkscape:label="big cloud"
     style="display:none"
     transform="translate(-107.58701,-67.235633)" /><g
     inkscape:groupmode="layer"
     id="layer6"
     inkscape:label="monkey stroke"
     style="display:none"
     transform="translate(-107.58701,-67.235633)"><path
       style="color:#000000;clip-rule:nonzero;display:inline;overflow:visible;visibility:visible;opacity:1;isolation:auto;mix-blend-mode:normal;color-interpolation:sRGB;color-interpolation-filters:linearRGB;solid-color:#000000;solid-opacity:1;fill:none;fill-opacity:1;fill-rule:nonzero;stroke:#ffffff;stroke-width:13.10000038;stroke-linecap:butt;stroke-linejoin:miter;stroke-miterlimit:4;stroke-dasharray:none;stroke-dashoffset:0;stroke-opacity:1;color-rendering:auto;image-rendering:auto;shape-rendering:auto;text-rendering:auto;enable-background:accumulate"
       d="m 146.19081,139.67574 c -13.88888,-2.99306 -24.32976,-16.45607 -25.3974,-32.74873 l -0.25769,-3.93254 -1.49811,-0.31689 c -0.82396,-0.17429 -1.85451,-0.38244 -2.2901,-0.46257 -0.4356,-0.0801 -1.60118,-0.69594 -2.59018,-1.36848 -5.93481,-4.035791 -5.25681,-12.922391 1.22533,-16.060331 2.28662,-1.10694 5.68007,-1.12044 7.81535,-0.0311 1.39079,0.70952 4.25067,3.45156 4.27836,4.10206 0.007,0.1539 0.23839,0.57829 0.5152,0.94309 0.46246,0.60949 0.71207,0.4565 3.07793,-1.88653 2.6791,-2.65324 5.81851,-4.54143 10.44816,-6.28403 3.41573,-1.28567 4.84806,-2.05382 7.57573,-4.06282 2.49182,-1.83528 2.70508,-1.72868 1.78105,0.8903 l -0.55975,1.58649 1.40243,-0.25115 c 2.16246,-0.38725 5.82148,-2.21789 7.54461,-3.77463 0.85548,-0.77288 1.65992,-1.30074 1.78764,-1.17302 0.20102,0.20102 -0.74657,3.41575 -1.51296,5.13274 -0.20416,0.45741 0.31179,0.75856 2.46767,1.44033 4.5291,1.43227 9.76912,4.64824 12.80847,7.86094 l 1.09401,1.15642 0.72229,-1.21095 c 2.06243,-3.45777 4.86533,-5.22775 8.33021,-5.26034 7.09332,-0.0667 11.56656,7.34557 8.21147,13.60665 -1.10991,2.071251 -3.80066,4.322291 -5.55155,4.644361 -0.4356,0.0801 -1.46615,0.28828 -2.29011,0.46257 l -1.4981,0.31689 -0.23918,3.74527 c -0.91039,14.2558 -9.04589,26.96836 -20.14468,31.47821 -4.82331,1.95988 -12.08104,2.57301 -17.2561,1.45779 z m 11.50491,-3.32056 c 4.36019,-1.15019 8.1352,-4.09157 9.73446,-7.58479 0.77829,-1.70003 0.91094,-2.45491 0.76703,-4.36526 -0.0957,-1.27037 -0.29695,-2.59414 -0.44724,-2.94173 -0.2105,-0.48681 0.0862,-0.81533 1.29157,-1.43028 3.72753,-1.90165 6.87891,-6.65195 7.34009,-11.06426 0.64107,-6.13347 -3.52132,-12.628641 -9.40458,-14.675331 -4.21046,-1.46474 -9.94191,-0.44985 -13.19769,2.33698 -0.84036,0.71932 -1.64535,1.30785 -1.78886,1.30785 -0.1435,0 -0.79086,-0.44738 -1.43857,-0.99417 -0.6477,-0.5468 -2.16999,-1.46453 -3.38287,-2.03941 -6.87832,-3.2602 -15.02738,-0.30461 -18.46578,6.697361 -0.94966,1.93389 -1.05155,2.52244 -1.05155,6.07392 0,3.55502 0.10133,4.1389 1.05555,6.08211 1.3113,2.67037 3.80017,5.20212 6.23619,6.34364 1.32966,0.62309 1.79254,1.0294 1.63102,1.43177 -0.47301,1.17833 -0.5619,4.84489 -0.14787,6.09941 1.92331,5.82771 9.33934,9.95241 16.90593,9.40287 1.35309,-0.0983 3.31651,-0.40457 4.36317,-0.68068 z M 122.4458,96.290439 c 1.08693,-1.08692 1.27339,-1.53115 1.27339,-3.03367 0,-4.74757 -6.60773,-6.12258 -8.36133,-1.73991 -1.20888,3.02129 0.85284,6.04697 4.12046,6.04697 1.42724,0 1.89467,-0.20058 2.96748,-1.27339 z m 64.91515,0.72599 c 0.63399,-0.32785 1.29959,-1.1498 1.65952,-2.04935 1.04463,-2.61079 0.0312,-4.91368 -2.55353,-5.80225 -2.97998,-1.02446 -5.81966,0.99334 -5.81966,4.13531 0,1.4532 0.19559,1.9125 1.27339,2.9903 1.03903,1.03902 1.55945,1.27339 2.82756,1.27339 0.85479,0 2.03051,-0.24633 2.61272,-0.5474 z"
       id="path4929-2"
       inkscape:connector-curvature="0" /></g><g
     inkscape:groupmode="layer"
     id="layer5"
     inkscape:label="stroke"
     style="display:none"
     transform="translate(-107.58701,-67.235633)"><g
       transform="matrix(0.59288073,0.00549511,-0.04009184,0.74840767,249.25542,71.432011)"
       style="font-style:normal;font-weight:normal;font-size:63.35665894px;line-height:125%;font-family:sans-serif;letter-spacing:3.16783285px;word-spacing:0px;display:inline;fill:none;fill-opacity:1;stroke:#ffffff;stroke-width:7.96761179;stroke-linecap:butt;stroke-linejoin:miter;stroke-miterlimit:4;stroke-dasharray:none;stroke-opacity:1"
       id="flowRoot4168-5-3"><path
         d="m 22.728627,33.468907 q 0.5625,-0.225 0.9375,-0.225 0.6,0 0.9,0.45 0.3,0.45 0.3,1.1625 0,1.125 -0.5625,1.9125 -0.525,0.7875 -1.8375,1.425 -2.2125,1.05 -5.7375,1.6875 -3.525,0.6 -6.937499,0.6 -4.7249995,0 -7.9124995,-1.05 -3.1875,-1.0875 -4.7625,-2.9625 -1.5375,-1.875 -1.5375,-4.2375 0,-3.225 2.0625,-5.475 2.09999985,-2.2875 6.15,-3.3 -2.2125,-0.6375 -3.41250015,-2.25 -1.16249998,-1.6125 -1.16249998,-3.6 0,-2.7 1.68749998,-4.7625 1.72500015,-2.1 4.61250015,-3.2249993 2.8875,-1.1249999 6.3374985,-1.1249999 4.65,0 6.975,2.0249992 2.325,1.9875 2.325,5.175 0,2.2125 -0.825,3.6 -0.7875,1.35 -2.2875,1.35 -1.05,0 -1.65,-0.45 -0.6,-0.4875 -0.6,-1.425 0,-0.6375 0.1875,-1.3875 0.1875,-1.2375 0.1875,-1.6875 0,-1.35 -1.0125,-2.175 -1.0125,-0.8625 -3.375,-0.8625 -3.1874985,0 -5.0999985,1.35 -1.9125,1.35 -1.9125,3.6375 0,1.7625 1.425,2.925 1.4625,1.125 4.7249985,1.2375 0.825,0.0375 1.1625,0.375 0.3375,0.3375 0.3375,1.125 0,2.475 -2.249999,2.5125 -3.1124995,0.075 -5.1749995,0.8625 -2.025,0.7875 -2.9625,2.025 -0.9000001,1.2 -0.9000001,2.5875 0,2.325 2.1750001,3.525 2.175,1.1625 6.8999995,1.1625 3.112499,0 6.562499,-0.7125 3.4875,-0.75 5.9625,-1.8 z"
         style="font-style:normal;font-variant:normal;font-weight:normal;font-stretch:normal;font-size:37.5px;font-family:Pacifico;-inkscape-font-specification:Pacifico;letter-spacing:0.64124554px;fill:none;fill-opacity:1;stroke:#ffffff;stroke-width:7.96761179;stroke-miterlimit:4;stroke-dasharray:none;stroke-opacity:1"
         id="path6634"
         inkscape:connector-curvature="0" /><path
         d="m 44.058237,27.019641 q 0.4875,0 0.75,0.45 0.3,0.45 0.3,1.2375 0,1.5 -0.7125,2.325 -1.65,1.95 -3.6375,3.2625 -1.95,1.275 -4.425,1.275 -1.9125,0 -3.4125,-0.7125 -1.4625,-0.7125 -2.325,-2.025 -2.1375,2.7 -5.0625,2.7 -2.0625,0 -3.2625,-1.2 -1.2,-1.2 -1.2,-3.1875 0,-1.875 0.8625,-3.0375 0.8625,-1.1625 2.4375,-1.1625 1.35,0 1.35,1.0125 0,0.2625 -0.075,0.9375 -0.1125,1.35 -0.1125,1.5375 0,1.125 0.975,1.125 0.7125,0 1.35,-0.825 0.675,-0.8625 1.0875,-2.325 0.45,-1.4625 0.45,-3.225 0,-1.35 -0.3375,-2.25 -0.3375,-0.9375 -0.825,-0.9375 -0.4125,0 -0.6,0.225 -0.1875,0.1875 -0.375,0.675 -0.225,0.6 -0.6,0.975 -0.375,0.3375 -1.3125,0.3375 -0.825,0 -1.3125,-0.5625 -0.4875,-0.6 -0.4875,-1.8 0,-1.9125 1.1625,-3 1.1625,-1.0875 3,-1.0875 1.575,0 2.85,0.7875 1.275,0.75 1.95,2.2125 1.125,-1.5 2.5125,-2.25 1.425,-0.75 2.775,-0.75 1.4625,0 2.2125,0.675 0.7875,0.675 0.7875,2.175 0,1.6875 -0.6375,2.6625 -0.6375,0.9375 -1.5375,0.9375 -0.825,0 -1.125,-0.3375 -0.3,-0.3375 -0.45,-0.975 -0.075,-0.45 -0.225,-0.675 -0.15,-0.225 -0.525,-0.225 -0.45,0 -0.975,0.8625 -0.4875,0.825 -0.8625,2.2125 -0.3375,1.3875 -0.3375,2.8875 0,1.7625 0.825,2.7375 0.8625,0.9375 2.325,0.9375 1.4625,0 2.7375,-0.975 1.3125,-1.0125 3.0375,-3.1125 0.45,-0.525 1.0125,-0.525 z"
         style="font-style:normal;font-variant:normal;font-weight:normal;font-stretch:normal;font-size:37.5px;font-family:Pacifico;-inkscape-font-specification:Pacifico;letter-spacing:0.64124554px;fill:none;fill-opacity:1;stroke:#ffffff;stroke-width:7.96761179;stroke-miterlimit:4;stroke-dasharray:none;stroke-opacity:1"
         id="path6636"
         inkscape:connector-curvature="0" /><path
         d="m 46.969404,35.569641 q -2.325,0 -3.7125,-1.6875 -1.3875,-1.6875 -1.3875,-4.425 0,-3 1.3875,-5.6625 1.3875,-2.7 3.675,-4.3125 2.325,-1.65 4.9125,-1.65 0.825,0 1.0875,0.3375 0.3,0.3 0.4875,1.125 0.7875,-0.15 1.65,-0.15 1.8375,0 1.8375,1.3125 0,0.7875 -0.5625,3.75 -0.8625,4.3125 -0.8625,6 0,0.5625 0.2625,0.9 0.3,0.3375 0.75,0.3375 0.7125,0 1.725,-0.9 1.0125,-0.9375 2.7375,-3 0.45,-0.525 1.0125,-0.525 0.4875,0 0.75,0.45 0.3,0.45 0.3,1.2375 0,1.5 -0.7125,2.325 -1.5375,1.9125 -3.2625,3.225 -1.725,1.3125 -3.3375,1.3125 -1.2375,0 -2.2875,-0.825 -1.0125,-0.8625 -1.5375,-2.325 -1.95,3.15 -4.9125,3.15 z m 1.35,-3.7875 q 0.825,0 1.575,-0.975 0.75,-0.975 1.0875,-2.5875 l 1.3875,-6.9 q -1.575,0.0375 -2.925,1.2 -1.3125,1.125 -2.1,3 -0.7875,1.875 -0.7875,3.975 0,1.1625 0.45,1.725 0.4875,0.5625 1.3125,0.5625 z"
         style="font-style:normal;font-variant:normal;font-weight:normal;font-stretch:normal;font-size:37.5px;font-family:Pacifico;-inkscape-font-specification:Pacifico;letter-spacing:0.64124554px;fill:none;fill-opacity:1;stroke:#ffffff;stroke-width:7.96761179;stroke-miterlimit:4;stroke-dasharray:none;stroke-opacity:1"
         id="path6638"
         inkscape:connector-curvature="0" /><path
         d="m 63.312018,35.569641 q -1.425,0 -2.025,-1.5 -0.5625,-1.5 -0.5625,-4.8 0,-4.875 1.3875,-9.2625 0.3375,-1.0875 1.0875,-1.575 0.7875,-0.525 2.175,-0.525 0.75,0 1.05,0.1875 0.3,0.1875 0.3,0.7125 0,0.6 -0.5625,2.7 -0.375,1.5 -0.6,2.625 -0.225,1.0875 -0.375,2.7375 1.0125,-2.925 2.4,-4.95 1.425,-2.025 2.8875,-3 1.5,-1.0125 2.8125,-1.0125 1.3125,0 1.8375,0.6 0.5625,0.6 0.5625,1.8375 0,1.2 -0.7125,4.35 -0.3,1.35 -0.4125,2.025 1.875,-4.6125 4.1625,-6.7125 2.2875,-2.1 4.275,-2.1 2.4375,0 2.4375,2.4375 0,1.4625 -0.825,5.2875 -0.7125,3.2625 -0.7125,4.3125 0,1.5 1.0875,1.5 0.75,0 1.7625,-0.9 1.05,-0.9375 2.775,-3 0.45,-0.525 1.0125,-0.525 0.4875,0 0.75,0.45 0.3,0.45 0.3,1.2375 0,1.5 -0.7125,2.325 -1.6125,1.9875 -3.4875,3.2625 -1.8375,1.275 -4.2,1.275 -1.9125,0 -2.8875,-1.0875 -0.975,-1.125 -0.975,-3.225 0,-1.05 0.525,-3.75 0.4875,-2.3625 0.4875,-3.2625 0,-0.6 -0.4125,-0.6 -0.4875,0 -1.3875,1.275 -0.9,1.2375 -1.8,3.3 -0.9,2.0625 -1.4625,4.35 -0.4125,1.8 -0.975,2.4 -0.525,0.6 -1.725,0.6 -1.2375,0 -1.875,-1.1625 -0.6,-1.2 -0.6,-2.8875 0,-1.425 0.375,-4.125 0.3,-2.4 0.3,-3.15 0,-0.6 -0.4125,-0.6 -0.5625,0 -1.425,1.35 -0.8625,1.35 -1.6875,3.45 -0.7875,2.1 -1.275,4.125 -0.4125,1.7625 -0.975,2.4 -0.525,0.6 -1.6875,0.6 z"
         style="font-style:normal;font-variant:normal;font-weight:normal;font-stretch:normal;font-size:37.5px;font-family:Pacifico;-inkscape-font-specification:Pacifico;letter-spacing:0.64124554px;fill:none;fill-opacity:1;stroke:#ffffff;stroke-width:7.96761179;stroke-miterlimit:4;stroke-dasharray:none;stroke-opacity:1"
         id="path6640"
         inkscape:connector-curvature="0" /><path
         d="m 109.22103,27.019641 q 0.4875,0 0.75,0.45 0.3,0.45 0.3,1.2375 0,1.5 -0.7125,2.325 -1.6125,1.9875 -3.4875,3.2625 -1.8375,1.275 -4.2,1.275 -1.987496,0 -3.224996,-1.425 -2.1375,1.3875 -4.4625,1.425 -0.4875,7.2375 -2.2125,12.075 -1.725,4.875 -5.0625,4.875 -2.025,0 -3,-1.4625 -0.975,-1.4625 -0.975,-4.05 0,-3.675 1.6875,-8.5875 1.6875,-4.875 5.2125,-10.7625 0,-5.475 -0.075,-7.6125 -0.0375,-1.0875 0.8625,-1.725 0.9,-0.6375 2.25,-0.6375 0.7875,0 1.125,0.3375 0.375,0.3 0.4125,1.2375 0,0.9375 0.0375,1.3875 1.2,-1.5 2.3625,-2.1375 1.1625,-0.675 2.475,-0.675 2.099996,0 3.412496,1.6875 1.35,1.6875 1.35,4.425 0,1.9875 -0.6375,3.8625 -0.6375,1.875 -1.7625,3.4125 0.7875,0.225 1.3125,0.225 1.2375,0 2.3625,-0.9 1.125,-0.9 2.8875,-3 0.45,-0.525 1.0125,-0.525 z m -14.849996,4.95 q 1.35,-0.3 2.475,-1.4625 1.1625,-1.2 1.8375,-2.925 0.675,-1.7625 0.675,-3.675 0,-1.125 -0.45,-1.6875 -0.45,-0.6 -1.2,-0.6 -1.35,0 -3.2625,2.85 -0.0375,1.65 -0.0375,4.8375 0,1.725 -0.0375,2.6625 z m -7.1625,16.875 q 1.0125,0 1.6875,-4.425 0.675,-4.3875 0.8625,-10.95 -1.6125,3.75 -2.55,7.1625 -0.9375,3.4125 -0.9375,5.7375 0,1.2 0.3,1.8375 0.2625,0.6375 0.6375,0.6375 z"
         style="font-style:normal;font-variant:normal;font-weight:normal;font-stretch:normal;font-size:37.5px;font-family:Pacifico;-inkscape-font-specification:Pacifico;letter-spacing:0.64124554px;fill:none;fill-opacity:1;stroke:#ffffff;stroke-width:7.96761179;stroke-miterlimit:4;stroke-dasharray:none;stroke-opacity:1"
         id="path6642"
         inkscape:connector-curvature="0" /><path
         d="m 122.06736,27.019641 q 0.4875,0 0.75,0.45 0.3,0.45 0.3,1.2375 0,1.5 -0.7125,2.325 -1.6125,1.9875 -3.525,3.2625 -1.875,1.275 -4.275,1.275 -3.3,0 -4.9125,-3 -1.575,-3 -1.575,-7.7625 0,-4.575 1.1625,-10.425 1.2,-5.8500003 3.4875,-10.0500003 2.325,-4.2 5.5125,-4.2 1.8,0 2.8125,1.6875 1.05,1.65 1.05,4.7625 0,4.4625003 -2.475,10.3500003 -2.475,5.8875 -6.7125,11.6625 0.2625,1.5375 0.8625,2.2125 0.6,0.6375 1.575,0.6375 1.5375,0 2.7,-0.8625 1.1625,-0.9 2.9625,-3.0375 0.45,-0.525 1.0125,-0.525 z m -4.6125,-23.1750003 q -0.8625,0 -1.95,3.1125 -1.0875,3.1125003 -1.9125,7.7250003 -0.825,4.6125 -0.9,8.85 2.6625,-4.3875 4.2375,-8.775 1.575,-4.425 1.575,-8.0625003 0,-2.85 -1.05,-2.85 z"
         style="font-style:normal;font-variant:normal;font-weight:normal;font-stretch:normal;font-size:37.5px;font-family:Pacifico;-inkscape-font-specification:Pacifico;letter-spacing:0.64124554px;fill:none;fill-opacity:1;stroke:#ffffff;stroke-width:7.96761179;stroke-miterlimit:4;stroke-dasharray:none;stroke-opacity:1"
         id="path6644"
         inkscape:connector-curvature="0" /><path
         d="m 134.15255,28.144641 q 0.4875,0 0.75,0.45 0.3,0.45 0.3,1.2375 0,1.35 -0.6375,2.325 -1.05,1.6125 -2.775,2.5125 -1.6875,0.9 -4.05,0.9 -3.6,0 -5.5875,-2.1375 -1.9875,-2.175 -1.9875,-5.85 0,-2.5875 1.0875,-4.8 1.0875,-2.25 3,-3.5625 1.95,-1.3125 4.3875,-1.3125 2.175,0 3.4875,1.3125 1.3125,1.275 1.3125,3.4875 0,2.5875 -1.875,4.4625 -1.8375,1.8375 -6.3,2.925 0.9,1.725 3.0375,1.725 1.5375,0 2.5125,-0.7125 1.0125,-0.7125 2.325,-2.4 0.45,-0.5625 1.0125,-0.5625 z m -6.15,-6.5625 q -1.3875,0 -2.3625,1.6125 -0.9375,1.6125 -0.9375,3.9 l 0,0.075 q 2.2125,-0.525 3.4875,-1.575 1.275,-1.05 1.275,-2.4375 0,-0.7125 -0.4125,-1.125 -0.375,-0.45 -1.05,-0.45 z"
         style="font-style:normal;font-variant:normal;font-weight:normal;font-stretch:normal;font-size:37.5px;font-family:Pacifico;-inkscape-font-specification:Pacifico;letter-spacing:0.64124554px;fill:none;fill-opacity:1;stroke:#ffffff;stroke-width:7.96761179;stroke-miterlimit:4;stroke-dasharray:none;stroke-opacity:1"
         id="path6646"
         inkscape:connector-curvature="0" /></g></g><g
     style="display:none"
     inkscape:label="stroke copy"
     id="g6556"
     inkscape:groupmode="layer"
     transform="translate(-107.58701,-67.235633)"><g
       transform="matrix(0.96699247,-0.00160716,0.00188772,1.1358076,125.94804,23.477039)"
       style="font-style:normal;font-weight:normal;font-size:71.565979px;line-height:125%;font-family:sans-serif;letter-spacing:3.57829881px;word-spacing:0px;display:inline;fill:none;fill-opacity:1;stroke:#ffffff;stroke-width:9;stroke-linecap:butt;stroke-linejoin:miter;stroke-miterlimit:4;stroke-dasharray:none;stroke-opacity:1"
       id="flowRoot6558"><path
         d="m 121.72668,71.430171 q 0,3.600514 -1.86379,6.608003 -1.8638,3.007488 -5.42195,4.913642 -3.55816,1.906155 -8.4718,2.245027 l -1.82144,10.208516 q -1.05897,5.887901 -5.76082,5.887901 -2.583899,0 -4.786566,-1.524925 -2.160309,-1.524923 -3.473437,-4.659489 -1.313129,-3.134565 -1.313129,-7.709336 0,-8.598875 2.753334,-14.571492 2.795694,-6.014977 7.455182,-8.980106 4.701846,-3.007488 10.335596,-3.007488 3.98174,0 6.73508,1.397846 2.79569,1.397847 4.19354,3.812309 1.4402,2.372104 1.4402,5.379592 z m -14.99508,9.403696 q 8.68359,-1.101334 8.68359,-9.022465 0,-2.795693 -1.86379,-4.532412 -1.82144,-1.779077 -5.67611,-1.779077 -4.36297,0 -7.62461,2.753334 -3.219288,2.753334 -4.998366,7.666977 -1.736718,4.871284 -1.736718,11.140414 0,2.626258 0.508308,4.659489 0.550667,2.033232 1.355487,3.176924 0.84718,1.101334 1.609642,1.101334 1.058975,0 1.609642,-2.92277 l 1.397846,-8.005849 q -1.652,-0.254154 -1.440205,-0.211795 -1.27077,-0.211795 -1.652001,-0.762462 -0.381231,-0.593026 -0.381231,-1.482565 0,-0.931897 0.508308,-1.482564 0.550667,-0.550667 1.482565,-0.550667 0.423589,0 0.635384,0.04236 1.016619,0.169436 1.567279,0.211795 0.55067,-3.304001 1.56729,-8.853029 0.25415,-1.440206 1.14369,-2.033231 0.9319,-0.635385 2.16031,-0.635385 1.39784,0 1.99087,0.550667 0.63539,0.508307 0.63539,1.652 0,0.677744 -0.0847,1.101334 l -1.39785,8.217644 z"
         style="font-style:normal;font-variant:normal;font-weight:normal;font-stretch:normal;font-size:42.35898972px;font-family:Pacifico;-inkscape-font-specification:Pacifico;letter-spacing:0.7243337px;fill:none;fill-opacity:1;stroke:#ffffff;stroke-width:9;stroke-miterlimit:4;stroke-dasharray:none;stroke-opacity:1"
         id="path6619"
         inkscape:connector-curvature="0" /><path
         d="m 124.15133,96.887924 q -1.60964,0 -2.28738,-1.69436 -0.63539,-1.694359 -0.63539,-5.42195 0,-5.506669 1.56729,-10.462671 0.38123,-1.22841 1.22841,-1.779077 0.88954,-0.593026 2.45682,-0.593026 0.84718,0 1.18605,0.211795 0.33887,0.211795 0.33887,0.804821 0,0.677743 -0.63538,3.049847 -0.42359,1.694359 -0.67775,2.965129 -0.25415,1.27077 -0.42359,3.134565 1.39785,-3.642873 3.13457,-5.930258 1.73672,-2.287386 3.38872,-3.261642 1.69436,-0.974257 3.0922,-0.974257 2.75334,0 2.75334,2.753334 0,0.550667 -0.38123,2.668617 -0.33887,1.694359 -0.33887,2.117949 0,1.482565 1.05897,1.482565 1.18605,0 3.04985,-1.863796 0.55067,-0.550667 1.14369,-0.550667 0.55067,0 0.84718,0.508308 0.33887,0.465949 0.33887,1.27077 0,1.567282 -0.84718,2.456821 -1.18605,1.228411 -2.79569,2.11795 -1.56728,0.847179 -3.34636,0.847179 -2.24503,0 -3.43108,-1.143692 -1.14369,-1.143693 -1.14369,-3.092206 0,-0.635385 0.12708,-1.27077 0.0847,-0.84718 0.0847,-1.143693 0,-0.677744 -0.46595,-0.677744 -0.63538,0 -1.69436,1.440206 -1.01661,1.397847 -2.03323,3.727591 -1.01661,2.329744 -1.652,4.913643 -0.46595,1.990872 -1.10133,2.710975 -0.59303,0.677744 -1.90616,0.677744 z"
         style="font-style:normal;font-variant:normal;font-weight:normal;font-stretch:normal;font-size:42.35898972px;font-family:Pacifico;-inkscape-font-specification:Pacifico;letter-spacing:0.7243337px;fill:none;fill-opacity:1;stroke:#ffffff;stroke-width:9;stroke-miterlimit:4;stroke-dasharray:none;stroke-opacity:1"
         id="path6621"
         inkscape:connector-curvature="0" /><path
         d="m 162.74791,83.671919 q 0.55067,0 0.84718,0.550667 0.29651,0.550667 0.29651,1.397847 0,2.033231 -1.22841,2.414462 -2.54154,0.889539 -5.59138,1.016616 -0.80482,3.558155 -3.17693,5.718464 -2.3721,2.117949 -5.37959,2.117949 -2.54154,0 -4.36298,-1.228411 -1.77907,-1.22841 -2.71097,-3.261642 -0.9319,-2.033231 -0.9319,-4.405335 0,-3.219283 1.22841,-5.718463 1.22841,-2.54154 3.38872,-3.939386 2.16031,-1.440206 4.78657,-1.440206 3.21928,0 5.16779,2.245026 1.99088,2.202668 2.32975,5.46431 1.99087,-0.127077 4.74421,-0.84718 0.33887,-0.08472 0.59302,-0.08472 z m -13.89375,8.725952 q 1.35549,0 2.32975,-1.101334 1.01661,-1.101333 1.35548,-3.176924 -1.31312,-0.889539 -2.03323,-2.329744 -0.67774,-1.440206 -0.67774,-3.049848 0,-0.677743 0.12708,-1.355487 l -0.2118,0 q -1.69436,0 -2.83805,1.652 -1.10133,1.609642 -1.10133,4.574771 0,2.329745 0.88953,3.558155 0.9319,1.228411 2.16031,1.228411 z"
         style="font-style:normal;font-variant:normal;font-weight:normal;font-stretch:normal;font-size:42.35898972px;font-family:Pacifico;-inkscape-font-specification:Pacifico;letter-spacing:0.7243337px;fill:none;fill-opacity:1;stroke:#ffffff;stroke-width:9;stroke-miterlimit:4;stroke-dasharray:none;stroke-opacity:1"
         id="path6623"
         inkscape:connector-curvature="0" /><path
         d="m 165.51276,74.141147 q -1.77908,0 -2.66862,-0.804821 -0.88954,-0.84718 -0.88954,-2.329745 0,-1.482564 1.14369,-2.456821 1.18606,-1.016616 2.92277,-1.016616 1.56729,0 2.54154,0.762462 0.97426,0.762462 0.97426,2.160308 0,1.69436 -1.10133,2.710976 -1.10134,0.974257 -2.92277,0.974257 z m 7.62461,13.173645 q 0.55067,0 0.84718,0.550667 0.33888,0.508308 0.33888,1.313129 0,0.974257 -0.29652,1.524924 -0.29651,0.550666 -0.93189,0.974256 -2.96513,1.948514 -7.92114,5.379592 -1.652,8.81067 -4.27825,13.85139 -2.62626,5.04072 -6.69272,5.04072 -2.20267,0 -3.5158,-1.35549 -1.35549,-1.31313 -1.35549,-3.47344 0,-3.00748 2.32975,-6.43856 2.32974,-3.38872 8.76831,-8.387082 l 0.29651,-2.160308 q 0.59303,-4.066463 0.9319,-8.005849 0.25415,-2.287386 0.80482,-6.819798 0.16944,-1.22841 0.9319,-1.779077 0.76246,-0.593026 2.32974,-0.593026 1.27077,0 1.652,0.381231 0.42359,0.381231 0.42359,1.058974 0,1.948514 -1.39784,10.759184 l -0.42359,2.92277 q 3.38871,-2.541539 6.18441,-4.405335 0.55066,-0.338872 0.97425,-0.338872 z m -18.46851,24.525858 q 1.10133,0 2.41446,-2.49918 1.31313,-2.49918 2.45682,-8.04821 -3.21928,2.75333 -4.61713,4.956 -1.44021,2.24503 -1.44021,3.93939 0,1.652 1.18606,1.652 z"
         style="font-style:normal;font-variant:normal;font-weight:normal;font-stretch:normal;font-size:42.35898972px;font-family:Pacifico;-inkscape-font-specification:Pacifico;letter-spacing:0.7243337px;fill:none;fill-opacity:1;stroke:#ffffff;stroke-width:9;stroke-miterlimit:4;stroke-dasharray:none;stroke-opacity:1"
         id="path6625"
         inkscape:connector-curvature="0" /><path
         d="m 191.352,87.230074 q 0.55067,0 0.84718,0.508308 0.33887,0.508308 0.33887,1.397847 0,1.694359 -0.80482,2.626257 -1.56728,1.906155 -4.44769,3.515796 -2.83806,1.609642 -6.0997,1.609642 -4.44769,0 -6.90451,-2.414462 -2.45682,-2.414463 -2.45682,-6.608003 0,-2.92277 1.22841,-5.42195 1.22841,-2.54154 3.38872,-4.024105 2.20266,-1.482564 4.956,-1.482564 2.45682,0 3.93938,1.482564 1.48257,1.440206 1.48257,3.939387 0,2.92277 -2.11795,5.040719 -2.07559,2.075591 -7.07395,3.304002 1.05897,1.948513 4.0241,1.948513 1.90616,0 4.32062,-1.313129 2.45682,-1.355487 4.2359,-3.515796 0.5083,-0.593026 1.14369,-0.593026 z m -10.67447,-6.142053 q -1.56728,0 -2.66861,1.821436 -1.05898,1.821437 -1.05898,4.405335 l 0,0.08472 q 2.49918,-0.593026 3.93939,-1.779077 1.4402,-1.186052 1.4402,-2.753335 0,-0.80482 -0.46594,-1.270769 -0.42359,-0.508308 -1.18606,-0.508308 z"
         style="font-style:normal;font-variant:normal;font-weight:normal;font-stretch:normal;font-size:42.35898972px;font-family:Pacifico;-inkscape-font-specification:Pacifico;letter-spacing:0.7243337px;fill:none;fill-opacity:1;stroke:#ffffff;stroke-width:9;stroke-miterlimit:4;stroke-dasharray:none;stroke-opacity:1"
         id="path6627"
         inkscape:connector-curvature="0" /><path
         d="m 197.904,96.887924 q -4.15118,0 -6.48092,-2.329744 -2.28739,-2.372104 -2.28739,-6.226772 0,-3.431078 1.35549,-6.014976 1.35549,-2.583899 3.5158,-3.981745 2.1603,-1.397847 4.53241,-1.397847 2.32974,0 3.60051,1.397847 1.31313,1.355487 1.31313,3.515796 0,1.779077 -0.80482,3.007488 -0.76246,1.228411 -2.03323,1.228411 -0.80482,0 -1.31313,-0.381231 -0.46595,-0.381231 -0.46595,-1.058975 0,-0.296513 0.0847,-0.677744 0.0847,-0.381231 0.12708,-0.550667 0.21179,-0.635385 0.21179,-1.186051 0,-0.550667 -0.29651,-0.84718 -0.25416,-0.296513 -0.76246,-0.296513 -0.97426,0 -1.82144,0.889539 -0.84718,0.847179 -1.35549,2.329744 -0.50831,1.482565 -0.50831,3.261642 0,4.913643 4.27826,4.913643 1.73672,0 3.72759,-1.143693 2.03323,-1.186051 3.98175,-3.515796 0.50831,-0.593026 1.14369,-0.593026 0.55067,0 0.84718,0.508308 0.33887,0.508308 0.33887,1.397847 0,1.609641 -0.80482,2.626257 -1.99087,2.456822 -4.78656,3.812309 -2.75334,1.313129 -5.33724,1.313129 z"
         style="font-style:normal;font-variant:normal;font-weight:normal;font-stretch:normal;font-size:42.35898972px;font-family:Pacifico;-inkscape-font-specification:Pacifico;letter-spacing:0.7243337px;fill:none;fill-opacity:1;stroke:#ffffff;stroke-width:9;stroke-miterlimit:4;stroke-dasharray:none;stroke-opacity:1"
         id="path6629"
         inkscape:connector-curvature="0" /><path
         d="m 213.32889,80.960944 q -0.0847,2.117949 -0.0847,3.304001 0,3.049847 0.29652,4.786566 0.33887,1.694359 1.05897,2.456821 0.76246,0.720103 2.07559,0.720103 0.67775,0 1.60964,-0.42359 0.9319,-0.42359 1.69436,-1.101333 0.46595,-0.42359 0.9319,-0.42359 0.50831,0 0.80482,0.593025 0.33887,0.550667 0.33887,1.355488 0,0.804821 -0.33887,1.567283 -0.29651,0.762462 -0.9319,1.270769 -2.20266,1.821437 -4.99836,1.821437 -4.0241,0 -5.8879,-3.34636 -1.86379,-3.388719 -1.86379,-8.81067 0,-1.863796 0.12708,-3.76995 l -1.65201,0 q -1.27077,0 -1.73671,-0.465949 -0.42359,-0.465949 -0.42359,-1.482565 0,-2.372103 1.90615,-2.372103 l 2.41446,0 q 0.72011,-4.659489 2.20267,-8.514157 1.48257,-3.854668 3.55816,-6.142054 2.11795,-2.287385 4.53241,-2.287385 1.77908,0 2.79569,1.567283 1.01662,1.567282 1.01662,3.939386 0,6.565643 -5.50667,11.436927 l 4.7442,0 q 0.67775,0 0.97426,0.296513 0.29651,0.296513 0.29651,1.101334 0,2.92277 -4.78656,2.92277 l -5.1678,0 z m 4.49005,-17.19775 q -0.63538,0 -1.4402,1.609642 -0.76246,1.567282 -1.48257,4.405335 -0.67774,2.795693 -1.14369,6.226771 2.49918,-2.160308 3.72759,-4.828925 1.27077,-2.710975 1.27077,-4.913643 0,-2.49918 -0.9319,-2.49918 z"
         style="font-style:normal;font-variant:normal;font-weight:normal;font-stretch:normal;font-size:42.35898972px;font-family:Pacifico;-inkscape-font-specification:Pacifico;letter-spacing:0.7243337px;fill:none;fill-opacity:1;stroke:#ffffff;stroke-width:9;stroke-miterlimit:4;stroke-dasharray:none;stroke-opacity:1"
         id="path6631"
         inkscape:connector-curvature="0" /></g></g><g
     inkscape:groupmode="layer"
     id="layer7"
     inkscape:label="cloud stroke"
     style="display:none"
     transform="translate(-107.58701,-67.235633)" /><g
     transform="translate(-112.98701,-58.264924)"
     style="display:none"
     inkscape:label="text copy"
     id="g6528"
     inkscape:groupmode="layer"><g
       transform="matrix(1.0922886,-0.00181541,0.00213233,1.2829778,221.91378,78.767053)"
       style="font-style:normal;font-weight:normal;font-size:63.35665894px;line-height:125%;font-family:sans-serif;letter-spacing:3.16783285px;word-spacing:0px;display:inline;fill:#865e04;fill-opacity:1;stroke:none;stroke-width:4;stroke-linecap:butt;stroke-linejoin:miter;stroke-miterlimit:4;stroke-dasharray:none;stroke-opacity:1"
       id="flowRoot6530"><path
         d="m 24.946484,13.032141 q 0,3.1875 -1.65,5.85 -1.65,2.6625 -4.8,4.35 -3.15,1.6875 -7.5,1.9875 l -1.6124996,9.0375 q -0.9375,5.2125 -5.1,5.2125 -2.2875,0 -4.23750002,-1.35 -1.91249998,-1.35 -3.07499998,-4.125 -1.1625,-2.775 -1.1625,-6.825 0,-7.6125 2.4375,-12.9 2.47499997,-5.3250003 6.6,-7.9500003 4.1625,-2.6625 9.1499996,-2.6625 3.525,0 5.9625,1.2375 2.475,1.2375 3.7125,3.375 1.275,2.1000003 1.275,4.7625003 z m -13.275,8.325 q 7.6875,-0.975 7.6875,-7.9875 0,-2.475 -1.65,-4.0125003 -1.6125,-1.575 -5.025,-1.575 -3.8624996,0 -6.7499996,2.4375003 -2.85,2.4375 -4.425,6.7875 -1.53750002,4.3125 -1.53750002,9.8625 0,2.325 0.45,4.125 0.4875,1.8 1.20000002,2.8125 0.75,0.975 1.425,0.975 0.9375,0 1.425,-2.5875 l 1.2375,-7.0875 q -1.4625,-0.225 -1.275,-0.1875 -1.125,-0.1875 -1.4625,-0.675 -0.3375,-0.525 -0.3375,-1.3125 0,-0.825 0.45,-1.3125 0.4875,-0.4875 1.3125,-0.4875 0.375,0 0.5625,0.0375 0.9,0.15 1.3875,0.1875 0.4875,-2.925 1.3875,-7.8375 0.225,-1.275 1.0125,-1.8 0.825,-0.5625 1.9124996,-0.5625 1.2375,0 1.7625,0.4875 0.5625,0.45 0.5625,1.4625 0,0.6 -0.075,0.975 l -1.2375,7.275 z"
         style="font-style:normal;font-variant:normal;font-weight:normal;font-stretch:normal;font-size:37.5px;font-family:Pacifico;-inkscape-font-specification:Pacifico;letter-spacing:0.64124554px;fill:#865e04;fill-opacity:1;stroke:none;stroke-width:4;stroke-miterlimit:4;stroke-dasharray:none;stroke-opacity:1"
         id="path6589"
         inkscape:connector-curvature="0" /><path
         d="m 27.093003,35.569641 q -1.425,0 -2.025,-1.5 -0.5625,-1.5 -0.5625,-4.8 0,-4.875 1.3875,-9.2625 0.3375,-1.0875 1.0875,-1.575 0.7875,-0.525 2.175,-0.525 0.75,0 1.05,0.1875 0.3,0.1875 0.3,0.7125 0,0.6 -0.5625,2.7 -0.375,1.5 -0.6,2.625 -0.225,1.125 -0.375,2.775 1.2375,-3.225 2.775,-5.25 1.5375,-2.025 3,-2.8875 1.5,-0.8625 2.7375,-0.8625 2.4375,0 2.4375,2.4375 0,0.4875 -0.3375,2.3625 -0.3,1.5 -0.3,1.875 0,1.3125 0.9375,1.3125 1.05,0 2.7,-1.65 0.4875,-0.4875 1.0125,-0.4875 0.4875,0 0.75,0.45 0.3,0.4125 0.3,1.125 0,1.3875 -0.75,2.175 -1.05,1.0875 -2.475,1.875 -1.3875,0.75 -2.9625,0.75 -1.9875,0 -3.0375,-1.0125 -1.0125,-1.0125 -1.0125,-2.7375 0,-0.5625 0.1125,-1.125 0.075,-0.75 0.075,-1.0125 0,-0.6 -0.4125,-0.6 -0.5625,0 -1.5,1.275 -0.9,1.2375 -1.8,3.3 -0.9,2.0625 -1.4625,4.35 -0.4125,1.7625 -0.975,2.4 -0.525,0.6 -1.6875,0.6 z"
         style="font-style:normal;font-variant:normal;font-weight:normal;font-stretch:normal;font-size:37.5px;font-family:Pacifico;-inkscape-font-specification:Pacifico;letter-spacing:0.64124554px;fill:#865e04;fill-opacity:1;stroke:none;stroke-width:4;stroke-miterlimit:4;stroke-dasharray:none;stroke-opacity:1"
         id="path6591"
         inkscape:connector-curvature="0" /><path
         d="m 61.262177,23.869641 q 0.4875,0 0.75,0.4875 0.2625,0.4875 0.2625,1.2375 0,1.8 -1.0875,2.1375 -2.25,0.7875 -4.95,0.9 -0.7125,3.15 -2.8125,5.0625 -2.1,1.875 -4.7625,1.875 -2.25,0 -3.8625,-1.0875 -1.575,-1.0875 -2.4,-2.8875 -0.825,-1.8 -0.825,-3.9 0,-2.85 1.0875,-5.0625 1.0875,-2.25 3,-3.4875 1.9125,-1.275 4.2375,-1.275 2.85,0 4.575,1.9875 1.7625,1.95 2.0625,4.8375 1.7625,-0.1125 4.2,-0.75 0.3,-0.075 0.525,-0.075 z m -12.3,7.725 q 1.2,0 2.0625,-0.975 0.9,-0.975 1.2,-2.8125 -1.1625,-0.7875 -1.8,-2.0625 -0.6,-1.275 -0.6,-2.7 0,-0.6 0.1125,-1.2 l -0.1875,0 q -1.5,0 -2.5125,1.4625 -0.975,1.425 -0.975,4.05 0,2.0625 0.7875,3.15 0.825,1.0875 1.9125,1.0875 z"
         style="font-style:normal;font-variant:normal;font-weight:normal;font-stretch:normal;font-size:37.5px;font-family:Pacifico;-inkscape-font-specification:Pacifico;letter-spacing:0.64124554px;fill:#865e04;fill-opacity:1;stroke:none;stroke-width:4;stroke-miterlimit:4;stroke-dasharray:none;stroke-opacity:1"
         id="path6593"
         inkscape:connector-curvature="0" /><path
         d="m 70.459869,27.094641 c 0.325,0 0.575,0.1625 0.75,0.4875 0.2,0.3 0.3,0.6875 0.3,1.1625 0,0.575 -0.0875,1.025 -0.2625,1.35 -0.175,0.325 -0.45,0.6125 -0.825,0.8625 -1.75,1.15 -4.0875,2.7375 -7.0125,4.7625 -0.975,5.2 -2.2375,9.2875 -3.7875,12.2625 -1.55,2.975 -3.525,4.4625 -5.925,4.4625 -1.3,0 -2.3375,-0.4 -3.1125,-1.2 -0.8,-0.775 -1.2,-1.8 -1.2,-3.075 0,-1.775 0.6875,-3.675 2.0625,-5.7 1.375,-2 3.9625,-4.475 7.7625,-7.425 l 0.2625,-1.9125 c 0.35,-2.4 0.625,-4.7625 0.825,-7.0875 0.15,-1.35 0.3875,-3.3625 0.7125,-6.0375 0.1,-0.725 0.375,-1.25 0.825,-1.575 0.45,-0.35 1.1375,-0.525 2.0625,-0.525 0.75,0 1.2375,0.1125 1.4625,0.3375 0.25,0.225 0.375,0.5375 0.375,0.9375 0,1.15 -0.4125,4.325 -1.2375,9.525 l -0.375,2.5875 c 2,-1.5 3.825,-2.8 5.475,-3.9 0.325,-0.2 0.6125,-0.3 0.8625,-0.3 z m -16.35,21.7125 c 0.65,0 1.3625,-0.7375 2.1375,-2.2125 0.775,-1.475 1.5,-3.85 2.175,-7.125 -1.9,1.625 -3.2625,3.0875 -4.0875,4.3875 -0.85,1.325 -1.275,2.4875 -1.275,3.4875 0,0.975 0.35,1.4625 1.05,1.4625 z"
         style="font-style:normal;font-variant:normal;font-weight:normal;font-stretch:normal;font-size:37.5px;font-family:Pacifico;-inkscape-font-specification:Pacifico;letter-spacing:0.64124554px;fill:#865e04;fill-opacity:1;stroke:none;stroke-width:4;stroke-miterlimit:4;stroke-dasharray:none;stroke-opacity:1"
         id="path6595"
         inkscape:connector-curvature="0"
         sodipodi:nodetypes="scssccsscsccccccscscccsssccss" /><path
         d="m 86.585097,27.019641 q 0.4875,0 0.75,0.45 0.3,0.45 0.3,1.2375 0,1.5 -0.7125,2.325 -1.3875,1.6875 -3.9375,3.1125 -2.5125,1.425 -5.4,1.425 -3.9375,0 -6.1125,-2.1375 -2.175,-2.1375 -2.175,-5.85 0,-2.5875 1.0875,-4.8 1.0875,-2.25 3,-3.5625 1.95,-1.3125 4.3875,-1.3125 2.175,0 3.4875,1.3125 1.3125,1.275 1.3125,3.4875 0,2.5875 -1.875,4.4625 -1.8375,1.8375 -6.2625,2.925 0.9375,1.725 3.5625,1.725 1.6875,0 3.825,-1.1625 2.175,-1.2 3.75,-3.1125 0.45,-0.525 1.0125,-0.525 z m -9.45,-5.4375 q -1.3875,0 -2.3625,1.6125 -0.9375,1.6125 -0.9375,3.9 l 0,0.075 q 2.2125,-0.525 3.4875,-1.575 1.275,-1.05 1.275,-2.4375 0,-0.7125 -0.4125,-1.125 -0.375,-0.45 -1.05,-0.45 z"
         style="font-style:normal;font-variant:normal;font-weight:normal;font-stretch:normal;font-size:37.5px;font-family:Pacifico;-inkscape-font-specification:Pacifico;letter-spacing:0.64124554px;fill:#865e04;fill-opacity:1;stroke:none;stroke-width:4;stroke-miterlimit:4;stroke-dasharray:none;stroke-opacity:1"
         id="path6597"
         inkscape:connector-curvature="0" /><path
         d="m 92.385527,35.569641 q -3.675,0 -5.7375,-2.0625 -2.025,-2.1 -2.025,-5.5125 0,-3.0375 1.2,-5.325 1.2,-2.2875 3.1125,-3.525 1.9125,-1.2375 4.0125,-1.2375 2.0625,0 3.1875,1.2375 1.1625,1.2 1.1625,3.1125 0,1.575 -0.7125,2.6625 -0.675,1.0875 -1.8,1.0875 -0.7125,0 -1.1625,-0.3375 -0.4125,-0.3375 -0.4125,-0.9375 0,-0.2625 0.075,-0.6 0.075,-0.3375 0.1125,-0.4875 0.1875,-0.5625 0.1875,-1.05 0,-0.4875 -0.2625,-0.75 -0.225,-0.2625 -0.675,-0.2625 -0.8625,0 -1.6125,0.7875 -0.75,0.75 -1.2,2.0625 -0.45,1.3125 -0.45,2.8875 0,4.35 3.7875,4.35 1.5375,0 3.3,-1.0125 1.8,-1.05 3.525,-3.1125 0.450003,-0.525 1.012503,-0.525 0.4875,0 0.75,0.45 0.3,0.45 0.3,1.2375 0,1.425 -0.7125,2.325 -1.762503,2.175 -4.237503,3.375 -2.4375,1.1625 -4.725,1.1625 z"
         style="font-style:normal;font-variant:normal;font-weight:normal;font-stretch:normal;font-size:37.5px;font-family:Pacifico;-inkscape-font-specification:Pacifico;letter-spacing:0.64124554px;fill:#865e04;fill-opacity:1;stroke:none;stroke-width:4;stroke-miterlimit:4;stroke-dasharray:none;stroke-opacity:1"
         id="path6599"
         inkscape:connector-curvature="0" /><path
         d="m 106.04103,21.469641 q -0.075,1.875 -0.075,2.925 0,2.7 0.2625,4.2375 0.3,1.5 0.9375,2.175 0.675,0.6375 1.8375,0.6375 0.6,0 1.425,-0.375 0.825,-0.375 1.5,-0.975 0.4125,-0.375 0.825,-0.375 0.45,0 0.7125,0.525 0.3,0.4875 0.3,1.2 0,0.7125 -0.3,1.3875 -0.2625,0.675 -0.825,1.125 -1.95,1.6125 -4.425,1.6125 -3.5625,0 -5.2125,-2.9625 -1.65,-3 -1.65,-7.8 0,-1.65 0.1125,-3.3375 l -1.4625,0 q -1.125002,0 -1.537502,-0.4125 -0.375,-0.4125 -0.375,-1.3125 0,-2.1 1.6875,-2.1 l 2.137502,0 q 0.6375,-4.125 1.95,-7.5375 1.3125,-3.4125003 3.15,-5.4375003 1.875,-2.025 4.0125,-2.025 1.575,0 2.475,1.3875 0.9,1.3875 0.9,3.4875 0,5.8125003 -4.875,10.1250003 l 4.2,0 q 0.6,0 0.8625,0.2625 0.2625,0.2625 0.2625,0.975 0,2.5875 -4.2375,2.5875 l -4.575,0 z m 3.975,-15.2250003 q -0.5625,0 -1.275,1.425 -0.675,1.3875 -1.3125,3.9000003 -0.6,2.475 -1.0125,5.5125 2.2125,-1.9125 3.3,-4.275 1.125,-2.4 1.125,-4.3500003 0,-2.2125 -0.825,-2.2125 z"
         style="font-style:normal;font-variant:normal;font-weight:normal;font-stretch:normal;font-size:37.5px;font-family:Pacifico;-inkscape-font-specification:Pacifico;letter-spacing:0.64124554px;fill:#865e04;fill-opacity:1;stroke:none;stroke-width:4;stroke-miterlimit:4;stroke-dasharray:none;stroke-opacity:1"
         id="path6601"
         inkscape:connector-curvature="0" /></g><flowRoot
       transform="translate(5.4,-8.9707087)"
       style="font-style:normal;font-weight:normal;font-size:40px;line-height:125%;font-family:sans-serif;letter-spacing:2px;word-spacing:0px;fill:#000000;fill-opacity:1;stroke:none;stroke-width:1px;stroke-linecap:butt;stroke-linejoin:miter;stroke-opacity:1"
       id="flowRoot6548"
       xml:space="preserve"><flowRegion
         id="flowRegion6550"><rect
           y="46.583282"
           x="62.171463"
           height="72.658218"
           width="305.61395"
           id="rect6552" /></flowRegion><flowPara
         id="flowPara6554" /></flowRoot></g><g
     inkscape:groupmode="layer"
     id="layer1"
     inkscape:label="monkey"
     style="display:inline"
     transform="translate(-112.98701,-58.264924)"><g
       id="g4"
       transform="translate(107.58701,46.064913)"><g
         id="g6"><path
           inkscape:connector-curvature="0"
           d="M 50.1,87.7 C 29.4,87.7 18,69.9 16.1,53.3 L 16,49.9 C 10,49.3 5.4,44.2 5.4,38.1 c 0,-6.5 5.3,-11.8 11.8,-11.8 3.8,0 7.2,1.8 9.5,4.9 4.9,-5.2 13.1,-7.6 13.5,-7.7 l 0,0 c 0,0 7.1,-3 8.9,-7 l 1.3,-3 1,3.1 c 0,0.1 0.7,2.2 0.4,4.7 1.9,-0.9 4.9,-2.7 6.9,-6.3 l 1.6,-2.8 0.8,3.1 c 0,0.2 1,4.3 -0.6,8.5 4.9,1.6 9.2,4.1 12.8,7.4 2.2,-3.1 5.7,-5 9.5,-5 6.5,0 11.8,5.3 11.8,11.8 0,6.1 -4.7,11.2 -10.6,11.8 L 83.7,54 C 81.7,70.9 70.4,87.7 50.1,87.7 Z M 17.2,28.9 c -5.1,0 -9.3,4.2 -9.3,9.3 0,5.1 4.2,9.3 9.3,9.3 l 1.2,0 0.3,5.7 c 1.7,15.3 12.3,32 31.4,32 18.8,0 29.1,-15.7 31.1,-31.3 l 0.4,-6.4 1.2,0 c 5.1,0 9.3,-4.2 9.3,-9.3 0,-5.1 -4.2,-9.3 -9.3,-9.3 -3.4,0 -6.5,2 -8.2,5.1 l -0.8,1.6 -1.2,-1.3 C 68.8,30.4 63.9,27.5 58.4,26 l -1.5,-0.4 0.7,-1.4 c 0.9,-1.7 1.2,-3.4 1.2,-4.8 -3.7,4.3 -8.3,5.3 -8.6,5.3 l -2.3,0.5 0.9,-2.2 c 0.3,-0.8 0.5,-1.7 0.5,-2.4 -3.1,3.3 -8.1,5.4 -8.3,5.5 -0.2,0.1 -9.3,2.7 -13.5,8.2 l -1.2,1.6 -1,-1.9 c -1.6,-3.2 -4.7,-5.1 -8.1,-5.1 z m 65.6,13.9 c -2.5,0 -4.6,-2.1 -4.6,-4.6 0,-2.5 2.1,-4.6 4.6,-4.6 2.5,0 4.6,2.1 4.6,4.6 0,2.5 -2,4.6 -4.6,4.6 z m 0,-6.7 c -1.1,0 -2.1,0.9 -2.1,2.1 0,1.2 0.9,2.1 2.1,2.1 1.1,0 2.1,-0.9 2.1,-2.1 0,-1.2 -0.9,-2.1 -2.1,-2.1 z m -65.6,6.7 c -2.5,0 -4.6,-2.1 -4.6,-4.6 0,-2.5 2.1,-4.6 4.6,-4.6 2.5,0 4.6,2.1 4.6,4.6 0,2.5 -2.1,4.6 -4.6,4.6 z m 0,-6.7 c -1.1,0 -2.1,0.9 -2.1,2.1 0,1.2 0.9,2.1 2.1,2.1 1.2,0 2.1,-0.9 2.1,-2.1 0,-1.2 -1,-2.1 -2.1,-2.1 z"
           id="path8" /></g><g
         id="g10"><path
           inkscape:connector-curvature="0"
           d="M 50,82.2 C 41,82.2 33.7,76.6 33.7,69.8 33.7,68.5 34,67.3 34.5,66 28.8,64 25,58.7 25,52.6 c 0,-7.8 6.4,-14.2 14.2,-14.2 4,0 7.8,1.7 10.5,4.7 2.7,-3 6.5,-4.7 10.5,-4.7 7.8,0 14.2,6.4 14.2,14.2 0,5.8 -3.6,11 -9,13.2 0.6,1.3 0.9,2.6 0.9,4 0,6.8 -7.3,12.4 -16.3,12.4 z M 39.2,40.9 c -6.4,0 -11.7,5.2 -11.7,11.7 0,5.5 3.7,10.1 9.1,11.4 l 1.7,0.4 -0.9,1.5 c -0.8,1.3 -1.2,2.6 -1.2,3.9 0,5.5 6.2,9.9 13.8,9.9 7.6,0 13.8,-4.4 13.8,-9.9 0,-1.4 -0.4,-2.7 -1.3,-4 l -0.9,-1.5 1.7,-0.5 c 5.1,-1.4 8.6,-6 8.6,-11.2 0,-6.4 -5.2,-11.7 -11.7,-11.7 -3.7,0 -7.3,1.8 -9.5,4.9 l -1,1.4 -1,-1.4 c -2.3,-3.1 -5.8,-4.9 -9.5,-4.9 z"
           id="path12" /></g><g
         id="g14"><path
           inkscape:connector-curvature="0"
           d="m 49.5,65.1 0,0 c -0.7,0 -1.3,-0.6 -1.3,-1.3 0,-0.9 -0.3,-1.3 -0.6,-1.6 -1,-0.8 -3,-0.8 -3.6,-0.7 -0.7,0.1 -1.3,-0.4 -1.5,-1.1 -0.1,-0.7 0.4,-1.3 1.1,-1.5 0.4,-0.1 3.7,-0.5 5.7,1.3 1,0.8 1.5,2.1 1.5,3.5 -0.1,0.9 -0.6,1.4 -1.3,1.4 z"
           id="path16" /></g><g
         id="g18"><path
           inkscape:connector-curvature="0"
           d="m 49.9,65.1 c -0.7,0 -1.3,-0.6 -1.3,-1.3 0,-1.5 0.5,-2.7 1.5,-3.5 2,-1.8 5.3,-1.3 5.7,-1.3 0.7,0.1 1.2,0.8 1.1,1.5 -0.1,0.7 -0.7,1.2 -1.4,1.1 -0.7,-0.1 -2.7,-0.2 -3.6,0.7 -0.3,0.2 -0.6,0.6 -0.6,1.6 -0.1,0.6 -0.6,1.2 -1.4,1.2 l 0,0 z"
           id="path20" /></g><g
         id="g22"><path
           inkscape:connector-curvature="0"
           d="m 38.5,57.7 c -3.6,0 -6.5,-2.9 -6.5,-6.5 0,-3.6 2.9,-6.5 6.5,-6.5 3.6,0 6.5,2.9 6.5,6.5 0,3.6 -2.9,6.5 -6.5,6.5 z m 0,-10.5 c -2.2,0 -4,1.8 -4,3.9 0,2.1 1.8,4 4,4 2.2,0 3.9,-1.8 3.9,-4 0,-2.2 -1.7,-3.9 -3.9,-3.9 z"
           id="path24" /></g><g
         id="g26"><path
           d="m 42.2,49.5 a 1.7,1.7 0 0 1 -1.7,1.7 1.7,1.7 0 0 1 -1.7,-1.7 1.7,1.7 0 0 1 1.7,-1.7 1.7,1.7 0 0 1 1.7,1.7 z"
           id="circle28"
           inkscape:connector-curvature="0" /></g><g
         id="g30"><path
           inkscape:connector-curvature="0"
           d="m 59.8,57.7 c -3.6,0 -6.5,-2.9 -6.5,-6.5 0,-3.6 2.9,-6.5 6.5,-6.5 3.6,0 6.5,2.9 6.5,6.5 0,3.6 -2.9,6.5 -6.5,6.5 z m 0,-10.5 c -2.2,0 -3.9,1.8 -3.9,3.9 0,2.1 1.8,4 3.9,4 2.1,0 4,-1.8 4,-4 0,-2.2 -1.8,-3.9 -4,-3.9 z"
           id="path32" /></g><g
         id="g34"><path
           d="m 63.100002,49.5 a 1.7,1.7 0 0 1 -1.7,1.7 1.7,1.7 0 0 1 -1.700001,-1.7 1.7,1.7 0 0 1 1.700001,-1.7 1.7,1.7 0 0 1 1.7,1.7 z"
           id="circle36"
           inkscape:connector-curvature="0" /></g><g
         id="g38"><path
           inkscape:connector-curvature="0"
           d="m 46.6,76.2 c -1.3,0 -2.6,-0.3 -3.7,-0.9 -2.4,-1.3 -3.9,-3.9 -4.1,-7 0,-0.7 0.5,-1.3 1.2,-1.3 0,0 0.1,0 0.1,0 0.7,0 1.2,0.5 1.3,1.2 0.1,2.2 1.1,4 2.8,4.9 1.7,1 3.9,0.8 5.8,-0.4 0.6,-0.4 1.4,-0.2 1.7,0.4 0.4,0.6 0.2,1.4 -0.4,1.7 -1.5,1 -3.1,1.4 -4.7,1.4 z"
           id="path40" /></g></g><path
       style="color:#000000;clip-rule:nonzero;display:inline;overflow:visible;visibility:visible;opacity:1;isolation:auto;mix-blend-mode:normal;color-interpolation:sRGB;color-interpolation-filters:linearRGB;solid-color:#000000;solid-opacity:1;fill:#865e04;fill-opacity:1;fill-rule:nonzero;stroke:none;stroke-width:13.10000038;stroke-linecap:butt;stroke-linejoin:miter;stroke-miterlimit:4;stroke-dasharray:none;stroke-dashoffset:0;stroke-opacity:1;color-rendering:auto;image-rendering:auto;shape-rendering:auto;text-rendering:auto;enable-background:accumulate"
       d="m 151.59081,130.70504 c -13.88888,-2.99307 -24.32976,-16.45608 -25.3974,-32.748741 l -0.25769,-3.93253 -1.49811,-0.3169 c -0.82396,-0.17429 -1.85451,-0.38244 -2.2901,-0.46257 -0.4356,-0.0801 -1.60118,-0.69594 -2.59018,-1.36848 -5.93481,-4.03579 -5.25681,-12.92239 1.22533,-16.06033 2.28662,-1.10694 5.68007,-1.12044 7.81535,-0.0311 1.39079,0.70953 4.25067,3.45156 4.27836,4.10206 0.007,0.1539 0.23839,0.57829 0.5152,0.94309 0.46246,0.60949 0.71207,0.4565 3.07793,-1.88653 2.6791,-2.65324 5.81851,-4.54143 10.44816,-6.284026 3.41573,-1.285676 4.84806,-2.053828 7.57573,-4.062824 2.49182,-1.835282 2.70508,-1.728679 1.78105,0.890299 l -0.55975,1.586494 1.40243,-0.251148 c 2.16246,-0.387252 5.82148,-2.217898 7.54461,-3.774634 0.85548,-0.77288 1.65992,-1.300739 1.78764,-1.173021 0.20102,0.201022 -0.74657,3.415755 -1.51296,5.132742 -0.20416,0.457406 0.31179,0.758557 2.46767,1.44033 4.52909,1.432278 9.76912,4.648238 12.80847,7.860938 l 1.09402,1.15642 0.72228,-1.21095 c 2.06244,-3.45777 4.86534,-5.22774 8.33021,-5.26034 7.09332,-0.0667 11.56656,7.34557 8.21147,13.60665 -1.10991,2.07125 -3.80066,4.3223 -5.55156,4.64436 -0.43559,0.0801 -1.46614,0.28828 -2.2901,0.46257 l -1.4981,0.31689 -0.23918,3.74527 c -0.91039,14.255791 -9.04589,26.968371 -20.14468,31.478211 -4.82331,1.95989 -12.08104,2.57302 -17.2561,1.45779 z m 11.50491,-3.32056 c 4.36019,-1.15019 8.1352,-4.09157 9.73445,-7.5848 0.7783,-1.70003 0.91094,-2.45491 0.76704,-4.36526 -0.0957,-1.27037 -0.29695,-2.59416 -0.44725,-2.94173 -0.2105,-0.48681 0.0862,-0.81533 1.29158,-1.43029 3.72753,-1.90164 6.87891,-6.65195 7.34009,-11.06426 0.64108,-6.133461 -3.52132,-12.628631 -9.40458,-14.675311 -4.21046,-1.46475 -9.94191,-0.44986 -13.19769,2.33697 -0.84036,0.71932 -1.64535,1.30785 -1.78886,1.30785 -0.1435,0 -0.79086,-0.44738 -1.43857,-0.99417 -0.6477,-0.5468 -2.16999,-1.46453 -3.38287,-2.03941 -6.87832,-3.26019 -15.02738,-0.30461 -18.46578,6.69736 -0.94966,1.93389 -1.05155,2.52244 -1.05155,6.073921 0,3.55502 0.10133,4.13889 1.05555,6.0821 1.3113,2.67037 3.80017,5.20213 6.23619,6.34364 1.32966,0.62308 1.79254,1.02941 1.63102,1.43177 -0.47301,1.17833 -0.5619,4.8449 -0.14787,6.09942 1.92331,5.82771 9.33934,9.95241 16.90593,9.40288 1.35309,-0.0983 3.31651,-0.40457 4.36317,-0.68068 z M 127.8458,87.319729 c 1.08693,-1.08692 1.27339,-1.53115 1.27339,-3.03366 0,-4.74758 -6.60773,-6.12259 -8.36133,-1.73992 -1.20888,3.02129 0.85284,6.04698 4.12046,6.04698 1.42724,0 1.89467,-0.20059 2.96748,-1.2734 z m 64.91515,0.72599 c 0.63399,-0.32785 1.29959,-1.1498 1.65952,-2.04935 1.04463,-2.61079 0.0312,-4.91367 -2.55353,-5.80224 -2.97998,-1.02447 -5.81965,0.99333 -5.81965,4.1353 0,1.4532 0.19559,1.9125 1.27339,2.9903 1.03902,1.03902 1.55944,1.2734 2.82755,1.2734 0.85479,0 2.03051,-0.24634 2.61272,-0.54741 z"
       id="path4929"
       inkscape:connector-curvature="0" /><path
       style="color:#000000;clip-rule:nonzero;display:inline;overflow:visible;visibility:visible;opacity:1;isolation:auto;mix-blend-mode:normal;color-interpolation:sRGB;color-interpolation-filters:linearRGB;solid-color:#000000;solid-opacity:1;fill:#ffffff;fill-opacity:1;fill-rule:nonzero;stroke:none;stroke-width:13.10000038;stroke-linecap:butt;stroke-linejoin:miter;stroke-miterlimit:4;stroke-dasharray:none;stroke-dashoffset:0;stroke-opacity:1;color-rendering:auto;image-rendering:auto;shape-rendering:auto;text-rendering:auto;enable-background:accumulate"
       d="m 123.26917,85.758729 c -0.41198,-0.41198 -0.74906,-1.08613 -0.74906,-1.49811 0,-0.96462 1.28255,-2.24716 2.24716,-2.24716 0.96462,0 2.24717,1.28254 2.24717,2.24716 0,0.96462 -1.28255,2.24716 -2.24717,2.24716 -0.41197,0 -1.08612,-0.33707 -1.4981,-0.74905 z"
       id="path6468"
       inkscape:connector-curvature="0" /><path
       style="color:#000000;clip-rule:nonzero;display:inline;overflow:visible;visibility:visible;opacity:1;isolation:auto;mix-blend-mode:normal;color-interpolation:sRGB;color-interpolation-filters:linearRGB;solid-color:#000000;solid-opacity:1;fill:#ffffff;fill-opacity:1;fill-rule:nonzero;stroke:none;stroke-width:13.10000038;stroke-linecap:butt;stroke-linejoin:miter;stroke-miterlimit:4;stroke-dasharray:none;stroke-dashoffset:0;stroke-opacity:1;color-rendering:auto;image-rendering:auto;shape-rendering:auto;text-rendering:auto;enable-background:accumulate"
       d="m 143.4764,100.08438 c -0.82355,-0.73591 -1.21315,-1.48139 -1.36466,-2.611231 -0.19309,-1.43991 -0.0939,-1.69941 1.10925,-2.90258 1.32404,-1.32404 2.94569,-1.70924 4.57062,-1.0857 0.51894,0.19914 0.48071,0.30206 -0.24695,0.66483 -1.00783,0.50246 -1.30504,1.53028 -0.66537,2.30103 0.61528,0.74137 2.20045,0.68789 2.49674,-0.0842 0.41544,-1.08261 0.80154,0.63148 0.43673,1.938891 -0.78001,2.79544 -4.1424,3.73947 -6.33636,1.779 z"
       id="path6470"
       inkscape:connector-curvature="0" /><path
       style="color:#000000;clip-rule:nonzero;display:inline;overflow:visible;visibility:visible;opacity:1;isolation:auto;mix-blend-mode:normal;color-interpolation:sRGB;color-interpolation-filters:linearRGB;solid-color:#000000;solid-opacity:1;fill:#ffffff;fill-opacity:1;fill-rule:nonzero;stroke:none;stroke-width:13.10000038;stroke-linecap:butt;stroke-linejoin:miter;stroke-miterlimit:4;stroke-dasharray:none;stroke-dashoffset:0;stroke-opacity:1;color-rendering:auto;image-rendering:auto;shape-rendering:auto;text-rendering:auto;enable-background:accumulate"
       d="m 165.5482,100.59386 c -1.4493,-0.98638 -1.98354,-1.91889 -1.98354,-3.462221 0,-2.93999 2.85694,-4.73752 5.56145,-3.49915 l 0.79449,0.3638 -0.84179,0.0215 c -1.05222,0.0269 -1.6741,0.62659 -1.6741,1.61439 0,0.81093 0.80483,1.58508 1.64791,1.58508 0.70201,0 1.52877,-0.96004 1.53944,-1.7876 l 0.009,-0.72829 0.37847,0.66208 c 0.20817,0.36414 0.3827,1.14063 0.38787,1.72553 0.0269,3.051491 -3.42826,5.132391 -5.81958,3.504871 z"
       id="path6706"
       inkscape:connector-curvature="0" /><path
       style="color:#000000;clip-rule:nonzero;display:inline;overflow:visible;visibility:visible;opacity:1;isolation:auto;mix-blend-mode:normal;color-interpolation:sRGB;color-interpolation-filters:linearRGB;solid-color:#000000;solid-opacity:1;fill:#f6a6c4;fill-opacity:1;fill-rule:nonzero;stroke:none;stroke-width:13.10000038;stroke-linecap:butt;stroke-linejoin:miter;stroke-miterlimit:4;stroke-dasharray:none;stroke-dashoffset:0;stroke-opacity:1;color-rendering:auto;image-rendering:auto;shape-rendering:auto;text-rendering:auto;enable-background:accumulate"
       d="m 151.80754,124.88355 c -3.92272,-1.34902 -6.67916,-3.74881 -7.65555,-6.66504 -0.64669,-1.93152 -0.51243,-3.39491 0.51373,-5.59921 1.09604,-2.35441 1.08755,-2.3036 0.38492,-2.3036 -1.57899,0 -4.85823,-1.69637 -6.55044,-3.38859 -4.64232,-4.64232 -4.49023,-12.694401 0.31953,-16.917431 5.22046,-4.58362 12.91888,-3.88505 17.30275,1.5701 l 1.1752,1.46238 1.43751,-1.81859 c 4.01238,-5.07603 11.90179,-5.67516 16.79533,-1.27545 3.37467,3.03411 4.69551,7.17073 3.62451,11.351261 -1.07704,4.20409 -3.90762,7.2448 -7.92218,8.51028 l -1.97509,0.6226 0.99785,1.53346 c 0.82462,1.26723 0.99769,1.96111 0.99688,3.99671 -8.2e-4,2.0619 -0.16955,2.71798 -1.03554,4.02659 -1.40369,2.12112 -4.09426,4.02708 -6.96163,4.93151 -3.2576,1.02751 -8.40074,1.0109 -11.44778,-0.037 l 0,-10e-6 z m 6.09099,-3.61067 c 1.49809,-0.70428 1.8634,-1.44846 1.09046,-2.22139 -0.47246,-0.47247 -0.7186,-0.48943 -1.44688,-0.0996 -3.49199,1.86886 -7.69729,0.30332 -8.38616,-3.12201 -0.45773,-2.27604 -0.60018,-2.51792 -1.48284,-2.51792 -1.12918,0 -1.35051,0.65403 -0.90331,2.66921 1.14372,5.15378 6.25371,7.58359 11.12873,5.29176 z m 0.86971,-11.51854 c 0.38804,-1.46166 1.25272,-2.06034 2.97575,-2.06034 1.95113,0 2.58073,-0.3198 2.58073,-1.31085 0,-1.52412 -2.85401,-1.80911 -5.46403,-0.54562 l -1.58072,0.76521 -1.25284,-0.76381 c -1.48574,-0.90581 -4.85052,-1.05958 -5.52051,-0.2523 -0.7321,0.88213 -0.0823,1.73284 1.32355,1.73284 1.72286,0 3.88043,0.94015 3.88043,1.69089 0,2.2265 2.50242,2.83538 3.05764,0.74398 z m -9.13867,-7.17515 c 2.66134,-1.97145 3.52143,-5.542591 2.01681,-8.374001 -1.84792,-3.47747 -6.65929,-4.40381 -9.57526,-1.84355 -3.42035,3.00311 -3.03958,7.989761 0.79171,10.368271 1.80138,1.11833 5.15442,1.04364 6.76674,-0.15072 z m 21.3249,0.0113 c 1.73046,-1.29198 2.47285,-2.62072 2.64865,-4.740551 0.48152,-5.80655 -5.9621,-9.19514 -10.27851,-5.40529 -2.47653,2.17443 -3.00781,4.93507 -1.49985,7.793541 1.24448,2.35901 3.17751,3.40614 5.96937,3.23362 1.4071,-0.087 2.50731,-0.39377 3.16034,-0.88132 z"
       id="path4931"
       inkscape:connector-curvature="0" /><path
       style="color:#000000;clip-rule:nonzero;display:inline;overflow:visible;visibility:visible;opacity:1;isolation:auto;mix-blend-mode:normal;color-interpolation:sRGB;color-interpolation-filters:linearRGB;solid-color:#000000;solid-opacity:1;fill:#ffffff;fill-opacity:1;fill-rule:nonzero;stroke:none;stroke-width:13.10000038;stroke-linecap:butt;stroke-linejoin:miter;stroke-miterlimit:4;stroke-dasharray:none;stroke-dashoffset:0;stroke-opacity:1;color-rendering:auto;image-rendering:auto;shape-rendering:auto;text-rendering:auto;enable-background:accumulate"
       d="m 188.79165,85.707132 c -1.01767,-1.45294 -0.25001,-3.09608 1.44647,-3.09608 2.25955,0 3.16394,1.87947 1.63844,3.40497 -1.14265,1.14265 -2.13802,1.04298 -3.08491,-0.30889 z"
       id="path6160"
       inkscape:connector-curvature="0" /></g><g
     inkscape:groupmode="layer"
     id="layer3"
     inkscape:label="cloud"
     transform="translate(-107.58701,-72.300941)"
     style="display:none"><path
       style="display:inline;fill:none;stroke:#ffffff;stroke-width:9.87657452;stroke-miterlimit:4;stroke-dasharray:none;stroke-opacity:1"
       inkscape:connector-curvature="0"
       d="m 263.81581,69.055512 c -3.57228,0.22389 -7.074,-0.571604 -10.19613,-2.307148 -2.53754,2.066166 -5.67618,3.301935 -8.96032,3.507767 -5.50635,0.345107 -10.80556,-2.267406 -13.92673,-6.75102 -1.72902,0.96012 -3.64539,1.524764 -5.62516,1.648845 -7.33896,0.459965 -13.68371,-5.133467 -14.14399,-12.468938 -0.34289,-5.464438 2.70113,-10.52564 7.54877,-12.842288 -0.83123,-2.130926 -1.32466,-4.356083 -1.46766,-6.635061 -0.76629,-12.212351 8.55175,-22.77113 20.77119,-23.5369771 6.31655,-0.395886 12.39575,1.8825281 16.89689,6.2874381 2.05213,-1.437348 4.43061,-2.271083 6.958,-2.429486 7.5388,-0.47249 14.05724,5.274022 14.53005,12.809207 0.20076,3.199397 -0.7465,6.369712 -2.63112,8.939747 4.52079,3.25583 7.36976,8.358801 7.72216,13.974976 0.644,10.275582 -7.19522,19.158599 -17.47595,19.802938 z m -10.55887,-6.179515 1.02398,0.654702 c 2.80941,1.79555 6.03941,2.63527 9.34059,2.428371 8.57205,-0.537249 15.10885,-7.944434 14.57135,-16.510729 -0.32584,-5.19272 -3.21201,-9.859721 -7.7204,-12.484494 l -1.71101,-0.995547 1.37574,-1.422928 c 2.07021,-2.140249 3.15056,-5.060881 2.96535,-8.012565 -0.36571,-5.828277 -5.40664,-10.272403 -11.23752,-9.906955 -2.33531,0.146364 -4.50701,1.040978 -6.28095,2.58678 l -1.15158,1.00476 -1.02306,-1.135802 c -3.93883,-4.378763 -9.55133,-6.67943 -15.39847,-6.312963 -10.51156,0.658805 -18.52639,9.741698 -17.86725,20.246365 0.15223,2.426054 0.76661,4.78196 1.8252,7.004332 l 0.75665,1.58693 -1.66986,0.552294 c -4.40773,1.458304 -7.28262,5.707665 -6.99239,10.332974 0.35313,5.627781 5.22119,9.919539 10.85147,9.566664 1.94181,-0.121702 3.80684,-0.798147 5.39363,-1.95531 l 1.42533,-1.041338 0.84978,1.546899 c 2.35516,4.284499 7.01969,6.856749 11.88315,6.551935 2.95417,-0.185152 5.76381,-1.409628 7.90971,-3.44659 l 0.88056,-0.837785 z"
       id="path104-6" /><path
       style="display:inline;stroke:none;stroke-opacity:1"
       inkscape:connector-curvature="0"
       d="m 263.81581,69.055514 c -3.57228,0.223891 -7.07401,-0.571615 -10.19613,-2.307148 -2.53754,2.066166 -5.67618,3.301935 -8.96032,3.507767 -5.50635,0.345108 -10.80556,-2.267406 -13.92673,-6.751031 -1.72902,0.96012 -3.64539,1.524764 -5.62516,1.648845 -7.33896,0.459965 -13.68371,-5.133467 -14.14399,-12.468927 -0.34289,-5.464442 2.70113,-10.525645 7.54877,-12.842293 -0.83123,-2.130926 -1.32466,-4.356085 -1.46766,-6.635062 -0.76629,-12.212349 8.55175,-22.771127 20.77119,-23.5369745 6.31655,-0.3958856 12.39575,1.8825275 16.89689,6.2874365 2.05213,-1.437347 4.43061,-2.271083 6.958,-2.429485 7.5388,-0.47249 14.05724,5.274022 14.53005,12.809206 0.20076,3.199397 -0.7465,6.369711 -2.63112,8.939747 4.52079,3.25583 7.36976,8.358798 7.72216,13.974981 0.644,10.275571 -7.19522,19.158599 -17.47595,19.802938 z m -10.55887,-6.179515 1.02398,0.654691 c 2.80941,1.79555 6.03941,2.635281 9.34059,2.428382 8.57205,-0.537248 15.10885,-7.944434 14.57135,-16.510729 -0.32584,-5.192725 -3.21201,-9.859726 -7.7204,-12.484498 l -1.71101,-0.995547 1.37574,-1.422929 c 2.07021,-2.140249 3.15056,-5.06088 2.96535,-8.012564 -0.36571,-5.828277 -5.40664,-10.272404 -11.23752,-9.906956 -2.33531,0.146363 -4.50701,1.040979 -6.28095,2.586781 l -1.15158,1.00476 -1.02306,-1.135802 c -3.93883,-4.378763 -9.55133,-6.67943 -15.39847,-6.312963 -10.51156,0.658805 -18.52639,9.741697 -17.86725,20.246364 0.15223,2.426052 0.76661,4.78196 1.8252,7.004333 l 0.75665,1.586929 -1.66986,0.552295 c -4.40773,1.458304 -7.28262,5.707664 -6.99239,10.332978 0.35313,5.62777 5.22119,9.919539 10.85147,9.566665 1.94181,-0.121703 3.80684,-0.798148 5.39363,-1.95531 l 1.42533,-1.041339 0.84978,1.546899 c 2.35516,4.284499 7.01969,6.856738 11.88315,6.551924 2.95417,-0.185152 5.76381,-1.409628 7.90971,-3.446579 l 0.88056,-0.837785 z"
       id="path104" /><path
       style="display:inline"
       inkscape:connector-curvature="0"
       d="m 163.23183,70.893614 c -3.049,0 -5.53,-2.48 -5.53,-5.53 0,-3.049998 2.48,-5.529998 5.53,-5.529998 3.05,0 5.531,2.48 5.531,5.529998 0,3.05 -2.481,5.53 -5.531,5.53 z m 0,-8.060998 c -1.395,0 -2.53,1.134998 -2.53,2.529998 0,1.395 1.135,2.53 2.53,2.53 1.396,0 2.531,-1.135 2.531,-2.53 0,-1.395 -1.136,-2.529998 -2.531,-2.529998 z"
       id="path108" /><path
       style="display:inline"
       inkscape:connector-curvature="0"
       d="m 179.5261,61.315954 c -3.88414,0 -7.04405,-3.1599 -7.04405,-7.044032 0,-3.884131 3.15991,-7.044032 7.04405,-7.044032 3.88498,0 7.04574,3.159901 7.04574,7.044032 0,3.884132 -3.16076,7.044032 -7.04574,7.044032 z m 0,-11.534953 c -2.47653,0 -4.49093,2.014403 -4.49093,4.490921 0,2.476516 2.0144,4.490921 4.49093,4.490921 2.47737,0 4.49263,-2.014405 4.49263,-4.490921 0,-2.476518 -2.01526,-4.490921 -4.49263,-4.490921 z"
       id="path106-0" /><path
       inkscape:connector-curvature="0"
       d="m 199.66714,60.137371 c -5.73222,0 -10.39563,-4.66341 -10.39563,-10.395645 0,-5.732236 4.66341,-10.395644 10.39563,-10.395644 5.7335,0 10.39816,4.663408 10.39816,10.395644 0,5.732235 -4.66466,10.395645 -10.39816,10.395645 z m 0,-17.023386 c -3.65485,0 -6.62773,2.972875 -6.62773,6.627741 0,3.654865 2.97288,6.62774 6.62773,6.62774 3.65613,0 6.63026,-2.972875 6.63026,-6.62774 0,-3.654866 -2.97413,-6.627741 -6.63026,-6.627741 z"
       id="path106-9"
       style="display:inline;stroke:none;stroke-opacity:1" /><path
       style="color:#000000;clip-rule:nonzero;display:inline;overflow:visible;visibility:visible;opacity:1;isolation:auto;mix-blend-mode:normal;color-interpolation:sRGB;color-interpolation-filters:linearRGB;solid-color:#000000;solid-opacity:1;fill:#ffffff;fill-opacity:1;fill-rule:nonzero;stroke:none;stroke-width:13.10000038;stroke-linecap:butt;stroke-linejoin:miter;stroke-miterlimit:4;stroke-dasharray:none;stroke-dashoffset:0;stroke-opacity:1;color-rendering:auto;image-rendering:auto;shape-rendering:auto;text-rendering:auto;enable-background:accumulate"
       d="m 240.46664,66.83722 c -2.62862,-0.632874 -5.81683,-2.974057 -7.54764,-5.542416 l -1.30451,-1.935785 -2.09208,1.297805 c -2.89612,1.796595 -7.28649,1.887928 -10.20152,0.212215 -5.97177,-3.432901 -7.07662,-11.539097 -2.22997,-16.361288 0.81938,-0.815265 2.30846,-1.784431 3.30905,-2.153679 2.03953,-0.752675 2.09521,-0.984917 0.90327,-3.766981 -1.64378,-3.836655 -1.47874,-10.248684 0.3737,-14.518624 1.24605,-2.872228 4.96343,-7.020714 7.75801,-8.657715 7.3769,-4.321258 15.59853,-3.505773 22.41621,2.223406 2.65528,2.231347 2.89073,2.334826 3.61738,1.589754 2.29017,-2.348161 7.45625,-3.28837 10.89016,-1.98198 3.71332,1.41269 6.57868,5.455033 6.83048,9.636175 0.13138,2.165118 -1.35531,6.099462 -2.91964,7.731506 l -1.1402,1.18954 2.89307,2.304456 c 4.18217,3.331289 5.74363,6.251803 6.0629,11.340021 0.2101,3.34823 0.0835,4.312336 -0.86617,6.596116 -1.3186,3.171053 -4.64416,6.858597 -7.59128,8.417546 -4.15345,2.197088 -10.96012,1.911588 -15.05356,-0.631405 l -1.3483,-0.837598 -1.52364,1.320119 c -2.95247,2.558036 -7.17083,3.50745 -11.23572,2.528812 z"
       id="path6418"
       inkscape:connector-curvature="0" /><g
       transform="matrix(0.56011971,0,0,0.56011971,226.3644,26.755392)"
       style="font-style:normal;font-weight:normal;font-size:63.35665894px;line-height:125%;font-family:sans-serif;letter-spacing:3.16783285px;word-spacing:0px;display:inline;fill:#865e04;fill-opacity:1;stroke:none;stroke-width:4;stroke-linecap:butt;stroke-linejoin:miter;stroke-miterlimit:4;stroke-dasharray:none;stroke-opacity:1"
       id="flowRoot4168-3"><path
         d="m 35.636698,24.431541 q 1.106148,0 1.587082,0.480935 0.529028,0.480934 0.529028,1.250428 0,1.250429 -0.769495,2.212298 -0.721401,0.961868 -2.308484,1.009961 -3.847473,0.09619 -6.829265,-0.577121 -3.414633,7.16592 -8.272068,11.927168 -4.809342,4.713155 -9.6667771,4.713155 -5.0017154,0 -7.4544798,-5.819304 -2.45276429608,-5.819303 -2.45276429608,-15.726547 0,-8.464442 1.20233549608,-15.1975204 Q 1.634651,6.2041359 2.4041457,5.3384543 3.2217338,4.4246794 5.1454705,4.4246794 q 3.1741656,0 3.1741656,2.7413248 0,0.2885605 -0.096187,1.0580552 -1.4428025,8.6568156 -1.4428025,15.6784546 0,7.358293 1.2023354,11.205766 1.2504289,3.79938 3.703193,3.79938 2.500858,0 5.434557,-3.462726 2.933698,-3.462726 5.386462,-8.704909 -2.933698,-1.827549 -4.424594,-4.713155 -1.490896,-2.933698 -1.490896,-6.733078 0,-3.79938 1.154242,-6.3964247 1.202336,-2.645138 3.222259,-3.9436603 2.068017,-1.2985223 4.568875,-1.2985223 3.077979,0 4.857435,2.2122972 1.82755,2.2122973 1.82755,6.0597711 0,5.530743 -2.404671,12.071448 2.548951,0.43284 5.819304,0.43284 z M 21.449139,14.957138 q 0,4.713155 3.029886,6.973546 1.875643,-5.386463 1.875643,-8.897283 0,-2.019923 -0.529028,-2.933698 -0.529027,-0.9618686 -1.442802,-0.9618686 -1.298522,0 -2.116111,1.5389896 -0.817588,1.490896 -0.817588,4.280314 z"
         style="fill:#de1763;fill-opacity:1"
         id="path6582"
         inkscape:connector-curvature="0" /><path
         d="m 38.666836,45.448365 q -2.164203,0 -3.558913,-1.97183 -1.346615,-2.019924 -1.346615,-5.001716 0,-3.607006 0.480934,-6.588798 0.480934,-3.029885 1.587083,-6.396424 0.480934,-1.442803 1.346615,-2.068017 0.865682,-0.625215 2.741325,-0.625215 1.058055,0 1.442803,0.336654 0.432841,0.336654 0.432841,1.009962 0,0.384747 -0.529028,2.597044 -0.480934,1.779457 -0.769495,3.222259 -0.961868,5.049809 -0.961868,6.733079 0,1.009962 0.240467,1.442803 0.240467,0.384747 0.769495,0.384747 0.721401,0 1.779456,-1.442803 1.106149,-1.442802 2.308484,-4.376501 1.250429,-2.933698 2.404671,-7.214012 0.384747,-1.442803 1.154242,-2.068017 0.817588,-0.625215 2.404671,-0.625215 1.106149,0 1.538989,0.288561 0.432841,0.240467 0.432841,0.961868 0,1.202335 -1.202335,6.588798 -1.346616,6.155958 -1.346616,7.59876 0,0.913775 0.384747,1.442803 0.384748,0.480934 1.009962,0.480934 0.961869,0 2.260391,-1.154242 1.346616,-1.202335 3.558913,-3.847473 0.577121,-0.673308 1.298522,-0.673308 0.625214,0 0.961868,0.577121 0.384748,0.577121 0.384748,1.587083 0,1.923736 -0.913775,2.981791 -2.068017,2.548952 -4.472688,4.184128 -2.356578,1.635176 -5.386463,1.635176 -2.308484,0 -3.414633,-1.779456 -1.058055,-1.779457 -1.058055,-5.001716 -0.817588,3.270353 -2.452764,5.049809 -1.635176,1.731363 -3.51082,1.731363 z"
         style="fill:#de1763;fill-opacity:1"
         id="path6584"
         inkscape:connector-curvature="0" /><path
         d="m 73.881988,35.925868 q 0.625214,0 0.961868,0.577121 0.384747,0.577121 0.384747,1.587083 0,1.731363 -0.817588,2.981792 -1.346615,2.068017 -3.558913,3.222259 -2.164203,1.154242 -5.194089,1.154242 -4.616968,0 -7.165919,-2.741325 -2.548951,-2.789418 -2.548951,-7.502573 0,-3.318446 1.394709,-6.155958 1.394709,-2.885605 3.847473,-4.568874 2.500858,-1.68327 5.62693,-1.68327 2.789419,0 4.472688,1.68327 1.68327,1.635176 1.68327,4.472688 0,3.318445 -2.404671,5.723116 -2.356578,2.356578 -8.079694,3.751287 1.154242,2.212297 3.895567,2.212297 1.97183,0 3.222259,-0.913775 1.298522,-0.913775 2.981791,-3.077978 0.577122,-0.721402 1.298523,-0.721402 z M 65.994667,27.50952 q -1.779456,0 -3.029885,2.068017 -1.202336,2.068017 -1.202336,5.001716 l 0,0.09619 q 2.837512,-0.673307 4.472688,-2.019923 1.635177,-1.346616 1.635177,-3.126072 0,-0.913775 -0.529028,-1.442803 -0.480934,-0.577121 -1.346616,-0.577121 z"
         style="fill:#de1763;fill-opacity:1"
         id="path6586"
         inkscape:connector-curvature="0" /></g><path
       style="color:#000000;clip-rule:nonzero;display:inline;overflow:visible;visibility:visible;opacity:1;isolation:auto;mix-blend-mode:normal;color-interpolation:sRGB;color-interpolation-filters:linearRGB;solid-color:#000000;solid-opacity:1;fill:#ffffff;fill-opacity:1;fill-rule:nonzero;stroke:none;stroke-width:13.10000038;stroke-linecap:butt;stroke-linejoin:miter;stroke-miterlimit:4;stroke-dasharray:none;stroke-dashoffset:0;stroke-opacity:1;color-rendering:auto;image-rendering:auto;shape-rendering:auto;text-rendering:auto;enable-background:accumulate"
       d="m 196.73056,55.610737 c -2.01412,-0.996975 -3.91708,-3.866904 -3.8943,-5.873125 0.0235,-2.071946 1.78572,-4.845471 3.69872,-5.821409 2.28824,-1.167368 3.84887,-1.220729 5.98978,-0.204799 5.05259,2.397613 5.07342,9.674257 0.0343,11.962067 -2.5224,1.145178 -3.40742,1.135653 -5.82842,-0.06274 z"
       id="path6460"
       inkscape:connector-curvature="0" /><path
       style="color:#000000;clip-rule:nonzero;display:inline;overflow:visible;visibility:visible;opacity:1;isolation:auto;mix-blend-mode:normal;color-interpolation:sRGB;color-interpolation-filters:linearRGB;solid-color:#000000;solid-opacity:1;fill:#ffffff;fill-opacity:1;fill-rule:nonzero;stroke:none;stroke-width:13.10000038;stroke-linecap:butt;stroke-linejoin:miter;stroke-miterlimit:4;stroke-dasharray:none;stroke-dashoffset:0;stroke-opacity:1;color-rendering:auto;image-rendering:auto;shape-rendering:auto;text-rendering:auto;enable-background:accumulate"
       d="m 177.27614,58.182094 c -1.34945,-0.760047 -2.2426,-2.471367 -2.2426,-4.296942 0,-1.096379 0.30178,-1.722102 1.32317,-2.743483 1.12939,-1.129407 1.59099,-1.323161 3.15224,-1.323161 1.56124,0 2.02282,0.193754 3.15222,1.323161 1.11994,1.119928 1.32318,1.597184 1.32318,3.107182 0,2.494618 -1.47248,4.142936 -3.90428,4.370535 -1.11638,0.104484 -2.11989,-0.05203 -2.80393,-0.437292 z"
       id="path6462"
       inkscape:connector-curvature="0" /><path
       style="color:#000000;clip-rule:nonzero;display:inline;overflow:visible;visibility:visible;opacity:1;isolation:auto;mix-blend-mode:normal;color-interpolation:sRGB;color-interpolation-filters:linearRGB;solid-color:#000000;solid-opacity:1;fill:#ffffff;fill-opacity:1;fill-rule:nonzero;stroke:none;stroke-width:13.10000038;stroke-linecap:butt;stroke-linejoin:miter;stroke-miterlimit:4;stroke-dasharray:none;stroke-dashoffset:0;stroke-opacity:1;color-rendering:auto;image-rendering:auto;shape-rendering:auto;text-rendering:auto;enable-background:accumulate"
       d="m 161.27255,66.961494 c -0.83788,-1.27878 -0.57477,-2.81533 0.63622,-3.715391 0.87587,-0.650989 1.15045,-0.687983 2.1214,-0.285805 0.63459,0.262858 1.31442,0.942686 1.57728,1.577276 0.40219,0.97098 0.36518,1.2455 -0.28598,2.1214 -1.0678,1.43635 -3.20155,1.59577 -4.04892,0.30252 z"
       id="path6464"
       inkscape:connector-curvature="0" /></g><g
     inkscape:groupmode="layer"
     id="layer11"
     inkscape:label="little vue"
     style="display:none"
     transform="translate(27.635325,-67.612203)"><g
       transform="matrix(0.51553451,0,0,0.51553451,71.344935,65.790577)"
       style="font-style:normal;font-weight:normal;font-size:63.35665894px;line-height:125%;font-family:sans-serif;letter-spacing:3.16783285px;word-spacing:0px;display:inline;fill:none;fill-opacity:1;stroke:#ffffff;stroke-width:14.28265953;stroke-linecap:butt;stroke-linejoin:miter;stroke-miterlimit:4;stroke-dasharray:none;stroke-opacity:1"
       id="flowRoot4168-3-5-7"><path
         d="m 35.636698,33.464113 q 1.106148,0 1.587082,0.480935 0.529028,0.480934 0.529028,1.250428 0,1.250429 -0.769495,2.212298 -0.721401,0.961868 -2.308484,1.009961 -3.847473,0.09619 -6.829265,-0.577121 -3.414633,7.16592 -8.272068,11.927168 -4.809342,4.713155 -9.6667771,4.713155 -5.0017154,0 -7.4544798,-5.819304 -2.45276429608,-5.819303 -2.45276429608,-15.726547 0,-8.464442 1.20233549608,-15.19752 0.4328407,-2.500858 1.2023354,-3.366539 0.8175881,-0.913775 2.7413248,-0.913775 3.1741656,0 3.1741656,2.741324 0,0.288561 -0.096187,1.058056 -1.4428025,8.656815 -1.4428025,15.678454 0,7.358293 1.2023354,11.205766 1.2504289,3.79938 3.703193,3.79938 2.500858,0 5.434557,-3.462726 2.933698,-3.462726 5.386462,-8.704909 -2.933698,-1.827549 -4.424594,-4.713155 -1.490896,-2.933698 -1.490896,-6.733078 0,-3.79938 1.154242,-6.396424 1.202336,-2.645138 3.222259,-3.94366 2.068017,-1.298523 4.568875,-1.298523 3.077979,0 4.857435,2.212297 1.82755,2.212297 1.82755,6.059771 0,5.530743 -2.404671,12.071448 2.548951,0.43284 5.819304,0.43284 z M 21.449139,23.98971 q 0,4.713155 3.029886,6.973546 1.875643,-5.386463 1.875643,-8.897283 0,-2.019923 -0.529028,-2.933698 -0.529027,-0.961868 -1.442802,-0.961868 -1.298522,0 -2.116111,1.538989 -0.817588,1.490896 -0.817588,4.280314 z"
         style="fill:none;fill-opacity:1;stroke:#ffffff;stroke-width:14.28265953;stroke-miterlimit:4;stroke-dasharray:none;stroke-opacity:1"
         id="path6582-2-4"
         inkscape:connector-curvature="0" /><path
         d="m 38.666836,45.448365 q -2.164203,0 -3.558913,-1.97183 -1.346615,-2.019924 -1.346615,-5.001716 0,-3.607006 0.480934,-6.588798 0.480934,-3.029885 1.587083,-6.396424 0.480934,-1.442803 1.346615,-2.068017 0.865682,-0.625215 2.741325,-0.625215 1.058055,0 1.442803,0.336654 0.432841,0.336654 0.432841,1.009962 0,0.384747 -0.529028,2.597044 -0.480934,1.779457 -0.769495,3.222259 -0.961868,5.049809 -0.961868,6.733079 0,1.009962 0.240467,1.442803 0.240467,0.384747 0.769495,0.384747 0.721401,0 1.779456,-1.442803 1.106149,-1.442802 2.308484,-4.376501 1.250429,-2.933698 2.404671,-7.214012 0.384747,-1.442803 1.154242,-2.068017 0.817588,-0.625215 2.404671,-0.625215 1.106149,0 1.538989,0.288561 0.432841,0.240467 0.432841,0.961868 0,1.202335 -1.202335,6.588798 -1.346616,6.155958 -1.346616,7.59876 0,0.913775 0.384747,1.442803 0.384748,0.480934 1.009962,0.480934 0.961869,0 2.260391,-1.154242 1.346616,-1.202335 3.558913,-3.847473 0.577121,-0.673308 1.298522,-0.673308 0.625214,0 0.961868,0.577121 0.384748,0.577121 0.384748,1.587083 0,1.923736 -0.913775,2.981791 -2.068017,2.548952 -4.472688,4.184128 -2.356578,1.635176 -5.386463,1.635176 -2.308484,0 -3.414633,-1.779456 -1.058055,-1.779457 -1.058055,-5.001716 -0.817588,3.270353 -2.452764,5.049809 -1.635176,1.731363 -3.51082,1.731363 z"
         style="fill:none;fill-opacity:1;stroke:#ffffff;stroke-width:14.28265953;stroke-miterlimit:4;stroke-dasharray:none;stroke-opacity:1"
         id="path6584-5-4"
         inkscape:connector-curvature="0" /><path
         d="m 73.881988,35.925868 q 0.625214,0 0.961868,0.577121 0.384747,0.577121 0.384747,1.587083 0,1.731363 -0.817588,2.981792 -1.346615,2.068017 -3.558913,3.222259 -2.164203,1.154242 -5.194089,1.154242 -4.616968,0 -7.165919,-2.741325 -2.548951,-2.789418 -2.548951,-7.502573 0,-3.318446 1.394709,-6.155958 1.394709,-2.885605 3.847473,-4.568874 2.500858,-1.68327 5.62693,-1.68327 2.789419,0 4.472688,1.68327 1.68327,1.635176 1.68327,4.472688 0,3.318445 -2.404671,5.723116 -2.356578,2.356578 -8.079694,3.751287 1.154242,2.212297 3.895567,2.212297 1.97183,0 3.222259,-0.913775 1.298522,-0.913775 2.981791,-3.077978 0.577122,-0.721402 1.298523,-0.721402 z M 65.994667,27.50952 q -1.779456,0 -3.029885,2.068017 -1.202336,2.068017 -1.202336,5.001716 l 0,0.09619 q 2.837512,-0.673307 4.472688,-2.019923 1.635177,-1.346616 1.635177,-3.126072 0,-0.913775 -0.529028,-1.442803 -0.480934,-0.577121 -1.346616,-0.577121 z"
         style="fill:none;fill-opacity:1;stroke:#ffffff;stroke-width:14.28265953;stroke-miterlimit:4;stroke-dasharray:none;stroke-opacity:1"
         id="path6586-4-3"
         inkscape:connector-curvature="0" /></g><g
       transform="matrix(0.51553451,0,0,0.51553451,71.454135,65.22746)"
       style="font-style:normal;font-weight:normal;font-size:63.35665894px;line-height:125%;font-family:sans-serif;letter-spacing:3.16783285px;word-spacing:0px;display:inline;fill:#865e04;fill-opacity:1;stroke:none;stroke-width:4;stroke-linecap:butt;stroke-linejoin:miter;stroke-miterlimit:4;stroke-dasharray:none;stroke-opacity:1"
       id="flowRoot4168-3-5"><path
         d="m 35.636698,35.143536 q 1.106148,0 1.587082,0.480935 0.529028,0.480934 0.529028,1.250428 0,1.250429 -0.769495,2.212298 -0.721401,0.961868 -2.308484,1.009961 -3.847473,0.09619 -6.829265,-0.577121 -3.414633,7.16592 -8.272068,11.927168 -4.809342,4.713155 -9.6667769,4.713155 -5.0017156,0 -7.45448,-5.819304 -2.45276425231,-5.819303 -2.45276425231,-15.726547 0,-8.464442 1.20233545231,-15.19752 0.4328407,-2.500858 1.2023354,-3.366539 0.8175881,-0.913775 2.7413248,-0.913775 3.1741656,0 3.1741656,2.741324 0,0.288561 -0.09619,1.058056 -1.442803,8.656815 -1.442803,15.678454 0,7.358293 1.202336,11.205766 1.250429,3.79938 3.7031929,3.79938 2.500858,0 5.434557,-3.462726 2.933698,-3.462726 5.386462,-8.704909 -2.933698,-1.827549 -4.424594,-4.713155 -1.490896,-2.933698 -1.490896,-6.733078 0,-3.79938 1.154242,-6.396424 1.202336,-2.645138 3.222259,-3.94366 2.068017,-1.298523 4.568875,-1.298523 3.077979,0 4.857435,2.212297 1.82755,2.212297 1.82755,6.059771 0,5.530743 -2.404671,12.071448 2.548951,0.43284 5.819304,0.43284 z M 21.449139,25.669133 q 0,4.713155 3.029886,6.973546 1.875643,-5.386463 1.875643,-8.897283 0,-2.019923 -0.529028,-2.933698 -0.529027,-0.961868 -1.442802,-0.961868 -1.298522,0 -2.116111,1.538989 -0.817588,1.490896 -0.817588,4.280314 z"
         style="fill:#de1763;fill-opacity:1;stroke:none;stroke-opacity:1"
         id="path6582-2"
         inkscape:connector-curvature="0" /><path
         d="m 38.666836,45.448365 q -2.164203,0 -3.558913,-1.97183 -1.346615,-2.019924 -1.346615,-5.001716 0,-3.607006 0.480934,-6.588798 0.480934,-3.029885 1.587083,-6.396424 0.480934,-1.442803 1.346615,-2.068017 0.865682,-0.625215 2.741325,-0.625215 1.058055,0 1.442803,0.336654 0.432841,0.336654 0.432841,1.009962 0,0.384747 -0.529028,2.597044 -0.480934,1.779457 -0.769495,3.222259 -0.961868,5.049809 -0.961868,6.733079 0,1.009962 0.240467,1.442803 0.240467,0.384747 0.769495,0.384747 0.721401,0 1.779456,-1.442803 1.106149,-1.442802 2.308484,-4.376501 1.250429,-2.933698 2.404671,-7.214012 0.384747,-1.442803 1.154242,-2.068017 0.817588,-0.625215 2.404671,-0.625215 1.106149,0 1.538989,0.288561 0.432841,0.240467 0.432841,0.961868 0,1.202335 -1.202335,6.588798 -1.346616,6.155958 -1.346616,7.59876 0,0.913775 0.384747,1.442803 0.384748,0.480934 1.009962,0.480934 0.961869,0 2.260391,-1.154242 1.346616,-1.202335 3.558913,-3.847473 0.577121,-0.673308 1.298522,-0.673308 0.625214,0 0.961868,0.577121 0.384748,0.577121 0.384748,1.587083 0,1.923736 -0.913775,2.981791 -2.068017,2.548952 -4.472688,4.184128 -2.356578,1.635176 -5.386463,1.635176 -2.308484,0 -3.414633,-1.779456 -1.058055,-1.779457 -1.058055,-5.001716 -0.817588,3.270353 -2.452764,5.049809 -1.635176,1.731363 -3.51082,1.731363 z"
         style="fill:#de1763;fill-opacity:1;stroke:none;stroke-opacity:1"
         id="path6584-5"
         inkscape:connector-curvature="0" /><path
         d="m 73.881988,35.925868 q 0.625214,0 0.961868,0.577121 0.384747,0.577121 0.384747,1.587083 0,1.731363 -0.817588,2.981792 -1.346615,2.068017 -3.558913,3.222259 -2.164203,1.154242 -5.194089,1.154242 -4.616968,0 -7.165919,-2.741325 -2.548951,-2.789418 -2.548951,-7.502573 0,-3.318446 1.394709,-6.155958 1.394709,-2.885605 3.847473,-4.568874 2.500858,-1.68327 5.62693,-1.68327 2.789419,0 4.472688,1.68327 1.68327,1.635176 1.68327,4.472688 0,3.318445 -2.404671,5.723116 -2.356578,2.356578 -8.079694,3.751287 1.154242,2.212297 3.895567,2.212297 1.97183,0 3.222259,-0.913775 1.298522,-0.913775 2.981791,-3.077978 0.577122,-0.721402 1.298523,-0.721402 z M 65.994667,27.50952 q -1.779456,0 -3.029885,2.068017 -1.202336,2.068017 -1.202336,5.001716 l 0,0.09619 q 2.837512,-0.673307 4.472688,-2.019923 1.635177,-1.346616 1.635177,-3.126072 0,-0.913775 -0.529028,-1.442803 -0.480934,-0.577121 -1.346616,-0.577121 z"
         style="fill:#de1763;fill-opacity:1;stroke:none;stroke-opacity:1"
         id="path6586-4"
         inkscape:connector-curvature="0" /></g></g><g
     inkscape:groupmode="layer"
     id="layer2"
     inkscape:label="text"
     style="display:none"
     transform="translate(-112.98701,-58.264924)"><g
       transform="matrix(0.84963249,0.00787482,-0.05745394,1.0725117,342.26424,50.967556)"
       style="font-style:normal;font-weight:normal;font-size:63.35665894px;line-height:125%;font-family:sans-serif;letter-spacing:3.16783285px;word-spacing:0px;display:inline;fill:#865e04;fill-opacity:1;stroke:none;stroke-width:4;stroke-linecap:butt;stroke-linejoin:miter;stroke-miterlimit:4;stroke-dasharray:none;stroke-opacity:1"
       id="flowRoot4168-5"><path
         d="m -86.454244,35.175502 q 0.392518,-0.157007 0.654196,-0.157007 0.418685,0 0.628027,0.314014 0.209343,0.314014 0.209343,0.811202 0,0.785035 -0.392517,1.334559 -0.36635,0.549524 -1.282223,0.994377 -1.543901,0.732699 -4.003677,1.177552 -2.459774,0.418685 -4.841045,0.418685 -3.297146,0 -5.52139,-0.732699 -2.22427,-0.758867 -3.32332,-2.067258 -1.07288,-1.30839 -1.07288,-2.956963 0,-2.250432 1.43923,-3.820501 1.4654,-1.596237 4.291514,-2.302768 -1.543894,-0.444853 -2.381264,-1.570069 -0.8112,-1.125216 -0.8112,-2.51211 0,-1.884083 1.17755,-3.323313 1.20372,-1.465398 3.218624,-2.250432 2.014927,-0.785035 4.422365,-0.785035 3.24481,0 4.867215,1.413062 1.622404,1.386895 1.622404,3.611159 0,1.543901 -0.575692,2.51211 -0.549524,0.942042 -1.596237,0.942042 -0.732699,0 -1.151384,-0.314014 -0.418685,-0.340182 -0.418685,-0.994377 0,-0.444853 0.130839,-0.968209 0.130839,-0.863538 0.130839,-1.177552 0,-0.942041 -0.706531,-1.517733 -0.706531,-0.60186 -2.355103,-0.60186 -2.224264,0 -3.558823,0.942041 -1.334557,0.942042 -1.334557,2.538279 0,1.229887 0.99438,2.041089 1.02054,0.785035 3.29714,0.863538 0.575692,0.02617 0.811202,0.261679 0.235511,0.23551 0.235511,0.785034 0,1.727076 -1.570069,1.753244 -2.171929,0.05234 -3.611154,0.60186 -1.413054,0.549524 -2.067244,1.413062 -0.62803,0.83737 -0.62803,1.805579 0,1.622404 1.51772,2.459775 1.517734,0.811202 4.814876,0.811202 2.171928,0 4.579367,-0.497189 2.433608,-0.523356 4.160683,-1.256055 z"
         style="font-style:normal;font-variant:normal;font-weight:normal;font-stretch:normal;font-size:37.5px;font-family:Pacifico;-inkscape-font-specification:Pacifico;letter-spacing:0.64124554px;fill:#865e04;fill-opacity:1;stroke:none;stroke-width:4;stroke-miterlimit:4;stroke-dasharray:none;stroke-opacity:1"
         id="path6604"
         inkscape:connector-curvature="0" /><path
         d="m -71.523296,31.369698 q 0.340182,0 0.523356,0.314014 0.209343,0.314013 0.209343,0.863537 0,1.046713 -0.497189,1.622405 -1.151383,1.360726 -2.538278,2.2766 -1.360726,0.889706 -3.087802,0.889706 -1.334559,0 -2.381271,-0.497189 -1.020545,-0.497188 -1.622405,-1.413062 -1.491565,1.884083 -3.532655,1.884083 -1.43923,0 -2.2766,-0.83737 -0.83737,-0.83737 -0.83737,-2.224264 0,-1.308391 0.60186,-2.119594 0.601859,-0.811202 1.700908,-0.811202 0.942041,0 0.942041,0.706531 0,0.183175 -0.05234,0.654196 -0.0785,0.942041 -0.0785,1.07288 0,0.785034 0.680363,0.785034 0.497189,0 0.942042,-0.575691 0.47102,-0.60186 0.758866,-1.622405 0.314014,-1.020545 0.314014,-2.250432 0,-0.942042 -0.23551,-1.570069 -0.235511,-0.654196 -0.575692,-0.654196 -0.287846,0 -0.418685,0.157007 -0.130839,0.130839 -0.261678,0.471021 -0.157007,0.418685 -0.418685,0.680363 -0.261679,0.235511 -0.915874,0.235511 -0.575692,0 -0.915874,-0.392518 -0.340181,-0.418685 -0.340181,-1.256055 0,-1.334558 0.811202,-2.093425 0.811202,-0.758867 2.093425,-0.758867 1.099049,0 1.988754,0.549524 0.889706,0.523357 1.360727,1.543901 0.785034,-1.046712 1.753243,-1.570068 0.994377,-0.523357 1.936419,-0.523357 1.020545,0 1.543901,0.471021 0.549524,0.471021 0.549524,1.517733 0,1.177552 -0.444853,1.857915 -0.444853,0.654196 -1.07288,0.654196 -0.575692,0 -0.785035,-0.235511 -0.209342,-0.23551 -0.314013,-0.680363 -0.05234,-0.314014 -0.157007,-0.471021 -0.104672,-0.157007 -0.36635,-0.157007 -0.314014,0 -0.680363,0.60186 -0.340182,0.575692 -0.60186,1.543901 -0.23551,0.96821 -0.23551,2.014922 0,1.229887 0.575692,1.910251 0.60186,0.654195 1.622404,0.654195 1.020545,0 1.910251,-0.680363 0.915874,-0.706531 2.119593,-2.171929 0.314014,-0.366349 0.706531,-0.366349 z"
         style="font-style:normal;font-variant:normal;font-weight:normal;font-stretch:normal;font-size:37.5px;font-family:Pacifico;-inkscape-font-specification:Pacifico;letter-spacing:0.64124554px;fill:#865e04;fill-opacity:1;stroke:none;stroke-width:4;stroke-miterlimit:4;stroke-dasharray:none;stroke-opacity:1"
         id="path6606"
         inkscape:connector-curvature="0" /><path
         d="m -69.491859,37.33596 q -1.622405,0 -2.590614,-1.177552 -0.968209,-1.177552 -0.968209,-3.087802 0,-2.093425 0.968209,-3.95134 0.968209,-1.884083 2.564446,-3.009299 1.622405,-1.151384 3.427984,-1.151384 0.575692,0 0.758867,0.23551 0.209342,0.209343 0.340181,0.785035 0.549524,-0.104672 1.151384,-0.104672 1.282223,0 1.282223,0.915874 0,0.549524 -0.392517,2.616782 -0.60186,3.009298 -0.60186,4.18685 0,0.392517 0.183175,0.628028 0.209342,0.23551 0.523356,0.23551 0.497189,0 1.20372,-0.628028 0.706531,-0.654195 1.91025,-2.093425 0.314014,-0.366349 0.706531,-0.366349 0.340182,0 0.523357,0.314014 0.209342,0.314013 0.209342,0.863537 0,1.046713 -0.497188,1.622405 -1.072881,1.334559 -2.2766,2.250432 -1.20372,0.915874 -2.328936,0.915874 -0.863538,0 -1.596237,-0.575692 -0.706531,-0.60186 -1.07288,-1.622405 -1.360727,2.198097 -3.427984,2.198097 z m 0.942041,-2.64295 q 0.575692,0 1.099049,-0.680363 0.523356,-0.680363 0.758866,-1.805579 l 0.968209,-4.814878 q -1.099048,0.02617 -2.041089,0.83737 -0.915874,0.785034 -1.465398,2.093425 -0.549524,1.308391 -0.549524,2.773789 0,0.811202 0.314014,1.203719 0.340181,0.392517 0.915873,0.392517 z"
         style="font-style:normal;font-variant:normal;font-weight:normal;font-stretch:normal;font-size:37.5px;font-family:Pacifico;-inkscape-font-specification:Pacifico;letter-spacing:0.64124554px;fill:#865e04;fill-opacity:1;stroke:none;stroke-width:4;stroke-miterlimit:4;stroke-dasharray:none;stroke-opacity:1"
         id="path6608"
         inkscape:connector-curvature="0" /><path
         d="m -58.087845,37.33596 q -0.994377,0 -1.413062,-1.046713 -0.392518,-1.046712 -0.392518,-3.34948 0,-3.401816 0.96821,-6.463451 0.23551,-0.758866 0.758866,-1.099048 0.549524,-0.36635 1.517734,-0.36635 0.523356,0 0.732698,0.13084 0.209343,0.130839 0.209343,0.497188 0,0.418685 -0.392517,1.884083 -0.261678,1.046712 -0.418685,1.831747 -0.157007,0.758867 -0.261678,1.91025 0.706531,-2.041089 1.67474,-3.454151 0.994377,-1.413062 2.014922,-2.093425 1.046712,-0.706532 1.962586,-0.706532 0.915873,0 1.282223,0.418686 0.392517,0.418685 0.392517,1.282223 0,0.83737 -0.497189,3.035466 -0.209342,0.942042 -0.287845,1.413062 1.30839,-3.218641 2.904627,-4.684039 1.596237,-1.465398 2.983131,-1.465398 1.700908,0 1.700908,1.700909 0,1.020544 -0.575692,3.689662 -0.497188,2.2766 -0.497188,3.009298 0,1.046713 0.758866,1.046713 0.523357,0 1.229888,-0.628028 0.732699,-0.654195 1.936418,-2.093425 0.314014,-0.366349 0.706531,-0.366349 0.340182,0 0.523356,0.314014 0.209343,0.314013 0.209343,0.863537 0,1.046713 -0.497189,1.622405 -1.125216,1.386894 -2.433606,2.2766 -1.282223,0.889706 -2.930796,0.889706 -1.334558,0 -2.014922,-0.758867 -0.680363,-0.785034 -0.680363,-2.250432 0,-0.732699 0.36635,-2.616782 0.340181,-1.648572 0.340181,-2.2766 0,-0.418685 -0.287846,-0.418685 -0.340181,0 -0.968209,0.889706 -0.628028,0.863538 -1.256055,2.302768 -0.628028,1.43923 -1.020545,3.035467 -0.287846,1.256055 -0.680363,1.67474 -0.36635,0.418685 -1.20372,0.418685 -0.863538,0 -1.308391,-0.811203 -0.418685,-0.83737 -0.418685,-2.014921 0,-0.994377 0.261679,-2.87846 0.209342,-1.67474 0.209342,-2.198097 0,-0.418685 -0.287846,-0.418685 -0.392517,0 -0.994377,0.942042 -0.60186,0.942041 -1.177552,2.407439 -0.549524,1.465397 -0.889705,2.87846 -0.287846,1.229887 -0.680364,1.67474 -0.366349,0.418685 -1.177551,0.418685 z"
         style="font-style:normal;font-variant:normal;font-weight:normal;font-stretch:normal;font-size:37.5px;font-family:Pacifico;-inkscape-font-specification:Pacifico;letter-spacing:0.64124554px;fill:#865e04;fill-opacity:1;stroke:none;stroke-width:4;stroke-miterlimit:4;stroke-dasharray:none;stroke-opacity:1"
         id="path6610"
         inkscape:connector-curvature="0" /><path
         d="m -26.05215,31.369698 q 0.340182,0 0.523356,0.314014 0.209343,0.314013 0.209343,0.863537 0,1.046713 -0.497189,1.622405 -1.125216,1.386894 -2.433606,2.2766 -1.282223,0.889706 -2.930796,0.889706 -1.386891,0 -2.250429,-0.994377 -1.491566,0.968209 -3.11397,0.994377 -0.340182,5.050388 -1.543901,8.426037 -1.20372,3.401816 -3.532656,3.401816 -1.413062,0 -2.093425,-1.020545 -0.680363,-1.020545 -0.680363,-2.826124 0,-2.564446 1.177552,-5.99243 1.177551,-3.401816 3.637326,-7.510163 0,-3.820502 -0.05234,-5.312067 -0.02617,-0.758867 0.60186,-1.20372 0.628028,-0.444852 1.570069,-0.444852 0.549524,0 0.785035,0.23551 0.261678,0.209342 0.287846,0.863538 0,0.654195 0.02617,0.968209 0.83737,-1.046713 1.648573,-1.491565 0.811202,-0.471021 1.727076,-0.471021 1.465395,0 2.381268,1.177552 0.942041,1.177551 0.942041,3.087802 0,1.386894 -0.444852,2.695285 -0.444853,1.308391 -1.229888,2.381271 0.549524,0.157007 0.915874,0.157007 0.863538,0 1.648572,-0.628028 0.785035,-0.628027 2.014922,-2.093425 0.314014,-0.366349 0.706531,-0.366349 z m -10.362452,3.454151 q 0.942041,-0.209342 1.727076,-1.020544 0.811202,-0.83737 1.282223,-2.04109 0.47102,-1.229887 0.47102,-2.564446 0,-0.785034 -0.314014,-1.177552 -0.314013,-0.418685 -0.83737,-0.418685 -0.942041,0 -2.2766,1.988754 -0.02617,1.151384 -0.02617,3.375649 0,1.203719 -0.02617,1.857914 z m -4.998053,11.775518 q 0.706531,0 1.177552,-3.087803 0.47102,-3.061634 0.601859,-7.641002 -1.125216,2.616782 -1.779411,4.998053 -0.654195,2.381271 -0.654195,4.003676 0,0.83737 0.209342,1.282223 0.183175,0.444853 0.444853,0.444853 z"
         style="font-style:normal;font-variant:normal;font-weight:normal;font-stretch:normal;font-size:37.5px;font-family:Pacifico;-inkscape-font-specification:Pacifico;letter-spacing:0.64124554px;fill:#865e04;fill-opacity:1;stroke:none;stroke-width:4;stroke-miterlimit:4;stroke-dasharray:none;stroke-opacity:1"
         id="path6612"
         inkscape:connector-curvature="0" /><path
         d="m -17.087873,31.369698 q 0.340182,0 0.523357,0.314014 0.209342,0.314013 0.209342,0.863537 0,1.046713 -0.497188,1.622405 -1.125216,1.386894 -2.459775,2.2766 -1.308391,0.889706 -2.983131,0.889706 -2.302768,0 -3.427984,-2.093425 -1.099048,-2.093426 -1.099048,-5.416738 0,-3.192474 0.811202,-7.274654 0.83737,-4.082179 2.433607,-7.012974 1.622405,-2.930796 3.846669,-2.930796 1.256055,0 1.962586,1.177552 0.732699,1.151384 0.732699,3.323313 0,3.11397 -1.727076,7.222317 -1.727076,4.108347 -4.684039,8.138191 0.183175,1.07288 0.60186,1.543901 0.418685,0.444853 1.099048,0.444853 1.072881,0 1.884083,-0.60186 0.811202,-0.628027 2.067257,-2.119593 0.314014,-0.366349 0.706531,-0.366349 z m -3.218641,-16.171711 q -0.60186,0 -1.360726,2.171929 -0.758867,2.171929 -1.334559,5.39057 -0.575692,3.218642 -0.628028,6.175605 1.857915,-3.061635 2.956964,-6.123269 1.099048,-3.087803 1.099048,-5.626081 0,-1.988754 -0.732699,-1.988754 z"
         style="font-style:normal;font-variant:normal;font-weight:normal;font-stretch:normal;font-size:37.5px;font-family:Pacifico;-inkscape-font-specification:Pacifico;letter-spacing:0.64124554px;fill:#865e04;fill-opacity:1;stroke:none;stroke-width:4;stroke-miterlimit:4;stroke-dasharray:none;stroke-opacity:1"
         id="path6614"
         inkscape:connector-curvature="0" /><path
         d="m -8.6547255,32.154732 q 0.3401813,0 0.5233563,0.314014 0.209343,0.314014 0.209343,0.863538 0,0.942041 -0.4448533,1.622405 -0.732699,1.125216 -1.9364185,1.753243 -1.177551,0.628028 -2.826124,0.628028 -2.51211,0 -3.899004,-1.491566 -1.386895,-1.517733 -1.386895,-4.082179 0,-1.805579 0.758867,-3.34948 0.758867,-1.570069 2.093425,-2.485943 1.360727,-0.915874 3.061635,-0.915874 1.517733,0 2.433607,0.915874 0.9158725,0.889706 0.9158725,2.433607 0,1.805579 -1.3083905,3.11397 -1.282222,1.282223 -4.396193,2.04109 0.628028,1.203719 2.119593,1.203719 1.072881,0 1.753244,-0.497188 0.706531,-0.497189 1.6224045,-1.674741 0.314014,-0.392517 0.706531,-0.392517 z m -4.2915215,-4.579368 q -0.968209,0 -1.648572,1.125217 -0.654196,1.125216 -0.654196,2.721452 l 0,0.05234 q 1.543901,-0.366349 2.433607,-1.099048 0.889706,-0.732699 0.889706,-1.700908 0,-0.497189 -0.287846,-0.785035 -0.261678,-0.314014 -0.732699,-0.314014 z"
         style="font-style:normal;font-variant:normal;font-weight:normal;font-stretch:normal;font-size:37.5px;font-family:Pacifico;-inkscape-font-specification:Pacifico;letter-spacing:0.64124554px;fill:#865e04;fill-opacity:1;stroke:none;stroke-width:4;stroke-miterlimit:4;stroke-dasharray:none;stroke-opacity:1"
         id="path6616"
         inkscape:connector-curvature="0" /></g><flowRoot
       xml:space="preserve"
       id="flowRoot6452"
       style="font-style:normal;font-weight:normal;font-size:40px;line-height:125%;font-family:sans-serif;letter-spacing:2px;word-spacing:0px;fill:#000000;fill-opacity:1;stroke:none;stroke-width:1px;stroke-linecap:butt;stroke-linejoin:miter;stroke-opacity:1"
       transform="translate(5.4,-8.9707087)"><flowRegion
         id="flowRegion6454"><rect
           id="rect6456"
           width="305.61395"
           height="72.658218"
           x="62.171463"
           y="46.583282" /></flowRegion><flowPara
         id="flowPara6458" /></flowRoot><flowRoot
       xml:space="preserve"
       id="flowRoot6124"
       style="font-style:normal;font-variant:normal;font-weight:normal;font-stretch:normal;font-size:40px;line-height:125%;font-family:Pacifico;-inkscape-font-specification:Pacifico;letter-spacing:2px;word-spacing:0px;fill:#000000;fill-opacity:1;stroke:none;stroke-width:1px;stroke-linecap:butt;stroke-linejoin:miter;stroke-opacity:1"
       transform="translate(14.974035,-10.155789)"><flowRegion
         id="flowRegion6126"><rect
           id="rect6128"
           width="127.11864"
           height="69.38559"
           x="289.72458"
           y="-12.914729"
           style="font-style:normal;font-variant:normal;font-weight:normal;font-stretch:normal;font-family:Pacifico;-inkscape-font-specification:Pacifico" /></flowRegion><flowPara
         id="flowPara6130" /></flowRoot></g></svg>