<?xml version="1.0" encoding="UTF-8" standalone="no"?>
<svg
   xmlns:dc="http://purl.org/dc/elements/1.1/"
   xmlns:cc="http://creativecommons.org/ns#"
   xmlns:rdf="http://www.w3.org/1999/02/22-rdf-syntax-ns#"
   xmlns:svg="http://www.w3.org/2000/svg"
   xmlns="http://www.w3.org/2000/svg"
   xmlns:sodipodi="http://sodipodi.sourceforge.net/DTD/sodipodi-0.dtd"
   xmlns:inkscape="http://www.inkscape.org/namespaces/inkscape"
   version="1.1"
   x="0px"
   y="0px"
   viewBox="0 0 356.39532 65.106453"
   id="svg4171"
   inkscape:version="0.91 r13725"
   sodipodi:docname="logo.svg"
   width="356.39532"
   height="65.106453">
  <metadata
     id="metadata4185">
    <rdf:RDF>
      <cc:Work
         rdf:about="">
        <dc:format>image/svg+xml</dc:format>
        <dc:type
           rdf:resource="http://purl.org/dc/dcmitype/StillImage" />
        <dc:title></dc:title>
      </cc:Work>
    </rdf:RDF>
  </metadata>
  <defs
     id="defs4183" />
  <sodipodi:namedview
     pagecolor="#ffffff"
     bordercolor="#666666"
     borderopacity="1"
     objecttolerance="10"
     gridtolerance="10"
     guidetolerance="10"
     inkscape:pageopacity="0"
     inkscape:pageshadow="2"
     inkscape:window-width="1920"
     inkscape:window-height="1016"
     id="namedview4181"
     showgrid="false"
     fit-margin-top="0.5"
     fit-margin-left="0.5"
     fit-margin-right="0"
     fit-margin-bottom="0"
     inkscape:zoom="1.654"
     inkscape:cx="267.21198"
     inkscape:cy="-4.6200411"
     inkscape:window-x="0"
     inkscape:window-y="27"
     inkscape:window-maximized="1"
     inkscape:current-layer="layer6" />
  <g
     inkscape:groupmode="layer"
     id="layer3"
     inkscape:label="background"
     style="display:none"
     transform="translate(119.51801,-53.502332)"
     sodipodi:insensitive="true">
    <rect
       style="fill:#00bda1;fill-opacity:1;stroke:none;stroke-width:15;stroke-linecap:butt;stroke-linejoin:miter;stroke-miterlimit:4;stroke-dasharray:none;stroke-opacity:1"
       id="rect4144"
       width="690.04657"
       height="159.78923"
       x="-231.23085"
       y="-2.027277" />
  </g>
  <g
     inkscape:groupmode="layer"
     id="layer4"
     inkscape:label="tagline"
     transform="translate(-96.700811,-76.404653)"
     style="display:none">
    <g
       transform="translate(-94.457077,13.487307)"
       style="font-style:normal;font-weight:normal;font-size:40px;line-height:125%;font-family:sans-serif;letter-spacing:2px;word-spacing:0px;display:inline;fill:#653400;fill-opacity:1;stroke:none;stroke-width:1px;stroke-linecap:butt;stroke-linejoin:miter;stroke-opacity:1"
       id="flowRoot4444-3">
      <path
         d="m 196.63633,143.89254 -2.565,-13.9725 -5.715,0 -2.565,13.9725 3.5775,0 0.4275,-2.205 2.655,0 0.4275,2.205 3.7575,0 z m -4.6125,-4.8375 -1.7325,0 0.7875,-4.995 0.1575,0 0.7875,4.995 z"
         style="font-style:normal;font-variant:normal;font-weight:normal;font-stretch:normal;font-size:22.5px;font-family:'Passion One';-inkscape-font-specification:'Passion One';fill:#653400;fill-opacity:1"
         id="path4299"
         inkscape:connector-curvature="0" />
      <path
         d="m 216.65598,129.92004 -4.05,0 -0.9225,9.1575 -0.3825,0 -1.215,-9.1575 -4.2525,0 2.52,13.9725 5.94,0 2.3625,-13.9725 z"
         style="font-style:normal;font-variant:normal;font-weight:normal;font-stretch:normal;font-size:22.5px;font-family:'Passion One';-inkscape-font-specification:'Passion One';fill:#653400;fill-opacity:1"
         id="path4301"
         inkscape:connector-curvature="0" />
      <path
         d="m 222.29781,144.11754 c 1.3725,0 2.205,-0.54 2.8125,-1.0575 l 0.09,0 0,0.7875 3.5775,0 0,-10.7325 -3.78,0 0,7.3575 c -0.27,0.2025 -0.675,0.315 -1.0575,0.315 -0.3375,0 -0.495,-0.225 -0.495,-0.5625 l 0,-7.11 -3.825,0 0,8.0325 c 0,1.7325 0.7425,2.97 2.6775,2.97 z"
         style="font-style:normal;font-variant:normal;font-weight:normal;font-stretch:normal;font-size:22.5px;font-family:'Passion One';-inkscape-font-specification:'Passion One';fill:#653400;fill-opacity:1"
         id="path4303"
         inkscape:connector-curvature="0" />
      <path
         d="m 236.62324,136.06254 c 0.765,0 1.0125,0.3825 1.0125,1.0575 l 0,0.54 -1.9575,0 c 0,-0.9225 0.1125,-1.5975 0.945,-1.5975 z m 0.09,-3.2175 c -3.285,0 -4.77,1.98 -4.77,5.625 0,3.3975 1.6425,5.6475 4.7925,5.6475 1.4175,0 2.5425,-0.2025 3.78,-0.585 l -0.315,-2.79 c -1.125,0.27 -1.98,0.5175 -2.9025,0.5175 -1.0125,0 -1.5525,-0.5175 -1.5525,-1.6875 l 5.13,0 c 0.0675,-0.9225 0.1575,-1.8225 0.1575,-2.43 0,-2.5875 -1.0575,-4.2975 -4.32,-4.2975 z"
         style="font-style:normal;font-variant:normal;font-weight:normal;font-stretch:normal;font-size:22.5px;font-family:'Passion One';-inkscape-font-specification:'Passion One';fill:#653400;fill-opacity:1"
         id="path4305"
         inkscape:connector-curvature="0" />
      <path
         d="m 245.06738,142.36254 c 0,1.125 0.585,1.7775 2.0025,1.7775 1.3725,0 1.9575,-0.6525 1.9575,-1.7325 0,-1.2375 -0.585,-1.8225 -1.9575,-1.8225 -1.4175,0 -2.0025,0.585 -2.0025,1.7775 z"
         style="font-style:normal;font-variant:normal;font-weight:normal;font-stretch:normal;font-size:22.5px;font-family:'Passion One';-inkscape-font-specification:'Passion One';fill:#653400;fill-opacity:1"
         id="path4307"
         inkscape:connector-curvature="0" />
      <path
         d="m 256.76207,133.22754 -3.7575,0 0,10.3275 c 0,0.4275 -0.0675,0.54 -0.585,0.54 l -0.765,0 0.315,3.105 1.125,0 c 2.835,0 3.6675,-0.72 3.6675,-3.0375 l 0,-10.935 z m -3.96,-2.16 c 0,1.17 0.5625,1.71 2.0475,1.71 1.44,0 2.0025,-0.5625 2.0025,-1.71 0,-1.1925 -0.5625,-1.755 -2.0025,-1.755 -1.485,0 -2.0475,0.5625 -2.0475,1.755 z"
         style="font-style:normal;font-variant:normal;font-weight:normal;font-stretch:normal;font-size:22.5px;font-family:'Passion One';-inkscape-font-specification:'Passion One';fill:#653400;fill-opacity:1"
         id="path4309"
         inkscape:connector-curvature="0" />
      <path
         d="m 263.55563,132.84504 c -2.43,0 -3.82501,1.2375 -3.82501,3.51 0,2.25 1.4625,3.15 3.8475,4.0725 0.36001,0.135 0.495,0.225 0.495,0.4725 0,0.2475 -0.20249,0.3375 -0.51749,0.3375 -0.67501,0 -1.73251,-0.2475 -3.06,-0.6075 l -0.2475,3.0375 c 1.0575,0.27 2.13749,0.45 3.28499,0.45 2.745,0 3.71251,-1.2375 3.71251,-3.51 0,-2.2725 -1.59751,-3.1275 -3.6225,-3.87 -0.29251,-0.1125 -0.51751,-0.225 -0.51751,-0.45 0,-0.2475 0.1575,-0.3825 0.4725,-0.3825 0.60751,0 1.98001,0.27 3.0825,0.5175 l 0.3825,-3.1275 c -1.08,-0.27 -2.25,-0.45 -3.48749,-0.45 z"
         style="font-style:normal;font-variant:normal;font-weight:normal;font-stretch:normal;font-size:22.5px;font-family:'Passion One';-inkscape-font-specification:'Passion One';fill:#653400;fill-opacity:1"
         id="path4311"
         inkscape:connector-curvature="0" />
      <path
         d="m 281.88215,139.32504 c 2.97,0 4.5,-1.215 4.5,-4.68 0,-3.42 -1.5975,-4.725 -4.7475,-4.725 l -4.5675,0 0,13.9725 3.78,0 0,-4.5675 1.035,0 z m 0.63,-4.41 c 0,1.26 -0.18,1.755 -1.035,1.755 l -0.63,0 0,-3.555 0.54,0 c 0.9225,0 1.125,0.54 1.125,1.8 z"
         style="font-style:normal;font-variant:normal;font-weight:normal;font-stretch:normal;font-size:22.5px;font-family:'Passion One';-inkscape-font-specification:'Passion One';fill:#653400;fill-opacity:1"
         id="path4313"
         inkscape:connector-curvature="0" />
      <path
         d="m 303.40863,129.92004 -3.555,0 -0.405,7.4025 -0.225,0 -1.035,-7.4025 -3.7575,0 -0.945,7.4025 -0.225,0 -0.585,-7.4025 -3.69,0 1.4625,13.9725 4.6575,0 1.0125,-6.1875 0.18,0 1.215,6.1875 4.635,0 1.26,-13.9725 z"
         style="font-style:normal;font-variant:normal;font-weight:normal;font-stretch:normal;font-size:22.5px;font-family:'Passion One';-inkscape-font-specification:'Passion One';fill:#653400;fill-opacity:1"
         id="path4315"
         inkscape:connector-curvature="0" />
      <path
         d="m 316.89805,143.89254 -2.565,-13.9725 -5.715,0 -2.565,13.9725 3.5775,0 0.4275,-2.205 2.655,0 0.4275,2.205 3.7575,0 z m -4.6125,-4.8375 -1.7325,0 0.7875,-4.995 0.1575,0 0.7875,4.995 z"
         style="font-style:normal;font-variant:normal;font-weight:normal;font-stretch:normal;font-size:22.5px;font-family:'Passion One';-inkscape-font-specification:'Passion One';fill:#653400;fill-opacity:1"
         id="path4317"
         inkscape:connector-curvature="0" />
      <path
         d="m 331.6302,139.32504 c 2.97,0 4.5,-1.215 4.5,-4.68 0,-3.42 -1.5975,-4.725 -4.7475,-4.725 l -4.5675,0 0,13.9725 3.78,0 0,-4.5675 1.035,0 z m 0.63,-4.41 c 0,1.26 -0.18,1.755 -1.035,1.755 l -0.63,0 0,-3.555 0.54,0 c 0.9225,0 1.125,0.54 1.125,1.8 z"
         style="font-style:normal;font-variant:normal;font-weight:normal;font-stretch:normal;font-size:22.5px;font-family:'Passion One';-inkscape-font-specification:'Passion One';fill:#653400;fill-opacity:1"
         id="path4319"
         inkscape:connector-curvature="0" />
      <path
         d="m 342.69418,137.84004 c 0,-1.1475 0.27,-1.395 1.44,-1.395 l 1.035,0 0.1575,-3.6 c -1.5525,0 -2.07,0.135 -2.7675,0.9225 l -0.09,0 -0.225,-0.6525 -3.285,0 0,10.7775 3.735,0 0,-6.0525 z"
         style="font-style:normal;font-variant:normal;font-weight:normal;font-stretch:normal;font-size:22.5px;font-family:'Passion One';-inkscape-font-specification:'Passion One';fill:#653400;fill-opacity:1"
         id="path4321"
         inkscape:connector-curvature="0" />
      <path
         d="m 352.51293,132.84504 c -3.2175,0 -4.7025,1.6425 -4.7025,5.625 0,3.9375 1.4175,5.6475 4.7025,5.6475 3.2625,0 4.6125,-1.665 4.6125,-5.805 0,-3.825 -1.4175,-5.4675 -4.6125,-5.4675 z m -0.0225,3.0375 c 0.81,0 0.8775,0.5175 0.8775,2.3625 l 0,0.6525 c 0,1.9125 -0.1125,2.4075 -0.8325,2.4075 -0.8775,0 -0.945,-0.5175 -0.945,-2.5425 l 0,-0.54 c 0,-1.8225 0.09,-2.34 0.9,-2.34 z"
         style="font-style:normal;font-variant:normal;font-weight:normal;font-stretch:normal;font-size:22.5px;font-family:'Passion One';-inkscape-font-specification:'Passion One';fill:#653400;fill-opacity:1"
         id="path4323"
         inkscape:connector-curvature="0" />
      <path
         d="m 364.34508,133.22754 -3.7575,0 0,10.3275 c 0,0.4275 -0.0675,0.54 -0.585,0.54 l -0.765,0 0.315,3.105 1.125,0 c 2.835,0 3.6675,-0.72 3.6675,-3.0375 l 0,-10.935 z m -3.96,-2.16 c 0,1.17 0.5625,1.71 2.0475,1.71 1.44,0 2.0025,-0.5625 2.0025,-1.71 0,-1.1925 -0.5625,-1.755 -2.0025,-1.755 -1.485,0 -2.0475,0.5625 -2.0475,1.755 z"
         style="font-style:normal;font-variant:normal;font-weight:normal;font-stretch:normal;font-size:22.5px;font-family:'Passion One';-inkscape-font-specification:'Passion One';fill:#653400;fill-opacity:1"
         id="path4325"
         inkscape:connector-curvature="0" />
      <path
         d="m 372.39863,136.06254 c 0.765,0 1.0125,0.3825 1.0125,1.0575 l 0,0.54 -1.9575,0 c 0,-0.9225 0.1125,-1.5975 0.945,-1.5975 z m 0.09,-3.2175 c -3.285,0 -4.77,1.98 -4.77,5.625 0,3.3975 1.6425,5.6475 4.7925,5.6475 1.4175,0 2.5425,-0.2025 3.78,-0.585 l -0.315,-2.79 c -1.125,0.27 -1.98,0.5175 -2.9025,0.5175 -1.0125,0 -1.5525,-0.5175 -1.5525,-1.6875 l 5.13,0 c 0.0675,-0.9225 0.1575,-1.8225 0.1575,-2.43 0,-2.5875 -1.0575,-4.2975 -4.32,-4.2975 z"
         style="font-style:normal;font-variant:normal;font-weight:normal;font-stretch:normal;font-size:22.5px;font-family:'Passion One';-inkscape-font-specification:'Passion One';fill:#653400;fill-opacity:1"
         id="path4327"
         inkscape:connector-curvature="0" />
      <path
         d="m 383.43027,138.53754 c 0,-1.5075 0.2025,-2.4075 1.0575,-2.4075 0.585,0 1.395,0.2925 2.025,0.5625 l 0.405,-3.3075 c -0.855,-0.36 -1.62,-0.54 -2.88,-0.54 -2.97,0 -4.3875,2.4975 -4.3875,5.85 0,3.285 1.395,5.4225 4.32,5.4225 1.0575,0 1.8225,-0.2025 2.7675,-0.5175 l -0.405,-2.88 c -0.6975,0.1575 -1.2825,0.2475 -1.845,0.2475 -0.8775,0 -1.0575,-0.81 -1.0575,-2.43 z"
         style="font-style:normal;font-variant:normal;font-weight:normal;font-stretch:normal;font-size:22.5px;font-family:'Passion One';-inkscape-font-specification:'Passion One';fill:#653400;fill-opacity:1"
         id="path4329"
         inkscape:connector-curvature="0" />
      <path
         d="m 393.02859,144.11754 c 0.945,0 1.7325,-0.09 2.655,-0.2025 l 0.1125,-2.9925 c -0.45,0.0225 -1.08,0.0675 -1.395,0.0675 -0.315,0 -0.45,-0.135 -0.45,-0.4725 l 0,-4.4775 1.8675,0 0.1575,-2.79 -2.0025,0 0,-2.07 -3.3975,0 -0.2025,2.07 -1.26,0 0,2.79 1.08,0 0,5.22 c 0,2.16 0.945,2.8575 2.835,2.8575 z"
         style="font-style:normal;font-variant:normal;font-weight:normal;font-stretch:normal;font-size:22.5px;font-family:'Passion One';-inkscape-font-specification:'Passion One';fill:#653400;fill-opacity:1"
         id="path4331"
         inkscape:connector-curvature="0" />
      <path
         d="m 405.11383,140.92254 c 0,1.9575 0.945,3.195 2.745,3.195 1.395,0 2.0475,-0.4275 2.565,-1.1475 l 0.1125,0 c 0.3375,0.8775 1.125,1.1475 2.115,1.1475 0.5625,0 0.7875,-0.045 1.44,-0.09 l 0.3375,-2.7225 c -0.675,0 -0.945,-0.135 -0.945,-0.72 0,-1.5525 0.1125,-3.2625 0.1125,-4.6575 0,-2.0925 -0.9225,-3.0825 -3.285,-3.0825 -1.62,0 -3.375,0.3375 -4.95,0.7425 l 0.5625,3.285 c 1.26,-0.36 2.61,-0.6525 3.375,-0.6525 0.45,0 0.63,0.27 0.63,0.63 l 0,0.54 c -2.9925,0.27 -4.815,0.8775 -4.815,3.5325 z m 4.14,0.5625 c -0.4725,0 -0.6975,-0.2925 -0.6975,-0.8325 0,-0.7875 0.495,-1.0125 1.53,-1.1475 l 0,1.1025 c 0,0.6075 -0.27,0.8775 -0.8325,0.8775 z"
         style="font-style:normal;font-variant:normal;font-weight:normal;font-stretch:normal;font-size:22.5px;font-family:'Passion One';-inkscape-font-specification:'Passion One';fill:#653400;fill-opacity:1"
         id="path4333"
         inkscape:connector-curvature="0" />
      <path
         d="m 423.84363,132.84504 c -1.3725,0 -2.205,0.54 -2.8125,1.0575 l -0.09,0 -0.225,-0.7875 -3.4425,0 0,10.7775 3.78,0 0,-7.2675 c 0.27,-0.2025 0.675,-0.315 1.0575,-0.315 0.3375,0 0.495,0.225 0.495,0.5625 l 0,7.02 3.825,0 0,-8.3025 c 0,-1.7325 -0.6525,-2.745 -2.5875,-2.745 z"
         style="font-style:normal;font-variant:normal;font-weight:normal;font-stretch:normal;font-size:22.5px;font-family:'Passion One';-inkscape-font-specification:'Passion One';fill:#653400;fill-opacity:1"
         id="path4335"
         inkscape:connector-curvature="0" />
      <path
         d="m 437.80906,144.11754 c 0.5625,0 1.1025,-0.0675 1.5075,-0.09 l 0.3375,-2.7225 c -0.63,0 -0.8325,-0.1575 -0.8325,-0.72 l 0,-11.115 -3.7575,0 0,3.9375 c -0.4725,-0.405 -1.035,-0.5625 -1.845,-0.5625 -2.3175,0 -3.5775,1.935 -3.5775,5.5575 0,3.6225 0.855,5.715 3.6675,5.715 1.08,0 1.8225,-0.45 2.2725,-1.1475 l 0.1125,0 c 0.315,0.9225 1.2375,1.1475 2.115,1.1475 z m -4.3875,-5.6025 c 0,-1.5525 0.0675,-2.4975 0.8775,-2.4975 0.3375,0 0.6075,0.1125 0.8775,0.27 l 0,4.6575 c -0.3375,0.1575 -0.6075,0.2025 -0.9,0.2025 -0.8325,0 -0.855,-0.9 -0.855,-2.6325 z"
         style="font-style:normal;font-variant:normal;font-weight:normal;font-stretch:normal;font-size:22.5px;font-family:'Passion One';-inkscape-font-specification:'Passion One';fill:#653400;fill-opacity:1"
         id="path4337"
         inkscape:connector-curvature="0" />
      <path
         d="m 457.68281,133.31754 0.225,-3.3975 -9.225,0 -0.225,3.3975 2.7675,0 0,10.575 3.8475,0 0,-10.575 2.61,0 z"
         style="font-style:normal;font-variant:normal;font-weight:normal;font-stretch:normal;font-size:22.5px;font-family:'Passion One';-inkscape-font-specification:'Passion One';fill:#653400;fill-opacity:1"
         id="path4339"
         inkscape:connector-curvature="0" />
      <path
         d="m 463.15133,144.11754 c 1.3725,0 2.205,-0.54 2.8125,-1.0575 l 0.09,0 0,0.7875 3.5775,0 0,-10.7325 -3.78,0 0,7.3575 c -0.27,0.2025 -0.675,0.315 -1.0575,0.315 -0.3375,0 -0.495,-0.225 -0.495,-0.5625 l 0,-7.11 -3.825,0 0,8.0325 c 0,1.7325 0.7425,2.97 2.6775,2.97 z"
         style="font-style:normal;font-variant:normal;font-weight:normal;font-stretch:normal;font-size:22.5px;font-family:'Passion One';-inkscape-font-specification:'Passion One';fill:#653400;fill-opacity:1"
         id="path4341"
         inkscape:connector-curvature="0" />
      <path
         d="m 476.39676,144.11754 c 0.945,0 1.7325,-0.09 2.655,-0.2025 l 0.1125,-2.9925 c -0.45,0.0225 -1.08,0.0675 -1.395,0.0675 -0.315,0 -0.45,-0.135 -0.45,-0.4725 l 0,-4.4775 1.8675,0 0.1575,-2.79 -2.0025,0 0,-2.07 -3.3975,0 -0.2025,2.07 -1.26,0 0,2.79 1.08,0 0,5.22 c 0,2.16 0.945,2.8575 2.835,2.8575 z"
         style="font-style:normal;font-variant:normal;font-weight:normal;font-stretch:normal;font-size:22.5px;font-family:'Passion One';-inkscape-font-specification:'Passion One';fill:#653400;fill-opacity:1"
         id="path4343"
         inkscape:connector-curvature="0" />
      <path
         d="m 486.6184,132.84504 c -3.2175,0 -4.7025,1.6425 -4.7025,5.625 0,3.9375 1.4175,5.6475 4.7025,5.6475 3.2625,0 4.6125,-1.665 4.6125,-5.805 0,-3.825 -1.4175,-5.4675 -4.6125,-5.4675 z m -0.0225,3.0375 c 0.81,0 0.8775,0.5175 0.8775,2.3625 l 0,0.6525 c 0,1.9125 -0.1125,2.4075 -0.8325,2.4075 -0.8775,0 -0.945,-0.5175 -0.945,-2.5425 l 0,-0.54 c 0,-1.8225 0.09,-2.34 0.9,-2.34 z"
         style="font-style:normal;font-variant:normal;font-weight:normal;font-stretch:normal;font-size:22.5px;font-family:'Passion One';-inkscape-font-specification:'Passion One';fill:#653400;fill-opacity:1"
         id="path4345"
         inkscape:connector-curvature="0" />
      <path
         d="m 498.15805,137.84004 c 0,-1.1475 0.27,-1.395 1.44,-1.395 l 1.035,0 0.1575,-3.6 c -1.5525,0 -2.07,0.135 -2.7675,0.9225 l -0.09,0 -0.225,-0.6525 -3.285,0 0,10.7775 3.735,0 0,-6.0525 z"
         style="font-style:normal;font-variant:normal;font-weight:normal;font-stretch:normal;font-size:22.5px;font-family:'Passion One';-inkscape-font-specification:'Passion One';fill:#653400;fill-opacity:1"
         id="path4347"
         inkscape:connector-curvature="0" />
      <path
         d="m 507.2568,143.89254 0,-10.665 -3.7125,0 0,10.665 3.7125,0 z m -3.8925,-12.825 c 0,1.17 0.5625,1.71 2.0475,1.71 1.44,0 2.0025,-0.5625 2.0025,-1.71 0,-1.1925 -0.5625,-1.755 -2.0025,-1.755 -1.485,0 -2.0475,0.5625 -2.0475,1.755 z"
         style="font-style:normal;font-variant:normal;font-weight:normal;font-stretch:normal;font-size:22.5px;font-family:'Passion One';-inkscape-font-specification:'Passion One';fill:#653400;fill-opacity:1"
         id="path4349"
         inkscape:connector-curvature="0" />
      <path
         d="m 510.32379,140.92254 c 0,1.9575 0.945,3.195 2.745,3.195 1.395,0 2.0475,-0.4275 2.565,-1.1475 l 0.1125,0 c 0.3375,0.8775 1.125,1.1475 2.115,1.1475 0.5625,0 0.7875,-0.045 1.44,-0.09 l 0.3375,-2.7225 c -0.675,0 -0.945,-0.135 -0.945,-0.72 0,-1.5525 0.1125,-3.2625 0.1125,-4.6575 0,-2.0925 -0.9225,-3.0825 -3.285,-3.0825 -1.62,0 -3.375,0.3375 -4.95,0.7425 l 0.5625,3.285 c 1.26,-0.36 2.61,-0.6525 3.375,-0.6525 0.45,0 0.63,0.27 0.63,0.63 l 0,0.54 c -2.9925,0.27 -4.815,0.8775 -4.815,3.5325 z m 4.14,0.5625 c -0.4725,0 -0.6975,-0.2925 -0.6975,-0.8325 0,-0.7875 0.495,-1.0125 1.53,-1.1475 l 0,1.1025 c 0,0.6075 -0.27,0.8775 -0.8325,0.8775 z"
         style="font-style:normal;font-variant:normal;font-weight:normal;font-stretch:normal;font-size:22.5px;font-family:'Passion One';-inkscape-font-specification:'Passion One';fill:#653400;fill-opacity:1"
         id="path4351"
         inkscape:connector-curvature="0" />
      <path
         d="m 522.48359,141.41754 c 0,2.0025 1.035,2.7 2.9475,2.7 l 1.2375,0 0.2925,-3.195 c -0.5625,0 -0.765,-0.2025 -0.765,-0.6975 l 0,-10.755 -3.7125,0 0,11.9475 z"
         style="font-style:normal;font-variant:normal;font-weight:normal;font-stretch:normal;font-size:22.5px;font-family:'Passion One';-inkscape-font-specification:'Passion One';fill:#653400;fill-opacity:1"
         id="path4353"
         inkscape:connector-curvature="0" />
    </g>
  </g>
  <g
     inkscape:label="tagline text"
     id="g4442"
     inkscape:groupmode="layer"
     style="display:none"
     transform="translate(-96.700811,-76.404653)">
    <flowRoot
       transform="translate(-94.457077,13.487307)"
       style="font-style:normal;font-weight:normal;font-size:40px;line-height:125%;font-family:sans-serif;letter-spacing:2px;word-spacing:0px;fill:#653400;fill-opacity:1;stroke:none;stroke-width:1px;stroke-linecap:butt;stroke-linejoin:miter;stroke-opacity:1"
       id="flowRoot4444"
       xml:space="preserve"><flowRegion
         id="flowRegion4446"><rect
           style="fill:#653400;fill-opacity:1"
           y="122.56216"
           x="185.61064"
           height="61.668671"
           width="394.80048"
           id="rect4448" /></flowRegion><flowPara
         style="font-style:normal;font-variant:normal;font-weight:normal;font-stretch:normal;font-size:22.5px;font-family:'Passion One';-inkscape-font-specification:'Passion One';fill:#653400;fill-opacity:1"
         id="flowPara4450">A Vue.js PWA Project and Tutorial</flowPara></flowRoot>  </g>
  <g
     inkscape:groupmode="layer"
     id="layer1"
     inkscape:label="example"
     transform="translate(-19.329335,-35.431524)"
     style="display:none">
    <g
       transform="matrix(1.548731,0,0,1.548731,78.795501,-57.757165)"
       style="font-style:normal;font-weight:normal;font-size:50.36021042px;line-height:125%;font-family:sans-serif;letter-spacing:2.51801062px;word-spacing:0px;display:inline;fill:#653400;fill-opacity:1;stroke:none;stroke-width:1px;stroke-linecap:butt;stroke-linejoin:miter;stroke-opacity:1"
       id="flowRoot4222">
      <g
         transform="translate(-138.00675,-43.464137)"
         style="font-style:normal;font-weight:normal;font-size:40px;line-height:125%;font-family:sans-serif;letter-spacing:2px;word-spacing:0px;fill:#e57e93;fill-opacity:1;stroke:none;stroke-width:1px;stroke-linecap:butt;stroke-linejoin:miter;stroke-opacity:1"
         id="flowRoot4283">
        <path
           d="m 165.9727,104.24599 8.8762,0 -9.61923,29.35976 -9.3381,0 -9.57907,-29.35976 8.91637,0 3.9963,14.8807 q 1.24508,4.96023 1.36557,6.90818 0.14058,-1.40574 0.5623,-3.51434 0.42172,-2.1086 0.74303,-3.31351 l 4.07663,-14.96103 z"
           style="font-style:normal;font-variant:normal;font-weight:800;font-stretch:normal;font-size:41.12776566px;font-family:'Open Sans';-inkscape-font-specification:'Open Sans Ultra-Bold';letter-spacing:0.34319451px;fill:#ffffff;fill-opacity:1"
           id="path4294"
           inkscape:connector-curvature="0" />
        <path
           d="m 194.08918,133.60575 -0.98401,-2.83155 -0.46189,0 q -0.98401,1.56639 -2.75122,2.40983 -1.74713,0.82336 -4.11679,0.82336 -3.75532,0 -5.84384,-2.16885 -2.08852,-2.18893 -2.08852,-6.16515 l 0,-14.82045 7.85203,0 0,12.43071 q 0,2.22909 0.62254,3.37376 0.64262,1.14467 2.08852,1.14467 2.02827,0 2.8918,-1.58647 0.86352,-1.60656 0.86352,-5.40204 l 0,-9.96063 7.85203,0 0,22.75281 -5.92417,0 z"
           style="font-style:normal;font-variant:normal;font-weight:800;font-stretch:normal;font-size:41.12776566px;font-family:'Open Sans';-inkscape-font-specification:'Open Sans Ultra-Bold';letter-spacing:0.34319451px;fill:#ffffff;fill-opacity:1"
           id="path4296"
           inkscape:connector-curvature="0" />
        <path
           d="m 216.76347,134.00739 q -5.68318,0 -8.83605,-3.01229 -3.13277,-3.03237 -3.13277,-8.61514 0,-5.76351 2.91187,-8.83604 2.91188,-3.09262 8.31392,-3.09262 5.14097,0 7.93235,2.69098 2.81147,2.67089 2.81147,7.71145 l 0,3.49426 -14.03726,0 q 0.0803,1.90778 1.38565,2.9922 1.32541,1.08443 3.59467,1.08443 2.06844,0 3.79548,-0.38156 1.74713,-0.40164 3.7754,-1.34549 l 0,5.64302 q -1.84754,0.94385 -3.81556,1.30533 -1.96803,0.36147 -4.69917,0.36147 z m -0.46189,-18.2143 q -1.38565,0 -2.3295,0.88361 -0.92377,0.86352 -1.08442,2.73114 l 6.74752,0 q -0.0402,-1.64672 -0.94385,-2.63073 -0.8836,-0.98402 -2.38975,-0.98402 z"
           style="font-style:normal;font-variant:normal;font-weight:800;font-stretch:normal;font-size:41.12776566px;font-family:'Open Sans';-inkscape-font-specification:'Open Sans Ultra-Bold';letter-spacing:0.34319451px;fill:#ffffff;fill-opacity:1"
           id="path4298"
           inkscape:connector-curvature="0" />
      </g>
      <g
         transform="translate(-52.77567,-43.464137)"
         style="font-style:normal;font-weight:normal;font-size:40px;line-height:125%;font-family:sans-serif;letter-spacing:2px;word-spacing:0px;fill:#e57e93;fill-opacity:1;stroke:none;stroke-width:1px;stroke-linecap:butt;stroke-linejoin:miter;stroke-opacity:1"
         id="flowRoot4245">
        <path
           d="m 166.91655,133.60575 -17.43111,0 0,-29.35976 17.43111,0 0,6.36597 -9.49875,0 0,4.61884 8.79588,0 0,6.36597 -8.79588,0 0,5.5426 9.49875,0 0,6.46638 z"
           style="font-style:normal;font-variant:normal;font-weight:800;font-stretch:normal;font-size:41.12776566px;font-family:'Open Sans';-inkscape-font-specification:'Open Sans Ultra-Bold';letter-spacing:0.34319451px;fill:#ffffff;fill-opacity:1"
           id="path4304"
           inkscape:connector-curvature="0" />
        <path
           d="m 176.75849,121.9984 -6.94834,-11.14546 8.91637,0 3.45409,6.38605 3.53441,-6.38605 8.93646,0 -7.12908,11.14546 7.41022,11.60735 -8.91637,0 -3.83564,-6.90818 -3.81557,6.90818 -8.93645,0 7.3299,-11.60735 z"
           style="font-style:normal;font-variant:normal;font-weight:800;font-stretch:normal;font-size:41.12776566px;font-family:'Open Sans';-inkscape-font-specification:'Open Sans Ultra-Bold';letter-spacing:0.34319451px;fill:#ffffff;fill-opacity:1"
           id="path4306"
           inkscape:connector-curvature="0" />
        <path
           d="m 213.0684,133.60575 -1.50615,-3.01229 -0.16065,0 q -1.58648,1.96803 -3.23319,2.69098 -1.64672,0.72295 -4.25737,0.72295 -3.21311,0 -5.06064,-1.92786 -1.84754,-1.92787 -1.84754,-5.42212 0,-3.63483 2.53032,-5.40204 2.53032,-1.78729 7.3299,-2.00819 l 3.79549,-0.12049 0,-0.32131 q 0,-2.81147 -2.77131,-2.81147 -2.49016,0 -6.3258,1.68688 l -2.26926,-5.18113 q 3.97622,-2.04836 10.04096,-2.04836 4.37786,0 6.7676,2.16885 2.40983,2.16885 2.40983,6.06474 l 0,14.92086 -5.44219,0 z m -5.82376,-5.14097 q 1.42582,0 2.42991,-0.90369 1.02418,-0.90368 1.02418,-2.34958 l 0,-1.76721 -1.80737,0.0803 q -3.87581,0.14057 -3.87581,2.85163 0,2.08852 2.22909,2.08852 z"
           style="font-style:normal;font-variant:normal;font-weight:800;font-stretch:normal;font-size:41.12776566px;font-family:'Open Sans';-inkscape-font-specification:'Open Sans Ultra-Bold';letter-spacing:0.34319451px;fill:#ffffff;fill-opacity:1"
           id="path4308"
           inkscape:connector-curvature="0" />
        <path
           d="m 252.12953,133.60575 0,-12.37046 q 0,-2.30942 -0.64263,-3.45409 -0.62254,-1.16475 -1.98811,-1.16475 -1.80737,0 -2.65081,1.54631 -0.84344,1.5463 -0.84344,4.83974 l 0,10.60325 -7.87211,0 0,-12.37046 q 0,-2.30942 -0.60246,-3.45409 -0.60246,-1.16475 -1.94794,-1.16475 -1.84754,0 -2.69098,1.64672 -0.84344,1.64671 -0.84344,5.38195 l 0,9.96063 -7.85203,0 0,-22.75281 5.92416,0 0.98402,2.81147 0.46188,0 q 0.90369,-1.56639 2.61065,-2.38975 1.72705,-0.82336 3.91598,-0.82336 4.92006,0 6.90817,2.99221 l 0.62254,0 q 0.96394,-1.40574 2.6709,-2.18893 1.72704,-0.80328 3.79548,-0.80328 4.03647,0 5.96433,2.06844 1.92786,2.06844 1.92786,6.28564 l 0,14.80037 -7.85202,0 z"
           style="font-style:normal;font-variant:normal;font-weight:800;font-stretch:normal;font-size:41.12776566px;font-family:'Open Sans';-inkscape-font-specification:'Open Sans Ultra-Bold';letter-spacing:0.34319451px;fill:#ffffff;fill-opacity:1"
           id="path4310"
           inkscape:connector-curvature="0" />
        <path
           d="m 279.32224,134.00739 q -1.72704,0 -3.09261,-0.56229 -1.36557,-0.58238 -2.71106,-2.06844 l -0.36147,0 q 0.36147,2.38975 0.36147,2.97212 l 0,9.13727 -7.85203,0 0,-32.63311 6.38605,0 1.10451,2.8918 0.36147,0 q 2.18893,-3.29344 6.04466,-3.29344 3.7754,0 5.92416,3.13278 2.14877,3.13278 2.14877,8.59506 0,5.50245 -2.24918,8.67539 -2.22909,3.15286 -6.06474,3.15286 z m -2.63073,-17.39094 q -1.72704,0 -2.42991,1.24508 -0.68278,1.225 -0.74303,3.65491 l 0,0.62254 q 0,2.93196 0.7832,4.23728 0.78319,1.30533 2.47007,1.30533 1.50615,0 2.18893,-1.28525 0.68279,-1.30532 0.68279,-4.29753 0,-2.93196 -0.68279,-4.19712 -0.68278,-1.28524 -2.26926,-1.28524 z"
           style="font-style:normal;font-variant:normal;font-weight:800;font-stretch:normal;font-size:41.12776566px;font-family:'Open Sans';-inkscape-font-specification:'Open Sans Ultra-Bold';letter-spacing:0.34319451px;fill:#ffffff;fill-opacity:1"
           id="path4312"
           inkscape:connector-curvature="0" />
        <path
           d="m 300.28956,133.60575 -7.85203,0 0,-31.24746 7.85203,0 0,31.24746 z"
           style="font-style:normal;font-variant:normal;font-weight:800;font-stretch:normal;font-size:41.12776566px;font-family:'Open Sans';-inkscape-font-specification:'Open Sans Ultra-Bold';letter-spacing:0.34319451px;fill:#ffffff;fill-opacity:1"
           id="path4314"
           inkscape:connector-curvature="0" />
        <path
           d="m 317.09994,134.00739 q -5.68319,0 -8.83605,-3.01229 -3.13278,-3.03237 -3.13278,-8.61514 0,-5.76351 2.91188,-8.83604 2.91188,-3.09262 8.31391,-3.09262 5.14098,0 7.93236,2.69098 2.81147,2.67089 2.81147,7.71145 l 0,3.49426 -14.03726,0 q 0.0803,1.90778 1.38565,2.9922 1.32541,1.08443 3.59467,1.08443 2.06843,0 3.79548,-0.38156 1.74712,-0.40164 3.7754,-1.34549 l 0,5.64302 q -1.84754,0.94385 -3.81557,1.30533 -1.96802,0.36147 -4.69916,0.36147 z m -0.46189,-18.2143 q -1.38565,0 -2.3295,0.88361 -0.92377,0.86352 -1.08442,2.73114 l 6.74752,0 q -0.0402,-1.64672 -0.94385,-2.63073 -0.88361,-0.98402 -2.38975,-0.98402 z"
           style="font-style:normal;font-variant:normal;font-weight:800;font-stretch:normal;font-size:41.12776566px;font-family:'Open Sans';-inkscape-font-specification:'Open Sans Ultra-Bold';letter-spacing:0.34319451px;fill:#ffffff;fill-opacity:1"
           id="path4316"
           inkscape:connector-curvature="0" />
      </g>
    </g>
    <rect
       style="fill:#ffffff;fill-opacity:0;stroke:none;stroke-width:13;stroke-linecap:butt;stroke-linejoin:miter;stroke-miterlimit:4;stroke-dasharray:none;stroke-opacity:1"
       id="rect4293"
       width="2.4183798"
       height="1.8137847"
       x="252.07013"
       y="33.400414" />
  </g>
  <g
     inkscape:groupmode="layer"
     id="layer2"
     inkscape:label="rocket"
     transform="translate(-19.329328,-40.872832)"
     style="display:inline">
    <path
       style="color:#000000;clip-rule:nonzero;display:inline;overflow:visible;visibility:visible;opacity:1;isolation:auto;mix-blend-mode:normal;color-interpolation:sRGB;color-interpolation-filters:linearRGB;solid-color:#000000;solid-opacity:1;fill:#e57e93;fill-opacity:1;fill-rule:nonzero;stroke:none;stroke-width:15;stroke-linecap:butt;stroke-linejoin:miter;stroke-miterlimit:4;stroke-dasharray:none;stroke-dashoffset:0;stroke-opacity:1;color-rendering:auto;image-rendering:auto;shape-rendering:auto;text-rendering:auto;enable-background:accumulate"
       d="m 45.83056,84.654085 -1.161229,-1.212061 2.615884,-2.58553 c 2.013219,-1.989863 2.587012,-2.835509 2.490564,-3.670567 -0.08859,-0.767034 -0.42869,-1.127921 -1.160461,-1.231392 -0.786562,-0.111224 -1.677197,0.489978 -3.708786,2.503501 l -2.673641,2.649879 -1.25414,-1.309035 -1.25414,-1.309043 1.908693,-3.764333 C 47.097445,63.949102 55.4127,55.841215 66.725692,50.258888 c 4.214588,-2.079659 11.573686,-4.755746 13.07806,-4.755746 0.765719,0 0.751092,0.188077 -0.278465,3.580583 -4.165751,13.726631 -11.99706,24.671765 -22.72757,31.764327 -2.828408,1.869493 -8.752959,5.018093 -9.442283,5.018093 -0.200005,0 -0.886198,-0.545425 -1.524874,-1.21206 z m 21.793776,-18.20899 c 3.516491,-2.575359 3.205985,-8.011796 -0.569101,-9.963971 -4.426016,-2.288777 -9.650808,1.380749 -8.756146,6.149704 0.788698,4.204119 5.924556,6.304818 9.325247,3.814267 z"
       id="path4832"
       inkscape:connector-curvature="0" />
    <g
       transform="translate(-24.469591,18.83902)"
       id="g4"
       style="stroke:none;stroke-opacity:1">
      <path
         style="fill:none;stroke:none;stroke-opacity:1"
         inkscape:connector-curvature="0"
         d="m 78.956729,76.719898 7.356567,-7.380974 1.546258,-7.940901 c -2.119105,1.72285 -4.404752,3.320075 -6.851916,4.786651 l -2.050909,10.535224 z"
         id="path6" />
      <path
         style="fill:none;stroke:none;stroke-opacity:1"
         inkscape:connector-curvature="0"
         d="m 88.642015,40.127293 c -0.712829,0 -1.382587,0.27781 -1.886521,0.781743 -0.504651,0.503933 -0.781742,1.174409 -0.781742,1.887238 0,0.712829 0.277091,1.383305 0.781742,1.887238 0.503934,0.503934 1.173692,0.781743 1.886521,0.781743 0.713546,0 1.382586,-0.277809 1.887238,-0.781743 1.04017,-1.040888 1.04017,-2.733588 0,-3.773758 -0.503934,-0.504651 -1.174409,-0.782461 -1.887238,-0.782461 z"
         id="path8" />
      <path
         style="fill:none;stroke:none;stroke-opacity:1"
         inkscape:connector-curvature="0"
         d="m 70.040983,43.579453 -7.9409,1.546257 -7.380975,7.356567 10.535225,-2.051626 c 1.466576,-2.446446 3.064519,-4.732811 4.78665,-6.851198 z"
         id="path10" />
      <path
         style="fill:none;stroke:none;stroke-opacity:1"
         inkscape:connector-curvature="0"
         d="m 76.107567,41.964281 c -3.095386,3.095387 -5.846203,6.699731 -8.228042,10.769963 -0.03589,0.07178 -0.07609,0.141417 -0.122035,0.208178 -1.263423,2.178686 -2.420604,4.490176 -3.469388,6.928008 l 2.427782,2.427782 4.900789,-4.900071 c 0.670475,-0.669758 1.756588,-0.669758 2.426346,0 0.669758,0.669758 0.669758,1.756589 0,2.426347 l -4.900789,4.900071 2.427782,2.4285 c 2.437114,-1.048785 4.748604,-2.205966 6.926573,-3.469389 0.06604,-0.04666 0.137828,-0.08758 0.209613,-0.123471 4.070232,-2.381839 7.673859,-5.132655 10.768527,-8.227324 6.722702,-6.72342 10.716125,-14.868908 12.882605,-20.517701 1.31655,-3.432778 2.13705,-6.387465 2.60797,-8.341463 -1.954,0.470912 -4.90797,1.291419 -8.340749,2.608681 -5.649511,2.165766 -13.794282,6.159187 -20.516984,12.881889 z m 16.848032,5.145577 c -1.152156,1.152156 -2.684056,1.786739 -4.313584,1.786739 -1.629529,0 -3.161429,-0.634583 -4.313585,-1.786739 -1.152155,-1.152155 -1.786738,-2.684056 -1.786738,-4.313584 0,-1.629528 0.634583,-3.161429 1.786738,-4.313584 1.152156,-1.152156 2.684056,-1.786739 4.313585,-1.786739 1.629528,0 3.161428,0.634583 4.313584,1.786739 1.152156,1.152155 1.786739,2.684056 1.786739,4.313584 0,1.629528 -0.634583,3.161429 -1.786739,4.313584 z"
         id="path12" />
      <path
         inkscape:connector-curvature="0"
         d="m 88.642015,36.696669 c -1.628811,0 -3.161429,0.634583 -4.313585,1.786739 -1.152155,1.152155 -1.786738,2.684055 -1.786738,4.313584 0,1.629528 0.634583,3.161429 1.786738,4.313584 1.152156,1.152156 2.684056,1.786739 4.313585,1.786739 1.629528,0 3.161428,-0.634583 4.313584,-1.786739 1.152156,-1.152155 1.786739,-2.684056 1.786739,-4.313584 0,-1.629529 -0.634583,-3.161429 -1.786739,-4.313584 -1.152156,-1.152156 -2.684056,-1.786739 -4.313584,-1.786739 z m 1.887956,7.986843 c -0.504652,0.503934 -1.173692,0.781743 -1.887238,0.781743 -0.712829,0 -1.382587,-0.277809 -1.886521,-0.781743 -0.504651,-0.503933 -0.781743,-1.173691 -0.781743,-1.887238 0,-0.712829 0.277092,-1.383305 0.781743,-1.887238 0.503934,-0.503933 1.173692,-0.781743 1.886521,-0.781743 0.712828,0 1.382586,0.27781 1.887238,0.781743 1.04017,1.040888 1.04017,2.733588 0,3.774476 z"
         id="path14"
         style="fill:#653400;fill-opacity:1;stroke:none;stroke-opacity:1" />
      <path
         inkscape:connector-curvature="0"
         d="m 57.148326,64.993754 c 0.669758,-0.669758 0.669758,-1.756589 0,-2.426347 -0.669758,-0.669757 -1.756588,-0.669757 -2.426346,0 l -9.920742,9.920742 c -0.669758,0.669758 -0.669758,1.756589 0,2.426346 0.335238,0.335238 0.773847,0.502498 1.213173,0.502498 0.439327,0 0.877936,-0.16726 1.213173,-0.502498 l 9.920742,-9.920741 z"
         id="path16"
         style="fill:#ffffff;fill-opacity:1;stroke:none;stroke-opacity:1" />
      <path
         inkscape:connector-curvature="0"
         d="m 59.785722,71.653285 c -0.669758,-0.669758 -1.755871,-0.669758 -2.425629,0 L 47.019407,81.993971 c -0.670476,0.669758 -0.670476,1.755871 0,2.425629 0.335238,0.335237 0.773846,0.502497 1.213173,0.502497 0.439327,0 0.878653,-0.167978 1.213173,-0.502497 L 59.785722,74.079631 c 0.669757,-0.669757 0.669757,-1.755871 0,-2.426346 z"
         id="path18"
         style="fill:#ffffff;fill-opacity:1;stroke:none;stroke-opacity:1" />
      <path
         inkscape:connector-curvature="0"
         d="m 66.445971,74.291398 -9.920742,9.920742 c -0.670476,0.669757 -0.670476,1.756588 0,2.426346 0.33452,0.33452 0.773847,0.50178 1.212455,0.50178 0.439327,0 0.878654,-0.16726 1.213173,-0.50178 l 9.920742,-9.920741 c 0.669758,-0.669758 0.669758,-1.756589 0,-2.426347 -0.669758,-0.670475 -1.755871,-0.669758 -2.425628,0 z"
         id="path20"
         style="fill:#ffffff;fill-opacity:1;stroke:none;stroke-opacity:1" />
      <path
         inkscape:connector-curvature="0"
         d="m 108.4031,23.036626 c -0.38908,-0.389794 -0.94254,-0.56854 -1.48596,-0.480962 -0.19885,0.0323 -4.95463,0.813329 -11.434695,3.289207 -3.801755,1.452218 -7.413278,3.191579 -10.734788,5.169266 -4.079564,2.429218 -7.731287,5.22813 -10.859695,8.320645 l -12.957263,2.522539 c -0.33452,0.06533 -0.641762,0.228278 -0.883679,0.469477 L 48.308673,54.027817 c -0.534802,0.532648 -0.658273,1.353155 -0.304371,2.019323 0.302217,0.567823 0.889422,0.910957 1.514672,0.910957 0.109114,0 0.218228,-0.01005 0.328778,-0.03087 l 13.240816,-2.578531 c -0.862143,1.691264 -1.669011,3.447134 -2.417015,5.266176 -0.263452,0.640326 -0.115574,1.376126 0.373284,1.865703 l 3.243265,3.243264 -3.013551,3.013551 c -0.669758,0.669757 -0.669758,1.756588 0,2.426346 0.335238,0.335238 0.773846,0.502498 1.213173,0.502498 0.438609,0 0.877935,-0.16726 1.213173,-0.502498 l 3.013551,-3.013551 3.243264,3.243264 c 0.328777,0.328059 0.767386,0.502498 1.213173,0.502498 0.219664,0 0.44148,-0.04235 0.652529,-0.129214 1.81976,-0.748004 3.574913,-1.554871 5.265459,-2.416296 l -2.57566,13.241534 c -0.144288,0.740825 0.212485,1.488829 0.879371,1.842731 0.254121,0.134956 0.530494,0.200281 0.803997,0.200281 0.445069,0 0.885114,-0.17372 1.215326,-0.504651 l 11.70102,-11.738346 c 0.240481,-0.241199 0.404152,-0.549158 0.469476,-0.883678 l 2.521821,-12.956546 c 3.093233,-3.129125 5.892863,-6.780131 8.322076,-10.860412 1.97769,-3.322229 3.71633,-6.933752 5.16927,-10.735506 2.47516,-6.480786 3.25619,-11.235132 3.28921,-11.434696 0.0861,-0.543415 -0.0926,-1.096163 -0.48168,-1.484522 z m -53.683992,29.445651 7.380975,-7.356567 7.9409,-1.546257 c -1.722131,2.118387 -3.319357,4.404752 -4.78665,6.851916 l -10.535225,2.050908 z m 31.594188,16.857365 -7.356567,7.380256 2.050909,-10.535224 c 2.447882,-1.466576 4.732811,-3.063801 6.851916,-4.786651 l -1.546258,7.941619 z M 102.35733,34.814456 c -2.16648,5.648793 -6.16062,13.794281 -12.882605,20.517702 -3.094668,3.094668 -6.699013,5.845484 -10.768527,8.227324 -0.0725,0.03589 -0.143571,0.07753 -0.209613,0.123471 -2.178687,1.262705 -4.489459,2.420603 -6.926573,3.469388 l -2.427782,-2.4285 4.900789,-4.900071 c 0.669758,-0.669758 0.669758,-1.756589 0,-2.426347 -0.669758,-0.669757 -1.756589,-0.669757 -2.426346,0 l -4.900789,4.900071 -2.427782,-2.427782 c 1.048784,-2.437832 2.205965,-4.748604 3.469388,-6.928008 0.04594,-0.06604 0.08614,-0.136392 0.122035,-0.208178 2.381839,-4.070232 5.132656,-7.674576 8.228042,-10.769963 6.72342,-6.722702 14.868191,-10.716123 20.517701,-12.882607 3.432782,-1.316544 6.386742,-2.137769 8.340742,-2.608681 -0.47163,1.954717 -1.29213,4.909403 -2.60868,8.342181 z"
         id="path22"
         style="fill:#000000;fill-opacity:1;stroke:none;stroke-opacity:1" />
    </g>
    <path
       style="color:#000000;clip-rule:nonzero;display:inline;overflow:visible;visibility:visible;opacity:1;isolation:auto;mix-blend-mode:normal;color-interpolation:sRGB;color-interpolation-filters:linearRGB;solid-color:#000000;solid-opacity:1;fill:#ffffff;fill-opacity:1;fill-rule:nonzero;stroke:none;stroke-width:13;stroke-linecap:butt;stroke-linejoin:miter;stroke-miterlimit:4;stroke-dasharray:none;stroke-dashoffset:0;stroke-opacity:1;color-rendering:auto;image-rendering:auto;shape-rendering:auto;text-rendering:auto;enable-background:accumulate"
       d="m 54.540078,94.977276 c -1.86e-4,-0.47571 0.419844,-2.974649 0.933399,-5.553202 0.825967,-4.147157 1.06395,-4.756781 2.061891,-5.281762 0.620483,-0.326415 2.187216,-1.389234 3.481629,-2.361811 1.294412,-0.972584 2.398028,-1.720667 2.452479,-1.662413 0.05445,0.05822 -0.246041,1.93374 -0.66776,4.167745 l -0.766763,4.061826 -3.747268,3.747269 c -2.77932,2.779318 -3.747356,3.523848 -3.747607,2.882348 z"
       id="path4297"
       inkscape:connector-curvature="0" />
    <path
       style="color:#000000;clip-rule:nonzero;display:inline;overflow:visible;visibility:visible;opacity:1;isolation:auto;mix-blend-mode:normal;color-interpolation:sRGB;color-interpolation-filters:linearRGB;solid-color:#000000;solid-opacity:1;fill:#ffffff;fill-opacity:1;fill-rule:nonzero;stroke:none;stroke-width:13;stroke-linecap:butt;stroke-linejoin:miter;stroke-miterlimit:4;stroke-dasharray:none;stroke-dashoffset:0;stroke-opacity:1;color-rendering:auto;image-rendering:auto;shape-rendering:auto;text-rendering:auto;enable-background:accumulate"
       d="m 33.758791,67.592994 3.733788,-3.733781 3.857273,-0.78819 c 2.121501,-0.433504 3.930988,-0.714472 4.021083,-0.624382 0.09009,0.0901 -0.883426,1.703173 -2.163379,3.584611 l -2.327187,3.420797 -4.809728,0.937366 c -2.64535,0.515556 -5.087807,0.937367 -5.427682,0.937367 -0.339875,0 1.062249,-1.680202 3.115832,-3.733788 z"
       id="path4300"
       inkscape:connector-curvature="0" />
    <path
       style="color:#000000;clip-rule:nonzero;display:inline;overflow:visible;visibility:visible;opacity:1;isolation:auto;mix-blend-mode:normal;color-interpolation:sRGB;color-interpolation-filters:linearRGB;solid-color:#000000;solid-opacity:1;fill:#ffffff;fill-opacity:1;fill-rule:nonzero;stroke:none;stroke-width:13;stroke-linecap:butt;stroke-linejoin:miter;stroke-miterlimit:4;stroke-dasharray:none;stroke-dashoffset:0;stroke-opacity:1;color-rendering:auto;image-rendering:auto;shape-rendering:auto;text-rendering:auto;enable-background:accumulate"
       d="m 62.202873,63.588919 c -1.053283,-1.163864 -0.92406,-3.353067 0.246309,-4.17282 1.37032,-0.959814 2.382194,-0.840385 3.653818,0.431236 0.858327,0.858331 1.043473,1.369967 0.82454,2.278562 -0.533724,2.214996 -3.27573,3.064081 -4.724667,1.463022 z"
       id="path4302"
       inkscape:connector-curvature="0" />
  </g>
  <g
     inkscape:groupmode="layer"
     id="layer6"
     inkscape:label="text"
     transform="translate(-25.298669,-17.533252)"
     style="display:inline">
    <g
       transform="translate(30.740023,-19.951633)"
       style="font-style:normal;font-weight:normal;font-size:40px;line-height:125%;font-family:sans-serif;letter-spacing:2px;word-spacing:0px;fill:#000000;fill-opacity:1;stroke:none;stroke-width:1px;stroke-linecap:butt;stroke-linejoin:miter;stroke-opacity:1"
       id="flowRoot4226">
      <path
         d="m 70.207891,79.320937 c 0.3,0.9 1.38,1.32 2.52,1.32 1.14,0 2.25,-0.42 2.52,-1.32 l 5.76,-18.87 c 0.03,-0.12 0.06,-0.21 0.06,-0.3 0,-0.93 -1.41,-1.62 -2.46,-1.62 -0.66,0 -1.17,0.21 -1.32,0.78 l -4.56,16.26 -4.59,-16.26 c -0.15,-0.57 -0.66,-0.78 -1.32,-0.78 -1.05,0 -2.46,0.66 -2.46,1.62 0,0.06 0.03,0.18 0.06,0.3 l 5.79,18.87 z"
         style="font-style:normal;font-variant:normal;font-weight:bold;font-stretch:normal;font-size:30px;font-family:Dosis;-inkscape-font-specification:'Dosis Bold';fill:#ffffff"
         id="path4235" />
      <path
         d="m 90.178359,80.730937 c 3.54,0 6.48,-2.85 6.48,-6.09 l 0,-7.23 c 0,-0.63 -0.78,-1.2 -1.92,-1.2 -1.05,0 -1.95,0.57 -1.95,1.2 l 0,7.23 c 0,1.38 -1.14,2.7 -2.61,2.7 -1.47,0 -2.64,-1.35 -2.64,-2.7 l 0,-7.2 c 0,-0.6 -0.9,-1.23 -1.92,-1.23 -1.08,0 -1.95,0.63 -1.95,1.23 l 0,7.2 c 0,3.21 2.94,6.09 6.51,6.09 z"
         style="font-style:normal;font-variant:normal;font-weight:bold;font-stretch:normal;font-size:30px;font-family:Dosis;-inkscape-font-specification:'Dosis Bold';fill:#ffffff"
         id="path4237" />
      <path
         d="m 107.55148,66.030937 c -3.66,0 -6.57,2.76 -6.57,6 l 0,2.55 c 0,3.69 3,6.15 7.26,6.15 3.21,0 5.28,-1.47 5.28,-2.49 0,-0.6 -0.57,-1.71 -1.47,-1.71 -0.9,0 -1.71,1.14 -3.69,1.14 -2.1,0 -3.51,-1.14 -3.51,-2.88 l 0,-0.45 6.09,0 c 1.35,0 2.79,-0.12 2.79,-2.67 0,-3.33 -2.88,-5.64 -6.18,-5.64 z m -2.7,6.03 0,-0.84 c 0,-1.44 1.26,-2.34 2.61,-2.34 1.44,0 2.64,0.96 2.64,2.37 0,0.66 -0.24,0.81 -0.87,0.81 l -4.38,0 z"
         style="font-style:normal;font-variant:normal;font-weight:bold;font-stretch:normal;font-size:30px;font-family:Dosis;-inkscape-font-specification:'Dosis Bold';fill:#ffffff"
         id="path4239" />
      <path
         d="m 130.2293,61.950937 8.49,0 c 0.78,0 1.23,-0.81 1.23,-1.74 0,-0.81 -0.39,-1.68 -1.23,-1.68 l -10.68,0 c -0.87,0 -1.71,0.42 -1.71,1.23 l 0,19.47 c 0,0.81 0.84,1.23 1.71,1.23 l 10.68,0 c 0.84,0 1.23,-0.87 1.23,-1.68 0,-0.93 -0.45,-1.74 -1.23,-1.74 l -8.49,0 0,-6.03 4.56,0 c 0.84,0 1.23,-0.81 1.23,-1.5 0,-0.81 -0.45,-1.56 -1.23,-1.56 l -4.56,0 0,-6 z"
         style="font-style:normal;font-variant:normal;font-weight:bold;font-stretch:normal;font-size:30px;font-family:Dosis;-inkscape-font-specification:'Dosis Bold';fill:#ffffff"
         id="path4241" />
      <path
         d="m 143.0382,78.810937 c 0,0.9 1.65,1.92 2.46,1.92 0.3,0 0.75,-0.12 0.96,-0.42 l 3,-4.56 3.03,4.56 c 0.21,0.3 0.6,0.42 0.9,0.42 1.02,0 2.52,-1.08 2.52,-1.92 0,-0.27 -0.12,-0.54 -0.24,-0.66 l -3.57,-4.92 3.33,-4.62 c 0.15,-0.24 0.24,-0.42 0.24,-0.63 0,-0.9 -1.62,-1.95 -2.55,-1.95 -0.27,0 -0.69,0.12 -0.9,0.45 l -2.76,4.35 -2.73,-4.38 c -0.24,-0.39 -0.69,-0.42 -0.87,-0.42 -1.02,0 -2.58,1.05 -2.58,1.95 0,0.24 0.15,0.51 0.24,0.63 l 3.3,4.59 -3.54,4.95 c -0.15,0.18 -0.24,0.42 -0.24,0.66 z"
         style="font-style:normal;font-variant:normal;font-weight:bold;font-stretch:normal;font-size:30px;font-family:Dosis;-inkscape-font-specification:'Dosis Bold';fill:#ffffff"
         id="path4243" />
      <path
         d="m 164.8293,66.030937 c -2.13,0 -4.8,0.93 -4.8,2.16 0,0.87 0.45,1.92 1.32,1.92 0.72,0 1.11,-0.93 3.42,-0.93 1.98,0 2.64,1.47 2.64,2.76 l 0,0.39 -1.23,0 c -4.14,0 -6.99,0.96 -6.99,4.41 0,2.73 1.77,3.99 3.9,3.99 2.07,0 3.48,-1.14 4.56,-2.37 l 0,0.87 c 0,0.69 0.75,1.23 1.74,1.23 1.08,0 1.89,-0.54 1.89,-1.23 l 0,-7.35 c 0,-3.03 -1.77,-5.85 -6.45,-5.85 z m 2.58,8.94 c 0,1.47 -1.53,2.88 -2.76,2.88 -0.9,0 -1.59,-0.51 -1.59,-1.62 0,-1.68 1.89,-1.89 3.9,-1.89 l 0.45,0 0,0.63 z"
         style="font-style:normal;font-variant:normal;font-weight:bold;font-stretch:normal;font-size:30px;font-family:Dosis;-inkscape-font-specification:'Dosis Bold';fill:#ffffff"
         id="path4245" />
      <path
         d="m 184.82039,79.260937 c 0,0.84 1.02,1.2 1.92,1.2 0.96,0 1.95,-0.36 1.95,-1.2 l 0,-7.17 c 0,-1.74 1.17,-2.7 2.37,-2.7 1.2,0 2.43,0.93 2.43,2.73 l 0,7.11 c 0,0.6 0.9,1.23 1.92,1.23 1.05,0 1.95,-0.63 1.95,-1.23 l 0,-7.11 c 0,-3.9 -2.61,-6.09 -5.34,-6.09 -1.74,0 -3.48,0.96 -4.53,3 -0.63,-1.77 -2.04,-3 -3.75,-3 -1.98,0 -3.3,1.11 -3.96,2.28 l 0,-0.9 c 0,-0.72 -0.78,-1.2 -1.71,-1.2 -1.14,0 -1.92,0.48 -1.92,1.2 l 0,11.82 c 0,0.6 0.78,1.23 1.92,1.23 1.05,0 1.95,-0.63 1.95,-1.23 l 0,-7.11 c 0,-1.77 1.17,-2.7 2.34,-2.7 1.26,0 2.46,1.02 2.46,2.7 l 0,7.14 z"
         style="font-style:normal;font-variant:normal;font-weight:bold;font-stretch:normal;font-size:30px;font-family:Dosis;-inkscape-font-specification:'Dosis Bold';fill:#ffffff"
         id="path4247" />
      <path
         d="m 204.09242,66.210937 c -1.02,0 -1.83,0.48 -1.83,1.2 l 0,18.45 c 0,0.63 0.78,1.23 1.89,1.23 1.08,0 1.98,-0.6 1.98,-1.23 l 0,-7.5 c 0.57,1.23 2.13,2.37 3.93,2.37 2.79,0 5.25,-2.94 5.25,-6.15 l 0,-2.46 c 0,-3.33 -2.37,-6.09 -5.37,-6.09 -1.92,0 -3.36,1.11 -4.05,2.28 l 0,-0.9 c 0,-0.72 -0.75,-1.2 -1.8,-1.2 z m 7.35,8.37 c 0,1.38 -1.26,2.76 -2.67,2.76 -1.53,0 -2.64,-1.59 -2.64,-2.22 l 0,-3 c 0,-1.68 1.32,-2.7 2.58,-2.7 1.5,0 2.73,1.35 2.73,2.7 l 0,2.46 z"
         style="font-style:normal;font-variant:normal;font-weight:bold;font-stretch:normal;font-size:30px;font-family:Dosis;-inkscape-font-specification:'Dosis Bold';fill:#ffffff"
         id="path4249" />
      <path
         d="m 222.00836,57.900937 c -1.14,0 -1.92,0.48 -1.92,1.2 l 0,20.13 c 0,0.6 0.78,1.23 1.92,1.23 1.05,0 1.95,-0.63 1.95,-1.23 l 0,-20.13 c 0,-0.72 -0.9,-1.2 -1.95,-1.2 z"
         style="font-style:normal;font-variant:normal;font-weight:bold;font-stretch:normal;font-size:30px;font-family:Dosis;-inkscape-font-specification:'Dosis Bold';fill:#ffffff"
         id="path4251" />
      <path
         d="m 235.23117,66.030937 c -3.66,0 -6.57,2.76 -6.57,6 l 0,2.55 c 0,3.69 3,6.15 7.26,6.15 3.21,0 5.28,-1.47 5.28,-2.49 0,-0.6 -0.57,-1.71 -1.47,-1.71 -0.9,0 -1.71,1.14 -3.69,1.14 -2.1,0 -3.51,-1.14 -3.51,-2.88 l 0,-0.45 6.09,0 c 1.35,0 2.79,-0.12 2.79,-2.67 0,-3.33 -2.88,-5.64 -6.18,-5.64 z m -2.7,6.03 0,-0.84 c 0,-1.44 1.26,-2.34 2.61,-2.34 1.44,0 2.64,0.96 2.64,2.37 0,0.66 -0.24,0.81 -0.87,0.81 l -4.38,0 z"
         style="font-style:normal;font-variant:normal;font-weight:bold;font-stretch:normal;font-size:30px;font-family:Dosis;-inkscape-font-specification:'Dosis Bold';fill:#ffffff"
         id="path4253" />
      <path
         d="m 254.00898,79.230937 c 0,0.81 0.96,1.23 1.95,1.23 0.96,0 1.95,-0.42 1.95,-1.23 l 0,-6.96 3.36,0 c 3.96,0 7.05,-1.89 7.05,-6.81 l 0,-0.18 c 0,-4.92 -3,-6.75 -6.81,-6.75 l -6.03,0 c -0.9,0 -1.47,0.57 -1.47,1.2 l 0,19.5 z m 7.26,-17.28 c 1.95,0 3.15,1.11 3.15,3.45 l 0,0.36 c 0,2.34 -1.2,3.45 -3.15,3.45 l -3.36,0 0,-7.26 3.36,0 z"
         style="font-style:normal;font-variant:normal;font-weight:bold;font-stretch:normal;font-size:30px;font-family:Dosis;-inkscape-font-specification:'Dosis Bold';fill:#ffffff"
         id="path4255" />
      <path
         d="m 280.42383,69.420937 c 0.72,0 1.41,-0.78 1.41,-1.71 0,-0.9 -0.69,-1.68 -1.41,-1.68 l -0.93,0 c -1.65,0 -3.09,1.32 -3.69,2.61 l 0,-1.23 c 0,-0.72 -0.78,-1.2 -1.74,-1.2 -1.11,0 -1.89,0.48 -1.89,1.2 l 0,11.82 c 0,0.6 0.78,1.23 1.89,1.23 1.08,0 1.98,-0.63 1.98,-1.23 l 0,-5.37 c 0,-2.73 1.71,-4.44 3.45,-4.44 l 0.93,0 z"
         style="font-style:normal;font-variant:normal;font-weight:bold;font-stretch:normal;font-size:30px;font-family:Dosis;-inkscape-font-specification:'Dosis Bold';fill:#ffffff"
         id="path4257" />
      <path
         d="m 291.15945,66.030937 c -3.57,0 -6.51,2.85 -6.51,6.09 l 0,2.46 c 0,3.24 3,6.15 6.51,6.15 3.48,0 6.51,-2.94 6.51,-6.15 l 0,-2.46 c 0,-3.33 -3.03,-6.09 -6.51,-6.09 z m 2.64,8.55 c 0,1.41 -1.2,2.76 -2.64,2.76 -1.47,0 -2.64,-1.35 -2.64,-2.76 l 0,-2.46 c 0,-1.35 1.17,-2.7 2.64,-2.7 1.44,0 2.64,1.35 2.64,2.7 l 0,2.46 z"
         style="font-style:normal;font-variant:normal;font-weight:bold;font-stretch:normal;font-size:30px;font-family:Dosis;-inkscape-font-specification:'Dosis Bold';fill:#ffffff"
         id="path4259" />
      <path
         d="m 304.08086,59.250937 c -1.2,0 -2.13,0.87 -2.13,1.89 0,0.99 0.93,1.89 2.13,1.89 1.17,0 2.1,-0.9 2.1,-1.89 0,-1.02 -0.93,-1.89 -2.1,-1.89 z m -0.03,6.96 c -1.08,0 -1.89,0.48 -1.89,1.2 l 0,14.01 c 0,1.38 -0.12,2.4 -1.2,2.4 -0.81,0 -1.47,0.66 -1.47,1.68 0,0.78 0.39,1.59 2.01,1.59 3,0 4.53,-2.34 4.53,-5.67 l 0,-14.01 c 0,-0.72 -0.87,-1.2 -1.98,-1.2 z"
         style="font-style:normal;font-variant:normal;font-weight:bold;font-stretch:normal;font-size:30px;font-family:Dosis;-inkscape-font-specification:'Dosis Bold';fill:#ffffff"
         id="path4261" />
      <path
         d="m 317.07492,66.030937 c -3.66,0 -6.57,2.76 -6.57,6 l 0,2.55 c 0,3.69 3,6.15 7.26,6.15 3.21,0 5.28,-1.47 5.28,-2.49 0,-0.6 -0.57,-1.71 -1.47,-1.71 -0.9,0 -1.71,1.14 -3.69,1.14 -2.1,0 -3.51,-1.14 -3.51,-2.88 l 0,-0.45 6.09,0 c 1.35,0 2.79,-0.12 2.79,-2.67 0,-3.33 -2.88,-5.64 -6.18,-5.64 z m -2.7,6.03 0,-0.84 c 0,-1.44 1.26,-2.34 2.61,-2.34 1.44,0 2.64,0.96 2.64,2.37 0,0.66 -0.24,0.81 -0.87,0.81 l -4.38,0 z"
         style="font-style:normal;font-variant:normal;font-weight:bold;font-stretch:normal;font-size:30px;font-family:Dosis;-inkscape-font-specification:'Dosis Bold';fill:#ffffff"
         id="path4263" />
      <path
         d="m 333.60617,80.730937 c 2.82,0 4.95,-1.26 4.95,-2.46 0,-0.75 -0.6,-1.83 -1.65,-1.83 -0.75,0 -1.2,0.9 -3,0.9 -2.07,0 -2.94,-1.02 -2.94,-2.76 l 0,-2.4 c 0,-1.74 0.87,-2.76 2.91,-2.76 1.77,0 2.31,0.84 2.97,0.84 0.93,0 1.53,-1.17 1.53,-1.89 0,-1.17 -1.98,-2.34 -4.8,-2.34 -4.53,0 -6.48,2.7 -6.48,6.15 l 0,2.4 c 0,3.51 1.98,6.15 6.51,6.15 z"
         style="font-style:normal;font-variant:normal;font-weight:bold;font-stretch:normal;font-size:30px;font-family:Dosis;-inkscape-font-specification:'Dosis Bold';fill:#ffffff"
         id="path4265" />
      <path
         d="m 346.42398,69.030937 3.54,0 c 0.63,0 0.99,-0.69 0.99,-1.41 0,-0.69 -0.36,-1.41 -0.99,-1.41 l -3.54,0 0,-5.16 c 0,-0.72 -0.96,-1.2 -1.95,-1.2 -0.9,0 -1.92,0.48 -1.92,1.2 l 0,14.55 c 0,3.39 1.95,4.86 5.55,4.86 l 1.17,0 c 1.11,0 1.65,-0.81 1.65,-1.65 0,-0.81 -0.54,-1.62 -1.65,-1.62 l -1.17,0 c -1.26,0 -1.68,-0.42 -1.68,-1.59 l 0,-6.57 z"
         style="font-style:normal;font-variant:normal;font-weight:bold;font-stretch:normal;font-size:30px;font-family:Dosis;-inkscape-font-specification:'Dosis Bold';fill:#ffffff"
         id="path4267" />
    </g>
  </g>
</svg>
