<?xml version="1.0" encoding="UTF-8" standalone="no"?>
<svg
   xmlns:dc="http://purl.org/dc/elements/1.1/"
   xmlns:cc="http://creativecommons.org/ns#"
   xmlns:rdf="http://www.w3.org/1999/02/22-rdf-syntax-ns#"
   xmlns:svg="http://www.w3.org/2000/svg"
   xmlns="http://www.w3.org/2000/svg"
   xmlns:sodipodi="http://sodipodi.sourceforge.net/DTD/sodipodi-0.dtd"
   xmlns:inkscape="http://www.inkscape.org/namespaces/inkscape"
   version="1.1"
   x="0px"
   y="0px"
   viewBox="0 0 291.81719 131.66865"
   id="svg4171"
   inkscape:version="0.91 r13725"
   sodipodi:docname="logo.svg"
   width="291.8172"
   height="131.66866">
  <metadata
     id="metadata4185">
    <rdf:RDF>
      <cc:Work
         rdf:about="">
        <dc:format>image/svg+xml</dc:format>
        <dc:type
           rdf:resource="http://purl.org/dc/dcmitype/StillImage" />
        <dc:title></dc:title>
      </cc:Work>
    </rdf:RDF>
  </metadata>
  <defs
     id="defs4183" />
  <sodipodi:namedview
     pagecolor="#ffffff"
     bordercolor="#666666"
     borderopacity="1"
     objecttolerance="10"
     gridtolerance="10"
     guidetolerance="10"
     inkscape:pageopacity="0"
     inkscape:pageshadow="2"
     inkscape:window-width="1920"
     inkscape:window-height="1016"
     id="namedview4181"
     showgrid="false"
     fit-margin-top="0.5"
     fit-margin-left="0.5"
     fit-margin-right="0"
     fit-margin-bottom="0"
     inkscape:zoom="1.1695546"
     inkscape:cx="-12.826582"
     inkscape:cy="-93.791693"
     inkscape:window-x="0"
     inkscape:window-y="27"
     inkscape:window-maximized="1"
     inkscape:current-layer="layer4" />
  <g
     inkscape:groupmode="layer"
     id="layer3"
     inkscape:label="background"
     style="display:none"
     transform="translate(71.638748,11.98442)">
    <rect
       style="fill:#62e8bc;fill-opacity:1;stroke:none;stroke-width:15;stroke-linecap:butt;stroke-linejoin:miter;stroke-miterlimit:4;stroke-dasharray:none;stroke-opacity:1"
       id="rect4144"
       width="529.35254"
       height="158.26607"
       x="-190.76164"
       y="-25.935474" />
  </g>
  <g
     inkscape:groupmode="layer"
     id="layer1"
     inkscape:label="circle"
     transform="translate(-144.58008,-10.917901)">
    <ellipse
       style="display:inline;fill:#ffffff;fill-opacity:1;stroke:none;stroke-width:13.10000038;stroke-linecap:butt;stroke-linejoin:miter;stroke-miterlimit:4;stroke-dasharray:none;stroke-opacity:1"
       id="path4249"
       cx="232.99467"
       cy="57.083904"
       rx="20.948145"
       ry="21.375658" />
  </g>
  <g
     style="display:none"
     transform="translate(71.638748,11.98442)"
     inkscape:label="vue stroke"
     id="g4209"
     inkscape:groupmode="layer">
    <flowRoot
       transform="translate(-70.271428,-96.60723)"
       style="font-style:normal;font-weight:normal;font-size:98.80249023px;line-height:125%;font-family:sans-serif;letter-spacing:4.94012451px;word-spacing:0px;fill:none;fill-opacity:1;stroke:#ffffff;stroke-width:13.10000038;stroke-linecap:butt;stroke-linejoin:miter;stroke-miterlimit:4;stroke-dasharray:none;stroke-opacity:1"
       id="flowRoot4211"
       xml:space="preserve"><flowRegion
         style="stroke-width:4"
         id="flowRegion4213"><rect
           style="fill:none;fill-opacity:1;stroke:#ffffff;stroke-width:13.10000038;stroke-miterlimit:4;stroke-dasharray:none;stroke-opacity:1"
           y="88.496887"
           x="57.633083"
           height="216.54114"
           width="615.27551"
           id="rect4215" /></flowRegion><flowPara
         style="font-style:normal;font-variant:normal;font-weight:normal;font-stretch:normal;font-size:50px;font-family:Pacifico;-inkscape-font-specification:Pacifico;letter-spacing:1px;fill:none;fill-opacity:1;stroke:#ffffff;stroke-width:13.10000038;stroke-miterlimit:4;stroke-dasharray:none;stroke-opacity:1"
         id="flowPara4217">Vue</flowPara></flowRoot>  </g>
  <g
     inkscape:groupmode="layer"
     id="layer2"
     inkscape:label="example stroke"
     transform="translate(71.638748,11.98442)"
     style="display:none">
    <flowRoot
       xml:space="preserve"
       id="flowRoot4150"
       style="font-style:normal;font-weight:normal;font-size:98.80249023px;line-height:125%;font-family:sans-serif;letter-spacing:4.94012451px;word-spacing:0px;fill:#000000;fill-opacity:1;stroke:#ffffff;stroke-width:13.10000038;stroke-linecap:butt;stroke-linejoin:miter;stroke-miterlimit:4;stroke-dasharray:none;stroke-opacity:1"
       transform="translate(-124.54656,-79.201935)"><flowRegion
         id="flowRegion4152"
         style="stroke-width:4"><rect
           id="rect4154"
           width="615.27551"
           height="216.54114"
           x="57.633083"
           y="88.496887"
           style="fill:#000000;fill-opacity:1;stroke:#ffffff;stroke-width:13.10000038;stroke-miterlimit:4;stroke-dasharray:none;stroke-opacity:1" /></flowRegion><flowPara
         id="flowPara4156"
         style="font-style:normal;font-variant:normal;font-weight:normal;font-stretch:normal;font-size:75px;font-family:Pacifico;-inkscape-font-specification:Pacifico;letter-spacing:1px;fill:#000000;fill-opacity:1;stroke:#ffffff;stroke-width:13.10000038;stroke-miterlimit:4;stroke-dasharray:none;stroke-opacity:1">Example</flowPara></flowRoot>  </g>
  <g
     style="display:none"
     transform="translate(71.638748,11.98442)"
     inkscape:label="example"
     id="g4166"
     inkscape:groupmode="layer">
    <flowRoot
       transform="translate(-124.54656,-79.201935)"
       style="font-style:normal;font-weight:normal;font-size:98.80249023px;line-height:125%;font-family:sans-serif;letter-spacing:4.94012451px;word-spacing:0px;fill:#865e04;fill-opacity:1;stroke:none;stroke-width:4;stroke-linecap:butt;stroke-linejoin:miter;stroke-miterlimit:4;stroke-dasharray:none;stroke-opacity:1"
       id="flowRoot4168"
       xml:space="preserve"><flowRegion
         style="stroke-width:4"
         id="flowRegion4170"><rect
           style="fill:#865e04;fill-opacity:1;stroke:none;stroke-width:9.88024902;stroke-miterlimit:4;stroke-dasharray:none;stroke-opacity:1"
           y="88.496887"
           x="57.633083"
           height="216.54114"
           width="615.27551"
           id="rect4172" /></flowRegion><flowPara
         style="font-style:normal;font-variant:normal;font-weight:normal;font-stretch:normal;font-size:75px;font-family:Pacifico;-inkscape-font-specification:Pacifico;letter-spacing:1px;fill:#865e04;fill-opacity:1;stroke:none;stroke-width:4;stroke-miterlimit:4;stroke-dasharray:none;stroke-opacity:1"
         id="flowPara4174">Example</flowPara></flowRoot>  </g>
  <g
     inkscape:groupmode="layer"
     id="g4199"
     inkscape:label="vue"
     transform="translate(71.638748,11.98442)"
     style="display:none">
    <flowRoot
       xml:space="preserve"
       id="flowRoot4201"
       style="font-style:normal;font-weight:normal;font-size:98.80249023px;line-height:125%;font-family:sans-serif;letter-spacing:4.94012451px;word-spacing:0px;fill:#865e04;fill-opacity:1;stroke:none;stroke-width:4;stroke-linecap:butt;stroke-linejoin:miter;stroke-miterlimit:4;stroke-dasharray:none;stroke-opacity:1"
       transform="translate(-70.271428,-96.60723)"><flowRegion
         id="flowRegion4203"
         style="stroke-width:4"><rect
           id="rect4205"
           width="615.27551"
           height="216.54114"
           x="57.633083"
           y="88.496887"
           style="fill:#865e04;fill-opacity:1;stroke:none;stroke-width:9.88024902;stroke-miterlimit:4;stroke-dasharray:none;stroke-opacity:1" /></flowRegion><flowPara
         id="flowPara4207"
         style="font-style:normal;font-variant:normal;font-weight:normal;font-stretch:normal;font-size:50px;font-family:Pacifico;-inkscape-font-specification:Pacifico;letter-spacing:1px;fill:#de1763;fill-opacity:1;stroke:none;stroke-width:4;stroke-miterlimit:4;stroke-dasharray:none;stroke-opacity:1">Vue</flowPara></flowRoot>  </g>
  <g
     inkscape:groupmode="layer"
     id="layer4"
     inkscape:label="group">
    <g
       transform="translate(71.638748,11.984423)"
       style="display:inline"
       id="g4280">
      <path
         transform="translate(-216.21883,-22.902321)"
         style="display:inline;fill:#ffffff;fill-opacity:1;stroke:none;stroke-width:13.10000038;stroke-linecap:butt;stroke-linejoin:miter;stroke-miterlimit:4;stroke-dasharray:none;stroke-opacity:1"
         d="M 253.94282,57.083904 A 20.948145,21.375658 0 0 1 232.99467,78.459562 20.948145,21.375658 0 0 1 212.04653,57.083904 20.948145,21.375658 0 0 1 232.99467,35.708246 20.948145,21.375658 0 0 1 253.94282,57.083904 Z"
         id="path4249-3" />
      <g
         transform="translate(-70.271428,-96.60723)"
         style="font-style:normal;font-weight:normal;font-size:98.80249023px;line-height:125%;font-family:sans-serif;letter-spacing:4.94012451px;word-spacing:0px;display:inline;fill:none;fill-opacity:1;stroke:#ffffff;stroke-width:13.10000038;stroke-linecap:butt;stroke-linejoin:miter;stroke-miterlimit:4;stroke-dasharray:none;stroke-opacity:1"
         id="flowRoot4211-6">
        <path
           d="m 100.83281,113.2728 q 1.15,0 1.65,0.5 0.55,0.5 0.55,1.3 0,1.3 -0.8,2.3 -0.75,1 -2.399998,1.05 -3.999999,0.1 -7.1,-0.6 -3.55,7.45 -8.6,12.4 -5,4.9 -10.049999,4.9 -5.200001,0 -7.75,-6.05 -2.550001,-6.05 -2.550001,-16.35 0,-8.8 1.250001,-15.799998 0.449999,-2.6 1.25,-3.5 0.849999,-0.95 2.849999,-0.95 3.3,0 3.3,2.85 0,0.3 -0.1,1.1 -1.5,8.999998 -1.5,16.299998 0,7.65 1.25,11.65 1.299999,3.95 3.849999,3.95 2.600001,0 5.650001,-3.6 3.049999,-3.6 5.599999,-9.05 -3.05,-1.9 -4.599999,-4.9 -1.55,-3.05 -1.55,-7 0,-3.949998 1.199999,-6.649998 1.25,-2.75 3.350001,-4.1 2.149999,-1.35 4.75,-1.35 3.2,0 5.049999,2.3 1.900001,2.3 1.900001,6.299998 0,5.75 -2.5,12.55 2.65,0.45 6.049997,0.45 z m -14.749997,-9.85 q 0,4.9 3.149999,7.25 1.950001,-5.6 1.950001,-9.25 0,-2.099998 -0.550001,-3.049998 -0.549999,-1 -1.5,-1 -1.349999,0 -2.2,1.6 -0.849999,1.549998 -0.849999,4.449998 z"
           style="font-style:normal;font-variant:normal;font-weight:normal;font-stretch:normal;font-size:50px;font-family:Pacifico;-inkscape-font-specification:Pacifico;letter-spacing:1px;fill:none;fill-opacity:1;stroke:#ffffff;stroke-width:13.10000038;stroke-miterlimit:4;stroke-dasharray:none;stroke-opacity:1"
           id="path4368" />
        <path
           d="m 104.31641,135.1228 q -2.25,0 -3.7,-2.05 -1.400004,-2.1 -1.400004,-5.2 0,-3.75 0.5,-6.85 0.500004,-3.15 1.650004,-6.65 0.5,-1.5 1.4,-2.15 0.9,-0.65 2.85,-0.65 1.1,0 1.5,0.35 0.45,0.35 0.45,1.05 0,0.4 -0.55,2.7 -0.5,1.85 -0.8,3.35 -1,5.25 -1,7 0,1.05 0.25,1.5 0.25,0.4 0.8,0.4 0.75,0 1.85,-1.5 1.15,-1.5 2.4,-4.55 1.3,-3.05 2.5,-7.5 0.4,-1.5 1.2,-2.15 0.85,-0.65 2.5,-0.65 1.15,0 1.6,0.3 0.45,0.25 0.45,1 0,1.25 -1.25,6.85 -1.4,6.4 -1.4,7.9 0,0.95 0.4,1.5 0.4,0.5 1.05,0.5 1,0 2.35,-1.2 1.4,-1.25 3.7,-4 0.6,-0.7 1.35,-0.7 0.65,0 1,0.6 0.4,0.6 0.4,1.65 0,2 -0.95,3.1 -2.15,2.65 -4.65,4.35 -2.45,1.7 -5.6,1.7 -2.4,0 -3.55,-1.85 -1.1,-1.85 -1.1,-5.2 -0.85,3.4 -2.55,5.25 -1.7,1.8 -3.65,1.8 z"
           style="font-style:normal;font-variant:normal;font-weight:normal;font-stretch:normal;font-size:50px;font-family:Pacifico;-inkscape-font-specification:Pacifico;letter-spacing:1px;fill:none;fill-opacity:1;stroke:#ffffff;stroke-width:13.10000038;stroke-miterlimit:4;stroke-dasharray:none;stroke-opacity:1"
           id="path4370" />
        <path
           d="m 141.26094,125.2228 q 0.65,0 1,0.6 0.4,0.6 0.4,1.65 0,1.8 -0.85,3.1 -1.4,2.15 -3.7,3.35 -2.25,1.2 -5.4,1.2 -4.8,0 -7.45,-2.85 -2.65,-2.9 -2.65,-7.8 0,-3.45 1.45,-6.4 1.45,-3 4,-4.75 2.6,-1.75 5.85,-1.75 2.9,0 4.65,1.75 1.75,1.7 1.75,4.65 0,3.45 -2.5,5.95 -2.45,2.45 -8.4,3.9 1.2,2.3 4.05,2.3 2.05,0 3.35,-0.95 1.35,-0.95 3.1,-3.2 0.6,-0.75 1.35,-0.75 z m -8.2,-8.75 q -1.85,0 -3.15,2.15 -1.25,2.15 -1.25,5.2 l 0,0.1 q 2.95,-0.7 4.65,-2.1 1.7,-1.4 1.7,-3.25 0,-0.95 -0.55,-1.5 -0.5,-0.6 -1.4,-0.6 z"
           style="font-style:normal;font-variant:normal;font-weight:normal;font-stretch:normal;font-size:50px;font-family:Pacifico;-inkscape-font-specification:Pacifico;letter-spacing:1px;fill:none;fill-opacity:1;stroke:#ffffff;stroke-width:13.10000038;stroke-miterlimit:4;stroke-dasharray:none;stroke-opacity:1"
           id="path4372" />
      </g>
      <g
         transform="translate(-124.54656,-79.201935)"
         style="font-style:normal;font-weight:normal;font-size:98.80249023px;line-height:125%;font-family:sans-serif;letter-spacing:4.94012451px;word-spacing:0px;display:inline;fill:#000000;fill-opacity:1;stroke:#ffffff;stroke-width:13.10000038;stroke-linecap:butt;stroke-linejoin:miter;stroke-miterlimit:4;stroke-dasharray:none;stroke-opacity:1"
         id="flowRoot4150-5">
        <path
           d="m 114.25781,144.41116 q 1.125,-0.45 1.875,-0.45 1.2,0 1.8,0.9 0.6,0.9 0.6,2.325 0,2.25 -1.125,3.825 -1.05,1.575 -3.675,2.85 -4.425,2.1 -11.475,3.375 -7.049997,1.2 -13.874998,1.2 -9.45,0 -15.825,-2.1 -6.375,-2.175 -9.525,-5.925 -3.074999,-3.75 -3.074999,-8.475 0,-6.45 4.125,-10.95 4.2,-4.575 12.299999,-6.6 -4.424999,-1.275 -6.825,-4.5 -2.325,-3.225 -2.325,-7.2 0,-5.4 3.375,-9.525 3.45,-4.200004 9.225001,-6.450004 5.774999,-2.25 12.674999,-2.25 9.299998,0 13.949998,4.05 4.65,3.975004 4.65,10.350004 0,4.425 -1.65,7.2 -1.575,2.7 -4.575,2.7 -2.1,0 -3.3,-0.9 -1.2,-0.975 -1.2,-2.85 0,-1.275 0.375,-2.775 0.375,-2.475 0.375,-3.375 0,-2.7 -2.024998,-4.35 -2.024999,-1.725 -6.75,-1.725 -6.375,0 -10.199999,2.7 -3.825,2.7 -3.825,7.275 0,3.525 2.849999,5.85 2.925,2.25 9.45,2.475 1.650001,0.075 2.325001,0.75 0.674999,0.675 0.674999,2.25 0,4.95 -4.5,5.025 -6.224999,0.15 -10.349999,1.725 -4.050001,1.575 -5.925001,4.05 -1.8,2.4 -1.8,5.175 0,4.65 4.350001,7.05 4.349999,2.325 13.8,2.325 6.224999,0 13.124997,-1.425 6.975,-1.5 11.925,-3.6 z"
           style="font-style:normal;font-variant:normal;font-weight:normal;font-stretch:normal;font-size:75px;font-family:Pacifico;-inkscape-font-specification:Pacifico;letter-spacing:1px;fill:#000000;fill-opacity:1;stroke:#ffffff;stroke-width:13.10000038;stroke-miterlimit:4;stroke-dasharray:none;stroke-opacity:1"
           id="path4375" />
        <path
           d="m 157.29883,141.33616 q 0.975,0 1.5,0.9 0.6,0.9 0.6,2.475 0,3 -1.425,4.65 -3.3,3.9 -7.275,6.525 -3.9,2.55 -8.85,2.55 -3.825,0 -6.825,-1.425 -2.925,-1.425 -4.65,-4.05 -4.275,5.4 -10.125,5.4 -4.125,0 -6.525,-2.4 -2.4,-2.4 -2.4,-6.375 0,-3.75 1.725,-6.075 1.725,-2.325 4.875,-2.325 2.7,0 2.7,2.025 0,0.525 -0.15,1.875 -0.225,2.7 -0.225,3.075 0,2.25 1.95,2.25 1.425,0 2.7,-1.65 1.35,-1.725 2.175,-4.65 0.9,-2.925 0.9,-6.45 0,-2.7 -0.675,-4.5 -0.675,-1.875 -1.65,-1.875 -0.825,0 -1.2,0.45 -0.375,0.375 -0.75,1.35 -0.45,1.2 -1.2,1.95 -0.75,0.675 -2.625,0.675 -1.65,0 -2.625,-1.125 -0.975,-1.2 -0.975,-3.6 0,-3.825 2.325,-6 2.325,-2.175 6,-2.175 3.15,0 5.7,1.575 2.55,1.5 3.9,4.425 2.25,-3 5.025,-4.5 2.85,-1.5 5.55,-1.5 2.925,0 4.425,1.35 1.575,1.35 1.575,4.35 0,3.375 -1.275,5.325 -1.275,1.875 -3.075,1.875 -1.65,0 -2.25,-0.675 -0.6,-0.675 -0.9,-1.95 -0.15,-0.9 -0.45,-1.35 -0.3,-0.45 -1.05,-0.45 -0.9,0 -1.95,1.725 -0.975,1.65 -1.725,4.425 -0.675,2.775 -0.675,5.775 0,3.525 1.65,5.475 1.725,1.875 4.65,1.875 2.925,0 5.475,-1.95 2.625,-2.025 6.075,-6.225 0.9,-1.05 2.025,-1.05 z"
           style="font-style:normal;font-variant:normal;font-weight:normal;font-stretch:normal;font-size:75px;font-family:Pacifico;-inkscape-font-specification:Pacifico;letter-spacing:1px;fill:#000000;fill-opacity:1;stroke:#ffffff;stroke-width:13.10000038;stroke-miterlimit:4;stroke-dasharray:none;stroke-opacity:1"
           id="path4377" />
        <path
           d="m 162.83867,158.43616 q -4.65,0 -7.425,-3.375 -2.775,-3.375 -2.775,-8.85 0,-6 2.775,-11.325 2.775,-5.4 7.35,-8.625 4.65,-3.3 9.825,-3.3 1.65,0 2.175,0.675 0.6,0.6 0.975,2.25 1.575,-0.3 3.3,-0.3 3.675,0 3.675,2.625 0,1.575 -1.125,7.5 -1.725,8.625 -1.725,12 0,1.125 0.525,1.8 0.6,0.675 1.5,0.675 1.425,0 3.45,-1.8 2.025,-1.875 5.475,-6 0.9,-1.05 2.025,-1.05 0.975,0 1.5,0.9 0.6,0.9 0.6,2.475 0,3 -1.425,4.65 -3.075,3.825 -6.525,6.45 -3.45,2.625 -6.675,2.625 -2.475,0 -4.575,-1.65 -2.025,-1.725 -3.075,-4.65 -3.9,6.3 -9.825,6.3 z m 2.7,-7.575 q 1.65,0 3.15,-1.95 1.5,-1.95 2.175,-5.175 l 2.775,-13.8 q -3.15,0.075 -5.85,2.4 -2.625,2.25 -4.2,6 -1.575,3.75 -1.575,7.95 0,2.325 0.9,3.45 0.975,1.125 2.625,1.125 z"
           style="font-style:normal;font-variant:normal;font-weight:normal;font-stretch:normal;font-size:75px;font-family:Pacifico;-inkscape-font-specification:Pacifico;letter-spacing:1px;fill:#000000;fill-opacity:1;stroke:#ffffff;stroke-width:13.10000038;stroke-miterlimit:4;stroke-dasharray:none;stroke-opacity:1"
           id="path4379" />
        <path
           d="m 195.24141,158.43616 q -2.85,0 -4.05,-3 -1.125,-3 -1.125,-9.6 0,-9.75 2.775,-18.525 0.675,-2.175 2.175,-3.15 1.575,-1.05 4.35,-1.05 1.5,0 2.1,0.375 0.6,0.375 0.6,1.425 0,1.2 -1.125,5.4 -0.75,3 -1.2,5.25 -0.45,2.175 -0.75,5.475 2.025,-5.85 4.8,-9.9 2.85,-4.05 5.775,-6 3,-2.025 5.625,-2.025 2.625,0 3.675,1.2 1.125,1.2 1.125,3.675 0,2.4 -1.425,8.7 -0.6,2.7 -0.825,4.05 3.75,-9.225 8.325,-13.425 4.575,-4.2 8.55,-4.2 4.875,0 4.875,4.875 0,2.925 -1.65,10.575 -1.425,6.525 -1.425,8.625 0,3 2.175,3 1.5,0 3.525,-1.8 2.1,-1.875 5.55,-6 0.9,-1.05 2.025,-1.05 0.975,0 1.5,0.9 0.6,0.9 0.6,2.475 0,3 -1.425,4.65 -3.225,3.975 -6.975,6.525 -3.675,2.55 -8.4,2.55 -3.825,0 -5.775,-2.175 -1.95,-2.25 -1.95,-6.45 0,-2.1 1.05,-7.5 0.975,-4.725 0.975,-6.525 0,-1.2 -0.825,-1.2 -0.975,0 -2.775,2.55 -1.8,2.475 -3.6,6.6 -1.8,4.125 -2.925,8.7 -0.825,3.6 -1.95,4.8 -1.05,1.2 -3.45,1.2 -2.475,0 -3.75,-2.325 -1.2,-2.4 -1.2,-5.775 0,-2.85 0.75,-8.25 0.6,-4.8 0.6,-6.3 0,-1.2 -0.825,-1.2 -1.125,0 -2.85,2.7 -1.725,2.7 -3.375,6.9 -1.575,4.2 -2.55,8.25 -0.825,3.525 -1.95,4.8 -1.05,1.2 -3.375,1.2 z"
           style="font-style:normal;font-variant:normal;font-weight:normal;font-stretch:normal;font-size:75px;font-family:Pacifico;-inkscape-font-specification:Pacifico;letter-spacing:1px;fill:#000000;fill-opacity:1;stroke:#ffffff;stroke-width:13.10000038;stroke-miterlimit:4;stroke-dasharray:none;stroke-opacity:1"
           id="path4381" />
        <path
           d="m 286.77695,141.33616 q 0.975,0 1.5,0.9 0.6,0.9 0.6,2.475 0,3 -1.425,4.65 -3.225,3.975 -6.975,6.525 -3.675,2.55 -8.4,2.55 -3.975,0 -6.45,-2.85 -4.275,2.775 -8.925,2.85 -0.975,14.475 -4.425,24.15 -3.45,9.75 -10.125,9.75 -4.05,0 -6,-2.925 -1.95,-2.925 -1.95,-8.1 0,-7.35 3.375,-17.175 3.375,-9.75 10.425,-21.525 0,-10.95 -0.15,-15.225 -0.075,-2.175 1.725,-3.45 1.8,-1.275 4.5,-1.275 1.575,0 2.25,0.675 0.75,0.6 0.825,2.475 0,1.875 0.075,2.775 2.4,-3 4.725,-4.275 2.325,-1.35 4.95,-1.35 4.2,0 6.825,3.375 2.7,3.375 2.7,8.85 0,3.975 -1.275,7.725 -1.275,3.75 -3.525,6.825 1.575,0.45 2.625,0.45 2.475,0 4.725,-1.8 2.25,-1.8 5.775,-6 0.9,-1.05 2.025,-1.05 z m -29.7,9.9 q 2.7,-0.6 4.95,-2.925 2.325,-2.4 3.675,-5.85 1.35,-3.525 1.35,-7.35 0,-2.25 -0.9,-3.375 -0.9,-1.2 -2.4,-1.2 -2.7,0 -6.525,5.7 -0.075,3.3 -0.075,9.675 0,3.45 -0.075,5.325 z m -14.325,33.75 q 2.025,0 3.375,-8.85 1.35,-8.775 1.725,-21.9 -3.225,7.5 -5.1,14.325 -1.875,6.825 -1.875,11.475 0,2.4 0.6,3.675 0.525,1.275 1.275,1.275 z"
           style="font-style:normal;font-variant:normal;font-weight:normal;font-stretch:normal;font-size:75px;font-family:Pacifico;-inkscape-font-specification:Pacifico;letter-spacing:1px;fill:#000000;fill-opacity:1;stroke:#ffffff;stroke-width:13.10000038;stroke-miterlimit:4;stroke-dasharray:none;stroke-opacity:1"
           id="path4383" />
        <path
           d="m 312.18711,141.33616 q 0.975,0 1.5,0.9 0.6,0.9 0.6,2.475 0,3 -1.425,4.65 -3.225,3.975 -7.05,6.525 -3.75,2.55 -8.55,2.55 -6.6,0 -9.825,-6 -3.15,-6 -3.15,-15.525 0,-9.15 2.325,-20.85 2.4,-11.7 6.975,-20.100004 4.65,-8.4 11.025,-8.4 3.6,0 5.625,3.375 2.1,3.3 2.1,9.525004 0,8.925 -4.95,20.7 -4.95,11.775 -13.425,23.325 0.525,3.075 1.725,4.425 1.2,1.275 3.15,1.275 3.075,0 5.4,-1.725 2.325,-1.8 5.925,-6.075 0.9,-1.05 2.025,-1.05 z m -9.225,-46.350004 q -1.725,0 -3.9,6.225004 -2.175,6.225 -3.825,15.45 -1.65,9.225 -1.8,17.7 5.325,-8.775 8.475,-17.55 3.15,-8.85 3.15,-16.125 0,-5.700004 -2.1,-5.700004 z"
           style="font-style:normal;font-variant:normal;font-weight:normal;font-stretch:normal;font-size:75px;font-family:Pacifico;-inkscape-font-specification:Pacifico;letter-spacing:1px;fill:#000000;fill-opacity:1;stroke:#ffffff;stroke-width:13.10000038;stroke-miterlimit:4;stroke-dasharray:none;stroke-opacity:1"
           id="path4385" />
        <path
           d="m 336.075,143.58616 q 0.975,0 1.5,0.9 0.6,0.9 0.6,2.475 0,2.7 -1.275,4.65 -2.1,3.225 -5.55,5.025 -3.375,1.8 -8.1,1.8 -7.2,0 -11.175,-4.275 -3.975,-4.35 -3.975,-11.7 0,-5.175 2.175,-9.6 2.175,-4.5 6,-7.125 3.9,-2.625 8.775,-2.625 4.35,0 6.975,2.625 2.625,2.55 2.625,6.975 0,5.175 -3.75,8.925 -3.675,3.675 -12.6,5.85 1.8,3.45 6.075,3.45 3.075,0 5.025,-1.425 2.025,-1.425 4.65,-4.8 0.9,-1.125 2.025,-1.125 z m -12.3,-13.125 q -2.775,0 -4.725,3.225 -1.875,3.225 -1.875,7.8 l 0,0.15 q 4.425,-1.05 6.975,-3.15 2.55,-2.1 2.55,-4.875 0,-1.425 -0.825,-2.25 -0.75,-0.9 -2.1,-0.9 z"
           style="font-style:normal;font-variant:normal;font-weight:normal;font-stretch:normal;font-size:75px;font-family:Pacifico;-inkscape-font-specification:Pacifico;letter-spacing:1px;fill:#000000;fill-opacity:1;stroke:#ffffff;stroke-width:13.10000038;stroke-miterlimit:4;stroke-dasharray:none;stroke-opacity:1"
           id="path4387" />
      </g>
      <g
         transform="translate(-124.54656,-79.201935)"
         style="font-style:normal;font-weight:normal;font-size:98.80249023px;line-height:125%;font-family:sans-serif;letter-spacing:4.94012451px;word-spacing:0px;display:inline;fill:#865e04;fill-opacity:1;stroke:none;stroke-width:4;stroke-linecap:butt;stroke-linejoin:miter;stroke-miterlimit:4;stroke-dasharray:none;stroke-opacity:1"
         id="flowRoot4168-1">
        <path
           d="m 114.25781,144.41116 q 1.125,-0.45 1.875,-0.45 1.2,0 1.8,0.9 0.6,0.9 0.6,2.325 0,2.25 -1.125,3.825 -1.05,1.575 -3.675,2.85 -4.425,2.1 -11.475,3.375 -7.049997,1.2 -13.874998,1.2 -9.45,0 -15.825,-2.1 -6.375,-2.175 -9.525,-5.925 -3.074999,-3.75 -3.074999,-8.475 0,-6.45 4.125,-10.95 4.2,-4.575 12.299999,-6.6 -4.424999,-1.275 -6.825,-4.5 -2.325,-3.225 -2.325,-7.2 0,-5.4 3.375,-9.525 3.45,-4.200004 9.225001,-6.450004 5.774999,-2.25 12.674999,-2.25 9.299998,0 13.949998,4.05 4.65,3.975004 4.65,10.350004 0,4.425 -1.65,7.2 -1.575,2.7 -4.575,2.7 -2.1,0 -3.3,-0.9 -1.2,-0.975 -1.2,-2.85 0,-1.275 0.375,-2.775 0.375,-2.475 0.375,-3.375 0,-2.7 -2.024998,-4.35 -2.024999,-1.725 -6.75,-1.725 -6.375,0 -10.199999,2.7 -3.825,2.7 -3.825,7.275 0,3.525 2.849999,5.85 2.925,2.25 9.45,2.475 1.650001,0.075 2.325001,0.75 0.674999,0.675 0.674999,2.25 0,4.95 -4.5,5.025 -6.224999,0.15 -10.349999,1.725 -4.050001,1.575 -5.925001,4.05 -1.8,2.4 -1.8,5.175 0,4.65 4.350001,7.05 4.349999,2.325 13.8,2.325 6.224999,0 13.124997,-1.425 6.975,-1.5 11.925,-3.6 z"
           style="font-style:normal;font-variant:normal;font-weight:normal;font-stretch:normal;font-size:75px;font-family:Pacifico;-inkscape-font-specification:Pacifico;letter-spacing:1px;fill:#865e04;fill-opacity:1;stroke:none;stroke-width:4;stroke-miterlimit:4;stroke-dasharray:none;stroke-opacity:1"
           id="path4390" />
        <path
           d="m 157.29883,141.33616 q 0.975,0 1.5,0.9 0.6,0.9 0.6,2.475 0,3 -1.425,4.65 -3.3,3.9 -7.275,6.525 -3.9,2.55 -8.85,2.55 -3.825,0 -6.825,-1.425 -2.925,-1.425 -4.65,-4.05 -4.275,5.4 -10.125,5.4 -4.125,0 -6.525,-2.4 -2.4,-2.4 -2.4,-6.375 0,-3.75 1.725,-6.075 1.725,-2.325 4.875,-2.325 2.7,0 2.7,2.025 0,0.525 -0.15,1.875 -0.225,2.7 -0.225,3.075 0,2.25 1.95,2.25 1.425,0 2.7,-1.65 1.35,-1.725 2.175,-4.65 0.9,-2.925 0.9,-6.45 0,-2.7 -0.675,-4.5 -0.675,-1.875 -1.65,-1.875 -0.825,0 -1.2,0.45 -0.375,0.375 -0.75,1.35 -0.45,1.2 -1.2,1.95 -0.75,0.675 -2.625,0.675 -1.65,0 -2.625,-1.125 -0.975,-1.2 -0.975,-3.6 0,-3.825 2.325,-6 2.325,-2.175 6,-2.175 3.15,0 5.7,1.575 2.55,1.5 3.9,4.425 2.25,-3 5.025,-4.5 2.85,-1.5 5.55,-1.5 2.925,0 4.425,1.35 1.575,1.35 1.575,4.35 0,3.375 -1.275,5.325 -1.275,1.875 -3.075,1.875 -1.65,0 -2.25,-0.675 -0.6,-0.675 -0.9,-1.95 -0.15,-0.9 -0.45,-1.35 -0.3,-0.45 -1.05,-0.45 -0.9,0 -1.95,1.725 -0.975,1.65 -1.725,4.425 -0.675,2.775 -0.675,5.775 0,3.525 1.65,5.475 1.725,1.875 4.65,1.875 2.925,0 5.475,-1.95 2.625,-2.025 6.075,-6.225 0.9,-1.05 2.025,-1.05 z"
           style="font-style:normal;font-variant:normal;font-weight:normal;font-stretch:normal;font-size:75px;font-family:Pacifico;-inkscape-font-specification:Pacifico;letter-spacing:1px;fill:#865e04;fill-opacity:1;stroke:none;stroke-width:4;stroke-miterlimit:4;stroke-dasharray:none;stroke-opacity:1"
           id="path4392" />
        <path
           d="m 162.83867,158.43616 q -4.65,0 -7.425,-3.375 -2.775,-3.375 -2.775,-8.85 0,-6 2.775,-11.325 2.775,-5.4 7.35,-8.625 4.65,-3.3 9.825,-3.3 1.65,0 2.175,0.675 0.6,0.6 0.975,2.25 1.575,-0.3 3.3,-0.3 3.675,0 3.675,2.625 0,1.575 -1.125,7.5 -1.725,8.625 -1.725,12 0,1.125 0.525,1.8 0.6,0.675 1.5,0.675 1.425,0 3.45,-1.8 2.025,-1.875 5.475,-6 0.9,-1.05 2.025,-1.05 0.975,0 1.5,0.9 0.6,0.9 0.6,2.475 0,3 -1.425,4.65 -3.075,3.825 -6.525,6.45 -3.45,2.625 -6.675,2.625 -2.475,0 -4.575,-1.65 -2.025,-1.725 -3.075,-4.65 -3.9,6.3 -9.825,6.3 z m 2.7,-7.575 q 1.65,0 3.15,-1.95 1.5,-1.95 2.175,-5.175 l 2.775,-13.8 q -3.15,0.075 -5.85,2.4 -2.625,2.25 -4.2,6 -1.575,3.75 -1.575,7.95 0,2.325 0.9,3.45 0.975,1.125 2.625,1.125 z"
           style="font-style:normal;font-variant:normal;font-weight:normal;font-stretch:normal;font-size:75px;font-family:Pacifico;-inkscape-font-specification:Pacifico;letter-spacing:1px;fill:#865e04;fill-opacity:1;stroke:none;stroke-width:4;stroke-miterlimit:4;stroke-dasharray:none;stroke-opacity:1"
           id="path4394" />
        <path
           d="m 195.24141,158.43616 q -2.85,0 -4.05,-3 -1.125,-3 -1.125,-9.6 0,-9.75 2.775,-18.525 0.675,-2.175 2.175,-3.15 1.575,-1.05 4.35,-1.05 1.5,0 2.1,0.375 0.6,0.375 0.6,1.425 0,1.2 -1.125,5.4 -0.75,3 -1.2,5.25 -0.45,2.175 -0.75,5.475 2.025,-5.85 4.8,-9.9 2.85,-4.05 5.775,-6 3,-2.025 5.625,-2.025 2.625,0 3.675,1.2 1.125,1.2 1.125,3.675 0,2.4 -1.425,8.7 -0.6,2.7 -0.825,4.05 3.75,-9.225 8.325,-13.425 4.575,-4.2 8.55,-4.2 4.875,0 4.875,4.875 0,2.925 -1.65,10.575 -1.425,6.525 -1.425,8.625 0,3 2.175,3 1.5,0 3.525,-1.8 2.1,-1.875 5.55,-6 0.9,-1.05 2.025,-1.05 0.975,0 1.5,0.9 0.6,0.9 0.6,2.475 0,3 -1.425,4.65 -3.225,3.975 -6.975,6.525 -3.675,2.55 -8.4,2.55 -3.825,0 -5.775,-2.175 -1.95,-2.25 -1.95,-6.45 0,-2.1 1.05,-7.5 0.975,-4.725 0.975,-6.525 0,-1.2 -0.825,-1.2 -0.975,0 -2.775,2.55 -1.8,2.475 -3.6,6.6 -1.8,4.125 -2.925,8.7 -0.825,3.6 -1.95,4.8 -1.05,1.2 -3.45,1.2 -2.475,0 -3.75,-2.325 -1.2,-2.4 -1.2,-5.775 0,-2.85 0.75,-8.25 0.6,-4.8 0.6,-6.3 0,-1.2 -0.825,-1.2 -1.125,0 -2.85,2.7 -1.725,2.7 -3.375,6.9 -1.575,4.2 -2.55,8.25 -0.825,3.525 -1.95,4.8 -1.05,1.2 -3.375,1.2 z"
           style="font-style:normal;font-variant:normal;font-weight:normal;font-stretch:normal;font-size:75px;font-family:Pacifico;-inkscape-font-specification:Pacifico;letter-spacing:1px;fill:#865e04;fill-opacity:1;stroke:none;stroke-width:4;stroke-miterlimit:4;stroke-dasharray:none;stroke-opacity:1"
           id="path4396" />
        <path
           d="m 286.77695,141.33616 q 0.975,0 1.5,0.9 0.6,0.9 0.6,2.475 0,3 -1.425,4.65 -3.225,3.975 -6.975,6.525 -3.675,2.55 -8.4,2.55 -3.975,0 -6.45,-2.85 -4.275,2.775 -8.925,2.85 -0.975,14.475 -4.425,24.15 -3.45,9.75 -10.125,9.75 -4.05,0 -6,-2.925 -1.95,-2.925 -1.95,-8.1 0,-7.35 3.375,-17.175 3.375,-9.75 10.425,-21.525 0,-10.95 -0.15,-15.225 -0.075,-2.175 1.725,-3.45 1.8,-1.275 4.5,-1.275 1.575,0 2.25,0.675 0.75,0.6 0.825,2.475 0,1.875 0.075,2.775 2.4,-3 4.725,-4.275 2.325,-1.35 4.95,-1.35 4.2,0 6.825,3.375 2.7,3.375 2.7,8.85 0,3.975 -1.275,7.725 -1.275,3.75 -3.525,6.825 1.575,0.45 2.625,0.45 2.475,0 4.725,-1.8 2.25,-1.8 5.775,-6 0.9,-1.05 2.025,-1.05 z m -29.7,9.9 q 2.7,-0.6 4.95,-2.925 2.325,-2.4 3.675,-5.85 1.35,-3.525 1.35,-7.35 0,-2.25 -0.9,-3.375 -0.9,-1.2 -2.4,-1.2 -2.7,0 -6.525,5.7 -0.075,3.3 -0.075,9.675 0,3.45 -0.075,5.325 z m -14.325,33.75 q 2.025,0 3.375,-8.85 1.35,-8.775 1.725,-21.9 -3.225,7.5 -5.1,14.325 -1.875,6.825 -1.875,11.475 0,2.4 0.6,3.675 0.525,1.275 1.275,1.275 z"
           style="font-style:normal;font-variant:normal;font-weight:normal;font-stretch:normal;font-size:75px;font-family:Pacifico;-inkscape-font-specification:Pacifico;letter-spacing:1px;fill:#865e04;fill-opacity:1;stroke:none;stroke-width:4;stroke-miterlimit:4;stroke-dasharray:none;stroke-opacity:1"
           id="path4398" />
        <path
           d="m 312.18711,141.33616 q 0.975,0 1.5,0.9 0.6,0.9 0.6,2.475 0,3 -1.425,4.65 -3.225,3.975 -7.05,6.525 -3.75,2.55 -8.55,2.55 -6.6,0 -9.825,-6 -3.15,-6 -3.15,-15.525 0,-9.15 2.325,-20.85 2.4,-11.7 6.975,-20.100004 4.65,-8.4 11.025,-8.4 3.6,0 5.625,3.375 2.1,3.3 2.1,9.525004 0,8.925 -4.95,20.7 -4.95,11.775 -13.425,23.325 0.525,3.075 1.725,4.425 1.2,1.275 3.15,1.275 3.075,0 5.4,-1.725 2.325,-1.8 5.925,-6.075 0.9,-1.05 2.025,-1.05 z m -9.225,-46.350004 q -1.725,0 -3.9,6.225004 -2.175,6.225 -3.825,15.45 -1.65,9.225 -1.8,17.7 5.325,-8.775 8.475,-17.55 3.15,-8.85 3.15,-16.125 0,-5.700004 -2.1,-5.700004 z"
           style="font-style:normal;font-variant:normal;font-weight:normal;font-stretch:normal;font-size:75px;font-family:Pacifico;-inkscape-font-specification:Pacifico;letter-spacing:1px;fill:#865e04;fill-opacity:1;stroke:none;stroke-width:4;stroke-miterlimit:4;stroke-dasharray:none;stroke-opacity:1"
           id="path4400" />
        <path
           d="m 336.075,143.58616 q 0.975,0 1.5,0.9 0.6,0.9 0.6,2.475 0,2.7 -1.275,4.65 -2.1,3.225 -5.55,5.025 -3.375,1.8 -8.1,1.8 -7.2,0 -11.175,-4.275 -3.975,-4.35 -3.975,-11.7 0,-5.175 2.175,-9.6 2.175,-4.5 6,-7.125 3.9,-2.625 8.775,-2.625 4.35,0 6.975,2.625 2.625,2.55 2.625,6.975 0,5.175 -3.75,8.925 -3.675,3.675 -12.6,5.85 1.8,3.45 6.075,3.45 3.075,0 5.025,-1.425 2.025,-1.425 4.65,-4.8 0.9,-1.125 2.025,-1.125 z m -12.3,-13.125 q -2.775,0 -4.725,3.225 -1.875,3.225 -1.875,7.8 l 0,0.15 q 4.425,-1.05 6.975,-3.15 2.55,-2.1 2.55,-4.875 0,-1.425 -0.825,-2.25 -0.75,-0.9 -2.1,-0.9 z"
           style="font-style:normal;font-variant:normal;font-weight:normal;font-stretch:normal;font-size:75px;font-family:Pacifico;-inkscape-font-specification:Pacifico;letter-spacing:1px;fill:#865e04;fill-opacity:1;stroke:none;stroke-width:4;stroke-miterlimit:4;stroke-dasharray:none;stroke-opacity:1"
           id="path4402" />
      </g>
      <g
         transform="translate(-70.271428,-96.60723)"
         style="font-style:normal;font-weight:normal;font-size:98.80249023px;line-height:125%;font-family:sans-serif;letter-spacing:4.94012451px;word-spacing:0px;fill:#865e04;fill-opacity:1;stroke:none;stroke-width:4;stroke-linecap:butt;stroke-linejoin:miter;stroke-miterlimit:4;stroke-dasharray:none;stroke-opacity:1"
         id="flowRoot4201-9">
        <path
           d="m 100.83281,113.2728 q 1.15,0 1.65,0.5 0.55,0.5 0.55,1.3 0,1.3 -0.8,2.3 -0.75,1 -2.399998,1.05 -3.999999,0.1 -7.1,-0.6 -3.55,7.45 -8.6,12.4 -5,4.9 -10.049999,4.9 -5.200001,0 -7.75,-6.05 -2.550001,-6.05 -2.550001,-16.35 0,-8.8 1.250001,-15.799998 0.449999,-2.6 1.25,-3.5 0.849999,-0.95 2.849999,-0.95 3.3,0 3.3,2.85 0,0.3 -0.1,1.1 -1.5,8.999998 -1.5,16.299998 0,7.65 1.25,11.65 1.299999,3.95 3.849999,3.95 2.600001,0 5.650001,-3.6 3.049999,-3.6 5.599999,-9.05 -3.05,-1.9 -4.599999,-4.9 -1.55,-3.05 -1.55,-7 0,-3.949998 1.199999,-6.649998 1.25,-2.75 3.350001,-4.1 2.149999,-1.35 4.75,-1.35 3.2,0 5.049999,2.3 1.900001,2.3 1.900001,6.299998 0,5.75 -2.5,12.55 2.65,0.45 6.049997,0.45 z m -14.749997,-9.85 q 0,4.9 3.149999,7.25 1.950001,-5.6 1.950001,-9.25 0,-2.099998 -0.550001,-3.049998 -0.549999,-1 -1.5,-1 -1.349999,0 -2.2,1.6 -0.849999,1.549998 -0.849999,4.449998 z"
           style="font-style:normal;font-variant:normal;font-weight:normal;font-stretch:normal;font-size:50px;font-family:Pacifico;-inkscape-font-specification:Pacifico;letter-spacing:1px;fill:#de1763;fill-opacity:1;stroke:none;stroke-width:4;stroke-miterlimit:4;stroke-dasharray:none;stroke-opacity:1"
           id="path4405" />
        <path
           d="m 104.31641,135.1228 q -2.25,0 -3.7,-2.05 -1.400004,-2.1 -1.400004,-5.2 0,-3.75 0.5,-6.85 0.500004,-3.15 1.650004,-6.65 0.5,-1.5 1.4,-2.15 0.9,-0.65 2.85,-0.65 1.1,0 1.5,0.35 0.45,0.35 0.45,1.05 0,0.4 -0.55,2.7 -0.5,1.85 -0.8,3.35 -1,5.25 -1,7 0,1.05 0.25,1.5 0.25,0.4 0.8,0.4 0.75,0 1.85,-1.5 1.15,-1.5 2.4,-4.55 1.3,-3.05 2.5,-7.5 0.4,-1.5 1.2,-2.15 0.85,-0.65 2.5,-0.65 1.15,0 1.6,0.3 0.45,0.25 0.45,1 0,1.25 -1.25,6.85 -1.4,6.4 -1.4,7.9 0,0.95 0.4,1.5 0.4,0.5 1.05,0.5 1,0 2.35,-1.2 1.4,-1.25 3.7,-4 0.6,-0.7 1.35,-0.7 0.65,0 1,0.6 0.4,0.6 0.4,1.65 0,2 -0.95,3.1 -2.15,2.65 -4.65,4.35 -2.45,1.7 -5.6,1.7 -2.4,0 -3.55,-1.85 -1.1,-1.85 -1.1,-5.2 -0.85,3.4 -2.55,5.25 -1.7,1.8 -3.65,1.8 z"
           style="font-style:normal;font-variant:normal;font-weight:normal;font-stretch:normal;font-size:50px;font-family:Pacifico;-inkscape-font-specification:Pacifico;letter-spacing:1px;fill:#de1763;fill-opacity:1;stroke:none;stroke-width:4;stroke-miterlimit:4;stroke-dasharray:none;stroke-opacity:1"
           id="path4407" />
        <path
           d="m 141.26094,125.2228 q 0.65,0 1,0.6 0.4,0.6 0.4,1.65 0,1.8 -0.85,3.1 -1.4,2.15 -3.7,3.35 -2.25,1.2 -5.4,1.2 -4.8,0 -7.45,-2.85 -2.65,-2.9 -2.65,-7.8 0,-3.45 1.45,-6.4 1.45,-3 4,-4.75 2.6,-1.75 5.85,-1.75 2.9,0 4.65,1.75 1.75,1.7 1.75,4.65 0,3.45 -2.5,5.95 -2.45,2.45 -8.4,3.9 1.2,2.3 4.05,2.3 2.05,0 3.35,-0.95 1.35,-0.95 3.1,-3.2 0.6,-0.75 1.35,-0.75 z m -8.2,-8.75 q -1.85,0 -3.15,2.15 -1.25,2.15 -1.25,5.2 l 0,0.1 q 2.95,-0.7 4.65,-2.1 1.7,-1.4 1.7,-3.25 0,-0.95 -0.55,-1.5 -0.5,-0.6 -1.4,-0.6 z"
           style="font-style:normal;font-variant:normal;font-weight:normal;font-stretch:normal;font-size:50px;font-family:Pacifico;-inkscape-font-specification:Pacifico;letter-spacing:1px;fill:#de1763;fill-opacity:1;stroke:none;stroke-width:4;stroke-miterlimit:4;stroke-dasharray:none;stroke-opacity:1"
           id="path4409" />
      </g>
    </g>
  </g>
</svg>
